<?xml version="1.0" standalone="yes"?>

<svg version="1.1" viewBox="0.0 0.0 118.81102362204724 123.69291338582677" fill="none" stroke="none" stroke-linecap="square" stroke-miterlimit="10" xmlns="http://www.w3.org/2000/svg" xmlns:xlink="http://www.w3.org/1999/xlink"><clipPath id="p.0"><path d="m0 0l118.81102 0l0 123.69292l-118.81102 0l0 -123.69292z" clip-rule="nonzero"></path></clipPath><g clip-path="url(#p.0)"><path fill="#000000" fill-opacity="0.0" d="m0 0l118.81102 0l0 123.69292l-118.81102 0z" fill-rule="evenodd"></path><path fill="#666666" d="m14.671035 35.43205l0 0c6.3112726 -15.490736 24.110455 -22.881168 39.755585 -16.506992l0 0c7.513054 3.0609875 13.51442 8.951702 16.683868 16.376255c3.1694489 7.424549 3.2473526 15.774757 0.216568 23.213673l0 0c-6.3112717 15.490738 -24.11045 22.881172 -39.75558 16.506989l0 0c-15.64513 -6.374176 -23.211716 -24.099186 -16.90044 -39.589924zm4.5085096 1.8368683l0 0c-5.2967997 13.000755 1.0736504 27.884846 14.2288 33.24455c13.155148 5.359703 28.113407 -0.8345947 33.410206 -13.83535l0 0c5.2967987 -13.000755 -1.0736542 -27.884848 -14.228798 -33.244553l0 0c-13.155151 -5.359701 -28.113409 0.83459663 -33.41021 13.835352z" fill-rule="evenodd"></path><path fill="#666666" d="m21.88746 38.3661l0 0c4.696762 -11.52799 17.96425 -17.01905 29.633768 -12.264627l0 0c5.603901 2.2831535 10.082298 6.671938 12.450001 12.200869c2.3676987 5.5289345 2.4307556 11.74511 0.17529297 17.281048l0 0c-4.696766 11.527992 -17.964256 17.01905 -29.633774 12.264626l0 0c-11.669516 -4.754421 -17.32205 -17.953922 -12.625288 -29.481915zm10.436636 4.252121c-2.348381 5.7639923 0.5352516 12.387119 6.440773 14.7931595c5.9055214 2.406044 12.596634 -0.31611633 14.945011 -6.0801125c2.348381 -5.7639923 -0.5352478 -12.387119 -6.440773 -14.7931595l0 0c-5.9055214 -2.406044 -12.59663 0.31611633 -14.945011 6.0801125z" fill-rule="evenodd"></path><path fill="#666666" d="m54.202778 7.1138034l8.635239 3.518189l1.2608528 2.9946432l-4.334358 10.638492l0 0l-12.890736 -5.251974l0 0l4.334362 -10.638494z" fill-rule="evenodd"></path><path fill="#666666" d="m23.15661 83.31522l8.635237 3.5181885l2.9946442 -1.2608566l4.334358 -10.638489l0 0l-12.890736 -5.251976l0 0l-4.33436 10.638489z" fill-rule="evenodd"></path><path fill="#666666" d="m3.1375072 35.768143l3.5181897 -8.635237l2.9946423 -1.2608566l10.638493 4.33436l0 0l-5.251975 12.890736l0 0l-10.638493 -4.334358z" fill-rule="evenodd"></path><path fill="#666666" d="m79.33893 66.81431l3.5181885 -8.635235l-1.2608566 -2.9946404l-10.638489 -4.334362l0 0l-5.251976 12.890736l0 0l10.638489 4.334358z" fill-rule="evenodd"></path><path fill="#666666" d="m22.741486 10.862336l8.594555 -3.6186304l3.0090637 1.2259598l4.457653 10.587305l0 0l-12.82958 5.4017334l0 0l-4.457651 -10.587305z" fill-rule="evenodd"></path><path fill="#666666" d="m54.670765 86.697105l8.594555 -3.6186295l1.2259598 -3.0090637l-4.457649 -10.587303l0 0l-12.829578 5.4017334l0 0l4.457649 10.587303z" fill-rule="evenodd"></path><path fill="#666666" d="m6.8860397 67.22944l-3.6186297 -8.594559l1.22596 -3.0090637l10.587304 -4.457653l0 0l5.4017344 12.829582l0 0l-10.587305 4.457653z" fill-rule="evenodd"></path><path fill="#666666" d="m82.72081 35.300156l-3.6186295 -8.594555l-3.0090637 -1.2259598l-10.587303 4.457651l0 0l5.4017334 12.82958l0 0l10.587303 -4.457653z" fill-rule="evenodd"></path><path fill="#666666" d="m67.21921 92.24515l0 0c0 -11.516739 9.428352 -20.852898 21.058823 -20.852898l0 0c5.585144 0 10.941536 2.1969986 14.890831 6.1076736c3.949295 3.910675 6.1679916 9.214691 6.1679916 14.745224l0 0c0 11.516739 -9.42836 20.852905 -21.058823 20.852905l0 0c-11.63047 0 -21.058823 -9.336166 -21.058823 -20.852905zm3.3518906 0l0 0c0 9.665543 7.9276657 17.501007 17.706932 17.501007c9.779266 0 17.706924 -7.8354645 17.706924 -17.501007l0 0c0 -9.665535 -7.927658 -17.501 -17.706924 -17.501l0 0c-9.779266 0 -17.706932 7.8354645 -17.706932 17.501z" fill-rule="evenodd"></path><path fill="#666666" d="m72.58226 92.24127l0 0c0 -8.570595 7.032501 -15.51844 15.707527 -15.51844l0 0c4.1658936 0 8.161163 1.6349792 11.106895 4.54525c2.945732 2.9102707 4.6006317 6.857445 4.6006317 10.97319l0 0c0 8.570595 -7.032501 15.51844 -15.707527 15.51844l0 0c-8.675026 0 -15.707527 -6.9478455 -15.707527 -15.51844zm7.7592163 0c0 4.285301 3.5585785 7.759224 7.948311 7.759224c4.3897247 0 7.948303 -3.4739227 7.948303 -7.759224c0 -4.2852936 -3.5585785 -7.7592163 -7.948303 -7.7592163l0 0c-4.3897324 0 -7.948311 3.4739227 -7.948311 7.7592163z" fill-rule="evenodd"></path><path fill="#666666" d="m85.067406 63.919315l6.4190826 0l1.5818939 1.5818977l0 7.9092865l0 0l-9.5828705 0l0 0l0 -7.9092865z" fill-rule="evenodd"></path><path fill="#666666" d="m85.067406 120.57201l6.4190826 0l1.5818939 -1.5818939l0 -7.909294l0 0l-9.5828705 0l0 0l0 7.909294z" fill-rule="evenodd"></path><path fill="#666666" d="m59.95318 95.45578l0 -6.4202423l1.581749 -1.581749l7.908577 0l0 0l0 9.58374l0 0l-7.908577 0z" fill-rule="evenodd"></path><path fill="#666666" d="m116.600716 95.45578l0 -6.4202423l-1.581749 -1.581749l-7.908577 0l0 0l0 9.58374l0 0l7.908577 0z" fill-rule="evenodd"></path><path fill="#666666" d="m65.98246 74.48248l4.5395966 -4.5400085l2.2369156 0l5.592148 5.592659l0 0l-6.7765045 6.7771225l0 0l-5.5921555 -5.592659z" fill-rule="evenodd"></path><path fill="#666666" d="m106.03794 114.541595l4.539589 -4.540001l0 -2.2371216l-5.592148 -5.592659l0 0l-6.776512 6.7771225l0 0l5.5921555 5.592659z" fill-rule="evenodd"></path><path fill="#666666" d="m70.51538 114.54217l-4.539589 -4.540001l0 -2.2371216l5.592148 -5.592659l0 0l6.7765045 6.7771225l0 0l-5.592148 5.592659z" fill-rule="evenodd"></path><path fill="#666666" d="m110.570854 74.483055l-4.539589 -4.5400085l-2.2369156 0l-5.5921555 5.592659l0 0l6.776512 6.7771225l0 0l5.592148 -5.592659z" fill-rule="evenodd"></path></g></svg>

