<?xml version="1.0" standalone="yes"?>

<svg version="1.1" viewBox="0.0 0.0 118.81102362204724 123.69291338582677" fill="none" stroke="none" stroke-linecap="square" stroke-miterlimit="10" xmlns="http://www.w3.org/2000/svg" xmlns:xlink="http://www.w3.org/1999/xlink"><clipPath id="p.0"><path d="m0 0l118.81102 0l0 123.69292l-118.81102 0l0 -123.69292z" clip-rule="nonzero"></path></clipPath><g clip-path="url(#p.0)"><path fill="#000000" fill-opacity="0.0" d="m0 0l118.81102 0l0 123.69292l-118.81102 0z" fill-rule="evenodd"></path><path fill="#666666" d="m29.810413 36.534122l0 0c0 -16.18586 13.249741 -29.307089 29.594124 -29.307089l0 0c7.8488503 0 15.376232 3.0877023 20.926205 8.583847c5.5499725 5.4961452 8.667915 12.950518 8.667915 20.723242l0 0c0 16.185856 -13.249741 29.307087 -29.59412 29.307087l0 0c-16.344383 0 -29.594124 -13.121231 -29.594124 -29.307087z" fill-rule="evenodd"></path><path fill="#666666" d="m19.404505 116.46588l0 -23.30709l0 0c0 -12.872147 17.908834 -23.307083 40.000504 -23.307083c22.091667 0 40.000504 10.434937 40.000504 23.307083l0 23.30709z" fill-rule="evenodd"></path></g></svg>

