<?xml version="1.0" encoding="UTF-8" standalone="no"?>
<svg
   xmlns:dc="http://purl.org/dc/elements/1.1/"
   xmlns:cc="http://creativecommons.org/ns#"
   xmlns:rdf="http://www.w3.org/1999/02/22-rdf-syntax-ns#"
   xmlns:svg="http://www.w3.org/2000/svg"
   xmlns="http://www.w3.org/2000/svg"
   version="1.1"
   id="svg11536"
   viewBox="0 0 1000 430.00001"
   height="430"
   width="1000">
  <defs
     id="defs11538">
    <clipPath
       id="clipPath3464"
       clipPathUnits="userSpaceOnUse">
      <path
         id="path3466"
         d="m 0,584.875 800,0 0,344 -800,0 0,-344 z" />
    </clipPath>
    <linearGradient
       id="linearGradient3472"
       spreadMethod="pad"
       gradientTransform="matrix(-1.5e-5,-344,-344,1.5e-5,399.99951,928.875)"
       gradientUnits="userSpaceOnUse"
       y2="0"
       x2="1"
       y1="0"
       x1="0">
      <stop
         id="stop3474"
         offset="0"
         style="stop-opacity:1;stop-color:#31182a" />
      <stop
         id="stop3476"
         offset="0.204472"
         style="stop-opacity:1;stop-color:#31182a" />
      <stop
         id="stop3478"
         offset="0.587689"
         style="stop-opacity:1;stop-color:#722636" />
      <stop
         id="stop3480"
         offset="0.776767"
         style="stop-opacity:1;stop-color:#c34726" />
      <stop
         id="stop3482"
         offset="0.944831"
         style="stop-opacity:1;stop-color:#fbde9e" />
      <stop
         id="stop3484"
         offset="1"
         style="stop-opacity:1;stop-color:#fef7c2" />
    </linearGradient>
    <clipPath
       id="clipPath3492"
       clipPathUnits="userSpaceOnUse">
      <path
         id="path3494"
         d="m 0,583.652 800,0 0,249.224 -800,0 0,-249.224 z" />
    </clipPath>
  </defs>
  <metadata
     id="metadata11541">
    <rdf:RDF>
      <cc:Work
         rdf:about="">
        <dc:format>image/svg+xml</dc:format>
        <dc:type
           rdf:resource="http://purl.org/dc/dcmitype/StillImage" />
        <dc:title></dc:title>
      </cc:Work>
    </rdf:RDF>
  </metadata>
  <g
     transform="translate(0,-622.36216)"
     id="layer1">
    <g
       id="g3460"
       transform="matrix(1.26375,0,0,-1.2761628,-4.000043,1800.7077)">
      <g
         clip-path="url(#clipPath3464)"
         id="g3462">
        <g
           id="g3468">
          <g
             id="g3470">
            <path
               id="path3486"
               style="fill:url(#linearGradient3472);stroke:none"
               d="m 0,584.875 800,0 0,344 -800,0 0,-344 z" />
          </g>
        </g>
      </g>
    </g>
    <g
       id="g3488"
       transform="matrix(1.26875,0,0,-1.26875,-5.1429,1796.4921)">
      <g
         clip-path="url(#clipPath3492)"
         id="g3490">
        <g
           transform="translate(0,583.875)"
           id="g3496">
          <path
             id="path3498"
             style="fill:#251521;fill-opacity:1;fill-rule:nonzero;stroke:none"
             d="m 0,0 0,73.16 c 1.819,2.074 2.911,4.557 4.028,7.029 2.613,4.169 4.037,8.756 5.496,13.441 2.031,6.52 1.212,13.641 4.578,19.808 0.186,0.177 0.398,0.335 0.553,0.534 5.412,6.861 6.792,15.528 10.52,23.142 0.782,1.599 -0.618,2.012 -1.517,2.615 -2.575,1.725 -5.192,3.39 -7.79,5.08 -3.536,3.591 -4.639,8.044 -5.159,12.909 -0.669,6.252 1.014,8.122 7.221,6.874 0.39,2.978 -0.492,6.23 1.716,8.826 1.685,1.009 3.334,2.299 5.37,0.715 -1.65,-0.87 -4.259,-0.764 -3.864,-3.726 -0.043,-0.086 -0.088,-0.173 -0.132,-0.258 0.049,0.08 0.099,0.162 0.147,0.244 1.713,0.022 4.034,0.186 4.369,-1.678 0.666,-3.693 2.63,-7.038 2.71,-10.849 0.056,-2.731 -0.859,-5.923 3.385,-6.65 0.484,-0.083 1.037,-1.211 1.126,-1.908 0.547,-4.317 3.217,-6.593 7.235,-7.517 1.451,-0.332 2.042,-0.914 2.447,-2.443 1.159,-4.391 4.167,-6.938 7.719,-7.062 l 0.005,-0.003 c -0.216,-2.054 -1.292,-4.446 2.029,-5.121 -0.69,-1.748 -2.241,-2.406 -3.871,-2.795 -2.488,-0.592 -5.017,-1.016 -7.529,-1.513 -2.293,2.383 -7.34,2.38 -7.585,-0.11 -0.451,-4.606 -0.768,-9.395 1.22,-13.781 2.418,-5.333 3.396,-10.635 1.351,-16.317 -0.791,-2.192 -1.299,-4.759 0.433,-6.628 3.956,-4.259 2.195,-9.81 3.711,-14.594 0.324,-1.015 -0.395,-1.979 -1.268,-2.657 -0.105,0.648 -0.208,1.297 -0.311,1.944 0.457,0.407 0.57,0.95 -0.065,1.112 -0.724,0.186 -0.625,-0.513 -0.644,-0.978 l -0.029,-0.039 c -0.218,-0.338 -0.436,-0.672 -0.654,-1.009 -0.119,-1.189 -0.238,-2.377 -0.359,-3.565 -1.828,-0.195 -0.759,3.274 -2.705,2.355 -1.65,-0.778 -0.769,-2.792 -0.954,-4.271 -0.441,-3.508 0.766,-6.904 0.738,-10.376 -0.022,-2.656 -0.663,-4.953 -4.085,-4.925 -0.775,0.006 -1.681,-0.028 -1.877,-0.989 -0.188,-0.926 0.723,-1.242 1.254,-1.777 2.645,-2.674 5.999,-2.78 9.432,-2.646 0.288,-1.596 1.635,-1.312 2.733,-1.605 4.492,-1.191 9.29,-5.925 8.91,-9.572 -0.454,-4.327 1.769,-6.155 5.285,-7.207 2.484,-0.742 5.037,-1.296 7.59,-1.761 2.192,-0.399 3.363,0.134 3.9,2.845 0.736,3.732 -0.024,7.608 1.224,11.822 2.864,-4.715 0.75,-9.881 3.16,-14.303 3.278,2.936 3.236,7.896 7.013,10.473 0.573,-2.693 -0.661,-4.862 -0.835,-7.172 -0.124,-1.656 -1.714,-3.78 1.129,-4.371 2.6,-0.54 5.036,-0.078 5.403,3.366 0.169,1.604 0.379,3.238 1.906,5.351 0.299,-3.678 1.343,-3.619 2.881,-1.432 0.736,1.044 1.931,1.761 2.17,3.154 0.225,1.329 0.676,3.005 2.324,2.223 1.609,-0.761 1.023,-2.575 0.125,-3.696 -1.599,-1.99 -1.475,-4.357 -1.917,-6.614 -0.184,-0.935 0.074,-1.436 1.077,-1.619 2.806,-0.506 5.856,1.447 6.839,4.226 1.071,3.018 2.322,5.976 3.528,8.947 0.24,0.595 0.619,1.186 1.435,0.986 0.643,-0.156 0.593,-0.759 0.712,-1.247 1.22,-5.075 1.253,-5.014 6.477,-4.029 4.831,0.91 10.341,-0.073 13.781,-2.167 6.724,-4.094 13.24,-2.717 19.978,-2.397 1.475,0.069 3.223,-0.245 4.51,0.899 3.019,2.68 6.718,3.086 10.515,3.225 5.12,0.187 10.072,-0.876 15.064,-1.804 4.058,-0.756 8.319,-1.609 12.137,0.725 4.324,2.64 8.821,2.947 12.878,0.312 4.444,-2.885 9.07,-3.511 14.069,-3.097 2.921,0.243 5.943,-1.491 8.769,0.372 4.449,2.932 9.41,2.069 12.677,-0.799 3.535,-3.105 7.393,-2.465 11.109,-3.395 1.472,-0.369 3.058,-0.313 4.598,-0.714 5.569,-1.446 11.294,-2.285 17.001,-1.555 3.778,0.482 7.519,0.536 11.289,0.676 5.634,0.213 10.267,-1.365 13.059,-6.626 0.823,-1.55 1.921,-2.607 3.7,-1.203 3.678,2.903 6.556,0.862 9.374,-1.454 1.187,-0.975 2.071,-2.261 3.839,-2.469 3.48,-0.407 6.933,-1.038 10.404,-1.51 9.906,-1.345 19.764,-2.997 29.784,-3.507 2.793,-0.141 4.83,-0.427 6.694,2.254 2.123,3.052 4.637,2.823 7.074,-0.071 0.585,-0.692 1.026,-1.501 1.613,-2.189 0.832,-0.976 1.947,-1.29 3.187,-1.001 1.613,0.377 1.347,1.723 1.32,2.838 -0.061,2.46 -0.221,4.918 -0.367,7.901 2.001,-1.875 2.777,-3.689 3.284,-5.687 0.281,-1.112 0.643,-2.223 1.13,-3.261 0.986,-2.095 3.12,-2.703 4.917,-2.176 2.014,0.592 0.867,2.556 0.677,4.039 -0.646,4.987 -0.931,10.035 -1.862,14.964 -1.164,6.175 -1.166,12.535 -3.089,18.576 0.232,0.637 -0.766,1.43 0.376,2.079 2.101,-3.288 3.576,-6.804 4.651,-10.5 3.245,-9.319 6.407,-18.66 8.313,-28.412 2.327,5.098 1.056,10.579 2.898,15.848 0.9,-4.919 -0.425,-9.728 0.968,-14.369 0.45,-1.501 0.833,-2.803 2.703,-2.624 1.95,0.188 2.106,1.694 2.014,3.171 -0.31,5.01 -0.391,10.055 -1.123,15.006 -0.632,4.286 -0.417,8.786 -2.526,12.797 -0.049,0.484 -0.096,0.965 -0.143,1.449 3.403,-2.512 3.418,-6.631 4.55,-10.103 1.593,-4.899 2.427,-10.044 3.686,-15.516 4.049,5.281 3.623,11.605 6.967,16.457 0.34,-2.162 0.264,-4.206 0.068,-6.24 -0.423,-4.366 -1.44,-8.681 -1.184,-13.104 0.056,-0.957 -0.519,-2.455 0.758,-2.714 1.637,-0.328 1.577,1.445 1.876,2.425 1.522,4.947 2.955,9.922 4.359,14.902 1.462,5.19 3.761,10.089 4.953,15.38 0.433,-0.495 0.56,-0.883 0.508,-1.246 -1.371,-9.575 -2.644,-19.169 -4.217,-28.714 -0.506,-3.072 1.012,-3.265 3.237,-3.261 2.577,0.003 2.874,2.101 3.18,3.757 1.222,6.6 2.206,13.242 3.332,19.86 0.502,2.968 0.369,6.1 2.375,9.826 0,-10.367 -0.017,-19.684 0.022,-28.999 0.006,-1.214 -0.463,-2.652 1.032,-3.472 2.834,-1.555 9.178,0.457 10.123,3.551 0.956,3.122 2.542,5.918 3.895,8.822 2.02,4.337 4.393,8.511 6.702,12.92 1.286,-1.304 0.978,-2.356 0.694,-3.305 -1.187,-3.961 -2.341,-7.938 -3.704,-11.843 -3.666,-10.495 -0.805,-9.043 7.366,-8.565 8.689,0.509 17.207,2.633 25.931,2.84 1.606,0.036 3.561,0.023 4.402,1.184 1.835,2.529 4.892,2.789 7.144,4.478 1.272,0.957 3.459,1.145 4.38,-0.056 2.979,-3.88 6.683,-2.504 10.319,-1.913 5.642,0.916 11.352,1.606 16.915,2.728 5.276,1.06 12.691,-1.371 14.816,6.809 0.075,0.276 0.57,0.509 0.916,0.637 7.21,2.656 14.555,3.155 21.382,-0.568 2.67,-1.457 5.089,-1.615 7.77,-1.624 3.019,-0.013 5.811,0.418 6.422,4.179 0.038,0.242 0.875,0.437 1.361,0.511 5.66,0.863 11.366,2.015 16.664,-1.338 1.169,-0.739 2.627,-1.648 3.533,-0.599 1.79,2.064 4.087,2.285 6.439,2.634 1.034,0.155 1.667,0.611 1.769,1.711 0.069,0.739 -0.031,1.753 1.03,1.784 0.858,0.024 1.244,-0.854 1.612,-1.532 0.49,-0.899 0.86,-1.863 1.368,-2.75 1.893,-3.301 4.488,-0.741 6.524,-0.407 2.05,0.336 1.412,2.446 0.476,3.756 -1.083,1.522 -2.687,3.346 -0.907,4.713 1.751,1.347 3.153,-0.907 4.533,-1.982 0.135,-0.105 0.466,0.038 0.408,0.032 1.737,1.392 0.869,3.731 2.355,5.39 1.643,-3.153 1.668,-6.316 2.167,-9.317 0.658,-3.947 3.383,-2.939 5.673,-2.646 2.151,0.274 4.221,0.51 3.383,4.062 -1.586,6.739 -2.455,13.644 -3.668,20.473 -0.227,1.288 -1.019,2.529 -0.291,3.96 0.965,-0.56 0.999,-1.369 1.195,-2.105 2.03,-7.603 5.3,-14.763 8.017,-22.121 0.835,-2.26 2.453,-2.513 4.382,-2.018 2.066,0.534 1.834,2.294 1.674,3.826 -0.107,1.016 -0.507,2.003 -0.807,2.996 -1.657,5.504 -3.322,11.004 -4.984,16.506 6.144,-6.223 7.768,-15.26 14.085,-21.421 -0.043,6.921 -4.004,13.053 -3.896,20.963 2.953,-4.132 5.542,-7.287 6.556,-11.389 0.213,-0.858 0.425,-1.962 1.601,-1.854 1.036,0.094 0.796,1.158 0.922,1.874 0.955,5.472 0.995,11.02 1.353,16.537 0.077,2.473 0.15,4.948 0.225,7.421 l 0.019,0.052 c 0.52,0.098 0.703,0.42 0.628,0.916 0.004,0.286 0.008,0.57 0.012,0.856 2.049,-2.718 -0.461,-6.145 1.407,-8.89 -0.386,-7.708 0.43,-15.323 1.738,-22.908 0.332,-1.92 1.347,-3.002 3.148,-2.329 1.451,0.543 3.576,0.962 2.181,3.798 -1.14,2.321 -2.196,5.08 -0.709,7.991 1.246,-0.982 0.709,-2.127 0.982,-3.07 0.219,-0.756 0.467,-1.683 1.437,-1.443 1.09,0.271 0.497,1.202 0.437,1.921 -0.165,1.92 -0.21,3.851 -0.406,5.767 -0.364,3.549 0.844,7.206 -0.744,10.665 0.088,1.467 0.179,2.937 0.269,4.408 0.053,0.087 0.154,0.179 0.146,0.26 -0.021,0.186 -0.093,0.369 -0.146,0.552 0.056,0.814 0.109,1.628 0.166,2.44 0.584,2.753 -0.224,5.686 1.172,9.243 1.108,-5.751 2.053,-10.648 2.997,-15.545 -0.451,-7.395 3.487,-13.974 3.995,-21.201 0.11,-1.558 -0.042,-3.614 2.706,-3.217 2.444,0.355 5.143,0.186 5.13,3.82 -0.007,2.631 0.618,5.154 1.459,8.007 2.096,-2.635 1.796,-5.297 1.59,-7.787 -0.275,-3.335 1.344,-4.086 4.181,-3.709 1.8,0.239 3.601,0.725 5.397,0.701 4.54,-0.061 9.285,-0.813 11.216,5.719 -1.19,-4.9 1.257,-5.131 4.381,-4.966 3.12,0.164 6.299,0.358 9.375,-0.047 5.259,-0.692 9.681,-0.295 14.483,3.017 3.832,2.641 5.567,5.954 7.575,9.515 1.386,0.223 2.21,0.939 2.149,2.425 0.015,0.769 0.03,1.538 0.047,2.307 1.927,-0.125 2.557,0.954 2.378,2.643 -0.27,2.551 -0.616,5.093 -0.928,7.64 -0.064,0.167 -0.172,0.298 -0.326,0.389 0.089,0.62 0.178,1.24 0.267,1.859 1.273,5.521 1.744,11.152 2.372,16.759 1.413,1.66 4.695,3.159 2.612,5.562 -2.718,3.138 -1.562,6.317 -0.974,9.26 0.356,1.787 0.498,3.155 -0.77,4.035 -5.539,3.842 -7.91,10.075 -10.71,15.512 -2.406,4.674 -6.343,8.32 -8.077,13.325 -0.437,1.267 -1.477,2.811 -2.631,3.27 -4.852,1.929 -4.639,6.609 -4.743,10.096 -0.095,3.092 -0.715,4.125 -3.393,4.541 -0.021,0.533 -0.042,1.064 -0.065,1.599 -0.112,1.446 -0.053,2.84 1.587,3.472 1.418,0.546 0.79,1.631 0.759,2.566 2.598,0.459 4.449,-1.106 6.308,-2.438 2.406,-1.725 4.67,-3.64 6.998,-5.473 1.644,-0.562 2.685,-1.875 3.881,-3.011 0.467,-0.444 10.463,1.619 10.701,2.238 1.065,2.764 3.525,3.855 5.897,5.131 2.715,1.462 2.936,3.596 0.742,6.038 0.224,1.139 0.21,2.217 -0.78,3.05 3.077,0.865 3.086,-1.973 3.57,-3.411 1.068,-3.163 1.531,-6.525 2.239,-9.805 -0.492,-4.117 -1.053,-8.217 -3.305,-11.844 -0.532,-0.86 -0.673,-1.683 -0.061,-2.522 4.002,-5.492 9.057,-9.658 15.502,-12.06 0.875,-0.836 1.88,-1.419 3.104,-1.574 l 0.029,-0.015 c 4.506,-2.446 9.097,-4.7 14.073,-6.069 0.262,-0.07 0.524,-0.14 0.788,-0.209 0.529,-0.353 1.011,-0.875 1.593,-1.028 3.309,-0.859 4.109,-2.875 4.137,-6.235 0.074,-8.503 -0.978,-16.969 -0.095,-25.523 0.7,-6.77 0.137,-13.671 0.11,-20.516 -0.035,-7.86 0.361,-15.722 0.358,-23.581 -0.006,-12.998 -0.136,-23.86 0,-36.857" />
        </g>
        <g
           transform="translate(774.501,644.7803)"
           id="g3500">
          <path
             id="path3502"
             style="fill:#251521;fill-opacity:1;fill-rule:nonzero;stroke:none"
             d="m 0,0 c -1.168,-3.703 -3.465,-6.939 -4.349,-10.791 -0.469,-2.058 0.179,-2.58 2.03,-2.583 3,-0.003 6.191,0.571 8.962,-0.243 6.059,-1.783 10.007,1.863 15.271,4.33 C 15.529,-5.999 9.665,-3.449 4.28,-0.027 3.664,2.043 3.046,4.114 2.429,6.187 2.197,6.172 1.965,6.155 1.732,6.138 1.154,4.093 0.578,2.046 0,0" />
        </g>
        <g
           transform="translate(746.2324,620.9512)"
           id="g3504">
          <path
             id="path3506"
             style="fill:#251521;fill-opacity:1;fill-rule:nonzero;stroke:none"
             d="m 0,0 c 7.716,-0.706 12.828,2.687 14.472,9.288 0.776,3.115 1.945,6.171 1.955,9.427 0.003,1.113 2.395,2.414 0.274,3.133 -1.777,0.603 -4.179,1.066 -5.647,-1.137 C 10.557,19.965 10.066,19.145 9.855,18.289 8.199,11.537 4.695,5.748 0,0" />
        </g>
        <g
           transform="translate(761.124,644.291)"
           id="g3508">
          <path
             id="path3510"
             style="fill:#251521;fill-opacity:1;fill-rule:nonzero;stroke:none"
             d="m 0,0 c 2.122,-0.429 3.368,0.659 3.833,2.932 0.65,3.17 1.404,6.318 2.089,9.478 0.236,1.1 0.042,2.154 -1.081,2.638 C 3.662,15.556 2.662,14.92 2.333,13.861 1.09,9.849 -1.502,6.395 -2.367,2.211 -2.801,0.118 -2.185,-0.426 0,0" />
        </g>
      </g>
    </g>
  </g>
</svg>
