<?xml version="1.0" encoding="UTF-8" standalone="no"?>
<!-- Created with Inkscape (http://www.inkscape.org/) -->
<svg id="svg5170" xmlns:rdf="http://www.w3.org/1999/02/22-rdf-syntax-ns#" xmlns="http://www.w3.org/2000/svg" xml:space="preserve" height="250" viewBox="0 0 250 250" width="250" version="1.1" xmlns:cc="http://creativecommons.org/ns#" xmlns:xlink="http://www.w3.org/1999/xlink" xmlns:dc="http://purl.org/dc/elements/1.1/"><circle id="path3518" cx="124.04" cy="124.2" r="123.8" fill="url(#radialGradient4383)"/><ellipse id="white " rx="88.873" ry="87.347" cy="123.53" cx="125.4" fill="url(#radialGradient4379)"/><metadata id="metadata5176"><rdf:RDF><cc:Work rdf:about=""><dc:format>image/svg+xml</dc:format><dc:type rdf:resource="http://purl.org/dc/dcmitype/StillImage"/><dc:title/></cc:Work></rdf:RDF></metadata><defs id="defs5174"><radialGradient id="radialGradient4379" gradientUnits="userSpaceOnUse" cy="118.1" cx="123.23" gradientTransform="matrix(.83703 .0035276 -.0035979 .85372 20.91 22.76)" r="88.873"><stop id="stop4363" stop-color="#fff" offset="0"/><stop id="stop4365" stop-color="#fff" offset="0.554"/><stop id="stop4367" stop-color="#fff" stop-opacity=".099992" offset=".81627"/><stop id="stop4369" stop-color="#fff" stop-opacity="0" offset="1"/></radialGradient><radialGradient id="radialGradient4383" gradientUnits="userSpaceOnUse" cy="117.62" cx="129.1" gradientTransform="matrix(1.393 0 0 1.393 -55.789 -39.637)" r="88.873"><stop id="stop4477" stop-color="#fff" offset="0"/><stop id="stop4479" stop-color="#ffff8f" stop-opacity=".412" offset=".35961"/><stop id="stop4481" stop-opacity=".099992" stop-color="#fff" offset=".78175"/><stop id="stop4483" stop-opacity="0" stop-color="#fff" offset="1"/></radialGradient></defs><path id="clan" fill="#20100a" d="m132.61 143.8c0.0388-0.14875 0.0775-0.29625 0.1175-0.44375 4.2262 0.19 8.4512 0.45375 12.679 0.53125 1.6425 0.03 3.0438 0.10125 3.9125 1.77 0.15875 0.30625 0.89875 0.3075 1.3688 0.45 0.0537-1.2275 0.31625-2.4988 0.0737-3.665-0.1325-0.64375-1.0888-1.545-1.7175-1.58-3.055-0.1775-6.1238-0.0688-9.1862-0.13-1.2125-0.025-2.4588-0.0925-3.62-0.40125-0.815-0.2175-1.5125-0.87625-2.1225-1.2525 2.7587-0.37875 5.4075-0.5225 7.9387-1.145 3.565-0.8775 7.0475-2.9088 10.464 0.3425 1.07-3.235-0.8225-5.63-3.8412-5.1175-1.58 0.26875-3.165 0.61375-4.6825 1.1175-4.2512 1.41-8.0025 0.47-11.214-2.4562-1.2875-1.1738-2.7112-2.63-3.1525-4.2138-1.1688-4.1875-1.65-8.4638 0.3125-12.695 2.0888-4.51 3.9125-9.1438 5.9337-13.688 0.51125-1.1512 1.3275-2.1662 2.1125-3.4175 4.6325 7.3737 10.379 10.245 15.545 7.9462 0.0962-7.4637-0.85-14.827-2.875-22.601-1.64 2.3238-2.0138 4.41-1.62 6.5912 0.39625 2.2062 1.09 4.3575 1.525 6.5588 0.4325 2.1925 0.77625 4.4112 0.98875 6.6337 0.0488 0.50875-0.48375 1.3975-0.95125 1.5762-3.2138 1.2275-9.54-3.3912-9.0975-6.8187 0.34-2.6438 0.0962-4.6738-2.4888-5.9238-0.0463-0.0225-0.005-0.22625-0.005-0.45125 0.79375-0.14375 1.6175-0.2925 2.6075-0.47125-0.64-1.9575-1.51-3.2287-3.475-3.4225-2.8825-0.285-1.4238 2.4675-2.67 3.4775-0.13625-0.75375 0.0138-1.4925-0.0225-2.2212-0.0337-0.6325-0.11125-1.6462-0.46625-1.7988-0.75124-0.3225-1.7475-0.37875-2.5387-0.16-0.34125 0.095-0.51375 1.1288-0.595 1.7588-0.0987 0.7825-0.0225 1.5875-0.0225 2.3825-0.275-0.001-0.5475-0.002-0.82125-0.005 0-0.885 0-1.77-0.001-2.655 0-1.0338-0.535-1.685-1.5338-1.4075-0.405 0.1125-0.74375 0.9325-0.865 1.485-0.14625 0.67625-0.035 1.4112-0.035 2.12-0.22-0.005-0.44-0.0113-0.66-0.0162-0.0312-0.53625-0.21125-1.1175-0.065-1.6012 0.5125-1.6962-0.345-2.0325-1.7612-2.0062-1.9925 0.035-2.5888 0.5675-2.5075 2.2162 0.0288 0.56375-0.13875 1.1375-0.21625 1.705-0.2275-0.0375-0.45625-0.075-0.68375-0.1125 0.0863-0.63875 0.33875-1.3112 0.21625-1.905-0.14-0.67125-0.48625-1.665-0.9725-1.825-1.1938-0.39625-1.4975 0.53625-1.51 1.57-0.01 0.785-0.0687 1.57-0.10625 2.3537-0.255-0.0113-0.51-0.0225-0.76375-0.035 0.0487-0.69875 0.19875-1.4087 0.11875-2.0925-0.0738-0.63875-0.39-1.2488-0.6-1.8712-0.43 0.49625-0.9775 0.9325-1.26 1.5025-0.35125 0.70875-0.485 1.525-0.71125 2.2962l-0.69-0.195c0.095-0.51875 0.2425-1.0362 0.26875-1.5587 0.0312-0.59125 0.14875-1.33-0.14625-1.7312-0.20375-0.27875-1.2425-0.3225-1.54-0.0575-0.37875 0.3375-0.44625 1.0825-0.5325 1.67-0.0825 0.5625-0.0175 1.1462-0.0175 1.7212-0.18875 0.002-0.37625 0.006-0.56375 0.01 0-1.0112 0.13125-2.0462-0.05-3.0237-0.1075-0.57875-0.60875-1.245-1.1225-1.53-0.36375-0.19875-1.3175 0.01-1.52 0.3375-0.3125 0.5075-0.29375 1.2788-0.2475 1.925 0.0237 0.32625 0.425 0.62125 0.63875 0.94125 0.705 1.0587 0.5 2.0237-0.76375 2.1437-2.8975 0.27625-3.51 2.325-4.1025 4.6-0.6125 2.35-1.2325 4.7287-2.2038 6.9387-0.42125 0.96125-1.6475 2.0375-2.645 2.1962-3.8775 0.6175-9.545-4.7512-7.5138-8.965 0.66875-1.3888 1.3912-2.7562 1.9738-4.1788 0.74375-1.8175 0.33125-2.7187-1.4962-3.6762-4.8075 5.555-2.6375 15.5 4.0075 18.364 3.625 1.5625 5.9162 0.7125 7.4775-2.8312 0.4375-0.99625 0.70875-2.0638 1.1062-3.0788 0.42375-1.0825 0.9075-2.14 1.4288-3.355 3.795 4.3537 6.2612 8.775 6.3662 14.432 0.11 5.8862 0.75 11.762 1.1712 17.842-0.66625 0.1975-1.6262 0.54125-2.615 0.7625-3.51 0.7875-5.945 2.935-7.6012 6.0212-0.60375 1.125-1.015 2.355-1.4912 3.5462-1.4 3.5088-2.5 7.1975-5.8612 9.4988-0.11375 0.0788-0.1075 0.3325-0.15875 0.50375 1.915 0.6075 3.9538-0.395 4.5938-2.225 0.8475-2.425 1.5525-4.9112 2.5912-7.25 0.63-1.42 1.6938-2.6825 2.7288-3.8712 0.385-0.44375 1.2388-0.47875 1.8775-0.7 0.11 0.1675 0.21875 0.335 0.32875 0.5025-0.66625 0.90625-1.3775 1.7825-1.985 2.7262-0.42875 0.66625-1.065 1.4488-1.0125 2.1338 0.35 4.56 0.485 9.0712-1.8225 13.762 2.39-0.9225 3.8775-2.0138 4.0212-4.205 0.17625-2.6888 0.23-5.3875 0.2575-8.0838 0.0225-2.3188 1.395-3.8938 4.2188-4.2938-0.5575 2.425-0.93375 4.7675-1.645 7.0025-1.34 4.21-0.825 8.015 1.575 11.754 2.15 3.3512 4.8688 6.57 3.9825 11.084 2.21-0.50125 2.915-1.3075 2.5112-3.0588-0.3275-1.425-0.97625-2.775-1.4575-4.1675-1.1712-3.3938-2.455-6.755-3.445-10.201-0.59625-2.0788-0.1925-4.1438 1.6512-6.1425 0.14625 3.9375 1.8838 6.5975 4.71 8.59 1.3112 0.925 2.6812 1.765 4.0325 2.63 2.2962 1.4688 5.5812 1.9925 5.2262 5.9062 2.0888-1.3662 2.2688-3.9175 0.3325-5.6538-2.8288-2.5338-5.8675-4.8325-8.7862-7.2675-0.39625-0.33-0.62-0.86625-0.925-1.3075 0.1525-0.15375 0.30375-0.30875 0.455-0.46375 4.2625 2.47 8.54 4.915 12.765 7.4475 0.54125 0.325 0.73875 1.1812 1.2225 1.6662 0.3275 0.3275 0.87625 0.4325 1.325 0.6375 0.30375-1.1962 0.7675-2.3838 0.83625-3.5925 0.0275-0.50125-0.68875-1.2475-1.2462-1.5438-3.0475-1.62-6.2025-3.05-9.205-4.7488-0.765-0.43375-1.1088-1.61-1.6475-2.445 0.16625-0.13625 0.33125-0.2725 0.49625-0.4075 1.7988 2.2762 4.4238 2.7175 6.985 3.36 3.37 0.845 7.0875 1.0925 8.8462 4.9375 1.725-2.62 1.2425-4.61-1.3638-5.6738-1.4188-0.58-2.9475-0.88625-4.4162-1.3512-1.555-0.49-3.0987-1.0238-4.645-1.5388m0.10875 28.852h-8.025c-1.5962 7.3175-2.97 14.829-8.7275 20.495 1.6638-6.9925 3.3112-13.918 4.9888-20.971-2.12-0.38625-4.305-0.845-6.5138-1.13-0.40625-0.0525-1.0375 0.5125-1.3375 0.9475-2.5775 3.7475-4.895 7.6975-7.725 11.239-1.6612 2.0788-4.1162 3.5238-6.5088 4.9775 5.01-5.2712 7.2112-11.981 10.228-18.398-2.9725-1.09-5.7875-2.1212-8.5975-3.1512-4.875 6.0425-10.849 10.765-17.558 14.678 4.6288-5.3512 9.2575-10.704 13.921-16.095-2.3325-1.37-4.4962-2.735-6.7662-3.8888-0.43625-0.22125-1.415 0.22875-1.9362 0.6325-6.0338 4.6762-12.822 7.4725-20.471 8.2475 6.7375-3.1425 13.015-6.9912 18.598-11.671-2.0162-2.34-3.905-4.6012-5.895-6.7675-0.3175-0.34625-1.1488-0.4875-1.6488-0.3575-5.1538 1.3462-10.291 2.7638-15.431 4.17-0.61125 0.1675-1.2112 0.38125-2.0388 0.205 1.7175-1.0638 3.3988-2.1938 5.1638-3.1738 1.85-1.025 3.7488-1.9812 5.6862-2.8275 1.9238-0.84125 3.9225-1.5088 5.9112-2.2612-0.62125-2.3725-1.2038-4.5988-1.865-7.1275-7.0225 0.93625-14.305 0.71-20.798 4.7838 1.4175-2.3038 4.9388-4.3788 9.5988-5.4475 3.6188-0.83 7.2938-1.4125 11.096-2.1338-0.0675-1.4588-0.13375-2.9062-0.2025-4.3725-7.28-0.85125-14.864-0.20875-20.382-6.2588 2.6062 0.7625 5.1688 1.835 7.83 2.2138 3.725 0.53125 7.5225 0.5525 11.291 0.77625 0.92625 0.0562 1.4225-0.3125 1.3825-1.35-0.0587-1.535-0.0137-3.075-0.0137-4.8112-6.1312-1.1788-12.282-2.1038-17.719-5.39 5.84 0.795 11.679 1.59 17.889 2.435 0.235-2.5838 0.53125-5.225 0.6475-7.875 0.0163-0.35125-0.8325-0.90125-1.375-1.0912-3.4512-1.2088-6.9288-2.3425-10.398-3.5012-0.7825-0.2625-1.5662-0.5275-2.35-0.79125 0.0337-0.20625 0.0662-0.41125 0.10125-0.6175 4.85 0.73125 9.7 1.4612 14.818 2.2325 0.61125-2.5062 1.32-5.2088 1.8725-7.9438 0.0625-0.3175-0.6725-0.945-1.1588-1.2012-3.9162-2.0687-7.865-4.0787-11.799-6.1175-0.425-0.22125-0.81125-0.51375-1.2175-0.77375 0.0625-0.15625 0.12375-0.3125 0.185-0.46875 5.09 1.6762 10.18 3.3512 15.346 5.0525 1.0538-2.2825 2.095-4.5388 3.2725-7.0938-5.0825-3.9162-10.188-7.8487-15.292-11.781 0.0813-0.15875 0.16375-0.31875 0.245-0.47875 6.0362 2.89 12.072 5.78 18.211 8.7187 1.5562-1.3825 3.3688-2.9912 5.3612-4.7612-3.6188-5.4362-8.8712-9.9138-10.956-16.94 5.3425 5.1375 10.361 9.9625 15.481 14.884 1.3138-0.85375 2.5863-1.6812 3.5775-2.325-2.5475-6.9988-5.0563-13.89-7.5663-20.78 0.185-0.085 0.36875-0.16875 0.55375-0.25375 1.1225 1.88 2.2862 3.7362 3.3588 5.6438 2.2325 3.9738 4.455 7.9562 6.5988 11.979 0.64875 1.22 1.3612 1.545 2.7462 1.2788 2.2538-0.435 4.5675-0.56375 7.0325-0.8425 1.0025-8.0038 1.2475-16.186 4.245-23.842 0.17875 0.0087 0.35625 0.01625 0.535 0.025v23.874c2.495 0 4.5975 0.06375 6.69-0.05125 0.43625-0.025 1.0462-0.63625 1.215-1.1075 0.5-1.385 0.85-2.8262 1.2012-4.2612 1.4788-6.0462 4.3288-11.326 9.0537-16.245-1.3462 3.98-2.615 7.3975-3.6512 10.884-1.0138 3.4188-1.79 6.9075-2.7238 10.568 2.6775 0.2725 4.89 0.5775 7.11 0.66 0.45875 0.0175 1.11-0.69625 1.3975-1.2238 3.2425-5.9375 7.8112-10.632 13.349-14.44 0.13125-0.09125 0.31625-0.105 0.13625-0.04875-3.2188 5.2312-6.5562 10.659-10.015 16.28 3.2812 1.2762 6.05 2.4175 8.8788 3.385 0.4325 0.1475 1.2125-0.42 1.71-0.81125 4.9962-3.9162 9.9662-7.8662 14.951-11.798 0.225-0.1775 0.515-0.275 1.025-0.11875-4.5125 4.9388-9.0275 9.8788-13.608 14.888 2.3825 1.6575 4.6362 3.2237 7.0638 4.9112 6.1688-5.1125 13.569-7.19 21.429-8.075-6.3588 3.3425-13.091 6.0537-18.519 10.984 1.6338 2.5087 3.145 4.96 4.8288 7.2862 0.28625 0.39375 1.3688 0.475 1.99 0.32125 5.545-1.375 11.069-2.8362 16.599-4.2688 0.24-0.0625 0.485-0.105 0.785-0.004-5.385 4.125-11.548 6.5188-18.178 8.2325 0.37875 1.84 0.71125 3.7975 1.2262 5.705 0.12 0.4425 0.85625 1.005 1.3212 1.0175 1.85 0.0487 3.7212 0.0262 5.5575-0.1975 3.5062-0.425 7.015-0.89375 10.48-1.5662 1.7962-0.34875 3.5-1.1712 5.4712-1.8588-1.3812 1.8038-3.0662 3.0912-5.1638 3.5212-4.8975 1.0062-9.8375 1.81-14.762 2.69-0.73875 0.1325-1.4825 0.24125-2.3825 0.3875 0.0937 1.7238 0.17875 3.295 0.24375 4.4725 8.04 0.89 16.115 0.585 22.155 6.9838-6.7962-4.0612-14.341-3.4762-21.945-3.7462v5.8062c3.1762 0.73875 6.3388 1.2988 9.3862 2.23 3.045 0.93 5.9762 2.23 8.8375 3.6962-6.0262-0.81375-12.054-1.6275-18.318-2.4725 0 2.545-0.0737 4.9738 0.0625 7.3912 0.0275 0.48625 0.76875 1.1388 1.3225 1.355 3.585 1.4 7.2088 2.7038 10.824 4.0288 0.6425 0.23625 1.3012 0.42625 1.9525 0.63625-0.0475 0.22375-0.0987 0.4475-0.14625 0.67125-4.74-0.82125-9.4788-1.6438-14.36-2.49-0.67875 2.3338-1.5025 4.9462-2.14 7.6038-0.0913 0.37875 0.6125 1.1412 1.1175 1.4375 3.7088 2.1788 7.4638 4.2838 11.2 6.4162 0.37875 0.21625 0.735 0.47 1.1038 0.70625-0.0712 0.1775-0.1425 0.35625-0.21375 0.535-4.8312-1.7262-9.665-3.4525-14.744-5.2675-1.0912 2.0612-2.2738 4.2938-3.585 6.7712 4.1175 3.2175 8.25 6.4475 12.384 9.6775l-0.1875 0.39375c-4.7325-2.2662-9.4625-4.5325-14.336-6.8675-1.8038 2.3038-3.65 4.6612-5.5812 7.125 2.6738 3.85 5.7112 7.5988 6.7888 12.435-2.4088-2.5225-4.815-5.0462-7.2262-7.5688-0.2225-0.2325-0.48875-0.42625-0.68625-0.67625-1.3312-1.6912-2.8338-2.1225-4.7825-0.9225-0.84125 0.5175-1.8988 0.68125-2.8738 1.0125 2.1112 6.4225 4.1888 12.736 6.265 19.051-0.175 0.085-0.35125 0.16875-0.5275 0.2525-1.1188-1.9262-2.2962-3.8212-3.3412-5.7875-2.0212-3.7975-4.0025-7.6175-5.9212-11.469-0.5225-1.05-1.0912-1.6088-2.3412-1.4512-1.0775 0.135-2.1825 0.0525-3.275 0.0538-2.6588 0.006-2.5888 0.01-2.8775 2.755-0.585 5.5538-1.2238 11.104-1.9125 16.644-0.1375 1.1125-0.59624 2.1838-0.90749 3.275-0.1725-0.0137-0.34375-0.0275-0.51625-0.04-0.28625-7.5138-0.57125-15.026-0.86375-22.726"/><ellipse id="path4623" opacity="0.412" rx="4.4155" ry=".24085" cy="124.52" cx="194.52" fill="#ffff8f"/></svg>
