<svg version="1.1" viewBox="0.0 0.0 957.0314960629921 539.0236220472441" fill="none" stroke="none" stroke-linecap="square" stroke-miterlimit="10" xmlns:xlink="http://www.w3.org/1999/xlink" xmlns="http://www.w3.org/2000/svg"><clipPath id="p.0"><path d="m0 0l957.0315 0l0 539.0236l-957.0315 0l0 -539.0236z" clip-rule="nonzero"/></clipPath><g clip-path="url(#p.0)"><path fill="#000000" fill-opacity="0.0" d="m0 0l957.0315 0l0 539.0236l-957.0315 0z" fill-rule="evenodd"/><path fill="#ffffff" d="m0.005249344 7.007307l0 0c0 -3.8700287 3.1372783 -7.007307 7.007307 -7.007307l943.0247 0c1.8584595 0 3.640808 0.7382677 4.954956 2.0523927c1.3140869 1.3141251 2.0523682 3.096461 2.0523682 4.954914l0 525.009c0 3.8700562 -3.137268 7.007324 -7.007324 7.007324l-943.0247 0c-3.870029 0 -7.007307 -3.137268 -7.007307 -7.007324z" fill-rule="evenodd"/><path stroke="#cccccc" stroke-width="1.0" stroke-linejoin="round" stroke-linecap="butt" d="m0.005249344 7.007307l0 0c0 -3.8700287 3.1372783 -7.007307 7.007307 -7.007307l943.0247 0c1.8584595 0 3.640808 0.7382677 4.954956 2.0523927c1.3140869 1.3141251 2.0523682 3.096461 2.0523682 4.954914l0 525.009c0 3.8700562 -3.137268 7.007324 -7.007324 7.007324l-943.0247 0c-3.870029 0 -7.007307 -3.137268 -7.007307 -7.007324z" fill-rule="evenodd"/><path fill="#93c47d" d="m301.86038 339.1863l0 0c0 -1.9730225 1.5994568 -3.5724792 3.5724792 -3.5724792l163.40622 0c0.94747925 0 1.8561401 0.3763733 2.526123 1.0463562c0.6699524 0.6699524 1.0463562 1.5786438 1.0463562 2.526123l0 39.658173c0 1.9730225 -1.5994568 3.5724792 -3.5724792 3.5724792l-163.40622 0c-1.9730225 0 -3.5724792 -1.5994568 -3.5724792 -3.5724792z" fill-rule="evenodd"/><path stroke="#274e13" stroke-width="4.0" stroke-linejoin="round" stroke-linecap="butt" d="m301.86038 339.1863l0 0c0 -1.9730225 1.5994568 -3.5724792 3.5724792 -3.5724792l163.40622 0c0.94747925 0 1.8561401 0.3763733 2.526123 1.0463562c0.6699524 0.6699524 1.0463562 1.5786438 1.0463562 2.526123l0 39.658173c0 1.9730225 -1.5994568 3.5724792 -3.5724792 3.5724792l-163.40622 0c-1.9730225 0 -3.5724792 -1.5994568 -3.5724792 -3.5724792z" fill-rule="evenodd"/><path fill="#274e13" d="m341.7772 363.20602q-0.46875 0.1875 -0.953125 0.34375q-0.46875 0.15625 -0.984375 0.265625q-0.5 0.125 -1.0625 0.171875q-0.5625 0.0625 -1.203125 0.0625q-1.359375 0 -2.515625 -0.28125q-1.140625 -0.296875 -1.984375 -0.875q-0.828125 -0.59375 -1.296875 -1.46875q-0.453125 -0.890625 -0.453125 -2.078125q0 -1.171875 0.453125 -2.046875q0.46875 -0.890625 1.296875 -1.46875q0.84375 -0.59375 1.984375 -0.890625q1.15625 -0.296875 2.515625 -0.296875q0.640625 0 1.203125 0.0625q0.5625 0.0625 1.0625 0.171875q0.515625 0.109375 0.984375 0.265625q0.484375 0.15625 0.953125 0.359375l0 2.171875q-0.375 -0.203125 -0.78125 -0.390625q-0.40625 -0.203125 -0.90625 -0.359375q-0.484375 -0.171875 -1.078125 -0.265625q-0.59375 -0.109375 -1.34375 -0.109375q-1.140625 0 -1.890625 0.234375q-0.75 0.234375 -1.203125 0.625q-0.4375 0.390625 -0.625 0.90625q-0.1875 0.5 -0.1875 1.03125q0 0.359375 0.078125 0.71875q0.078125 0.34375 0.265625 0.65625q0.1875 0.296875 0.46875 0.5625q0.296875 0.265625 0.734375 0.453125q0.4375 0.1875 1.015625 0.296875q0.59375 0.109375 1.34375 0.109375q0.75 0 1.34375 -0.09375q0.59375 -0.109375 1.078125 -0.265625q0.5 -0.15625 0.90625 -0.34375q0.40625 -0.203125 0.78125 -0.40625l0 2.171875l0 0zm13.823395 -3.859375q0 1.15625 -0.421875 2.046875q-0.421875 0.875 -1.21875 1.46875q-0.78125 0.59375 -1.90625 0.890625q-1.125 0.296875 -2.515625 0.296875q-1.40625 0 -2.53125 -0.296875q-1.125 -0.296875 -1.921875 -0.890625q-0.796875 -0.59375 -1.234375 -1.46875q-0.421875 -0.890625 -0.421875 -2.046875q0 -1.140625 0.421875 -2.015625q0.4375 -0.890625 1.234375 -1.484375q0.796875 -0.59375 1.921875 -0.890625q1.125 -0.3125 2.53125 -0.3125q1.390625 0 2.515625 0.3125q1.125 0.296875 1.90625 0.890625q0.796875 0.59375 1.21875 1.484375q0.421875 0.875 0.421875 2.015625zm-2.4375 0q0 -0.5 -0.171875 -1.0q-0.15625 -0.5 -0.5625 -0.890625q-0.40625 -0.390625 -1.109375 -0.640625q-0.703125 -0.25 -1.78125 -0.25q-0.734375 0 -1.296875 0.125q-0.546875 0.109375 -0.953125 0.3125q-0.390625 0.1875 -0.671875 0.46875q-0.265625 0.265625 -0.4375 0.578125q-0.15625 0.3125 -0.234375 0.640625q-0.0625 0.328125 -0.0625 0.65625q0 0.34375 0.0625 0.6875q0.078125 0.328125 0.234375 0.640625q0.171875 0.296875 0.4375 0.578125q0.28125 0.265625 0.671875 0.46875q0.40625 0.1875 0.953125 0.3125q0.5625 0.109375 1.296875 0.109375q1.078125 0 1.78125 -0.25q0.703125 -0.25 1.109375 -0.640625q0.40625 -0.40625 0.5625 -0.90625q0.171875 -0.5 0.171875 -1.0zm7.0519104 0.640625q0 0.5625 0.09375 0.921875q0.109375 0.34375 0.34375 0.5625q0.234375 0.203125 0.609375 0.28125q0.375 0.078125 0.921875 0.078125l4.578125 0l0 1.984375l-5.0625 0q-1.0625 0 -1.796875 -0.171875q-0.734375 -0.171875 -1.203125 -0.53125q-0.46875 -0.359375 -0.6875 -0.90625q-0.203125 -0.5625 -0.203125 -1.328125l0 -6.0l2.40625 0l0 5.109375zm10.900696 0q0 0.5625 0.09375 0.921875q0.109375 0.34375 0.34375 0.5625q0.234375 0.203125 0.609375 0.28125q0.375 0.078125 0.921875 0.078125l4.578125 0l0 1.984375l-5.0625 0q-1.0625 0 -1.796875 -0.171875q-0.734375 -0.171875 -1.203125 -0.53125q-0.46875 -0.359375 -0.6875 -0.90625q-0.203125 -0.5625 -0.203125 -1.328125l0 -6.0l2.40625 0l0 5.109375zm18.463196 3.390625q-1.109375 0.359375 -2.203125 0.515625q-1.09375 0.15625 -2.234375 0.15625q-1.46875 0 -2.609375 -0.3125q-1.140625 -0.3125 -1.921875 -0.90625q-0.78125 -0.609375 -1.203125 -1.46875q-0.40625 -0.859375 -0.40625 -1.953125q0 -1.015625 0.40625 -1.890625q0.421875 -0.875 1.171875 -1.515625q0.765625 -0.640625 1.84375 -1.0q1.078125 -0.359375 2.390625 -0.359375q1.21875 0 2.234375 0.328125q1.015625 0.328125 1.734375 0.984375q0.71875 0.640625 1.125 1.578125q0.40625 0.9375 0.40625 2.171875l0 0.609375l-8.8125 0q0.109375 0.421875 0.375 0.78125q0.28125 0.34375 0.734375 0.59375q0.46875 0.234375 1.140625 0.375q0.671875 0.140625 1.609375 0.140625q0.671875 0 1.296875 -0.078125q0.640625 -0.09375 1.1875 -0.21875q0.5625 -0.140625 1.0 -0.296875q0.453125 -0.171875 0.734375 -0.328125l0 2.09375zm-1.671875 -4.84375q-0.03125 -0.328125 -0.203125 -0.671875q-0.15625 -0.359375 -0.515625 -0.640625q-0.359375 -0.296875 -0.9375 -0.484375q-0.578125 -0.1875 -1.453125 -0.1875q-0.8125 0 -1.40625 0.203125q-0.59375 0.203125 -1.0 0.5q-0.390625 0.296875 -0.609375 0.640625q-0.21875 0.34375 -0.28125 0.640625l6.40625 0zm14.445496 4.671875q-0.46875 0.1875 -0.953125 0.34375q-0.46875 0.15625 -0.984375 0.265625q-0.5 0.125 -1.0625 0.171875q-0.5625 0.0625 -1.203125 0.0625q-1.359375 0 -2.515625 -0.28125q-1.140625 -0.296875 -1.984375 -0.875q-0.828125 -0.59375 -1.296875 -1.46875q-0.453125 -0.890625 -0.453125 -2.078125q0 -1.171875 0.453125 -2.046875q0.46875 -0.890625 1.296875 -1.46875q0.84375 -0.59375 1.984375 -0.890625q1.15625 -0.296875 2.515625 -0.296875q0.640625 0 1.203125 0.0625q0.5625 0.0625 1.0625 0.171875q0.515625 0.109375 0.984375 0.265625q0.484375 0.15625 0.953125 0.359375l0 2.171875q-0.375 -0.203125 -0.78125 -0.390625q-0.40625 -0.203125 -0.90625 -0.359375q-0.484375 -0.171875 -1.078125 -0.265625q-0.59375 -0.109375 -1.34375 -0.109375q-1.140625 0 -1.890625 0.234375q-0.75 0.234375 -1.203125 0.625q-0.4375 0.390625 -0.625 0.90625q-0.1875 0.5 -0.1875 1.03125q0 0.359375 0.078125 0.71875q0.078125 0.34375 0.265625 0.65625q0.1875 0.296875 0.46875 0.5625q0.296875 0.265625 0.734375 0.453125q0.4375 0.1875 1.015625 0.296875q0.59375 0.109375 1.34375 0.109375q0.75 0 1.34375 -0.09375q0.59375 -0.109375 1.078125 -0.265625q0.5 -0.15625 0.90625 -0.34375q0.40625 -0.203125 0.78125 -0.40625l0 2.171875l0 0zm7.260895 -6.390625l0 7.0l-2.40625 0l0 -7.0l-3.796875 0l0 -1.9375l10.0 0l0 1.9375l-3.796875 0zm5.4060974 7.0l0 -8.9375l2.40625 0l0 8.9375l-2.40625 0zm11.212799 0l-2.8125 0l-4.53125 -8.9375l2.703125 0l3.25 6.71875l3.25 -6.71875l2.6875 0l-4.546875 8.9375zm15.9888 -0.4375q-1.109375 0.359375 -2.203125 0.515625q-1.09375 0.15625 -2.234375 0.15625q-1.46875 0 -2.609375 -0.3125q-1.140625 -0.3125 -1.921875 -0.90625q-0.78125 -0.609375 -1.203125 -1.46875q-0.40625 -0.859375 -0.40625 -1.953125q0 -1.015625 0.40625 -1.890625q0.421875 -0.875 1.171875 -1.515625q0.765625 -0.640625 1.84375 -1.0q1.078125 -0.359375 2.390625 -0.359375q1.21875 0 2.234375 0.328125q1.015625 0.328125 1.734375 0.984375q0.71875 0.640625 1.125 1.578125q0.40625 0.9375 0.40625 2.171875l0 0.609375l-8.8125 0q0.109375 0.421875 0.375 0.78125q0.28125 0.34375 0.734375 0.59375q0.46875 0.234375 1.140625 0.375q0.671875 0.140625 1.609375 0.140625q0.671875 0 1.296875 -0.078125q0.640625 -0.09375 1.1875 -0.21875q0.5625 -0.140625 1.0 -0.296875q0.453125 -0.171875 0.734375 -0.328125l0 2.09375zm-1.671875 -4.84375q-0.03125 -0.328125 -0.203125 -0.671875q-0.15625 -0.359375 -0.515625 -0.640625q-0.359375 -0.296875 -0.9375 -0.484375q-0.578125 -0.1875 -1.453125 -0.1875q-0.8125 0 -1.40625 0.203125q-0.59375 0.203125 -1.0 0.5q-0.390625 0.296875 -0.609375 0.640625q-0.21875 0.34375 -0.28125 0.640625l6.40625 0z" fill-rule="nonzero"/><path fill="#93c47d" d="m69.75625 339.1804l0 0c0 -1.9730225 1.5994568 -3.5724792 3.5724869 -3.5724792l163.4062 0c0.9474945 0 1.8561707 0.3763733 2.5261383 1.0463562c0.66996765 0.6699524 1.0463562 1.5786438 1.0463562 2.526123l0 39.658173c0 1.9730225 -1.5994568 3.5724792 -3.5724945 3.5724792l-163.4062 0c-1.9730301 0 -3.5724869 -1.5994568 -3.5724869 -3.5724792z" fill-rule="evenodd"/><path stroke="#274e13" stroke-width="4.0" stroke-linejoin="round" stroke-linecap="butt" d="m69.75625 339.1804l0 0c0 -1.9730225 1.5994568 -3.5724792 3.5724869 -3.5724792l163.4062 0c0.9474945 0 1.8561707 0.3763733 2.5261383 1.0463562c0.66996765 0.6699524 1.0463562 1.5786438 1.0463562 2.526123l0 39.658173c0 1.9730225 -1.5994568 3.5724792 -3.5724945 3.5724792l-163.4062 0c-1.9730301 0 -3.5724869 -1.5994568 -3.5724869 -3.5724792z" fill-rule="evenodd"/><path fill="#274e13" d="m143.3809 360.79385q0 0.671875 -0.328125 1.265625q-0.328125 0.59375 -1.0 1.046875q-0.65625 0.4375 -1.65625 0.6875q-0.984375 0.25 -2.3125 0.25q-1.328125 0 -2.328125 -0.25q-1.0 -0.25 -1.671875 -0.6875q-0.65625 -0.453125 -1.0 -1.046875q-0.328125 -0.59375 -0.328125 -1.265625l0 -5.921875l2.40625 0l0 5.0625q0 0.453125 0.109375 0.859375q0.125 0.390625 0.4375 0.6875q0.3125 0.296875 0.875 0.484375q0.578125 0.171875 1.5 0.171875q0.90625 0 1.46875 -0.171875q0.5625 -0.1875 0.875 -0.484375q0.3125 -0.296875 0.421875 -0.6875q0.125 -0.40625 0.125 -0.859375l0 -5.0625l2.40625 0l0 5.921875l0 0zm10.976578 -3.40625q-0.25 -0.125 -0.671875 -0.28125q-0.421875 -0.15625 -0.953125 -0.296875q-0.515625 -0.140625 -1.140625 -0.234375q-0.609375 -0.09375 -1.265625 -0.09375q-0.515625 0 -0.890625 0.03125q-0.359375 0.03125 -0.609375 0.09375q-0.25 0.046875 -0.40625 0.125q-0.140625 0.0625 -0.21875 0.140625q-0.078125 0.0625 -0.109375 0.140625q-0.015625 0.0625 -0.015625 0.125q0 0.1875 0.1875 0.34375q0.203125 0.140625 0.53125 0.25q0.34375 0.109375 0.796875 0.21875q0.453125 0.09375 0.953125 0.203125q0.5 0.109375 1.03125 0.234375q0.546875 0.125 1.046875 0.296875q0.515625 0.171875 0.953125 0.40625q0.453125 0.21875 0.78125 0.515625q0.34375 0.296875 0.53125 0.6875q0.203125 0.390625 0.203125 0.890625q0 0.640625 -0.234375 1.109375q-0.21875 0.46875 -0.609375 0.78125q-0.375 0.3125 -0.875 0.515625q-0.5 0.1875 -1.046875 0.28125q-0.546875 0.109375 -1.109375 0.140625q-0.5625 0.03125 -1.078125 0.03125q-1.328125 0 -2.453125 -0.21875q-1.125 -0.203125 -2.0 -0.53125l0 -2.140625q0.90625 0.5 2.046875 0.78125q1.140625 0.28125 2.4375 0.28125q0.765625 0 1.25 -0.078125q0.484375 -0.09375 0.75 -0.21875q0.28125 -0.125 0.375 -0.265625q0.109375 -0.15625 0.109375 -0.296875q0 -0.21875 -0.203125 -0.375q-0.1875 -0.15625 -0.53125 -0.28125q-0.34375 -0.125 -0.796875 -0.21875q-0.4375 -0.09375 -0.953125 -0.1875q-0.5 -0.109375 -1.03125 -0.21875q-0.53125 -0.125 -1.03125 -0.28125q-0.5 -0.171875 -0.953125 -0.375q-0.453125 -0.21875 -0.796875 -0.5q-0.328125 -0.296875 -0.53125 -0.671875q-0.1875 -0.390625 -0.1875 -0.890625q0 -0.59375 0.203125 -1.015625q0.203125 -0.4375 0.5625 -0.734375q0.359375 -0.296875 0.8125 -0.484375q0.46875 -0.203125 0.984375 -0.296875q0.515625 -0.109375 1.046875 -0.140625q0.53125 -0.046875 1.0 -0.046875q0.515625 0 1.0625 0.0625q0.5625 0.046875 1.09375 0.140625q0.53125 0.09375 1.03125 0.21875q0.5 0.125 0.921875 0.25l0 2.078125zm12.999512 5.984375q-1.109375 0.359375 -2.203125 0.515625q-1.09375 0.15625 -2.234375 0.15625q-1.46875 0 -2.609375 -0.3125q-1.140625 -0.3125 -1.921875 -0.90625q-0.78125 -0.609375 -1.203125 -1.46875q-0.40625 -0.859375 -0.40625 -1.953125q0 -1.015625 0.40625 -1.890625q0.421875 -0.875 1.171875 -1.515625q0.765625 -0.640625 1.84375 -1.0q1.078125 -0.359375 2.390625 -0.359375q1.21875 0 2.234375 0.328125q1.015625 0.328125 1.734375 0.984375q0.71875 0.640625 1.125 1.578125q0.40625 0.9375 0.40625 2.171875l0 0.609375l-8.8125 0q0.109375 0.421875 0.375 0.78125q0.28125 0.34375 0.734375 0.59375q0.46875 0.234375 1.140625 0.375q0.671875 0.140625 1.609375 0.140625q0.671875 0 1.296875 -0.078125q0.640625 -0.09375 1.1875 -0.21875q0.5625 -0.140625 1.0 -0.296875q0.453125 -0.171875 0.734375 -0.328125l0 2.09375zm-1.671875 -4.84375q-0.03125 -0.328125 -0.203125 -0.671875q-0.15625 -0.359375 -0.515625 -0.640625q-0.359375 -0.296875 -0.9375 -0.484375q-0.578125 -0.1875 -1.453125 -0.1875q-0.8125 0 -1.40625 0.203125q-0.59375 0.203125 -1.0 0.5q-0.390625 0.296875 -0.609375 0.640625q-0.21875 0.34375 -0.28125 0.640625l6.40625 0zm12.82048 -1.640625q-0.09375 -0.03125 -0.28125 -0.078125q-0.1875 -0.0625 -0.4375 -0.109375q-0.25 -0.0625 -0.546875 -0.09375q-0.296875 -0.046875 -0.609375 -0.046875q-0.640625 0 -1.203125 0.15625q-0.5625 0.15625 -1.0625 0.421875q-0.484375 0.265625 -0.90625 0.609375q-0.40625 0.328125 -0.765625 0.6875l0 5.375l-2.40625 0l0 -8.9375l2.40625 0l0 1.453125q0.4375 -0.328125 0.890625 -0.625q0.46875 -0.3125 0.953125 -0.546875q0.5 -0.234375 1.046875 -0.375q0.5625 -0.140625 1.1875 -0.140625q0.234375 0 0.46875 0.03125q0.25 0.015625 0.484375 0.046875q0.234375 0.03125 0.421875 0.078125q0.203125 0.03125 0.359375 0.078125l0 2.015625l0 0z" fill-rule="nonzero"/><path fill="#d9ead3" d="m301.86035 247.52231l0 0c0 -1.9730377 1.5994568 -3.5724945 3.5725098 -3.5724945l163.40619 0c0.94750977 0 1.8561707 0.37638855 2.5261536 1.0463562c0.6699524 0.66996765 1.0463562 1.5786438 1.0463562 2.5261383l0 39.658173c0 1.9730225 -1.5994568 3.5724792 -3.5725098 3.5724792l-163.40619 0c-1.973053 0 -3.5725098 -1.5994568 -3.5725098 -3.5724792z" fill-rule="evenodd"/><path stroke="#274e13" stroke-width="4.0" stroke-linejoin="round" stroke-linecap="butt" d="m301.86035 247.52231l0 0c0 -1.9730377 1.5994568 -3.5724945 3.5725098 -3.5724945l163.40619 0c0.94750977 0 1.8561707 0.37638855 2.5261536 1.0463562c0.6699524 0.66996765 1.0463562 1.5786438 1.0463562 2.5261383l0 39.658173c0 1.9730225 -1.5994568 3.5724792 -3.5725098 3.5724792l-163.40619 0c-1.973053 0 -3.5725098 -1.5994568 -3.5725098 -3.5724792z" fill-rule="evenodd"/><path fill="#274e13" d="m358.3001 272.1514l0 -8.9375l9.046875 0l0 1.90625l-6.578125 0l0 1.46875l6.234375 0l0 1.90625l-6.234375 0l0 1.75l6.671875 0l0 1.90625l-9.140625 0zm17.473389 0l-2.8125 0l-4.53125 -8.9375l2.703125 0l3.25 6.71875l3.25 -6.71875l2.6875 0l-4.546875 8.9375zm15.9888 -0.4375q-1.109375 0.359375 -2.203125 0.515625q-1.09375 0.15625 -2.234375 0.15625q-1.46875 0 -2.609375 -0.3125q-1.140625 -0.3125 -1.921875 -0.90625q-0.78125 -0.609375 -1.203125 -1.46875q-0.40625 -0.859375 -0.40625 -1.953125q0 -1.015625 0.40625 -1.890625q0.421875 -0.875 1.171875 -1.515625q0.765625 -0.640625 1.84375 -1.0q1.078125 -0.359375 2.390625 -0.359375q1.21875 0 2.234375 0.328125q1.015625 0.328125 1.734375 0.984375q0.71875 0.640625 1.125 1.578125q0.40625 0.9375 0.40625 2.171875l0 0.609375l-8.8125 0q0.109375 0.421875 0.375 0.78125q0.28125 0.34375 0.734375 0.59375q0.46875 0.234375 1.140625 0.375q0.671875 0.140625 1.609375 0.140625q0.671875 0 1.296875 -0.078125q0.640625 -0.09375 1.1875 -0.21875q0.5625 -0.140625 1.0 -0.296875q0.453125 -0.171875 0.734375 -0.328125l0 2.09375zm-1.671875 -4.84375q-0.03125 -0.328125 -0.203125 -0.671875q-0.15625 -0.359375 -0.515625 -0.640625q-0.359375 -0.296875 -0.9375 -0.484375q-0.578125 -0.1875 -1.453125 -0.1875q-0.8125 0 -1.40625 0.203125q-0.59375 0.203125 -1.0 0.5q-0.390625 0.296875 -0.609375 0.640625q-0.21875 0.34375 -0.28125 0.640625l6.40625 0zm13.11734 5.28125l0 -5.015625q0 -0.5 -0.09375 -0.90625q-0.078125 -0.40625 -0.3125 -0.6875q-0.234375 -0.296875 -0.65625 -0.453125q-0.40625 -0.15625 -1.046875 -0.15625q-0.5 0 -1.046875 0.140625q-0.53125 0.125 -1.078125 0.34375q-0.53125 0.21875 -1.015625 0.515625q-0.484375 0.296875 -0.859375 0.609375l0 5.609375l-2.40625 0l0 -8.9375l2.40625 0l0 1.21875q0.453125 -0.265625 0.96875 -0.515625q0.515625 -0.265625 1.09375 -0.46875q0.578125 -0.203125 1.21875 -0.328125q0.65625 -0.140625 1.390625 -0.140625q0.90625 0 1.609375 0.21875q0.71875 0.21875 1.203125 0.625q0.5 0.390625 0.765625 0.96875q0.265625 0.5625 0.265625 1.265625l0 6.09375l-2.40625 0zm10.170441 -7.0l0 7.0l-2.40625 0l0 -7.0l-3.796875 0l0 -1.9375l10.0 0l0 1.9375l-3.796875 0z" fill-rule="nonzero"/><path fill="#ffffff" d="m737.26514 492.87668l0 0c0 -1.4087524 1.1420288 -2.5507507 2.5507812 -2.5507507l116.67206 0c0.67645264 0 1.3252563 0.2687378 1.8036499 0.74710083c0.47833252 0.47836304 0.7470703 1.1271362 0.7470703 1.8036499l0 28.315948c0 1.4087524 -1.1420288 2.5507202 -2.5507202 2.5507202l-116.67206 0c-1.4087524 0 -2.5507812 -1.1419678 -2.5507812 -2.5507202z" fill-rule="evenodd"/><path stroke="#666666" stroke-width="4.0" stroke-linejoin="round" stroke-linecap="butt" d="m737.26514 492.87668l0 0c0 -1.4087524 1.1420288 -2.5507507 2.5507812 -2.5507507l116.67206 0c0.67645264 0 1.3252563 0.2687378 1.8036499 0.74710083c0.47833252 0.47836304 0.7470703 1.1271362 0.7470703 1.8036499l0 28.315948c0 1.4087524 -1.1420288 2.5507202 -2.5507202 2.5507202l-116.67206 0c-1.4087524 0 -2.5507812 -1.1419678 -2.5507812 -2.5507202z" fill-rule="evenodd"/><path fill="#666666" d="m762.49255 510.77466l0 -7.15625l1.921875 0l0 7.15625l-1.921875 0zm10.980347 0l0 -4.0q0 -0.40625 -0.078125 -0.734375q-0.0625 -0.328125 -0.25 -0.546875q-0.1875 -0.234375 -0.515625 -0.359375q-0.328125 -0.140625 -0.84375 -0.140625q-0.40625 0 -0.84375 0.109375q-0.421875 0.109375 -0.859375 0.296875q-0.421875 0.171875 -0.8125 0.40625q-0.390625 0.234375 -0.6875 0.484375l0 4.484375l-1.921875 0l0 -7.15625l1.921875 0l0 0.984375q0.359375 -0.203125 0.765625 -0.40625q0.421875 -0.21875 0.875 -0.375q0.46875 -0.171875 0.984375 -0.265625q0.53125 -0.109375 1.109375 -0.109375q0.71875 0 1.28125 0.171875q0.578125 0.171875 0.96875 0.5q0.40625 0.3125 0.609375 0.765625q0.21875 0.453125 0.21875 1.015625l0 4.875l-1.921875 0zm10.708008 -5.140625q-0.203125 -0.09375 -0.53125 -0.21875q-0.328125 -0.125 -0.75 -0.234375q-0.421875 -0.109375 -0.921875 -0.1875q-0.5 -0.078125 -1.015625 -0.078125q-0.421875 0 -0.71875 0.03125q-0.28125 0.015625 -0.484375 0.0625q-0.203125 0.046875 -0.328125 0.109375q-0.109375 0.046875 -0.171875 0.109375q-0.0625 0.046875 -0.078125 0.109375q-0.015625 0.046875 -0.015625 0.09375q0 0.15625 0.15625 0.28125q0.15625 0.109375 0.421875 0.203125q0.265625 0.09375 0.625 0.171875q0.359375 0.078125 0.765625 0.171875q0.40625 0.078125 0.828125 0.1875q0.4375 0.09375 0.84375 0.234375q0.40625 0.140625 0.765625 0.328125q0.359375 0.171875 0.625 0.40625q0.265625 0.234375 0.421875 0.546875q0.15625 0.3125 0.15625 0.71875q0 0.515625 -0.1875 0.890625q-0.171875 0.359375 -0.484375 0.625q-0.296875 0.25 -0.703125 0.40625q-0.390625 0.140625 -0.84375 0.21875q-0.4375 0.09375 -0.890625 0.109375q-0.4375 0.03125 -0.84375 0.03125q-1.0625 0 -1.96875 -0.171875q-0.90625 -0.171875 -1.59375 -0.4375l0 -1.703125q0.71875 0.390625 1.625 0.625q0.90625 0.21875 1.953125 0.21875q0.609375 0 1.0 -0.0625q0.390625 -0.0625 0.609375 -0.15625q0.21875 -0.109375 0.296875 -0.234375q0.078125 -0.125 0.078125 -0.234375q0 -0.171875 -0.15625 -0.296875q-0.15625 -0.125 -0.4375 -0.21875q-0.265625 -0.09375 -0.625 -0.171875q-0.359375 -0.078125 -0.765625 -0.15625q-0.390625 -0.09375 -0.828125 -0.1875q-0.421875 -0.09375 -0.828125 -0.21875q-0.390625 -0.125 -0.75 -0.296875q-0.359375 -0.171875 -0.640625 -0.390625q-0.265625 -0.234375 -0.421875 -0.53125q-0.15625 -0.3125 -0.15625 -0.71875q0 -0.46875 0.15625 -0.8125q0.171875 -0.34375 0.453125 -0.578125q0.296875 -0.25 0.65625 -0.40625q0.375 -0.15625 0.78125 -0.234375q0.421875 -0.078125 0.84375 -0.109375q0.421875 -0.03125 0.796875 -0.03125q0.421875 0 0.859375 0.046875q0.4375 0.03125 0.859375 0.109375q0.4375 0.078125 0.828125 0.171875q0.40625 0.09375 0.734375 0.203125l0 1.65625zm6.428711 -0.453125l0 5.59375l-1.9375 0l0 -5.59375l-3.03125 0l0 -1.5625l8.0 0l0 1.5625l-3.03125 0zm10.382507 5.59375l0 -0.703125q-0.375 0.203125 -0.796875 0.359375q-0.421875 0.15625 -0.890625 0.265625q-0.453125 0.109375 -0.9375 0.15625q-0.484375 0.0625 -0.984375 0.0625q-0.578125 0 -1.125 -0.109375q-0.53125 -0.109375 -0.953125 -0.34375q-0.40625 -0.25 -0.65625 -0.640625q-0.25 -0.40625 -0.25 -0.984375q0 -0.71875 0.390625 -1.1875q0.390625 -0.484375 1.203125 -0.796875q0.8125 -0.3125 2.046875 -0.46875q1.25 -0.171875 2.953125 -0.265625l0 -0.15625q0 -0.171875 -0.09375 -0.34375q-0.09375 -0.171875 -0.34375 -0.296875q-0.25 -0.140625 -0.6875 -0.21875q-0.421875 -0.09375 -1.09375 -0.09375q-0.515625 0 -1.03125 0.0625q-0.515625 0.046875 -1.0 0.140625q-0.46875 0.09375 -0.890625 0.21875q-0.421875 0.125 -0.78125 0.265625l0 -1.71875q0.375 -0.09375 0.828125 -0.1875q0.453125 -0.09375 0.9375 -0.15625q0.484375 -0.0625 0.984375 -0.09375q0.5 -0.046875 0.953125 -0.046875q0.90625 0 1.65625 0.15625q0.765625 0.140625 1.3125 0.453125q0.546875 0.3125 0.859375 0.796875q0.3125 0.46875 0.3125 1.140625l0 4.734375l-1.921875 0zm0 -3.265625q-1.125 0.046875 -1.90625 0.125q-0.765625 0.078125 -1.28125 0.1875q-0.515625 0.09375 -0.8125 0.21875q-0.296875 0.109375 -0.4375 0.234375q-0.140625 0.125 -0.1875 0.25q-0.03125 0.125 -0.03125 0.234375q0 0.125 0.0625 0.25q0.078125 0.109375 0.234375 0.203125q0.171875 0.078125 0.453125 0.140625q0.28125 0.046875 0.71875 0.046875q0.46875 0 0.921875 -0.0625q0.453125 -0.078125 0.859375 -0.203125q0.40625 -0.140625 0.765625 -0.3125q0.359375 -0.171875 0.640625 -0.375l0 -0.9375zm10.948364 3.265625l0 -4.0q0 -0.40625 -0.078125 -0.734375q-0.0625 -0.328125 -0.25 -0.546875q-0.1875 -0.234375 -0.515625 -0.359375q-0.328125 -0.140625 -0.84375 -0.140625q-0.40625 0 -0.84375 0.109375q-0.421875 0.109375 -0.859375 0.296875q-0.421875 0.171875 -0.8125 0.40625q-0.390625 0.234375 -0.6875 0.484375l0 4.484375l-1.921875 0l0 -7.15625l1.921875 0l0 0.984375q0.359375 -0.203125 0.765625 -0.40625q0.421875 -0.21875 0.875 -0.375q0.46875 -0.171875 0.984375 -0.265625q0.53125 -0.109375 1.109375 -0.109375q0.71875 0 1.28125 0.171875q0.578125 0.171875 0.96875 0.5q0.40625 0.3125 0.609375 0.765625q0.21875 0.453125 0.21875 1.015625l0 4.875l-1.921875 0zm12.004944 -0.484375q-0.375 0.15625 -0.765625 0.28125q-0.375 0.125 -0.78125 0.203125q-0.40625 0.09375 -0.859375 0.140625q-0.4375 0.046875 -0.953125 0.046875q-1.09375 0 -2.015625 -0.234375q-0.921875 -0.234375 -1.59375 -0.703125q-0.65625 -0.46875 -1.03125 -1.171875q-0.359375 -0.703125 -0.359375 -1.640625q0 -0.953125 0.359375 -1.65625q0.375 -0.703125 1.03125 -1.171875q0.671875 -0.46875 1.59375 -0.703125q0.921875 -0.234375 2.015625 -0.234375q0.515625 0 0.953125 0.046875q0.453125 0.046875 0.859375 0.140625q0.40625 0.078125 0.78125 0.203125q0.390625 0.125 0.765625 0.28125l0 1.75q-0.296875 -0.171875 -0.625 -0.328125q-0.328125 -0.15625 -0.734375 -0.28125q-0.390625 -0.125 -0.859375 -0.203125q-0.46875 -0.09375 -1.0625 -0.09375q-0.921875 0 -1.53125 0.1875q-0.59375 0.1875 -0.953125 0.5q-0.359375 0.3125 -0.5 0.71875q-0.140625 0.40625 -0.140625 0.84375q0 0.28125 0.0625 0.5625q0.0625 0.28125 0.203125 0.53125q0.140625 0.234375 0.375 0.453125q0.234375 0.203125 0.578125 0.359375q0.359375 0.140625 0.828125 0.234375q0.46875 0.078125 1.078125 0.078125q0.59375 0 1.0625 -0.078125q0.46875 -0.078125 0.859375 -0.203125q0.40625 -0.125 0.734375 -0.28125q0.328125 -0.15625 0.625 -0.328125l0 1.75l0 0zm9.77179 0.125q-0.890625 0.296875 -1.765625 0.421875q-0.875 0.125 -1.78125 0.125q-1.171875 0 -2.09375 -0.25q-0.90625 -0.25 -1.53125 -0.71875q-0.625 -0.484375 -0.953125 -1.171875q-0.328125 -0.703125 -0.328125 -1.578125q0 -0.8125 0.328125 -1.5q0.328125 -0.703125 0.9375 -1.203125q0.609375 -0.515625 1.46875 -0.796875q0.859375 -0.296875 1.90625 -0.296875q0.984375 0 1.78125 0.265625q0.8125 0.25 1.390625 0.765625q0.578125 0.515625 0.890625 1.28125q0.328125 0.75 0.328125 1.734375l0 0.484375l-7.03125 0q0.078125 0.328125 0.296875 0.609375q0.21875 0.28125 0.578125 0.484375q0.375 0.1875 0.90625 0.296875q0.546875 0.109375 1.296875 0.109375q0.53125 0 1.046875 -0.0625q0.515625 -0.0625 0.953125 -0.171875q0.4375 -0.109375 0.796875 -0.234375q0.359375 -0.125 0.578125 -0.265625l0 1.671875zm-1.328125 -3.859375q-0.03125 -0.265625 -0.171875 -0.546875q-0.125 -0.28125 -0.421875 -0.515625q-0.28125 -0.234375 -0.75 -0.375q-0.453125 -0.15625 -1.140625 -0.15625q-0.65625 0 -1.140625 0.171875q-0.46875 0.15625 -0.796875 0.40625q-0.3125 0.234375 -0.484375 0.515625q-0.171875 0.265625 -0.21875 0.5l5.125 0z" fill-rule="nonzero"/><path fill="#ffffff" d="m595.3197 492.87668l0 0c0 -1.4087524 1.1420288 -2.5507507 2.5507812 -2.5507507l116.672 0c0.6765137 0 1.3253174 0.2687378 1.8036499 0.74710083c0.47839355 0.47836304 0.74713135 1.1271362 0.74713135 1.8036499l0 28.315948c0 1.4087524 -1.1420288 2.5507202 -2.5507812 2.5507202l-116.672 0c-1.4087524 0 -2.5507812 -1.1419678 -2.5507812 -2.5507202z" fill-rule="evenodd"/><path stroke="#666666" stroke-width="4.0" stroke-linejoin="round" stroke-linecap="butt" d="m595.3197 492.87668l0 0c0 -1.4087524 1.1420288 -2.5507507 2.5507812 -2.5507507l116.672 0c0.6765137 0 1.3253174 0.2687378 1.8036499 0.74710083c0.47839355 0.47836304 0.74713135 1.1271362 0.74713135 1.8036499l0 28.315948c0 1.4087524 -1.1420288 2.5507202 -2.5507812 2.5507202l-116.672 0c-1.4087524 0 -2.5507812 -1.1419678 -2.5507812 -2.5507202z" fill-rule="evenodd"/><path fill="#666666" d="m620.5471 510.77466l0 -7.15625l1.921875 0l0 7.15625l-1.921875 0zm10.980286 0l0 -4.0q0 -0.40625 -0.078125 -0.734375q-0.0625 -0.328125 -0.25 -0.546875q-0.1875 -0.234375 -0.515625 -0.359375q-0.328125 -0.140625 -0.84375 -0.140625q-0.40625 0 -0.84375 0.109375q-0.421875 0.109375 -0.859375 0.296875q-0.421875 0.171875 -0.8125 0.40625q-0.390625 0.234375 -0.6875 0.484375l0 4.484375l-1.921875 0l0 -7.15625l1.921875 0l0 0.984375q0.359375 -0.203125 0.765625 -0.40625q0.421875 -0.21875 0.875 -0.375q0.46875 -0.171875 0.984375 -0.265625q0.53125 -0.109375 1.109375 -0.109375q0.71875 0 1.28125 0.171875q0.578125 0.171875 0.96875 0.5q0.40625 0.3125 0.609375 0.765625q0.21875 0.453125 0.21875 1.015625l0 4.875l-1.921875 0zm10.708069 -5.140625q-0.203125 -0.09375 -0.53125 -0.21875q-0.328125 -0.125 -0.75 -0.234375q-0.421875 -0.109375 -0.921875 -0.1875q-0.5 -0.078125 -1.015625 -0.078125q-0.421875 0 -0.71875 0.03125q-0.28125 0.015625 -0.484375 0.0625q-0.203125 0.046875 -0.328125 0.109375q-0.109375 0.046875 -0.171875 0.109375q-0.0625 0.046875 -0.078125 0.109375q-0.015625 0.046875 -0.015625 0.09375q0 0.15625 0.15625 0.28125q0.15625 0.109375 0.421875 0.203125q0.265625 0.09375 0.625 0.171875q0.359375 0.078125 0.765625 0.171875q0.40625 0.078125 0.828125 0.1875q0.4375 0.09375 0.84375 0.234375q0.40625 0.140625 0.765625 0.328125q0.359375 0.171875 0.625 0.40625q0.265625 0.234375 0.421875 0.546875q0.15625 0.3125 0.15625 0.71875q0 0.515625 -0.1875 0.890625q-0.171875 0.359375 -0.484375 0.625q-0.296875 0.25 -0.703125 0.40625q-0.390625 0.140625 -0.84375 0.21875q-0.4375 0.09375 -0.890625 0.109375q-0.4375 0.03125 -0.84375 0.03125q-1.0625 0 -1.96875 -0.171875q-0.90625 -0.171875 -1.59375 -0.4375l0 -1.703125q0.71875 0.390625 1.625 0.625q0.90625 0.21875 1.953125 0.21875q0.609375 0 1.0 -0.0625q0.390625 -0.0625 0.609375 -0.15625q0.21875 -0.109375 0.296875 -0.234375q0.078125 -0.125 0.078125 -0.234375q0 -0.171875 -0.15625 -0.296875q-0.15625 -0.125 -0.4375 -0.21875q-0.265625 -0.09375 -0.625 -0.171875q-0.359375 -0.078125 -0.765625 -0.15625q-0.390625 -0.09375 -0.828125 -0.1875q-0.421875 -0.09375 -0.828125 -0.21875q-0.390625 -0.125 -0.75 -0.296875q-0.359375 -0.171875 -0.640625 -0.390625q-0.265625 -0.234375 -0.421875 -0.53125q-0.15625 -0.3125 -0.15625 -0.71875q0 -0.46875 0.15625 -0.8125q0.171875 -0.34375 0.453125 -0.578125q0.296875 -0.25 0.65625 -0.40625q0.375 -0.15625 0.78125 -0.234375q0.421875 -0.078125 0.84375 -0.109375q0.421875 -0.03125 0.796875 -0.03125q0.421875 0 0.859375 0.046875q0.4375 0.03125 0.859375 0.109375q0.4375 0.078125 0.828125 0.171875q0.40625 0.09375 0.734375 0.203125l0 1.65625zm6.428711 -0.453125l0 5.59375l-1.9375 0l0 -5.59375l-3.03125 0l0 -1.5625l8.0 0l0 1.5625l-3.03125 0zm10.382507 5.59375l0 -0.703125q-0.375 0.203125 -0.796875 0.359375q-0.421875 0.15625 -0.890625 0.265625q-0.453125 0.109375 -0.9375 0.15625q-0.484375 0.0625 -0.984375 0.0625q-0.578125 0 -1.125 -0.109375q-0.53125 -0.109375 -0.953125 -0.34375q-0.40625 -0.25 -0.65625 -0.640625q-0.25 -0.40625 -0.25 -0.984375q0 -0.71875 0.390625 -1.1875q0.390625 -0.484375 1.203125 -0.796875q0.8125 -0.3125 2.046875 -0.46875q1.25 -0.171875 2.953125 -0.265625l0 -0.15625q0 -0.171875 -0.09375 -0.34375q-0.09375 -0.171875 -0.34375 -0.296875q-0.25 -0.140625 -0.6875 -0.21875q-0.421875 -0.09375 -1.09375 -0.09375q-0.515625 0 -1.03125 0.0625q-0.515625 0.046875 -1.0 0.140625q-0.46875 0.09375 -0.890625 0.21875q-0.421875 0.125 -0.78125 0.265625l0 -1.71875q0.375 -0.09375 0.828125 -0.1875q0.453125 -0.09375 0.9375 -0.15625q0.484375 -0.0625 0.984375 -0.09375q0.5 -0.046875 0.953125 -0.046875q0.90625 0 1.65625 0.15625q0.765625 0.140625 1.3125 0.453125q0.546875 0.3125 0.859375 0.796875q0.3125 0.46875 0.3125 1.140625l0 4.734375l-1.921875 0zm0 -3.265625q-1.125 0.046875 -1.90625 0.125q-0.765625 0.078125 -1.28125 0.1875q-0.515625 0.09375 -0.8125 0.21875q-0.296875 0.109375 -0.4375 0.234375q-0.140625 0.125 -0.1875 0.25q-0.03125 0.125 -0.03125 0.234375q0 0.125 0.0625 0.25q0.078125 0.109375 0.234375 0.203125q0.171875 0.078125 0.453125 0.140625q0.28125 0.046875 0.71875 0.046875q0.46875 0 0.921875 -0.0625q0.453125 -0.078125 0.859375 -0.203125q0.40625 -0.140625 0.765625 -0.3125q0.359375 -0.171875 0.640625 -0.375l0 -0.9375zm10.948364 3.265625l0 -4.0q0 -0.40625 -0.078125 -0.734375q-0.0625 -0.328125 -0.25 -0.546875q-0.1875 -0.234375 -0.515625 -0.359375q-0.328125 -0.140625 -0.84375 -0.140625q-0.40625 0 -0.84375 0.109375q-0.421875 0.109375 -0.859375 0.296875q-0.421875 0.171875 -0.8125 0.40625q-0.390625 0.234375 -0.6875 0.484375l0 4.484375l-1.921875 0l0 -7.15625l1.921875 0l0 0.984375q0.359375 -0.203125 0.765625 -0.40625q0.421875 -0.21875 0.875 -0.375q0.46875 -0.171875 0.984375 -0.265625q0.53125 -0.109375 1.109375 -0.109375q0.71875 0 1.28125 0.171875q0.578125 0.171875 0.96875 0.5q0.40625 0.3125 0.609375 0.765625q0.21875 0.453125 0.21875 1.015625l0 4.875l-1.921875 0zm12.004883 -0.484375q-0.375 0.15625 -0.765625 0.28125q-0.375 0.125 -0.78125 0.203125q-0.40625 0.09375 -0.859375 0.140625q-0.4375 0.046875 -0.953125 0.046875q-1.09375 0 -2.015625 -0.234375q-0.921875 -0.234375 -1.59375 -0.703125q-0.65625 -0.46875 -1.03125 -1.171875q-0.359375 -0.703125 -0.359375 -1.640625q0 -0.953125 0.359375 -1.65625q0.375 -0.703125 1.03125 -1.171875q0.671875 -0.46875 1.59375 -0.703125q0.921875 -0.234375 2.015625 -0.234375q0.515625 0 0.953125 0.046875q0.453125 0.046875 0.859375 0.140625q0.40625 0.078125 0.78125 0.203125q0.390625 0.125 0.765625 0.28125l0 1.75q-0.296875 -0.171875 -0.625 -0.328125q-0.328125 -0.15625 -0.734375 -0.28125q-0.390625 -0.125 -0.859375 -0.203125q-0.46875 -0.09375 -1.0625 -0.09375q-0.921875 0 -1.53125 0.1875q-0.59375 0.1875 -0.953125 0.5q-0.359375 0.3125 -0.5 0.71875q-0.140625 0.40625 -0.140625 0.84375q0 0.28125 0.0625 0.5625q0.0625 0.28125 0.203125 0.53125q0.140625 0.234375 0.375 0.453125q0.234375 0.203125 0.578125 0.359375q0.359375 0.140625 0.828125 0.234375q0.46875 0.078125 1.078125 0.078125q0.59375 0 1.0625 -0.078125q0.46875 -0.078125 0.859375 -0.203125q0.40625 -0.125 0.734375 -0.28125q0.328125 -0.15625 0.625 -0.328125l0 1.75l0 0zm9.77179 0.125q-0.890625 0.296875 -1.765625 0.421875q-0.875 0.125 -1.78125 0.125q-1.171875 0 -2.09375 -0.25q-0.90625 -0.25 -1.53125 -0.71875q-0.625 -0.484375 -0.953125 -1.171875q-0.328125 -0.703125 -0.328125 -1.578125q0 -0.8125 0.328125 -1.5q0.328125 -0.703125 0.9375 -1.203125q0.609375 -0.515625 1.46875 -0.796875q0.859375 -0.296875 1.90625 -0.296875q0.984375 0 1.78125 0.265625q0.8125 0.25 1.390625 0.765625q0.578125 0.515625 0.890625 1.28125q0.328125 0.75 0.328125 1.734375l0 0.484375l-7.03125 0q0.078125 0.328125 0.296875 0.609375q0.21875 0.28125 0.578125 0.484375q0.375 0.1875 0.90625 0.296875q0.546875 0.109375 1.296875 0.109375q0.53125 0 1.046875 -0.0625q0.515625 -0.0625 0.953125 -0.171875q0.4375 -0.109375 0.796875 -0.234375q0.359375 -0.125 0.578125 -0.265625l0 1.671875zm-1.328125 -3.859375q-0.03125 -0.265625 -0.171875 -0.546875q-0.125 -0.28125 -0.421875 -0.515625q-0.28125 -0.234375 -0.75 -0.375q-0.453125 -0.15625 -1.140625 -0.15625q-0.65625 0 -1.140625 0.171875q-0.46875 0.15625 -0.796875 0.40625q-0.3125 0.234375 -0.484375 0.515625q-0.171875 0.265625 -0.21875 0.5l5.125 0z" fill-rule="nonzero"/><path fill="#000000" fill-opacity="0.0" d="m875.43134 473.59497l32.48419 0l0 0.067474365l32.48419 0" fill-rule="evenodd"/><path stroke="#274e13" stroke-width="4.0" stroke-linejoin="round" stroke-linecap="butt" d="m875.43134 473.59497l32.48419 0l0 0.067474365l8.484131 0" fill-rule="evenodd"/><path stroke="#274e13" stroke-width="4.0" stroke-linecap="butt" d="m916.3997 480.26938l18.152344 -6.6069336l-18.152344 -6.6069336z" fill-rule="evenodd"/><path fill="#000000" fill-opacity="0.0" d="m875.43134 504.77338l32.48419 0l0 0.067474365l32.48419 0" fill-rule="evenodd"/><path stroke="#274e13" stroke-width="4.0" stroke-linejoin="round" stroke-linecap="butt" d="m875.43134 504.77338l32.48419 0l0 0.067474365l9.971008 0" fill-rule="evenodd"/><path stroke="#274e13" stroke-width="4.0" stroke-linecap="butt" d="m917.8866 504.84085l9.513123 6.661133l9.513062 -6.661133l-9.513062 -6.6611633z" fill-rule="evenodd"/><path fill="#000000" fill-opacity="0.0" d="m850.0378 459.97473l0 0c0 -0.68637085 0.5563965 -1.2427673 1.2427368 -1.2427673l62.48285 0c0.32958984 0 0.6456909 0.13092041 0.8787842 0.36398315c0.23309326 0.23306274 0.36401367 0.5491638 0.36401367 0.8787842l0 13.795898c0 0.68637085 -0.5563965 1.2427673 -1.2427979 1.2427673l-62.48285 0c-0.68634033 0 -1.2427368 -0.5563965 -1.2427368 -1.2427673z" fill-rule="evenodd"/><path fill="#274e13" d="m879.3877 470.61267l0 -7.15625l1.921875 0l0 7.15625l-1.921875 0zm10.745911 -5.140625q-0.203125 -0.09375 -0.53125 -0.21875q-0.328125 -0.125 -0.75 -0.234375q-0.421875 -0.109375 -0.921875 -0.1875q-0.5 -0.078125 -1.015625 -0.078125q-0.421875 0 -0.71875 0.03125q-0.28125 0.015625 -0.484375 0.0625q-0.203125 0.046875 -0.328125 0.109375q-0.109375 0.046875 -0.171875 0.109375q-0.0625 0.046875 -0.078125 0.109375q-0.015625 0.046875 -0.015625 0.09375q0 0.15625 0.15625 0.28125q0.15625 0.109375 0.421875 0.203125q0.265625 0.09375 0.625 0.171875q0.359375 0.078125 0.765625 0.171875q0.40625 0.078125 0.828125 0.1875q0.4375 0.09375 0.84375 0.234375q0.40625 0.140625 0.765625 0.328125q0.359375 0.171875 0.625 0.40625q0.265625 0.234375 0.421875 0.546875q0.15625 0.3125 0.15625 0.71875q0 0.515625 -0.1875 0.890625q-0.171875 0.359375 -0.484375 0.625q-0.296875 0.25 -0.703125 0.40625q-0.390625 0.140625 -0.84375 0.21875q-0.4375 0.09375 -0.890625 0.109375q-0.4375 0.03125 -0.84375 0.03125q-1.0625 0 -1.96875 -0.171875q-0.90625 -0.171875 -1.59375 -0.4375l0 -1.703125q0.71875 0.390625 1.625 0.625q0.90625 0.21875 1.953125 0.21875q0.609375 0 1.0 -0.0625q0.390625 -0.0625 0.609375 -0.15625q0.21875 -0.109375 0.296875 -0.234375q0.078125 -0.125 0.078125 -0.234375q0 -0.171875 -0.15625 -0.296875q-0.15625 -0.125 -0.4375 -0.21875q-0.265625 -0.09375 -0.625 -0.171875q-0.359375 -0.078125 -0.765625 -0.15625q-0.390625 -0.09375 -0.828125 -0.1875q-0.421875 -0.09375 -0.828125 -0.21875q-0.390625 -0.125 -0.75 -0.296875q-0.359375 -0.171875 -0.640625 -0.390625q-0.265625 -0.234375 -0.421875 -0.53125q-0.15625 -0.3125 -0.15625 -0.71875q0 -0.46875 0.15625 -0.8125q0.171875 -0.34375 0.453125 -0.578125q0.296875 -0.25 0.65625 -0.40625q0.375 -0.15625 0.78125 -0.234375q0.421875 -0.078125 0.84375 -0.109375q0.421875 -0.03125 0.796875 -0.03125q0.421875 0 0.859375 0.046875q0.4375 0.03125 0.859375 0.109375q0.4375 0.078125 0.828125 0.171875q0.40625 0.09375 0.734375 0.203125l0 1.65625zm12.497681 5.140625l0 -0.703125q-0.375 0.203125 -0.796875 0.359375q-0.421875 0.15625 -0.890625 0.265625q-0.453125 0.109375 -0.9375 0.15625q-0.484375 0.0625 -0.984375 0.0625q-0.578125 0 -1.125 -0.109375q-0.53125 -0.109375 -0.953125 -0.34375q-0.40625 -0.25 -0.65625 -0.640625q-0.25 -0.40625 -0.25 -0.984375q0 -0.71875 0.390625 -1.1875q0.390625 -0.484375 1.203125 -0.796875q0.8125 -0.3125 2.046875 -0.46875q1.25 -0.171875 2.953125 -0.265625l0 -0.15625q0 -0.171875 -0.09375 -0.34375q-0.09375 -0.171875 -0.34375 -0.296875q-0.25 -0.140625 -0.6875 -0.21875q-0.421875 -0.09375 -1.09375 -0.09375q-0.515625 0 -1.03125 0.0625q-0.515625 0.046875 -1.0 0.140625q-0.46875 0.09375 -0.890625 0.21875q-0.421875 0.125 -0.78125 0.265625l0 -1.71875q0.375 -0.09375 0.828125 -0.1875q0.453125 -0.09375 0.9375 -0.15625q0.484375 -0.0625 0.984375 -0.09375q0.5 -0.046875 0.953125 -0.046875q0.90625 0 1.65625 0.15625q0.765625 0.140625 1.3125 0.453125q0.546875 0.3125 0.859375 0.796875q0.3125 0.46875 0.3125 1.140625l0 4.734375l-1.921875 0zm0 -3.265625q-1.125 0.046875 -1.90625 0.125q-0.765625 0.078125 -1.28125 0.1875q-0.515625 0.09375 -0.8125 0.21875q-0.296875 0.109375 -0.4375 0.234375q-0.140625 0.125 -0.1875 0.25q-0.03125 0.125 -0.03125 0.234375q0 0.125 0.0625 0.25q0.078125 0.109375 0.234375 0.203125q0.171875 0.078125 0.453125 0.140625q0.28125 0.046875 0.71875 0.046875q0.46875 0 0.921875 -0.0625q0.453125 -0.078125 0.859375 -0.203125q0.40625 -0.140625 0.765625 -0.3125q0.359375 -0.171875 0.640625 -0.375l0 -0.9375z" fill-rule="nonzero"/><path fill="#000000" fill-opacity="0.0" d="m865.0378 491.337l0 0c0 -0.5583496 0.45263672 -1.0110168 1.0110474 -1.0110168l62.94629 0c0.26812744 0 0.5253296 0.10650635 0.7149048 0.29611206c0.1895752 0.18960571 0.29614258 0.44677734 0.29614258 0.7149048l0 11.22348c0 0.5583801 -0.45269775 1.0110474 -1.0110474 1.0110474l-62.94629 0l0 0c-0.55841064 0 -1.0110474 -0.45266724 -1.0110474 -1.0110474z" fill-rule="evenodd"/><path fill="#274e13" d="m884.25867 500.68875l0 -2.984375l-4.921875 0l0 2.984375l-1.921875 0l0 -7.15625l1.921875 0l0 2.609375l4.921875 0l0 -2.609375l1.921875 0l0 7.15625l-1.921875 0zm10.228821 0l0 -0.703125q-0.375 0.203125 -0.796875 0.359375q-0.421875 0.15625 -0.890625 0.265625q-0.453125 0.109375 -0.9375 0.15625q-0.484375 0.0625 -0.984375 0.0625q-0.578125 0 -1.125 -0.109375q-0.53125 -0.109375 -0.953125 -0.34375q-0.40625 -0.25 -0.65625 -0.640625q-0.25 -0.40625 -0.25 -0.984375q0 -0.71875 0.390625 -1.1875q0.390625 -0.484375 1.203125 -0.796875q0.8125 -0.3125 2.046875 -0.46875q1.25 -0.171875 2.953125 -0.265625l0 -0.15625q0 -0.171875 -0.09375 -0.34375q-0.09375 -0.171875 -0.34375 -0.296875q-0.25 -0.140625 -0.6875 -0.21875q-0.421875 -0.09375 -1.09375 -0.09375q-0.515625 0 -1.03125 0.0625q-0.515625 0.046875 -1.0 0.140625q-0.46875 0.09375 -0.890625 0.21875q-0.421875 0.125 -0.78125 0.265625l0 -1.71875q0.375 -0.09375 0.828125 -0.1875q0.453125 -0.09375 0.9375 -0.15625q0.484375 -0.0625 0.984375 -0.09375q0.5 -0.046875 0.953125 -0.046875q0.90625 0 1.65625 0.15625q0.765625 0.140625 1.3125 0.453125q0.546875 0.3125 0.859375 0.796875q0.3125 0.46875 0.3125 1.140625l0 4.734375l-1.921875 0zm0 -3.265625q-1.125 0.046875 -1.90625 0.125q-0.765625 0.078125 -1.28125 0.1875q-0.515625 0.09375 -0.8125 0.21875q-0.296875 0.109375 -0.4375 0.234375q-0.140625 0.125 -0.1875 0.25q-0.03125 0.125 -0.03125 0.234375q0 0.125 0.0625 0.25q0.078125 0.109375 0.234375 0.203125q0.171875 0.078125 0.453125 0.140625q0.28125 0.046875 0.71875 0.046875q0.46875 0 0.921875 -0.0625q0.453125 -0.078125 0.859375 -0.203125q0.40625 -0.140625 0.765625 -0.3125q0.359375 -0.171875 0.640625 -0.375l0 -0.9375zm10.713989 -1.875q-0.203125 -0.09375 -0.53125 -0.21875q-0.328125 -0.125 -0.75 -0.234375q-0.421875 -0.109375 -0.921875 -0.1875q-0.5 -0.078125 -1.015625 -0.078125q-0.421875 0 -0.71875 0.03125q-0.28125 0.015625 -0.484375 0.0625q-0.203125 0.046875 -0.328125 0.109375q-0.109375 0.046875 -0.171875 0.109375q-0.0625 0.046875 -0.078125 0.109375q-0.015625 0.046875 -0.015625 0.09375q0 0.15625 0.15625 0.28125q0.15625 0.109375 0.421875 0.203125q0.265625 0.09375 0.625 0.171875q0.359375 0.078125 0.765625 0.171875q0.40625 0.078125 0.828125 0.1875q0.4375 0.09375 0.84375 0.234375q0.40625 0.140625 0.765625 0.328125q0.359375 0.171875 0.625 0.40625q0.265625 0.234375 0.421875 0.546875q0.15625 0.3125 0.15625 0.71875q0 0.515625 -0.1875 0.890625q-0.171875 0.359375 -0.484375 0.625q-0.296875 0.25 -0.703125 0.40625q-0.390625 0.140625 -0.84375 0.21875q-0.4375 0.09375 -0.890625 0.109375q-0.4375 0.03125 -0.84375 0.03125q-1.0625 0 -1.96875 -0.171875q-0.90625 -0.171875 -1.59375 -0.4375l0 -1.703125q0.71875 0.390625 1.625 0.625q0.90625 0.21875 1.953125 0.21875q0.609375 0 1.0 -0.0625q0.390625 -0.0625 0.609375 -0.15625q0.21875 -0.109375 0.296875 -0.234375q0.078125 -0.125 0.078125 -0.234375q0 -0.171875 -0.15625 -0.296875q-0.15625 -0.125 -0.4375 -0.21875q-0.265625 -0.09375 -0.625 -0.171875q-0.359375 -0.078125 -0.765625 -0.15625q-0.390625 -0.09375 -0.828125 -0.1875q-0.421875 -0.09375 -0.828125 -0.21875q-0.390625 -0.125 -0.75 -0.296875q-0.359375 -0.171875 -0.640625 -0.390625q-0.265625 -0.234375 -0.421875 -0.53125q-0.15625 -0.3125 -0.15625 -0.71875q0 -0.46875 0.15625 -0.8125q0.171875 -0.34375 0.453125 -0.578125q0.296875 -0.25 0.65625 -0.40625q0.375 -0.15625 0.78125 -0.234375q0.421875 -0.078125 0.84375 -0.109375q0.421875 -0.03125 0.796875 -0.03125q0.421875 0 0.859375 0.046875q0.4375 0.03125 0.859375 0.109375q0.4375 0.078125 0.828125 0.171875q0.40625 0.09375 0.734375 0.203125l0 1.65625zm12.497681 5.140625l0 -0.703125q-0.375 0.203125 -0.796875 0.359375q-0.421875 0.15625 -0.890625 0.265625q-0.453125 0.109375 -0.9375 0.15625q-0.484375 0.0625 -0.984375 0.0625q-0.578125 0 -1.125 -0.109375q-0.53125 -0.109375 -0.953125 -0.34375q-0.40625 -0.25 -0.65625 -0.640625q-0.25 -0.40625 -0.25 -0.984375q0 -0.71875 0.390625 -1.1875q0.390625 -0.484375 1.203125 -0.796875q0.8125 -0.3125 2.046875 -0.46875q1.25 -0.171875 2.953125 -0.265625l0 -0.15625q0 -0.171875 -0.09375 -0.34375q-0.09375 -0.171875 -0.34375 -0.296875q-0.25 -0.140625 -0.6875 -0.21875q-0.421875 -0.09375 -1.09375 -0.09375q-0.515625 0 -1.03125 0.0625q-0.515625 0.046875 -1.0 0.140625q-0.46875 0.09375 -0.890625 0.21875q-0.421875 0.125 -0.78125 0.265625l0 -1.71875q0.375 -0.09375 0.828125 -0.1875q0.453125 -0.09375 0.9375 -0.15625q0.484375 -0.0625 0.984375 -0.09375q0.5 -0.046875 0.953125 -0.046875q0.90625 0 1.65625 0.15625q0.765625 0.140625 1.3125 0.453125q0.546875 0.3125 0.859375 0.796875q0.3125 0.46875 0.3125 1.140625l0 4.734375l-1.921875 0zm0 -3.265625q-1.125 0.046875 -1.90625 0.125q-0.765625 0.078125 -1.28125 0.1875q-0.515625 0.09375 -0.8125 0.21875q-0.296875 0.109375 -0.4375 0.234375q-0.140625 0.125 -0.1875 0.25q-0.03125 0.125 -0.03125 0.234375q0 0.125 0.0625 0.25q0.078125 0.109375 0.234375 0.203125q0.171875 0.078125 0.453125 0.140625q0.28125 0.046875 0.71875 0.046875q0.46875 0 0.921875 -0.0625q0.453125 -0.078125 0.859375 -0.203125q0.40625 -0.140625 0.765625 -0.3125q0.359375 -0.171875 0.640625 -0.375l0 -0.9375z" fill-rule="nonzero"/><path fill="#93c47d" d="m595.31836 459.45926l0 0c0 -1.4087524 1.1420288 -2.5507507 2.5507812 -2.5507507l116.672 0c0.6765137 0 1.3253174 0.2687378 1.8036499 0.74710083c0.47839355 0.47836304 0.74713135 1.1271362 0.74713135 1.8036499l0 28.315948c0 1.4087219 -1.1420288 2.5507507 -2.5507812 2.5507507l-116.672 0c-1.4087524 0 -2.5507812 -1.1420288 -2.5507812 -2.5507507z" fill-rule="evenodd"/><path stroke="#274e13" stroke-width="4.0" stroke-linejoin="round" stroke-linecap="butt" d="m595.31836 459.45926l0 0c0 -1.4087524 1.1420288 -2.5507507 2.5507812 -2.5507507l116.672 0c0.6765137 0 1.3253174 0.2687378 1.8036499 0.74710083c0.47839355 0.47836304 0.74713135 1.1271362 0.74713135 1.8036499l0 28.315948c0 1.4087219 -1.1420288 2.5507507 -2.5507812 2.5507507l-116.672 0c-1.4087524 0 -2.5507812 -1.1420288 -2.5507812 -2.5507507z" fill-rule="evenodd"/><path fill="#274e13" d="m620.49884 476.87286q-0.375 0.15625 -0.765625 0.28125q-0.375 0.125 -0.78125 0.203125q-0.40625 0.09375 -0.859375 0.140625q-0.4375 0.046875 -0.953125 0.046875q-1.09375 0 -2.015625 -0.234375q-0.921875 -0.234375 -1.59375 -0.703125q-0.65625 -0.46875 -1.03125 -1.171875q-0.359375 -0.703125 -0.359375 -1.640625q0 -0.953125 0.359375 -1.65625q0.375 -0.703125 1.03125 -1.171875q0.671875 -0.46875 1.59375 -0.703125q0.921875 -0.234375 2.015625 -0.234375q0.515625 0 0.953125 0.046875q0.453125 0.046875 0.859375 0.140625q0.40625 0.078125 0.78125 0.203125q0.390625 0.125 0.765625 0.28125l0 1.75q-0.296875 -0.171875 -0.625 -0.328125q-0.328125 -0.15625 -0.734375 -0.28125q-0.390625 -0.125 -0.859375 -0.203125q-0.46875 -0.09375 -1.0625 -0.09375q-0.921875 0 -1.53125 0.1875q-0.59375 0.1875 -0.953125 0.5q-0.359375 0.3125 -0.5 0.71875q-0.140625 0.40625 -0.140625 0.84375q0 0.28125 0.0625 0.5625q0.0625 0.28125 0.203125 0.53125q0.140625 0.234375 0.375 0.453125q0.234375 0.203125 0.578125 0.359375q0.359375 0.140625 0.828125 0.234375q0.46875 0.078125 1.078125 0.078125q0.59375 0 1.0625 -0.078125q0.46875 -0.078125 0.859375 -0.203125q0.40625 -0.125 0.734375 -0.28125q0.328125 -0.15625 0.625 -0.328125l0 1.75l0 0zm11.05304 -3.078125q0 0.90625 -0.34375 1.625q-0.34375 0.703125 -0.96875 1.171875q-0.625 0.46875 -1.53125 0.71875q-0.890625 0.234375 -2.015625 0.234375q-1.109375 0 -2.015625 -0.234375q-0.90625 -0.25 -1.546875 -0.71875q-0.625 -0.46875 -0.96875 -1.171875q-0.34375 -0.71875 -0.34375 -1.625q0 -0.921875 0.34375 -1.625q0.34375 -0.71875 0.96875 -1.1875q0.640625 -0.46875 1.546875 -0.703125q0.90625 -0.25 2.015625 -0.25q1.125 0 2.015625 0.25q0.90625 0.234375 1.53125 0.703125q0.625 0.46875 0.96875 1.1875q0.34375 0.703125 0.34375 1.625zm-1.953125 0q0 -0.40625 -0.140625 -0.796875q-0.125 -0.40625 -0.453125 -0.71875q-0.3125 -0.328125 -0.875 -0.515625q-0.5625 -0.203125 -1.4375 -0.203125q-0.578125 0 -1.03125 0.09375q-0.4375 0.09375 -0.765625 0.25q-0.3125 0.15625 -0.53125 0.375q-0.21875 0.21875 -0.359375 0.46875q-0.125 0.25 -0.171875 0.515625q-0.046875 0.265625 -0.046875 0.53125q0 0.265625 0.046875 0.53125q0.046875 0.265625 0.171875 0.515625q0.140625 0.25 0.359375 0.46875q0.21875 0.203125 0.53125 0.359375q0.328125 0.15625 0.765625 0.25q0.453125 0.09375 1.03125 0.09375q0.875 0 1.4375 -0.1875q0.5625 -0.203125 0.875 -0.515625q0.328125 -0.328125 0.453125 -0.71875q0.140625 -0.40625 0.140625 -0.796875zm10.291321 -1.96875q-0.078125 -0.03125 -0.234375 -0.0625q-0.140625 -0.046875 -0.34375 -0.09375q-0.203125 -0.046875 -0.4375 -0.078125q-0.234375 -0.03125 -0.484375 -0.03125q-0.515625 0 -0.96875 0.125q-0.453125 0.125 -0.84375 0.34375q-0.390625 0.203125 -0.734375 0.484375q-0.328125 0.265625 -0.609375 0.546875l0 4.296875l-1.921875 0l0 -7.15625l1.921875 0l0 1.171875q0.34375 -0.265625 0.703125 -0.5q0.375 -0.25 0.765625 -0.4375q0.40625 -0.1875 0.84375 -0.296875q0.453125 -0.109375 0.953125 -0.109375q0.1875 0 0.375 0.015625q0.203125 0.015625 0.375 0.046875q0.1875 0.015625 0.34375 0.046875q0.171875 0.03125 0.296875 0.0625l0 1.625l0 0zm9.190308 5.171875q-0.890625 0.296875 -1.765625 0.421875q-0.875 0.125 -1.78125 0.125q-1.171875 0 -2.09375 -0.25q-0.90625 -0.25 -1.53125 -0.71875q-0.625 -0.484375 -0.953125 -1.171875q-0.328125 -0.703125 -0.328125 -1.578125q0 -0.8125 0.328125 -1.5q0.328125 -0.703125 0.9375 -1.203125q0.609375 -0.515625 1.46875 -0.796875q0.859375 -0.296875 1.90625 -0.296875q0.984375 0 1.78125 0.265625q0.8125 0.25 1.390625 0.765625q0.578125 0.515625 0.890625 1.28125q0.328125 0.75 0.328125 1.734375l0 0.484375l-7.03125 0q0.078125 0.328125 0.296875 0.609375q0.21875 0.28125 0.578125 0.484375q0.375 0.1875 0.90625 0.296875q0.546875 0.109375 1.296875 0.109375q0.53125 0 1.046875 -0.0625q0.515625 -0.0625 0.953125 -0.171875q0.4375 -0.109375 0.796875 -0.234375q0.359375 -0.125 0.578125 -0.265625l0 1.671875zm-1.328125 -3.859375q-0.03125 -0.265625 -0.171875 -0.546875q-0.125 -0.28125 -0.421875 -0.515625q-0.28125 -0.234375 -0.75 -0.375q-0.453125 -0.15625 -1.140625 -0.15625q-0.65625 0 -1.140625 0.171875q-0.46875 0.15625 -0.796875 0.40625q-0.3125 0.234375 -0.484375 0.515625q-0.171875 0.265625 -0.21875 0.5l5.125 0zm15.553711 3.734375q-0.375 0.15625 -0.765625 0.28125q-0.375 0.125 -0.78125 0.203125q-0.40625 0.09375 -0.859375 0.140625q-0.4375 0.046875 -0.953125 0.046875q-1.09375 0 -2.015625 -0.234375q-0.921875 -0.234375 -1.59375 -0.703125q-0.65625 -0.46875 -1.03125 -1.171875q-0.359375 -0.703125 -0.359375 -1.640625q0 -0.953125 0.359375 -1.65625q0.375 -0.703125 1.03125 -1.171875q0.671875 -0.46875 1.59375 -0.703125q0.921875 -0.234375 2.015625 -0.234375q0.515625 0 0.953125 0.046875q0.453125 0.046875 0.859375 0.140625q0.40625 0.078125 0.78125 0.203125q0.390625 0.125 0.765625 0.28125l0 1.75q-0.296875 -0.171875 -0.625 -0.328125q-0.328125 -0.15625 -0.734375 -0.28125q-0.390625 -0.125 -0.859375 -0.203125q-0.46875 -0.09375 -1.0625 -0.09375q-0.921875 0 -1.53125 0.1875q-0.59375 0.1875 -0.953125 0.5q-0.359375 0.3125 -0.5 0.71875q-0.140625 0.40625 -0.140625 0.84375q0 0.28125 0.0625 0.5625q0.0625 0.28125 0.203125 0.53125q0.140625 0.234375 0.375 0.453125q0.234375 0.203125 0.578125 0.359375q0.359375 0.140625 0.828125 0.234375q0.46875 0.078125 1.078125 0.078125q0.59375 0 1.0625 -0.078125q0.46875 -0.078125 0.859375 -0.203125q0.40625 -0.125 0.734375 -0.28125q0.328125 -0.15625 0.625 -0.328125l0 1.75l0 0zm3.7249146 -2.578125q0 0.453125 0.078125 0.734375q0.09375 0.28125 0.28125 0.453125q0.1875 0.15625 0.484375 0.21875q0.296875 0.0625 0.734375 0.0625l3.65625 0l0 1.59375l-4.046875 0q-0.84375 0 -1.4375 -0.140625q-0.59375 -0.140625 -0.96875 -0.421875q-0.375 -0.296875 -0.546875 -0.734375q-0.15625 -0.4375 -0.15625 -1.046875l0 -4.8125l1.921875 0l0 4.09375zm12.856018 3.0625l0 -0.703125q-0.375 0.203125 -0.796875 0.359375q-0.421875 0.15625 -0.890625 0.265625q-0.453125 0.109375 -0.9375 0.15625q-0.484375 0.0625 -0.984375 0.0625q-0.578125 0 -1.125 -0.109375q-0.53125 -0.109375 -0.953125 -0.34375q-0.40625 -0.25 -0.65625 -0.640625q-0.25 -0.40625 -0.25 -0.984375q0 -0.71875 0.390625 -1.1875q0.390625 -0.484375 1.203125 -0.796875q0.8125 -0.3125 2.046875 -0.46875q1.25 -0.171875 2.953125 -0.265625l0 -0.15625q0 -0.171875 -0.09375 -0.34375q-0.09375 -0.171875 -0.34375 -0.296875q-0.25 -0.140625 -0.6875 -0.21875q-0.421875 -0.09375 -1.09375 -0.09375q-0.515625 0 -1.03125 0.0625q-0.515625 0.046875 -1.0 0.140625q-0.46875 0.09375 -0.890625 0.21875q-0.421875 0.125 -0.78125 0.265625l0 -1.71875q0.375 -0.09375 0.828125 -0.1875q0.453125 -0.09375 0.9375 -0.15625q0.484375 -0.0625 0.984375 -0.09375q0.5 -0.046875 0.953125 -0.046875q0.90625 0 1.65625 0.15625q0.765625 0.140625 1.3125 0.453125q0.546875 0.3125 0.859375 0.796875q0.3125 0.46875 0.3125 1.140625l0 4.734375l-1.921875 0zm0 -3.265625q-1.125 0.046875 -1.90625 0.125q-0.765625 0.078125 -1.28125 0.1875q-0.515625 0.09375 -0.8125 0.21875q-0.296875 0.109375 -0.4375 0.234375q-0.140625 0.125 -0.1875 0.25q-0.03125 0.125 -0.03125 0.234375q0 0.125 0.0625 0.25q0.078125 0.109375 0.234375 0.203125q0.171875 0.078125 0.453125 0.140625q0.28125 0.046875 0.71875 0.046875q0.46875 0 0.921875 -0.0625q0.453125 -0.078125 0.859375 -0.203125q0.40625 -0.140625 0.765625 -0.3125q0.359375 -0.171875 0.640625 -0.375l0 -0.9375zm10.713989 -1.875q-0.203125 -0.09375 -0.53125 -0.21875q-0.328125 -0.125 -0.75 -0.234375q-0.421875 -0.109375 -0.921875 -0.1875q-0.5 -0.078125 -1.015625 -0.078125q-0.421875 0 -0.71875 0.03125q-0.28125 0.015625 -0.484375 0.0625q-0.203125 0.046875 -0.328125 0.109375q-0.109375 0.046875 -0.171875 0.109375q-0.0625 0.046875 -0.078125 0.109375q-0.015625 0.046875 -0.015625 0.09375q0 0.15625 0.15625 0.28125q0.15625 0.109375 0.421875 0.203125q0.265625 0.09375 0.625 0.171875q0.359375 0.078125 0.765625 0.171875q0.40625 0.078125 0.828125 0.1875q0.4375 0.09375 0.84375 0.234375q0.40625 0.140625 0.765625 0.328125q0.359375 0.171875 0.625 0.40625q0.265625 0.234375 0.421875 0.546875q0.15625 0.3125 0.15625 0.71875q0 0.515625 -0.1875 0.890625q-0.171875 0.359375 -0.484375 0.625q-0.296875 0.25 -0.703125 0.40625q-0.390625 0.140625 -0.84375 0.21875q-0.4375 0.09375 -0.890625 0.109375q-0.4375 0.03125 -0.84375 0.03125q-1.0625 0 -1.96875 -0.171875q-0.90625 -0.171875 -1.59375 -0.4375l0 -1.703125q0.71875 0.390625 1.625 0.625q0.90625 0.21875 1.953125 0.21875q0.609375 0 1.0 -0.0625q0.390625 -0.0625 0.609375 -0.15625q0.21875 -0.109375 0.296875 -0.234375q0.078125 -0.125 0.078125 -0.234375q0 -0.171875 -0.15625 -0.296875q-0.15625 -0.125 -0.4375 -0.21875q-0.265625 -0.09375 -0.625 -0.171875q-0.359375 -0.078125 -0.765625 -0.15625q-0.390625 -0.09375 -0.828125 -0.1875q-0.421875 -0.09375 -0.828125 -0.21875q-0.390625 -0.125 -0.75 -0.296875q-0.359375 -0.171875 -0.640625 -0.390625q-0.265625 -0.234375 -0.421875 -0.53125q-0.15625 -0.3125 -0.15625 -0.71875q0 -0.46875 0.15625 -0.8125q0.171875 -0.34375 0.453125 -0.578125q0.296875 -0.25 0.65625 -0.40625q0.375 -0.15625 0.78125 -0.234375q0.421875 -0.078125 0.84375 -0.109375q0.421875 -0.03125 0.796875 -0.03125q0.421875 0 0.859375 0.046875q0.4375 0.03125 0.859375 0.109375q0.4375 0.078125 0.828125 0.171875q0.40625 0.09375 0.734375 0.203125l0 1.65625zm9.006836 0q-0.203125 -0.09375 -0.53125 -0.21875q-0.328125 -0.125 -0.75 -0.234375q-0.421875 -0.109375 -0.921875 -0.1875q-0.5 -0.078125 -1.015625 -0.078125q-0.421875 0 -0.71875 0.03125q-0.28125 0.015625 -0.484375 0.0625q-0.203125 0.046875 -0.328125 0.109375q-0.109375 0.046875 -0.171875 0.109375q-0.0625 0.046875 -0.078125 0.109375q-0.015625 0.046875 -0.015625 0.09375q0 0.15625 0.15625 0.28125q0.15625 0.109375 0.421875 0.203125q0.265625 0.09375 0.625 0.171875q0.359375 0.078125 0.765625 0.171875q0.40625 0.078125 0.828125 0.1875q0.4375 0.09375 0.84375 0.234375q0.40625 0.140625 0.765625 0.328125q0.359375 0.171875 0.625 0.40625q0.265625 0.234375 0.421875 0.546875q0.15625 0.3125 0.15625 0.71875q0 0.515625 -0.1875 0.890625q-0.171875 0.359375 -0.484375 0.625q-0.296875 0.25 -0.703125 0.40625q-0.390625 0.140625 -0.84375 0.21875q-0.4375 0.09375 -0.890625 0.109375q-0.4375 0.03125 -0.84375 0.03125q-1.0625 0 -1.96875 -0.171875q-0.90625 -0.171875 -1.59375 -0.4375l0 -1.703125q0.71875 0.390625 1.625 0.625q0.90625 0.21875 1.953125 0.21875q0.609375 0 1.0 -0.0625q0.390625 -0.0625 0.609375 -0.15625q0.21875 -0.109375 0.296875 -0.234375q0.078125 -0.125 0.078125 -0.234375q0 -0.171875 -0.15625 -0.296875q-0.15625 -0.125 -0.4375 -0.21875q-0.265625 -0.09375 -0.625 -0.171875q-0.359375 -0.078125 -0.765625 -0.15625q-0.390625 -0.09375 -0.828125 -0.1875q-0.421875 -0.09375 -0.828125 -0.21875q-0.390625 -0.125 -0.75 -0.296875q-0.359375 -0.171875 -0.640625 -0.390625q-0.265625 -0.234375 -0.421875 -0.53125q-0.15625 -0.3125 -0.15625 -0.71875q0 -0.46875 0.15625 -0.8125q0.171875 -0.34375 0.453125 -0.578125q0.296875 -0.25 0.65625 -0.40625q0.375 -0.15625 0.78125 -0.234375q0.421875 -0.078125 0.84375 -0.109375q0.421875 -0.03125 0.796875 -0.03125q0.421875 0 0.859375 0.046875q0.4375 0.03125 0.859375 0.109375q0.4375 0.078125 0.828125 0.171875q0.40625 0.09375 0.734375 0.203125l0 1.65625z" fill-rule="nonzero"/><path fill="#d9ead3" d="m737.2648 459.45996l0 0c0 -1.4087524 1.1420288 -2.5507507 2.5507812 -2.5507507l116.672 0c0.6765137 0 1.3253174 0.2687378 1.8037109 0.74710083c0.47833252 0.47836304 0.7470703 1.1271362 0.7470703 1.8036499l0 28.315948c0 1.4087219 -1.1420288 2.5507507 -2.5507812 2.5507507l-116.672 0c-1.4087524 0 -2.5507812 -1.1420288 -2.5507812 -2.5507507z" fill-rule="evenodd"/><path stroke="#274e13" stroke-width="4.0" stroke-linejoin="round" stroke-linecap="butt" d="m737.2648 459.45996l0 0c0 -1.4087524 1.1420288 -2.5507507 2.5507812 -2.5507507l116.672 0c0.6765137 0 1.3253174 0.2687378 1.8037109 0.74710083c0.47833252 0.47836304 0.7470703 1.1271362 0.7470703 1.8036499l0 28.315948c0 1.4087219 -1.1420288 2.5507507 -2.5507812 2.5507507l-116.672 0c-1.4087524 0 -2.5507812 -1.1420288 -2.5507812 -2.5507507z" fill-rule="evenodd"/><path fill="#274e13" d="m765.2035 475.99857l-3.984375 0l-0.671875 1.359375l-2.15625 0l3.75 -7.15625l2.15625 0l3.734375 7.15625l-2.15625 0l-0.671875 -1.359375zm-3.296875 -1.390625l2.625 0l-1.3125 -2.625l-1.3125 2.625zm15.3342285 -1.953125q0 0.53125 -0.15625 0.984375q-0.15625 0.453125 -0.515625 0.78125q-0.34375 0.3125 -0.890625 0.5q-0.546875 0.171875 -1.34375 0.171875l-3.203125 0l0 2.265625l-1.921875 0l0 -7.15625l5.125 0q0.796875 0 1.34375 0.1875q0.546875 0.171875 0.890625 0.5q0.359375 0.328125 0.515625 0.78125q0.15625 0.4375 0.15625 0.984375zm-1.953125 0.03125q0 -0.25 -0.078125 -0.421875q-0.0625 -0.1875 -0.234375 -0.296875q-0.15625 -0.125 -0.421875 -0.171875q-0.25 -0.0625 -0.625 -0.0625l-2.796875 0l0 1.84375l2.796875 0q0.375 0 0.625 -0.046875q0.265625 -0.046875 0.421875 -0.140625q0.171875 -0.109375 0.234375 -0.28125q0.078125 -0.171875 0.078125 -0.421875zm11.584351 -0.03125q0 0.53125 -0.15625 0.984375q-0.15625 0.453125 -0.515625 0.78125q-0.34375 0.3125 -0.890625 0.5q-0.546875 0.171875 -1.34375 0.171875l-3.203125 0l0 2.265625l-1.921875 0l0 -7.15625l5.125 0q0.796875 0 1.34375 0.1875q0.546875 0.171875 0.890625 0.5q0.359375 0.328125 0.515625 0.78125q0.15625 0.4375 0.15625 0.984375zm-1.953125 0.03125q0 -0.25 -0.078125 -0.421875q-0.0625 -0.1875 -0.234375 -0.296875q-0.15625 -0.125 -0.421875 -0.171875q-0.25 -0.0625 -0.625 -0.0625l-2.796875 0l0 1.84375l2.796875 0q0.375 0 0.625 -0.046875q0.265625 -0.046875 0.421875 -0.140625q0.171875 -0.109375 0.234375 -0.28125q0.078125 -0.171875 0.078125 -0.421875zm15.43457 4.1875q-0.375 0.15625 -0.765625 0.28125q-0.375 0.125 -0.78125 0.203125q-0.40625 0.09375 -0.859375 0.140625q-0.4375 0.046875 -0.953125 0.046875q-1.09375 0 -2.015625 -0.234375q-0.921875 -0.234375 -1.59375 -0.703125q-0.65625 -0.46875 -1.03125 -1.171875q-0.359375 -0.703125 -0.359375 -1.640625q0 -0.953125 0.359375 -1.65625q0.375 -0.703125 1.03125 -1.171875q0.671875 -0.46875 1.59375 -0.703125q0.921875 -0.234375 2.015625 -0.234375q0.515625 0 0.953125 0.046875q0.453125 0.046875 0.859375 0.140625q0.40625 0.078125 0.78125 0.203125q0.390625 0.125 0.765625 0.28125l0 1.75q-0.296875 -0.171875 -0.625 -0.328125q-0.328125 -0.15625 -0.734375 -0.28125q-0.390625 -0.125 -0.859375 -0.203125q-0.46875 -0.09375 -1.0625 -0.09375q-0.921875 0 -1.53125 0.1875q-0.59375 0.1875 -0.953125 0.5q-0.359375 0.3125 -0.5 0.71875q-0.140625 0.40625 -0.140625 0.84375q0 0.28125 0.0625 0.5625q0.0625 0.28125 0.203125 0.53125q0.140625 0.234375 0.375 0.453125q0.234375 0.203125 0.578125 0.359375q0.359375 0.140625 0.828125 0.234375q0.46875 0.078125 1.078125 0.078125q0.59375 0 1.0625 -0.078125q0.46875 -0.078125 0.859375 -0.203125q0.40625 -0.125 0.734375 -0.28125q0.328125 -0.15625 0.625 -0.328125l0 1.75l0 0zm3.7249146 -2.578125q0 0.453125 0.078125 0.734375q0.09375 0.28125 0.28125 0.453125q0.1875 0.15625 0.484375 0.21875q0.296875 0.0625 0.734375 0.0625l3.65625 0l0 1.59375l-4.046875 0q-0.84375 0 -1.4375 -0.140625q-0.59375 -0.140625 -0.96875 -0.421875q-0.375 -0.296875 -0.546875 -0.734375q-0.15625 -0.4375 -0.15625 -1.046875l0 -4.8125l1.921875 0l0 4.09375zm12.856079 3.0625l0 -0.703125q-0.375 0.203125 -0.796875 0.359375q-0.421875 0.15625 -0.890625 0.265625q-0.453125 0.109375 -0.9375 0.15625q-0.484375 0.0625 -0.984375 0.0625q-0.578125 0 -1.125 -0.109375q-0.53125 -0.109375 -0.953125 -0.34375q-0.40625 -0.25 -0.65625 -0.640625q-0.25 -0.40625 -0.25 -0.984375q0 -0.71875 0.390625 -1.1875q0.390625 -0.484375 1.203125 -0.796875q0.8125 -0.3125 2.046875 -0.46875q1.25 -0.171875 2.953125 -0.265625l0 -0.15625q0 -0.171875 -0.09375 -0.34375q-0.09375 -0.171875 -0.34375 -0.296875q-0.25 -0.140625 -0.6875 -0.21875q-0.421875 -0.09375 -1.09375 -0.09375q-0.515625 0 -1.03125 0.0625q-0.515625 0.046875 -1.0 0.140625q-0.46875 0.09375 -0.890625 0.21875q-0.421875 0.125 -0.78125 0.265625l0 -1.71875q0.375 -0.09375 0.828125 -0.1875q0.453125 -0.09375 0.9375 -0.15625q0.484375 -0.0625 0.984375 -0.09375q0.5 -0.046875 0.953125 -0.046875q0.90625 0 1.65625 0.15625q0.765625 0.140625 1.3125 0.453125q0.546875 0.3125 0.859375 0.796875q0.3125 0.46875 0.3125 1.140625l0 4.734375l-1.921875 0zm0 -3.265625q-1.125 0.046875 -1.90625 0.125q-0.765625 0.078125 -1.28125 0.1875q-0.515625 0.09375 -0.8125 0.21875q-0.296875 0.109375 -0.4375 0.234375q-0.140625 0.125 -0.1875 0.25q-0.03125 0.125 -0.03125 0.234375q0 0.125 0.0625 0.25q0.078125 0.109375 0.234375 0.203125q0.171875 0.078125 0.453125 0.140625q0.28125 0.046875 0.71875 0.046875q0.46875 0 0.921875 -0.0625q0.453125 -0.078125 0.859375 -0.203125q0.40625 -0.140625 0.765625 -0.3125q0.359375 -0.171875 0.640625 -0.375l0 -0.9375zm10.713989 -1.875q-0.203125 -0.09375 -0.53125 -0.21875q-0.328125 -0.125 -0.75 -0.234375q-0.421875 -0.109375 -0.921875 -0.1875q-0.5 -0.078125 -1.015625 -0.078125q-0.421875 0 -0.71875 0.03125q-0.28125 0.015625 -0.484375 0.0625q-0.203125 0.046875 -0.328125 0.109375q-0.109375 0.046875 -0.171875 0.109375q-0.0625 0.046875 -0.078125 0.109375q-0.015625 0.046875 -0.015625 0.09375q0 0.15625 0.15625 0.28125q0.15625 0.109375 0.421875 0.203125q0.265625 0.09375 0.625 0.171875q0.359375 0.078125 0.765625 0.171875q0.40625 0.078125 0.828125 0.1875q0.4375 0.09375 0.84375 0.234375q0.40625 0.140625 0.765625 0.328125q0.359375 0.171875 0.625 0.40625q0.265625 0.234375 0.421875 0.546875q0.15625 0.3125 0.15625 0.71875q0 0.515625 -0.1875 0.890625q-0.171875 0.359375 -0.484375 0.625q-0.296875 0.25 -0.703125 0.40625q-0.390625 0.140625 -0.84375 0.21875q-0.4375 0.09375 -0.890625 0.109375q-0.4375 0.03125 -0.84375 0.03125q-1.0625 0 -1.96875 -0.171875q-0.90625 -0.171875 -1.59375 -0.4375l0 -1.703125q0.71875 0.390625 1.625 0.625q0.90625 0.21875 1.953125 0.21875q0.609375 0 1.0 -0.0625q0.390625 -0.0625 0.609375 -0.15625q0.21875 -0.109375 0.296875 -0.234375q0.078125 -0.125 0.078125 -0.234375q0 -0.171875 -0.15625 -0.296875q-0.15625 -0.125 -0.4375 -0.21875q-0.265625 -0.09375 -0.625 -0.171875q-0.359375 -0.078125 -0.765625 -0.15625q-0.390625 -0.09375 -0.828125 -0.1875q-0.421875 -0.09375 -0.828125 -0.21875q-0.390625 -0.125 -0.75 -0.296875q-0.359375 -0.171875 -0.640625 -0.390625q-0.265625 -0.234375 -0.421875 -0.53125q-0.15625 -0.3125 -0.15625 -0.71875q0 -0.46875 0.15625 -0.8125q0.171875 -0.34375 0.453125 -0.578125q0.296875 -0.25 0.65625 -0.40625q0.375 -0.15625 0.78125 -0.234375q0.421875 -0.078125 0.84375 -0.109375q0.421875 -0.03125 0.796875 -0.03125q0.421875 0 0.859375 0.046875q0.4375 0.03125 0.859375 0.109375q0.4375 0.078125 0.828125 0.171875q0.40625 0.09375 0.734375 0.203125l0 1.65625zm9.006836 0q-0.203125 -0.09375 -0.53125 -0.21875q-0.328125 -0.125 -0.75 -0.234375q-0.421875 -0.109375 -0.921875 -0.1875q-0.5 -0.078125 -1.015625 -0.078125q-0.421875 0 -0.71875 0.03125q-0.28125 0.015625 -0.484375 0.0625q-0.203125 0.046875 -0.328125 0.109375q-0.109375 0.046875 -0.171875 0.109375q-0.0625 0.046875 -0.078125 0.109375q-0.015625 0.046875 -0.015625 0.09375q0 0.15625 0.15625 0.28125q0.15625 0.109375 0.421875 0.203125q0.265625 0.09375 0.625 0.171875q0.359375 0.078125 0.765625 0.171875q0.40625 0.078125 0.828125 0.1875q0.4375 0.09375 0.84375 0.234375q0.40625 0.140625 0.765625 0.328125q0.359375 0.171875 0.625 0.40625q0.265625 0.234375 0.421875 0.546875q0.15625 0.3125 0.15625 0.71875q0 0.515625 -0.1875 0.890625q-0.171875 0.359375 -0.484375 0.625q-0.296875 0.25 -0.703125 0.40625q-0.390625 0.140625 -0.84375 0.21875q-0.4375 0.09375 -0.890625 0.109375q-0.4375 0.03125 -0.84375 0.03125q-1.0625 0 -1.96875 -0.171875q-0.90625 -0.171875 -1.59375 -0.4375l0 -1.703125q0.71875 0.390625 1.625 0.625q0.90625 0.21875 1.953125 0.21875q0.609375 0 1.0 -0.0625q0.390625 -0.0625 0.609375 -0.15625q0.21875 -0.109375 0.296875 -0.234375q0.078125 -0.125 0.078125 -0.234375q0 -0.171875 -0.15625 -0.296875q-0.15625 -0.125 -0.4375 -0.21875q-0.265625 -0.09375 -0.625 -0.171875q-0.359375 -0.078125 -0.765625 -0.15625q-0.390625 -0.09375 -0.828125 -0.1875q-0.421875 -0.09375 -0.828125 -0.21875q-0.390625 -0.125 -0.75 -0.296875q-0.359375 -0.171875 -0.640625 -0.390625q-0.265625 -0.234375 -0.421875 -0.53125q-0.15625 -0.3125 -0.15625 -0.71875q0 -0.46875 0.15625 -0.8125q0.171875 -0.34375 0.453125 -0.578125q0.296875 -0.25 0.65625 -0.40625q0.375 -0.15625 0.78125 -0.234375q0.421875 -0.078125 0.84375 -0.109375q0.421875 -0.03125 0.796875 -0.03125q0.421875 0 0.859375 0.046875q0.4375 0.03125 0.859375 0.109375q0.4375 0.078125 0.828125 0.171875q0.40625 0.09375 0.734375 0.203125l0 1.65625z" fill-rule="nonzero"/><path fill="#000000" fill-opacity="0.0" d="m593.0208 445.6888l345.41858 0" fill-rule="evenodd"/><path stroke="#d9ead3" stroke-width="4.0" stroke-linejoin="round" stroke-linecap="butt" d="m593.0208 445.6888l345.41858 0" fill-rule="evenodd"/><path fill="#000000" fill-opacity="0.0" d="m586.5985 415.49655l142.53015 0l0 25.996338l-142.53015 0z" fill-rule="evenodd"/><path fill="#274e13" d="m598.7704 437.0347l0 -18.15625l2.140625 0l0 16.09375l7.90625 0l0 2.0625l-10.046875 0zm12.4470825 0l0 -16.578125l8.28125 0l0 1.96875l-6.171875 0l0 4.65625l5.5625 0l0 1.9375l-5.5625 0l0 6.0l6.40625 0l0 2.015625l-8.515625 0zm19.006042 -14.828125q-2.515625 0 -4.1875 1.875q-1.671875 1.859375 -1.671875 4.625q0 2.75 1.890625 4.65625q1.890625 1.90625 4.5 1.90625q2.625 0 3.765625 -0.484375l0 -6.578125l2.109375 0l0 7.703125q-2.234375 1.359375 -5.84375 1.359375q-3.59375 0 -6.09375 -2.46875q-2.5 -2.484375 -2.5 -6.078125q0 -3.59375 2.265625 -6.046875q2.265625 -2.453125 5.84375 -2.453125q2.78125 0 5.921875 1.015625l-0.578125 1.859375q-2.90625 -0.890625 -5.421875 -0.890625zm10.63385 14.828125l0 -16.578125l8.28125 0l0 1.96875l-6.171875 0l0 4.65625l5.5625 0l0 1.9375l-5.5625 0l0 6.0l6.40625 0l0 2.015625l-8.515625 0zm11.9279785 0l0 -16.671875l1.265625 0l10.359375 11.9375q0.578125 0.640625 0.9375 1.328125q0.375 0.6875 0.203125 0.84375q-0.546875 -0.53125 -0.546875 -2.234375l0 -11.78125l2.109375 0l0 16.671875l-1.265625 0l-10.5625 -12.125l-0.75 -1.46875q0.359375 -0.015625 0.359375 1.796875l0 11.703125l-2.109375 0zm24.579895 -1.8125q2.875 0 4.578125 -1.515625q1.703125 -1.515625 1.703125 -4.625q0 -3.125 -1.953125 -4.953125q-1.9375 -1.828125 -4.8125 -1.828125q-2.171875 0 -2.859375 0.0625l0 12.75q0.96875 0.109375 3.34375 0.109375zm-0.484375 -14.90625q3.78125 0 6.34375 2.359375q2.578125 2.359375 2.578125 6.40625q0 4.046875 -2.375 6.09375q-2.375 2.046875 -6.0625 2.046875q-2.4375 0 -5.5 -0.28125l0 -16.453125q2.40625 -0.171875 5.015625 -0.171875z" fill-rule="nonzero"/><path fill="#000000" fill-opacity="0.0" d="m387.13596 290.75296l0 44.850403" fill-rule="evenodd"/><path stroke="#274e13" stroke-width="4.0" stroke-linejoin="round" stroke-linecap="butt" d="m387.13596 290.75296l0 20.850403" fill-rule="evenodd"/><path stroke="#274e13" stroke-width="4.0" stroke-linecap="butt" d="m380.52902 311.60336l6.6069336 18.152405l6.6069336 -18.152405z" fill-rule="evenodd"/><path fill="#d9ead3" d="m533.96533 247.52231l0 0c0 -1.9730377 1.5994873 -3.5724945 3.5725098 -3.5724945l163.40619 0c0.94750977 0 1.8562012 0.37638855 2.526123 1.0463562c0.6699829 0.66996765 1.0463867 1.5786438 1.0463867 2.5261383l0 39.658173c0 1.9730225 -1.5994873 3.5724792 -3.5725098 3.5724792l-163.40619 0c-1.9730225 0 -3.5725098 -1.5994568 -3.5725098 -3.5724792z" fill-rule="evenodd"/><path stroke="#274e13" stroke-width="4.0" stroke-linejoin="round" stroke-linecap="butt" d="m533.96533 247.52231l0 0c0 -1.9730377 1.5994873 -3.5724945 3.5725098 -3.5724945l163.40619 0c0.94750977 0 1.8562012 0.37638855 2.526123 1.0463562c0.6699829 0.66996765 1.0463867 1.5786438 1.0463867 2.5261383l0 39.658173c0 1.9730225 -1.5994873 3.5724792 -3.5725098 3.5724792l-163.40619 0c-1.9730225 0 -3.5725098 -1.5994568 -3.5725098 -3.5724792z" fill-rule="evenodd"/><path fill="#274e13" d="m602.78174 265.72952q-0.25 -0.125 -0.671875 -0.28125q-0.421875 -0.15625 -0.953125 -0.296875q-0.515625 -0.140625 -1.140625 -0.234375q-0.609375 -0.09375 -1.265625 -0.09375q-0.515625 0 -0.890625 0.03125q-0.359375 0.03125 -0.609375 0.09375q-0.25 0.046875 -0.40625 0.125q-0.140625 0.0625 -0.21875 0.140625q-0.078125 0.0625 -0.109375 0.140625q-0.015625 0.0625 -0.015625 0.125q0 0.1875 0.1875 0.34375q0.203125 0.140625 0.53125 0.25q0.34375 0.109375 0.796875 0.21875q0.453125 0.09375 0.953125 0.203125q0.5 0.109375 1.03125 0.234375q0.546875 0.125 1.046875 0.296875q0.515625 0.171875 0.953125 0.40625q0.453125 0.21875 0.78125 0.515625q0.34375 0.296875 0.53125 0.6875q0.203125 0.390625 0.203125 0.890625q0 0.640625 -0.234375 1.109375q-0.21875 0.46875 -0.609375 0.78125q-0.375 0.3125 -0.875 0.515625q-0.5 0.1875 -1.046875 0.28125q-0.546875 0.109375 -1.109375 0.140625q-0.5625 0.03125 -1.078125 0.03125q-1.328125 0 -2.453125 -0.21875q-1.125 -0.203125 -2.0 -0.53125l0 -2.140625q0.90625 0.5 2.046875 0.78125q1.140625 0.28125 2.4375 0.28125q0.765625 0 1.25 -0.078125q0.484375 -0.09375 0.75 -0.21875q0.28125 -0.125 0.375 -0.265625q0.109375 -0.15625 0.109375 -0.296875q0 -0.21875 -0.203125 -0.375q-0.1875 -0.15625 -0.53125 -0.28125q-0.34375 -0.125 -0.796875 -0.21875q-0.4375 -0.09375 -0.953125 -0.1875q-0.5 -0.109375 -1.03125 -0.21875q-0.53125 -0.125 -1.03125 -0.28125q-0.5 -0.171875 -0.953125 -0.375q-0.453125 -0.21875 -0.796875 -0.5q-0.328125 -0.296875 -0.53125 -0.671875q-0.1875 -0.390625 -0.1875 -0.890625q0 -0.59375 0.203125 -1.015625q0.203125 -0.4375 0.5625 -0.734375q0.359375 -0.296875 0.8125 -0.484375q0.46875 -0.203125 0.984375 -0.296875q0.515625 -0.109375 1.046875 -0.140625q0.53125 -0.046875 1.0 -0.046875q0.515625 0 1.0625 0.0625q0.5625 0.046875 1.09375 0.140625q0.53125 0.09375 1.03125 0.21875q0.5 0.125 0.921875 0.25l0 2.078125zm11.577637 6.421875l0 -3.734375l-6.140625 0l0 3.734375l-2.40625 0l0 -8.9375l2.40625 0l0 3.25l6.140625 0l0 -3.25l2.421875 0l0 8.9375l-2.421875 0zm5.223755 0l0 -8.9375l2.40625 0l0 8.9375l-2.40625 0zm9.43158 -7.03125q-0.421875 0 -0.765625 0.03125q-0.328125 0.03125 -0.5625 0.15625q-0.234375 0.125 -0.359375 0.375q-0.125 0.234375 -0.125 0.65625l0 0.328125l6.75 0l0 1.90625l-6.75 0l0 3.578125l-2.40625 0l0 -6.015625q0 -0.6875 0.203125 -1.234375q0.203125 -0.546875 0.671875 -0.921875q0.484375 -0.375 1.28125 -0.5625q0.796875 -0.203125 1.984375 -0.203125l5.328125 0l0 1.90625l-5.25 0zm12.326233 0.03125l0 7.0l-2.40625 0l0 -7.0l-3.796875 0l0 -1.9375l10.0 0l0 1.9375l-3.796875 0z" fill-rule="nonzero"/><path fill="#000000" fill-opacity="0.0" d="m533.96533 267.35138l-61.543274 0" fill-rule="evenodd"/><path stroke="#274e13" stroke-width="4.0" stroke-linejoin="round" stroke-linecap="butt" d="m533.96533 267.3514l-39.03018 0" fill-rule="evenodd"/><path stroke="#274e13" stroke-width="4.0" stroke-linecap="butt" d="m494.93515 267.3514l-9.513123 -6.6611633l-9.513092 6.6611633l9.513092 6.661133z" fill-rule="evenodd"/><path fill="#93c47d" d="m69.75659 247.51732l0 0c0 -1.9730225 1.5994568 -3.5724792 3.5724869 -3.5724792l163.40622 0c0.94747925 0 1.8561554 0.37638855 2.526123 1.0463562c0.6699829 0.66996765 1.0463562 1.5786438 1.0463562 2.526123l0 39.658188c0 1.9730225 -1.5994568 3.5724792 -3.5724792 3.5724792l-163.40622 0c-1.9730301 0 -3.5724869 -1.5994568 -3.5724869 -3.5724792z" fill-rule="evenodd"/><path stroke="#274e13" stroke-width="4.0" stroke-linejoin="round" stroke-linecap="butt" d="m69.75659 247.51732l0 0c0 -1.9730225 1.5994568 -3.5724792 3.5724869 -3.5724792l163.40622 0c0.94747925 0 1.8561554 0.37638855 2.526123 1.0463562c0.6699829 0.66996765 1.0463562 1.5786438 1.0463562 2.526123l0 39.658188c0 1.9730225 -1.5994568 3.5724792 -3.5724792 3.5724792l-163.40622 0c-1.9730301 0 -3.5724869 -1.5994568 -3.5724869 -3.5724792z" fill-rule="evenodd"/><path fill="#274e13" d="m105.40062 270.45892l-4.984375 0l-0.828125 1.6875l-2.703125 0l4.6875 -8.9375l2.6875 0l4.6875 8.9375l-2.703125 0l-0.84375 -1.6875zm-4.109375 -1.75l3.265625 0l-1.625 -3.296875l-1.640625 3.296875zm14.870239 -5.734375q1.3125 0 2.4375 0.234375q1.140625 0.21875 2.078125 0.5625l0 2.1875q-0.375 -0.203125 -0.84375 -0.390625q-0.453125 -0.203125 -1.0 -0.34375q-0.546875 -0.15625 -1.171875 -0.25q-0.625 -0.09375 -1.3125 -0.09375q-0.859375 0 -1.5 0.125q-0.640625 0.125 -1.09375 0.34375q-0.453125 0.203125 -0.75 0.484375q-0.296875 0.265625 -0.46875 0.578125q-0.15625 0.3125 -0.234375 0.640625q-0.0625 0.328125 -0.0625 0.625q0 0.265625 0.046875 0.578125q0.0625 0.3125 0.21875 0.625q0.15625 0.3125 0.421875 0.609375q0.28125 0.28125 0.71875 0.5q0.4375 0.21875 1.046875 0.359375q0.625 0.125 1.484375 0.125q0.421875 0 0.734375 -0.015625q0.328125 -0.03125 0.59375 -0.078125q0.265625 -0.046875 0.5 -0.109375q0.234375 -0.0625 0.46875 -0.140625l0 -1.078125l-2.703125 0l0 -1.953125l5.125 0l0 4.5625q-0.484375 0.171875 -1.078125 0.3125q-0.59375 0.125 -1.234375 0.21875q-0.625 0.09375 -1.265625 0.140625q-0.640625 0.046875 -1.203125 0.046875q-0.875 0 -1.6875 -0.125q-0.8125 -0.109375 -1.515625 -0.34375q-0.6875 -0.25 -1.265625 -0.625q-0.578125 -0.375 -0.984375 -0.890625q-0.40625 -0.53125 -0.640625 -1.203125q-0.21875 -0.671875 -0.21875 -1.515625q0 -0.828125 0.234375 -1.5q0.234375 -0.6875 0.65625 -1.203125q0.421875 -0.515625 1.0 -0.890625q0.59375 -0.390625 1.296875 -0.625q0.71875 -0.25 1.515625 -0.359375q0.8125 -0.125 1.65625 -0.125zm15.556091 2.25q-0.09375 -0.03125 -0.28125 -0.078125q-0.1875 -0.0625 -0.4375 -0.109375q-0.25 -0.0625 -0.546875 -0.09375q-0.296875 -0.046875 -0.609375 -0.046875q-0.640625 0 -1.203125 0.15625q-0.5625 0.15625 -1.0625 0.421875q-0.484375 0.265625 -0.90625 0.609375q-0.40625 0.328125 -0.765625 0.6875l0 5.375l-2.40625 0l0 -8.9375l2.40625 0l0 1.453125q0.4375 -0.328125 0.890625 -0.625q0.46875 -0.3125 0.953125 -0.546875q0.5 -0.234375 1.046875 -0.375q0.5625 -0.140625 1.1875 -0.140625q0.234375 0 0.46875 0.03125q0.25 0.015625 0.484375 0.046875q0.234375 0.03125 0.421875 0.078125q0.203125 0.03125 0.359375 0.078125l0 2.015625l0 0zm11.50531 6.484375q-1.109375 0.359375 -2.203125 0.515625q-1.09375 0.15625 -2.234375 0.15625q-1.46875 0 -2.609375 -0.3125q-1.140625 -0.3125 -1.921875 -0.90625q-0.78125 -0.609375 -1.203125 -1.46875q-0.40625 -0.859375 -0.40625 -1.953125q0 -1.015625 0.40625 -1.890625q0.421875 -0.875 1.171875 -1.515625q0.765625 -0.640625 1.84375 -1.0q1.078125 -0.359375 2.390625 -0.359375q1.21875 0 2.234375 0.328125q1.015625 0.328125 1.734375 0.984375q0.71875 0.640625 1.125 1.578125q0.40625 0.9375 0.40625 2.171875l0 0.609375l-8.8125 0q0.109375 0.421875 0.375 0.78125q0.28125 0.34375 0.734375 0.59375q0.46875 0.234375 1.140625 0.375q0.671875 0.140625 1.609375 0.140625q0.671875 0 1.296875 -0.078125q0.640625 -0.09375 1.1875 -0.21875q0.5625 -0.140625 1.0 -0.296875q0.453125 -0.171875 0.734375 -0.328125l0 2.09375zm-1.671875 -4.84375q-0.03125 -0.328125 -0.203125 -0.671875q-0.15625 -0.359375 -0.515625 -0.640625q-0.359375 -0.296875 -0.9375 -0.484375q-0.578125 -0.1875 -1.453125 -0.1875q-0.8125 0 -1.40625 0.203125q-0.59375 0.203125 -1.0 0.5q-0.390625 0.296875 -0.609375 0.640625q-0.21875 0.34375 -0.28125 0.640625l6.40625 0zm14.57048 4.84375q-1.109375 0.359375 -2.203125 0.515625q-1.09375 0.15625 -2.234375 0.15625q-1.46875 0 -2.609375 -0.3125q-1.140625 -0.3125 -1.921875 -0.90625q-0.78125 -0.609375 -1.203125 -1.46875q-0.40625 -0.859375 -0.40625 -1.953125q0 -1.015625 0.40625 -1.890625q0.421875 -0.875 1.171875 -1.515625q0.765625 -0.640625 1.84375 -1.0q1.078125 -0.359375 2.390625 -0.359375q1.21875 0 2.234375 0.328125q1.015625 0.328125 1.734375 0.984375q0.71875 0.640625 1.125 1.578125q0.40625 0.9375 0.40625 2.171875l0 0.609375l-8.8125 0q0.109375 0.421875 0.375 0.78125q0.28125 0.34375 0.734375 0.59375q0.46875 0.234375 1.140625 0.375q0.671875 0.140625 1.609375 0.140625q0.671875 0 1.296875 -0.078125q0.640625 -0.09375 1.1875 -0.21875q0.5625 -0.140625 1.0 -0.296875q0.453125 -0.171875 0.734375 -0.328125l0 2.09375zm-1.671875 -4.84375q-0.03125 -0.328125 -0.203125 -0.671875q-0.15625 -0.359375 -0.515625 -0.640625q-0.359375 -0.296875 -0.9375 -0.484375q-0.578125 -0.1875 -1.453125 -0.1875q-0.8125 0 -1.40625 0.203125q-0.59375 0.203125 -1.0 0.5q-0.390625 0.296875 -0.609375 0.640625q-0.21875 0.34375 -0.28125 0.640625l6.40625 0zm7.0079803 -3.65625l0 0.984375q0.3125 -0.203125 0.6875 -0.421875q0.375 -0.21875 0.8125 -0.390625q0.453125 -0.171875 0.953125 -0.28125q0.5 -0.125 1.09375 -0.125q0.5625 0 0.984375 0.125q0.4375 0.125 0.75 0.3125q0.328125 0.1875 0.546875 0.4375q0.21875 0.234375 0.375 0.46875q0.46875 -0.3125 0.90625 -0.546875q0.453125 -0.25 0.90625 -0.421875q0.46875 -0.1875 0.9375 -0.28125q0.484375 -0.09375 0.984375 -0.09375q0.828125 0 1.46875 0.234375q0.65625 0.21875 1.09375 0.625q0.453125 0.390625 0.6875 0.9375q0.25 0.53125 0.25 1.140625l0 6.234375l-2.421875 0l0 -5.890625q0 -0.359375 -0.109375 -0.609375q-0.109375 -0.265625 -0.296875 -0.421875q-0.1875 -0.171875 -0.4375 -0.25q-0.25 -0.078125 -0.53125 -0.078125q-1.296875 0 -2.96875 1.171875q0.03125 0.109375 0.03125 0.265625q0.015625 0.140625 0.015625 0.296875l0 5.515625l-2.421875 0l0 -5.9375q0 -0.359375 -0.109375 -0.609375q-0.109375 -0.25 -0.296875 -0.40625q-0.1875 -0.15625 -0.4375 -0.21875q-0.25 -0.078125 -0.53125 -0.078125q-0.34375 0 -0.71875 0.109375q-0.375 0.09375 -0.765625 0.265625q-0.375 0.171875 -0.75 0.421875q-0.359375 0.234375 -0.6875 0.515625l0 5.9375l-2.40625 0l0 -8.9375l2.40625 0zm26.168518 8.5q-1.109375 0.359375 -2.203125 0.515625q-1.09375 0.15625 -2.234375 0.15625q-1.46875 0 -2.609375 -0.3125q-1.140625 -0.3125 -1.921875 -0.90625q-0.78125 -0.609375 -1.203125 -1.46875q-0.40625 -0.859375 -0.40625 -1.953125q0 -1.015625 0.40625 -1.890625q0.421875 -0.875 1.171875 -1.515625q0.765625 -0.640625 1.84375 -1.0q1.078125 -0.359375 2.390625 -0.359375q1.21875 0 2.234375 0.328125q1.015625 0.328125 1.734375 0.984375q0.71875 0.640625 1.125 1.578125q0.40625 0.9375 0.40625 2.171875l0 0.609375l-8.8125 0q0.109375 0.421875 0.375 0.78125q0.28125 0.34375 0.734375 0.59375q0.46875 0.234375 1.140625 0.375q0.671875 0.140625 1.609375 0.140625q0.671875 0 1.296875 -0.078125q0.640625 -0.09375 1.1875 -0.21875q0.5625 -0.140625 1.0 -0.296875q0.453125 -0.171875 0.734375 -0.328125l0 2.09375zm-1.671875 -4.84375q-0.03125 -0.328125 -0.203125 -0.671875q-0.15625 -0.359375 -0.515625 -0.640625q-0.359375 -0.296875 -0.9375 -0.484375q-0.578125 -0.1875 -1.453125 -0.1875q-0.8125 0 -1.40625 0.203125q-0.59375 0.203125 -1.0 0.5q-0.390625 0.296875 -0.609375 0.640625q-0.21875 0.34375 -0.28125 0.640625l6.40625 0zm13.11734 5.28125l0 -5.015625q0 -0.5 -0.09375 -0.90625q-0.078125 -0.40625 -0.31248474 -0.6875q-0.234375 -0.296875 -0.65625 -0.453125q-0.40625 -0.15625 -1.046875 -0.15625q-0.5 0 -1.046875 0.140625q-0.53125 0.125 -1.078125 0.34375q-0.53125 0.21875 -1.015625 0.515625q-0.484375 0.296875 -0.859375 0.609375l0 5.609375l-2.40625 0l0 -8.9375l2.40625 0l0 1.21875q0.453125 -0.265625 0.96875 -0.515625q0.515625 -0.265625 1.09375 -0.46875q0.578125 -0.203125 1.21875 -0.328125q0.65625 -0.140625 1.390625 -0.140625q0.90625 0 1.6093597 0.21875q0.71875 0.21875 1.203125 0.625q0.5 0.390625 0.765625 0.96875q0.265625 0.5625 0.265625 1.265625l0 6.09375l-2.40625 0zm10.170441 -7.0l0 7.0l-2.40625 0l0 -7.0l-3.796875 0l0 -1.9375l10.0 0l0 1.9375l-3.796875 0z" fill-rule="nonzero"/><path fill="#d9ead3" d="m186.42673 155.85744l0 0c0 -1.9730225 1.5994568 -3.5724792 3.5724792 -3.5724792l163.40622 0c0.94747925 0 1.8561401 0.37638855 2.526123 1.0463562c0.6699829 0.66996765 1.0463562 1.5786438 1.0463562 2.526123l0 39.658188c0 1.9730225 -1.5994568 3.5724792 -3.5724792 3.5724792l-163.40622 0c-1.9730225 0 -3.5724792 -1.5994568 -3.5724792 -3.5724792z" fill-rule="evenodd"/><path stroke="#274e13" stroke-width="4.0" stroke-linejoin="round" stroke-linecap="butt" d="m186.42673 155.85744l0 0c0 -1.9730225 1.5994568 -3.5724792 3.5724792 -3.5724792l163.40622 0c0.94747925 0 1.8561401 0.37638855 2.526123 1.0463562c0.6699829 0.66996765 1.0463562 1.5786438 1.0463562 2.526123l0 39.658188c0 1.9730225 -1.5994568 3.5724792 -3.5724792 3.5724792l-163.40622 0c-1.9730225 0 -3.5724792 -1.5994568 -3.5724792 -3.5724792z" fill-rule="evenodd"/><path fill="#274e13" d="m251.69273 180.48653l-2.40625 0l0 -8.9375l6.046875 0q0.96873474 0 1.6406097 0.203125q0.6875 0.203125 1.109375 0.578125q0.4375 0.359375 0.625 0.890625q0.203125 0.515625 0.203125 1.15625q0 0.578125 -0.171875 1.0q-0.15625 0.421875 -0.421875 0.71875q-0.265625 0.296875 -0.625 0.515625q-0.359375 0.203125 -0.765625 0.34375l2.9375 3.53125l-2.828125 0l-2.7031097 -3.296875l-2.640625 0l0 3.296875zm4.7656097 -6.125q0 -0.25 -0.0625 -0.421875q-0.0625 -0.1875 -0.234375 -0.296875q-0.17185974 -0.125 -0.45310974 -0.171875q-0.28125 -0.0625 -0.703125 -0.0625l-3.3125 0l0 1.921875l3.3125 0q0.421875 0 0.703125 -0.046875q0.28125 -0.0625 0.45310974 -0.171875q0.171875 -0.125 0.234375 -0.296875q0.0625 -0.1875 0.0625 -0.453125zm13.375397 -0.296875q-0.25 -0.125 -0.671875 -0.28125q-0.421875 -0.15625 -0.953125 -0.296875q-0.515625 -0.140625 -1.140625 -0.234375q-0.609375 -0.09375 -1.265625 -0.09375q-0.515625 0 -0.890625 0.03125q-0.359375 0.03125 -0.609375 0.09375q-0.25 0.046875 -0.40625 0.125q-0.140625 0.0625 -0.21875 0.140625q-0.078125 0.0625 -0.109375 0.140625q-0.015625 0.0625 -0.015625 0.125q0 0.1875 0.1875 0.34375q0.203125 0.140625 0.53125 0.25q0.34375 0.109375 0.796875 0.21875q0.453125 0.09375 0.953125 0.203125q0.5 0.109375 1.03125 0.234375q0.546875 0.125 1.046875 0.296875q0.515625 0.171875 0.953125 0.40625q0.453125 0.21875 0.78125 0.515625q0.34375 0.296875 0.53125 0.6875q0.203125 0.390625 0.203125 0.890625q0 0.640625 -0.234375 1.109375q-0.21875 0.46875 -0.609375 0.78125q-0.375 0.3125 -0.875 0.515625q-0.5 0.1875 -1.046875 0.28125q-0.546875 0.109375 -1.109375 0.140625q-0.5625 0.03125 -1.078125 0.03125q-1.328125 0 -2.453125 -0.21875q-1.125 -0.203125 -2.0 -0.53125l0 -2.140625q0.90625 0.5 2.046875 0.78125q1.140625 0.28125 2.4375 0.28125q0.765625 0 1.25 -0.078125q0.484375 -0.09375 0.75 -0.21875q0.28125 -0.125 0.375 -0.265625q0.109375 -0.15625 0.109375 -0.296875q0 -0.21875 -0.203125 -0.375q-0.1875 -0.15625 -0.53125 -0.28125q-0.34375 -0.125 -0.796875 -0.21875q-0.4375 -0.09375 -0.953125 -0.1875q-0.5 -0.109375 -1.03125 -0.21875q-0.53125 -0.125 -1.03125 -0.28125q-0.5 -0.171875 -0.953125 -0.375q-0.453125 -0.21875 -0.796875 -0.5q-0.328125 -0.296875 -0.53125 -0.671875q-0.1875 -0.390625 -0.1875 -0.890625q0 -0.59375 0.203125 -1.015625q0.203125 -0.4375 0.5625 -0.734375q0.359375 -0.296875 0.8125 -0.484375q0.46875 -0.203125 0.984375 -0.296875q0.515625 -0.109375 1.046875 -0.140625q0.53125 -0.046875 1.0 -0.046875q0.515625 0 1.0625 0.0625q0.5625 0.046875 1.09375 0.140625q0.53125 0.09375 1.03125 0.21875q0.5 0.125 0.921875 0.25l0 2.078125zm9.030762 6.421875l-2.8125 0l-4.53125 -8.9375l2.703125 0l3.25 6.71875l3.25 -6.71875l2.6875 0l-4.546875 8.9375zm16.066925 -5.890625q0 0.671875 -0.203125 1.234375q-0.1875 0.5625 -0.625 0.96875q-0.4375 0.40625 -1.125 0.640625q-0.6875 0.21875 -1.671875 0.21875l-4.015625 0l0 2.828125l-2.40625 0l0 -8.9375l6.421875 0q0.984375 0 1.671875 0.21875q0.6875 0.21875 1.125 0.640625q0.4375 0.40625 0.625 0.96875q0.203125 0.546875 0.203125 1.21875zm-2.453125 0.046875q0 -0.3125 -0.09375 -0.53125q-0.078125 -0.234375 -0.28125 -0.375q-0.203125 -0.140625 -0.53125 -0.203125q-0.3125 -0.078125 -0.796875 -0.078125l-3.484375 0l0 2.296875l3.484375 0q0.484375 0 0.796875 -0.046875q0.328125 -0.0625 0.53125 -0.1875q0.203125 -0.140625 0.28125 -0.34375q0.09375 -0.21875 0.09375 -0.53125z" fill-rule="nonzero"/><path fill="#000000" fill-opacity="0.0" d="m155.03218 290.748l0 44.850403" fill-rule="evenodd"/><path stroke="#274e13" stroke-width="4.0" stroke-linejoin="round" stroke-linecap="butt" d="m155.03218 290.748l0 22.33728" fill-rule="evenodd"/><path stroke="#274e13" stroke-width="4.0" stroke-linecap="butt" d="m155.03218 313.08527l-6.661148 9.513123l6.661148 9.513092l6.661148 -9.513092z" fill-rule="evenodd"/><path fill="#000000" fill-opacity="0.0" d="m186.42673 175.68654l-31.40158 0l0 68.25197" fill-rule="evenodd"/><path stroke="#274e13" stroke-width="4.0" stroke-linejoin="round" stroke-linecap="butt" d="m186.42671 175.68654l-31.401566 0l0 44.25197" fill-rule="evenodd"/><path stroke="#274e13" stroke-width="4.0" stroke-linecap="butt" d="m148.41821 219.9385l6.6069336 18.15239l6.6069336 -18.15239z" fill-rule="evenodd"/><path fill="#d9ead3" d="m186.42673 64.193405l0 0c0 -1.9730339 1.5994568 -3.5724869 3.5724792 -3.5724869l163.40622 0c0.94747925 0 1.8561401 0.37638474 2.526123 1.0463562c0.6699829 0.66997147 1.0463562 1.5786438 1.0463562 2.5261307l0 39.65818c0 1.9730225 -1.5994568 3.5724792 -3.5724792 3.5724792l-163.40622 0c-1.9730225 0 -3.5724792 -1.5994568 -3.5724792 -3.5724792z" fill-rule="evenodd"/><path stroke="#274e13" stroke-width="4.0" stroke-linejoin="round" stroke-linecap="butt" d="m186.42673 64.193405l0 0c0 -1.9730339 1.5994568 -3.5724869 3.5724792 -3.5724869l163.40622 0c0.94747925 0 1.8561401 0.37638474 2.526123 1.0463562c0.6699829 0.66997147 1.0463562 1.5786438 1.0463562 2.5261307l0 39.65818c0 1.9730225 -1.5994568 3.5724792 -3.5724792 3.5724792l-163.40622 0c-1.9730225 0 -3.5724792 -1.5994568 -3.5724792 -3.5724792z" fill-rule="evenodd"/><path fill="#274e13" d="m218.19205 87.13499l-4.984375 0l-0.828125 1.6875l-2.703125 0l4.6875 -8.9375l2.6875 0l4.6875 8.9375l-2.703125 0l-0.84375 -1.6875zm-4.109375 -1.75l3.265625 0l-1.625 -3.296875l-1.640625 3.296875zm14.120239 -3.5625l0 7.0l-2.40625 0l0 -7.0l-3.796875 0l0 -1.9375l10.0 0l0 1.9375l-3.796875 0zm10.406097 0l0 7.0l-2.40625 0l0 -7.0l-3.796875 0l0 -1.9375l10.0 0l0 1.9375l-3.796875 0zm15.374847 6.5625q-1.109375 0.359375 -2.203125 0.515625q-1.09375 0.15625 -2.234375 0.15625q-1.46875 0 -2.609375 -0.3125q-1.140625 -0.3125 -1.921875 -0.90625q-0.78125 -0.609375 -1.203125 -1.46875q-0.40625 -0.859375 -0.40625 -1.953125q0 -1.015625 0.40625 -1.890625q0.421875 -0.875 1.171875 -1.515625q0.765625 -0.640625 1.84375 -1.0q1.078125 -0.359375 2.390625 -0.359375q1.21875 0 2.234375 0.328125q1.015625 0.328125 1.734375 0.984375q0.71875 0.640625 1.125 1.578125q0.40625 0.9375 0.40625 2.171875l0 0.609375l-8.8125 0q0.109375 0.421875 0.375 0.78125q0.28125 0.34375 0.734375 0.59375q0.46875 0.234375 1.140625 0.375q0.671875 0.140625 1.609375 0.140625q0.671875 0 1.296875 -0.078125q0.640625 -0.09375 1.1875 -0.21875q0.5625 -0.140625 1.0 -0.296875q0.453125 -0.171875 0.734375 -0.328125l0 2.09375zm-1.671875 -4.84375q-0.03125 -0.328125 -0.203125 -0.671875q-0.15625 -0.359375 -0.515625 -0.640625q-0.359375 -0.296875 -0.9375 -0.484375q-0.578125 -0.1875 -1.453125 -0.1875q-0.8125 0 -1.40625 0.203125q-0.59375 0.203125 -1.0 0.5q-0.390625 0.296875 -0.609375 0.640625q-0.21875 0.34375 -0.28125 0.640625l6.40625 0zm13.117371 5.28125l0 -5.015625q0 -0.5 -0.09375 -0.90625q-0.078125 -0.40625 -0.3125 -0.6875q-0.234375 -0.296875 -0.65625 -0.453125q-0.40625 -0.15625 -1.046875 -0.15625q-0.5 0 -1.046875 0.140625q-0.53125 0.125 -1.078125 0.34375q-0.53125 0.21875 -1.015625 0.515625q-0.484375 0.296875 -0.859375 0.609375l0 5.609375l-2.40625 0l0 -8.9375l2.40625 0l0 1.21875q0.453125 -0.265625 0.96875 -0.515625q0.515625 -0.265625 1.09375 -0.46875q0.578125 -0.203125 1.21875 -0.328125q0.65625 -0.140625 1.390625 -0.140625q0.90625 0 1.609375 0.21875q0.71875 0.21875 1.203125 0.625q0.5 0.390625 0.765625 0.96875q0.265625 0.5625 0.265625 1.265625l0 6.09375l-2.40625 0zm16.123566 -4.484375q0 0.859375 -0.203125 1.53125q-0.1875 0.671875 -0.53125 1.171875q-0.328125 0.484375 -0.8125 0.828125q-0.484375 0.34375 -1.078125 0.5625q-0.578125 0.203125 -1.25 0.296875q-0.671875 0.09375 -1.40625 0.09375l-5.671875 0l0 -8.9375l5.65625 0q0.734375 0 1.40625 0.09375q0.6875 0.09375 1.265625 0.296875q0.59375 0.203125 1.078125 0.546875q0.484375 0.34375 0.8125 0.84375q0.34375 0.5 0.53125 1.171875q0.203125 0.65625 0.203125 1.5zm-2.4375 0q0 -0.640625 -0.171875 -1.109375q-0.15625 -0.484375 -0.53125 -0.78125q-0.375 -0.3125 -0.96875 -0.46875q-0.578125 -0.15625 -1.4375 -0.15625l-3.0 0l0 5.046875l3.0 0q0.859375 0 1.4375 -0.140625q0.59375 -0.15625 0.96875 -0.46875q0.375 -0.328125 0.53125 -0.796875q0.171875 -0.46875 0.171875 -1.125zm12.214905 4.484375l0 -0.875q-0.46875 0.25 -1.0 0.453125q-0.53125 0.1875 -1.109375 0.328125q-0.5625 0.125 -1.171875 0.1875q-0.609375 0.078125 -1.21875 0.078125q-0.734375 0 -1.40625 -0.140625q-0.671875 -0.125 -1.203125 -0.421875q-0.515625 -0.3125 -0.828125 -0.8125q-0.3125 -0.5 -0.3125 -1.21875q0 -0.890625 0.484375 -1.484375q0.5 -0.609375 1.515625 -1.0q1.015625 -0.390625 2.5625 -0.59375q1.5625 -0.203125 3.6875 -0.328125l0 -0.1875q0 -0.21875 -0.125 -0.4375q-0.109375 -0.21875 -0.421875 -0.375q-0.3125 -0.171875 -0.859375 -0.265625q-0.53125 -0.109375 -1.359375 -0.109375q-0.65625 0 -1.296875 0.0625q-0.640625 0.0625 -1.234375 0.1875q-0.59375 0.109375 -1.125 0.265625q-0.53125 0.15625 -0.96875 0.328125l0 -2.140625q0.453125 -0.125 1.015625 -0.234375q0.5625 -0.109375 1.171875 -0.1875q0.625 -0.078125 1.25 -0.125q0.625 -0.0625 1.1875 -0.0625q1.125 0 2.078125 0.1875q0.953125 0.1875 1.640625 0.578125q0.6875 0.390625 1.0625 1.0q0.390625 0.59375 0.390625 1.421875l0 5.921875l-2.40625 0zm0 -4.078125q-1.390625 0.046875 -2.375 0.15625q-0.96875 0.09375 -1.609375 0.21875q-0.640625 0.125 -1.015625 0.28125q-0.359375 0.140625 -0.546875 0.296875q-0.1875 0.15625 -0.234375 0.3125q-0.03125 0.15625 -0.03125 0.296875q0 0.15625 0.078125 0.3125q0.09375 0.140625 0.296875 0.25q0.21875 0.109375 0.5625 0.171875q0.359375 0.0625 0.890625 0.0625q0.59375 0 1.15625 -0.09375q0.5625 -0.09375 1.0625 -0.25q0.515625 -0.15625 0.953125 -0.375q0.453125 -0.21875 0.8125 -0.46875l0 -1.171875zm13.692932 4.078125l0 -5.015625q0 -0.5 -0.09375 -0.90625q-0.078125 -0.40625 -0.3125 -0.6875q-0.234375 -0.296875 -0.65625 -0.453125q-0.40625 -0.15625 -1.046875 -0.15625q-0.5 0 -1.046875 0.140625q-0.53125 0.125 -1.078125 0.34375q-0.53125 0.21875 -1.015625 0.515625q-0.484375 0.296875 -0.859375 0.609375l0 5.609375l-2.40625 0l0 -8.9375l2.40625 0l0 1.21875q0.453125 -0.265625 0.96875 -0.515625q0.515625 -0.265625 1.09375 -0.46875q0.578125 -0.203125 1.21875 -0.328125q0.65625 -0.140625 1.390625 -0.140625q0.90625 0 1.609375 0.21875q0.71875 0.21875 1.203125 0.625q0.5 0.390625 0.765625 0.96875q0.265625 0.5625 0.265625 1.265625l0 6.09375l-2.40625 0zm15.014191 -0.609375q-0.46875 0.1875 -0.953125 0.34375q-0.46875 0.15625 -0.984375 0.265625q-0.5 0.125 -1.0625 0.171875q-0.5625 0.0625 -1.203125 0.0625q-1.359375 0 -2.515625 -0.28125q-1.140625 -0.296875 -1.984375 -0.875q-0.828125 -0.59375 -1.296875 -1.46875q-0.453125 -0.890625 -0.453125 -2.078125q0 -1.171875 0.453125 -2.046875q0.46875 -0.890625 1.296875 -1.46875q0.84375 -0.59375 1.984375 -0.890625q1.15625 -0.296875 2.515625 -0.296875q0.640625 0 1.203125 0.0625q0.5625 0.0625 1.0625 0.171875q0.515625 0.109375 0.984375 0.265625q0.484375 0.15625 0.953125 0.359375l0 2.171875q-0.375 -0.203125 -0.78125 -0.390625q-0.40625 -0.203125 -0.90625 -0.359375q-0.484375 -0.171875 -1.078125 -0.265625q-0.59375 -0.109375 -1.34375 -0.109375q-1.140625 0 -1.890625 0.234375q-0.75 0.234375 -1.203125 0.625q-0.4375 0.390625 -0.625 0.90625q-0.1875 0.5 -0.1875 1.03125q0 0.359375 0.078125 0.71875q0.078125 0.34375 0.265625 0.65625q0.1875 0.296875 0.46875 0.5625q0.296875 0.265625 0.734375 0.453125q0.4375 0.1875 1.015625 0.296875q0.59375 0.109375 1.34375 0.109375q0.75 0 1.34375 -0.09375q0.59375 -0.109375 1.078125 -0.265625q0.5 -0.15625 0.90625 -0.34375q0.40625 -0.203125 0.78125 -0.40625l0 2.171875l0 0zm12.229645 0.171875q-1.109375 0.359375 -2.203125 0.515625q-1.09375 0.15625 -2.234375 0.15625q-1.46875 0 -2.609375 -0.3125q-1.140625 -0.3125 -1.921875 -0.90625q-0.78125 -0.609375 -1.203125 -1.46875q-0.40625 -0.859375 -0.40625 -1.953125q0 -1.015625 0.40625 -1.890625q0.421875 -0.875 1.171875 -1.515625q0.765625 -0.640625 1.84375 -1.0q1.078125 -0.359375 2.390625 -0.359375q1.21875 0 2.234375 0.328125q1.015625 0.328125 1.734375 0.984375q0.71875 0.640625 1.125 1.578125q0.40625 0.9375 0.40625 2.171875l0 0.609375l-8.8125 0q0.109375 0.421875 0.375 0.78125q0.28125 0.34375 0.734375 0.59375q0.46875 0.234375 1.140625 0.375q0.671875 0.140625 1.609375 0.140625q0.671875 0 1.296875 -0.078125q0.640625 -0.09375 1.1875 -0.21875q0.5625 -0.140625 1.0 -0.296875q0.453125 -0.171875 0.734375 -0.328125l0 2.09375zm-1.671875 -4.84375q-0.03125 -0.328125 -0.203125 -0.671875q-0.15625 -0.359375 -0.515625 -0.640625q-0.359375 -0.296875 -0.9375 -0.484375q-0.578125 -0.1875 -1.453125 -0.1875q-0.8125 0 -1.40625 0.203125q-0.59375 0.203125 -1.0 0.5q-0.390625 0.296875 -0.609375 0.640625q-0.21875 0.34375 -0.28125 0.640625l6.40625 0z" fill-rule="nonzero"/><path fill="#000000" fill-opacity="0.0" d="m186.42673 84.02249l-31.40158 0l0 159.93701" fill-rule="evenodd"/><path stroke="#274e13" stroke-width="4.0" stroke-linejoin="round" stroke-linecap="butt" d="m186.42671 84.02249l-31.401566 0l0 135.93701" fill-rule="evenodd"/><path stroke="#274e13" stroke-width="4.0" stroke-linecap="butt" d="m148.41821 219.9595l6.6069336 18.15239l6.6069336 -18.15239z" fill-rule="evenodd"/><path fill="#000000" fill-opacity="0.0" d="m387.13596 243.94981l0 -68.25197l-30.173218 0" fill-rule="evenodd"/><path stroke="#274e13" stroke-width="4.0" stroke-linejoin="round" stroke-linecap="butt" d="m387.13596 243.94983l0 -68.25197l-7.6601257 0" fill-rule="evenodd"/><path stroke="#274e13" stroke-width="4.0" stroke-linecap="butt" d="m379.47583 175.69786l-9.513123 -6.661148l-9.513092 6.661148l9.513092 6.661148z" fill-rule="evenodd"/><path fill="#000000" fill-opacity="0.0" d="m387.13596 243.94981l0 -159.93701l-30.173218 0" fill-rule="evenodd"/><path stroke="#274e13" stroke-width="4.0" stroke-linejoin="round" stroke-linecap="butt" d="m387.13596 243.94983l0 -159.93701l-7.6601257 0" fill-rule="evenodd"/><path stroke="#274e13" stroke-width="4.0" stroke-linecap="butt" d="m379.47583 84.01281l-9.513123 -6.661148l-9.513092 6.661148l9.513092 6.661148z" fill-rule="evenodd"/></g></svg>