<svg version="1.1" viewBox="0.0 0.0 960.0 720.0" fill="none" stroke="none" stroke-linecap="square" stroke-miterlimit="10" xmlns:xlink="http://www.w3.org/1999/xlink" xmlns="http://www.w3.org/2000/svg"><clipPath id="p.0"><path d="m0 0l960.0 0l0 720.0l-960.0 0l0 -720.0z" clip-rule="nonzero"/></clipPath><g clip-path="url(#p.0)"><path fill="#000000" fill-opacity="0.0" d="m0 0l960.0 0l0 720.0l-960.0 0z" fill-rule="evenodd"/><path fill="#000000" fill-opacity="0.0" d="m412.15747 176.0l0 0c0 -37.468384 30.374146 -67.84252 67.84253 -67.84252l0 0c17.99295 0 35.248962 7.1476746 47.971924 19.870613c12.7229 12.722946 19.870605 29.978958 19.870605 47.97191l0 0c0 37.468384 -30.374146 67.842514 -67.84253 67.842514l0 0c-37.468384 0 -67.84253 -30.37413 -67.84253 -67.842514z" fill-rule="evenodd"/><path stroke="#3c78d8" stroke-width="24.0" stroke-linejoin="round" stroke-linecap="butt" d="m412.15747 176.0l0 0c0 -37.468384 30.374146 -67.84252 67.84253 -67.84252l0 0c17.99295 0 35.248962 7.1476746 47.971924 19.870613c12.7229 12.722946 19.870605 29.978958 19.870605 47.97191l0 0c0 37.468384 -30.374146 67.842514 -67.84253 67.842514l0 0c-37.468384 0 -67.84253 -30.37413 -67.84253 -67.842514z" fill-rule="evenodd"/><path fill="#000000" fill-opacity="0.0" d="m412.15747 544.0l0 0c0 -37.468384 30.374146 -67.84253 67.84253 -67.84253l0 0c17.99295 0 35.248962 7.1476746 47.971924 19.870636c12.7229 12.722931 19.870605 29.978912 19.870605 47.971893l0 0c0 37.468384 -30.374146 67.84253 -67.84253 67.84253l0 0c-37.468384 0 -67.84253 -30.374146 -67.84253 -67.84253z" fill-rule="evenodd"/><path stroke="#3c78d8" stroke-width="24.0" stroke-linejoin="round" stroke-linecap="butt" d="m412.15747 544.0l0 0c0 -37.468384 30.374146 -67.84253 67.84253 -67.84253l0 0c17.99295 0 35.248962 7.1476746 47.971924 19.870636c12.7229 12.722931 19.870605 29.978912 19.870605 47.971893l0 0c0 37.468384 -30.374146 67.84253 -67.84253 67.84253l0 0c-37.468384 0 -67.84253 -30.374146 -67.84253 -67.84253z" fill-rule="evenodd"/><path fill="#000000" fill-opacity="0.0" d="m343.9719 312.0281l88.06302 -88.063" fill-rule="evenodd"/><path stroke="#3c78d8" stroke-width="24.0" stroke-linejoin="round" stroke-linecap="butt" d="m343.9719 312.0281l88.06302 -88.063" fill-rule="evenodd"/><path fill="#000000" fill-opacity="0.0" d="m343.9719 407.9719l88.06302 88.06302" fill-rule="evenodd"/><path stroke="#3c78d8" stroke-width="24.0" stroke-linejoin="round" stroke-linecap="butt" d="m343.9719 407.9719l88.06302 88.06302" fill-rule="evenodd"/><path fill="#000000" fill-opacity="0.0" d="m527.9719 496.0281l88.06299 -88.06302" fill-rule="evenodd"/><path stroke="#3c78d8" stroke-width="24.0" stroke-linejoin="round" stroke-linecap="butt" d="m527.9719 496.0281l88.06299 -88.06302" fill-rule="evenodd"/><path fill="#000000" fill-opacity="0.0" d="m596.1575 360.0l-48.31494 0" fill-rule="evenodd"/><path stroke="#3c78d8" stroke-width="24.0" stroke-linejoin="round" stroke-linecap="butt" d="m596.1575 360.0l-48.31494 0" fill-rule="evenodd"/><path fill="#000000" fill-opacity="0.0" d="m527.9719 223.97191l88.06299 88.063" fill-rule="evenodd"/><path stroke="#3c78d8" stroke-width="24.0" stroke-linejoin="round" stroke-linecap="butt" d="m527.9719 223.97191l88.06299 88.063" fill-rule="evenodd"/><path fill="#000000" fill-opacity="0.0" d="m228.15749 360.0l0 0c0 -37.468384 30.37413 -67.84253 67.842514 -67.84253l0 0c17.99295 0 35.248962 7.1476746 47.971893 19.870636c12.722961 12.722931 19.870636 29.978943 19.870636 47.971893l0 0c0 37.468384 -30.374146 67.84253 -67.84253 67.84253l0 0c-37.468384 0 -67.842514 -30.374146 -67.842514 -67.84253z" fill-rule="evenodd"/><path stroke="#cc0000" stroke-width="24.0" stroke-linejoin="round" stroke-linecap="butt" d="m228.15749 360.0l0 0c0 -37.468384 30.37413 -67.84253 67.842514 -67.84253l0 0c17.99295 0 35.248962 7.1476746 47.971893 19.870636c12.722961 12.722931 19.870636 29.978943 19.870636 47.971893l0 0c0 37.468384 -30.374146 67.84253 -67.84253 67.84253l0 0c-37.468384 0 -67.842514 -30.374146 -67.842514 -67.84253z" fill-rule="evenodd"/><path fill="#cc0000" d="m303.08502 388.8q-4.0 0 -7.203125 -2.03125q-3.203125 -2.046875 -5.046875 -5.5625q-1.828125 -3.53125 -1.828125 -7.921875l0 -38.171875q0 -1.75 1.109375 -2.875q1.125 -1.125 2.890625 -1.125q1.75 0 2.875 1.125q1.125 1.125 1.125 2.875l0 38.171875q0 3.203125 1.75 5.359375q1.765625 2.15625 4.328125 2.15625l2.71875 0q1.4375 0 2.4375 1.125q1.0 1.109375 1.0 2.875q0 1.765625 -1.328125 2.890625q-1.3125 1.109375 -3.390625 1.109375l-1.4375 0zm-17.765625 -35.28125q-1.671875 0 -2.71875 -0.953125q-1.046875 -0.96875 -1.046875 -2.40625q0 -1.59375 1.046875 -2.546875q1.046875 -0.96875 2.71875 -0.96875l18.484375 0q1.671875 0 2.703125 0.96875q1.046875 0.953125 1.046875 2.546875q0 1.4375 -1.046875 2.40625q-1.03125 0.953125 -2.703125 0.953125l-18.484375 0z" fill-rule="nonzero"/><path fill="#000000" fill-opacity="0.0" d="m412.15747 360.0l0 0c0 -37.468384 30.374146 -67.84253 67.84253 -67.84253l0 0c17.99295 0 35.248962 7.1476746 47.971924 19.870636c12.7229 12.722931 19.870605 29.978943 19.870605 47.971893l0 0c0 37.468384 -30.374146 67.84253 -67.84253 67.84253l0 0c-37.468384 0 -67.84253 -30.374146 -67.84253 -67.84253z" fill-rule="evenodd"/><path stroke="#f1c232" stroke-width="24.0" stroke-linejoin="round" stroke-linecap="butt" d="m412.15747 360.0l0 0c0 -37.468384 30.374146 -67.84253 67.84253 -67.84253l0 0c17.99295 0 35.248962 7.1476746 47.971924 19.870636c12.7229 12.722931 19.870605 29.978943 19.870605 47.971893l0 0c0 37.468384 -30.374146 67.84253 -67.84253 67.84253l0 0c-37.468384 0 -67.84253 -30.374146 -67.84253 -67.84253z" fill-rule="evenodd"/><path fill="#f1c232" d="m507.12067 388.8781q-1.765625 0 -2.921875 -1.15625q-1.15625 -1.15625 -1.15625 -2.921875l0 -22.875q0 -5.046875 -2.484375 -7.484375q-2.484375 -2.4375 -6.484375 -2.4375q-4.15625 0 -6.84375 2.875q-2.671875 2.875 -2.671875 7.359375l-6.640625 0q0 -5.203125 2.234375 -9.15625q2.25 -3.96875 6.28125 -6.203125q4.046875 -2.234375 9.25 -2.234375q4.5625 0 8.078125 2.0q3.515625 2.0 5.46875 5.875q1.96875 3.875 1.96875 9.40625l0 22.875q0 1.765625 -1.125 2.921875q-1.109375 1.15625 -2.953125 1.15625zm-53.359375 0q-1.765625 0 -2.921875 -1.15625q-1.15625 -1.15625 -1.15625 -2.921875l0 -35.59375q0 -1.84375 1.15625 -2.96875q1.15625 -1.125 2.921875 -1.125q1.84375 0 2.953125 1.125q1.125 1.125 1.125 2.96875l0 35.59375q0 1.765625 -1.125 2.921875q-1.109375 1.15625 -2.953125 1.15625zm26.71875 0q-1.765625 0 -2.921875 -1.15625q-1.15625 -1.15625 -1.15625 -2.921875l0 -22.875q0 -5.046875 -2.484375 -7.484375q-2.484375 -2.4375 -6.484375 -2.4375q-4.15625 0 -6.875 2.875q-2.71875 2.875 -2.71875 7.359375l-5.046875 0q0 -5.203125 2.078125 -9.15625q2.09375 -3.96875 5.765625 -6.203125q3.6875 -2.234375 8.40625 -2.234375q4.5625 0 8.078125 2.0q3.515625 2.0 5.46875 5.875q1.96875 3.875 1.96875 9.40625l0 22.875q0 1.765625 -1.125 2.921875q-1.109375 1.15625 -2.953125 1.15625z" fill-rule="nonzero"/><path fill="#000000" fill-opacity="0.0" d="m596.1575 360.0l0 0c0 -37.468384 30.374146 -67.84253 67.84253 -67.84253l0 0c17.992981 0 35.248962 7.1476746 47.971924 19.870636c12.7229 12.722931 19.870605 29.978943 19.870605 47.971893l0 0c0 37.468384 -30.374146 67.84253 -67.84253 67.84253l0 0c-37.468384 0 -67.84253 -30.374146 -67.84253 -67.84253z" fill-rule="evenodd"/><path stroke="#6aa84f" stroke-width="24.0" stroke-linejoin="round" stroke-linecap="butt" d="m596.1575 360.0l0 0c0 -37.468384 30.374146 -67.84253 67.84253 -67.84253l0 0c17.992981 0 35.248962 7.1476746 47.971924 19.870636c12.7229 12.722931 19.870605 29.978943 19.870605 47.971893l0 0c0 37.468384 -30.374146 67.84253 -67.84253 67.84253l0 0c-37.468384 0 -67.84253 -30.374146 -67.84253 -67.84253z" fill-rule="evenodd"/><path fill="#6aa84f" d="m663.9981 388.8q-1.765625 0 -2.921875 -1.15625q-1.15625 -1.15625 -1.15625 -2.921875l0 -35.609375q0 -1.828125 1.15625 -2.953125q1.15625 -1.125 2.921875 -1.125q1.84375 0 2.953125 1.125q1.125 1.125 1.125 2.953125l0 35.609375q0 1.765625 -1.125 2.921875q-1.109375 1.15625 -2.953125 1.15625zm-0.28125 -50.875q-2.15625 0 -3.71875 -1.5625q-1.5625 -1.5625 -1.5625 -3.71875q0 -2.15625 1.5625 -3.71875q1.5625 -1.5625 3.71875 -1.5625q2.15625 0 3.71875 1.5625q1.5625 1.5625 1.5625 3.71875q0 2.15625 -1.5625 3.71875q-1.5625 1.5625 -3.71875 1.5625z" fill-rule="nonzero"/></g></svg>