<svg version="1.1" viewBox="0.0 0.0 960.0 720.0" fill="none" stroke="none" stroke-linecap="square" stroke-miterlimit="10" xmlns:xlink="http://www.w3.org/1999/xlink" xmlns="http://www.w3.org/2000/svg"><clipPath id="p.0"><path d="m0 0l960.0 0l0 720.0l-960.0 0l0 -720.0z" clip-rule="nonzero"/></clipPath><g clip-path="url(#p.0)"><path fill="#000000" fill-opacity="0.0" d="m0 0l960.0 0l0 720.0l-960.0 0z" fill-rule="evenodd"/><path fill="#93c47d" d="m129.75328 226.84117l0 0c0 -1.9730377 1.5994568 -3.5724945 3.5724792 -3.5724945l163.4062 0c0.94750977 0 1.8561707 0.37638855 2.5261536 1.0463562c0.6699524 0.66996765 1.0463562 1.5786438 1.0463562 2.5261383l0 39.658188c0 1.9730225 -1.5994568 3.5724792 -3.5725098 3.5724792l-163.4062 0c-1.9730225 0 -3.5724792 -1.5994568 -3.5724792 -3.5724792z" fill-rule="evenodd"/><path stroke="#274e13" stroke-width="4.0" stroke-linejoin="round" stroke-linecap="butt" d="m129.75328 226.84117l0 0c0 -1.9730377 1.5994568 -3.5724945 3.5724792 -3.5724945l163.4062 0c0.94750977 0 1.8561707 0.37638855 2.5261536 1.0463562c0.6699524 0.66996765 1.0463562 1.5786438 1.0463562 2.5261383l0 39.658188c0 1.9730225 -1.5994568 3.5724792 -3.5725098 3.5724792l-163.4062 0c-1.9730225 0 -3.5724792 -1.5994568 -3.5724792 -3.5724792z" fill-rule="evenodd"/><path fill="#274e13" d="m169.67012 250.86089q-0.46875 0.1875 -0.953125 0.34375q-0.46875 0.15625 -0.984375 0.265625q-0.5 0.125 -1.0625 0.171875q-0.5625 0.0625 -1.203125 0.0625q-1.359375 0 -2.515625 -0.28125q-1.140625 -0.296875 -1.984375 -0.875q-0.828125 -0.59375 -1.296875 -1.46875q-0.453125 -0.890625 -0.453125 -2.078125q0 -1.171875 0.453125 -2.046875q0.46875 -0.890625 1.296875 -1.46875q0.84375 -0.59375 1.984375 -0.890625q1.15625 -0.296875 2.515625 -0.296875q0.640625 0 1.203125 0.0625q0.5625 0.0625 1.0625 0.171875q0.515625 0.109375 0.984375 0.265625q0.484375 0.15625 0.953125 0.359375l0 2.171875q-0.375 -0.203125 -0.78125 -0.390625q-0.40625 -0.203125 -0.90625 -0.359375q-0.484375 -0.171875 -1.078125 -0.265625q-0.59375 -0.109375 -1.34375 -0.109375q-1.140625 0 -1.890625 0.234375q-0.75 0.234375 -1.203125 0.625q-0.4375 0.390625 -0.625 0.90625q-0.1875 0.5 -0.1875 1.03125q0 0.359375 0.078125 0.71875q0.078125 0.34375 0.265625 0.65625q0.1875 0.296875 0.46875 0.5625q0.296875 0.265625 0.734375 0.453125q0.4375 0.1875 1.015625 0.296875q0.59375 0.109375 1.34375 0.109375q0.75 0 1.34375 -0.09375q0.59375 -0.109375 1.078125 -0.265625q0.5 -0.15625 0.90625 -0.34375q0.40625 -0.203125 0.78125 -0.40625l0 2.171875l0 0zm13.823395 -3.859375q0 1.15625 -0.421875 2.046875q-0.421875 0.875 -1.21875 1.46875q-0.78125 0.59375 -1.90625 0.890625q-1.125 0.296875 -2.515625 0.296875q-1.40625 0 -2.53125 -0.296875q-1.125 -0.296875 -1.921875 -0.890625q-0.796875 -0.59375 -1.234375 -1.46875q-0.421875 -0.890625 -0.421875 -2.046875q0 -1.140625 0.421875 -2.015625q0.4375 -0.890625 1.234375 -1.484375q0.796875 -0.59375 1.921875 -0.890625q1.125 -0.3125 2.53125 -0.3125q1.390625 0 2.515625 0.3125q1.125 0.296875 1.90625 0.890625q0.796875 0.59375 1.21875 1.484375q0.421875 0.875 0.421875 2.015625zm-2.4375 0q0 -0.5 -0.171875 -1.0q-0.15625 -0.5 -0.5625 -0.890625q-0.40625 -0.390625 -1.109375 -0.640625q-0.703125 -0.25 -1.78125 -0.25q-0.734375 0 -1.296875 0.125q-0.546875 0.109375 -0.953125 0.3125q-0.390625 0.1875 -0.671875 0.46875q-0.265625 0.265625 -0.4375 0.578125q-0.15625 0.3125 -0.234375 0.640625q-0.0625 0.328125 -0.0625 0.65625q0 0.34375 0.0625 0.6875q0.078125 0.328125 0.234375 0.640625q0.171875 0.296875 0.4375 0.578125q0.28125 0.265625 0.671875 0.46875q0.40625 0.1875 0.953125 0.3125q0.5625 0.109375 1.296875 0.109375q1.078125 0 1.78125 -0.25q0.703125 -0.25 1.109375 -0.640625q0.40625 -0.40625 0.5625 -0.90625q0.171875 -0.5 0.171875 -1.0zm7.0519104 0.640625q0 0.5625 0.09375 0.921875q0.109375 0.34375 0.34375 0.5625q0.234375 0.203125 0.609375 0.28125q0.375 0.078125 0.921875 0.078125l4.578125 0l0 1.984375l-5.0625 0q-1.0625 0 -1.796875 -0.171875q-0.734375 -0.171875 -1.203125 -0.53125q-0.46875 -0.359375 -0.6875 -0.90625q-0.203125 -0.5625 -0.203125 -1.328125l0 -6.0l2.40625 0l0 5.109375zm10.900696 0q0 0.5625 0.09375 0.921875q0.109375 0.34375 0.34375 0.5625q0.234375 0.203125 0.609375 0.28125q0.375 0.078125 0.921875 0.078125l4.578125 0l0 1.984375l-5.0625 0q-1.0625 0 -1.796875 -0.171875q-0.734375 -0.171875 -1.203125 -0.53125q-0.46875 -0.359375 -0.6875 -0.90625q-0.203125 -0.5625 -0.203125 -1.328125l0 -6.0l2.40625 0l0 5.109375zm18.463196 3.390625q-1.109375 0.359375 -2.203125 0.515625q-1.09375 0.15625 -2.234375 0.15625q-1.46875 0 -2.609375 -0.3125q-1.140625 -0.3125 -1.921875 -0.90625q-0.78125 -0.609375 -1.203125 -1.46875q-0.40625 -0.859375 -0.40625 -1.953125q0 -1.015625 0.40625 -1.890625q0.421875 -0.875 1.171875 -1.515625q0.765625 -0.640625 1.84375 -1.0q1.078125 -0.359375 2.390625 -0.359375q1.21875 0 2.234375 0.328125q1.015625 0.328125 1.734375 0.984375q0.71875 0.640625 1.125 1.578125q0.40625 0.9375 0.40625 2.171875l0 0.609375l-8.8125 0q0.109375 0.421875 0.375 0.78125q0.28125 0.34375 0.734375 0.59375q0.46875 0.234375 1.140625 0.375q0.671875 0.140625 1.609375 0.140625q0.671875 0 1.296875 -0.078125q0.640625 -0.09375 1.1875 -0.21875q0.5625 -0.140625 1.0 -0.296875q0.453125 -0.171875 0.734375 -0.328125l0 2.09375zm-1.671875 -4.84375q-0.03125 -0.328125 -0.203125 -0.671875q-0.15625 -0.359375 -0.515625 -0.640625q-0.359375 -0.296875 -0.9375 -0.484375q-0.578125 -0.1875 -1.453125 -0.1875q-0.8125 0 -1.40625 0.203125q-0.59375 0.203125 -1.0 0.5q-0.390625 0.296875 -0.609375 0.640625q-0.21875 0.34375 -0.28125 0.640625l6.40625 0zm14.44548 4.671875q-0.46875 0.1875 -0.953125 0.34375q-0.46875 0.15625 -0.984375 0.265625q-0.5 0.125 -1.0625 0.171875q-0.5625 0.0625 -1.203125 0.0625q-1.359375 0 -2.515625 -0.28125q-1.140625 -0.296875 -1.984375 -0.875q-0.828125 -0.59375 -1.296875 -1.46875q-0.453125 -0.890625 -0.453125 -2.078125q0 -1.171875 0.453125 -2.046875q0.46875 -0.890625 1.296875 -1.46875q0.84375 -0.59375 1.984375 -0.890625q1.15625 -0.296875 2.515625 -0.296875q0.640625 0 1.203125 0.0625q0.5625 0.0625 1.0625 0.171875q0.515625 0.109375 0.984375 0.265625q0.484375 0.15625 0.953125 0.359375l0 2.171875q-0.375 -0.203125 -0.78125 -0.390625q-0.40625 -0.203125 -0.90625 -0.359375q-0.484375 -0.171875 -1.078125 -0.265625q-0.59375 -0.109375 -1.34375 -0.109375q-1.140625 0 -1.890625 0.234375q-0.75 0.234375 -1.203125 0.625q-0.4375 0.390625 -0.625 0.90625q-0.1875 0.5 -0.1875 1.03125q0 0.359375 0.078125 0.71875q0.078125 0.34375 0.265625 0.65625q0.1875 0.296875 0.46875 0.5625q0.296875 0.265625 0.734375 0.453125q0.4375 0.1875 1.015625 0.296875q0.59375 0.109375 1.34375 0.109375q0.75 0 1.34375 -0.09375q0.59375 -0.109375 1.078125 -0.265625q0.5 -0.15625 0.90625 -0.34375q0.40625 -0.203125 0.78125 -0.40625l0 2.171875l0 0zm7.260895 -6.390625l0 7.0l-2.40625 0l0 -7.0l-3.796875 0l0 -1.9375l10.0 0l0 1.9375l-3.796875 0zm5.4060974 7.0l0 -8.9375l2.40625 0l0 8.9375l-2.40625 0zm11.212814 0l-2.8125 0l-4.53125 -8.9375l2.703125 0l3.25 6.71875l3.25 -6.71875l2.6874847 0l-4.5468597 8.9375zm15.988785 -0.4375q-1.109375 0.359375 -2.203125 0.515625q-1.09375 0.15625 -2.234375 0.15625q-1.46875 0 -2.609375 -0.3125q-1.140625 -0.3125 -1.921875 -0.90625q-0.78125 -0.609375 -1.203125 -1.46875q-0.40625 -0.859375 -0.40625 -1.953125q0 -1.015625 0.40625 -1.890625q0.421875 -0.875 1.171875 -1.515625q0.765625 -0.640625 1.84375 -1.0q1.078125 -0.359375 2.390625 -0.359375q1.21875 0 2.234375 0.328125q1.015625 0.328125 1.734375 0.984375q0.71875 0.640625 1.125 1.578125q0.40625 0.9375 0.40625 2.171875l0 0.609375l-8.8125 0q0.109375 0.421875 0.375 0.78125q0.28125 0.34375 0.734375 0.59375q0.46875 0.234375 1.140625 0.375q0.671875 0.140625 1.609375 0.140625q0.671875 0 1.296875 -0.078125q0.640625 -0.09375 1.1875 -0.21875q0.5625 -0.140625 1.0 -0.296875q0.453125 -0.171875 0.734375 -0.328125l0 2.09375zm-1.671875 -4.84375q-0.03125 -0.328125 -0.203125 -0.671875q-0.15625 -0.359375 -0.515625 -0.640625q-0.359375 -0.296875 -0.9375 -0.484375q-0.578125 -0.1875 -1.453125 -0.1875q-0.8125 0 -1.40625 0.203125q-0.59375 0.203125 -1.0 0.5q-0.390625 0.296875 -0.609375 0.640625q-0.21875 0.34375 -0.28125 0.640625l6.40625 0z" fill-rule="nonzero"/><path fill="#93c47d" d="m659.69543 88.67349l0 0c0 -1.9730301 1.5994873 -3.5724869 3.5725098 -3.5724869l163.40619 0c0.94750977 0 1.8561401 0.37638855 2.526123 1.0463562c0.6699829 0.6699753 1.0463867 1.5786514 1.0463867 2.5261307l0 39.658188c0 1.9730225 -1.5994873 3.5724792 -3.5725098 3.5724792l-163.40619 0c-1.9730225 0 -3.5725098 -1.5994568 -3.5725098 -3.5724792z" fill-rule="evenodd"/><path stroke="#274e13" stroke-width="4.0" stroke-linejoin="round" stroke-linecap="butt" d="m659.69543 88.67349l0 0c0 -1.9730301 1.5994873 -3.5724869 3.5725098 -3.5724869l163.40619 0c0.94750977 0 1.8561401 0.37638855 2.526123 1.0463562c0.6699829 0.6699753 1.0463867 1.5786514 1.0463867 2.5261307l0 39.658188c0 1.9730225 -1.5994873 3.5724792 -3.5725098 3.5724792l-163.40619 0c-1.9730225 0 -3.5725098 -1.5994568 -3.5725098 -3.5724792z" fill-rule="evenodd"/><path fill="#274e13" d="m695.3395 111.61508l-4.984375 0l-0.828125 1.6875l-2.703125 0l4.6875 -8.9375l2.6875 0l4.6875 8.9375l-2.703125 0l-0.84375 -1.6875zm-4.109375 -1.75l3.265625 0l-1.625 -3.296875l-1.640625 3.296875zm14.870239 -5.734375q1.3125 0 2.4375 0.234375q1.140625 0.21875 2.078125 0.5625l0 2.1875q-0.375 -0.203125 -0.84375 -0.390625q-0.453125 -0.203125 -1.0 -0.34375q-0.546875 -0.15625 -1.171875 -0.25q-0.625 -0.09375 -1.3125 -0.09375q-0.859375 0 -1.5 0.125q-0.640625 0.125 -1.09375 0.34375q-0.453125 0.203125 -0.75 0.484375q-0.296875 0.265625 -0.46875 0.578125q-0.15625 0.3125 -0.234375 0.640625q-0.0625 0.328125 -0.0625 0.625q0 0.265625 0.046875 0.578125q0.0625 0.3125 0.21875 0.625q0.15625 0.3125 0.421875 0.609375q0.28125 0.28125 0.71875 0.5q0.4375 0.21875 1.046875 0.359375q0.625 0.125 1.484375 0.125q0.421875 0 0.734375 -0.015625q0.328125 -0.03125 0.59375 -0.078125q0.265625 -0.046875 0.5 -0.109375q0.234375 -0.0625 0.46875 -0.140625l0 -1.078125l-2.703125 0l0 -1.953125l5.125 0l0 4.5625q-0.484375 0.171875 -1.078125 0.3125q-0.59375 0.125 -1.234375 0.21875q-0.625 0.09375 -1.265625 0.140625q-0.640625 0.046875 -1.203125 0.046875q-0.875 0 -1.6875 -0.125q-0.8125 -0.109375 -1.515625 -0.34375q-0.6875 -0.25 -1.265625 -0.625q-0.578125 -0.375 -0.984375 -0.890625q-0.40625 -0.53125 -0.640625 -1.203125q-0.21875 -0.671875 -0.21875 -1.515625q0 -0.828125 0.234375 -1.5q0.234375 -0.6875 0.65625 -1.203125q0.421875 -0.515625 1.0 -0.890625q0.59375 -0.390625 1.296875 -0.625q0.71875 -0.25 1.515625 -0.359375q0.8125 -0.125 1.65625 -0.125zm15.556091 2.25q-0.09375 -0.03125 -0.28125 -0.078125q-0.1875 -0.0625 -0.4375 -0.109375q-0.25 -0.0625 -0.546875 -0.09375q-0.296875 -0.046875 -0.609375 -0.046875q-0.640625 0 -1.203125 0.15625q-0.5625 0.15625 -1.0625 0.421875q-0.484375 0.265625 -0.90625 0.609375q-0.40625 0.328125 -0.765625 0.6875l0 5.375l-2.40625 0l0 -8.9375l2.40625 0l0 1.453125q0.4375 -0.328125 0.890625 -0.625q0.46875 -0.3125 0.953125 -0.546875q0.5 -0.234375 1.046875 -0.375q0.5625 -0.140625 1.1875 -0.140625q0.234375 0 0.46875 0.03125q0.25 0.015625 0.484375 0.046875q0.234375 0.03125 0.421875 0.078125q0.203125 0.03125 0.359375 0.078125l0 2.015625l0 0zm11.50531 6.484375q-1.109375 0.359375 -2.203125 0.515625q-1.09375 0.15625 -2.234375 0.15625q-1.46875 0 -2.609375 -0.3125q-1.140625 -0.3125 -1.921875 -0.90625q-0.78125 -0.609375 -1.203125 -1.46875q-0.40625 -0.859375 -0.40625 -1.953125q0 -1.015625 0.40625 -1.890625q0.421875 -0.875 1.171875 -1.515625q0.765625 -0.640625 1.84375 -1.0q1.078125 -0.359375 2.390625 -0.359375q1.21875 0 2.234375 0.328125q1.015625 0.328125 1.734375 0.984375q0.71875 0.640625 1.125 1.578125q0.40625 0.9375 0.40625 2.171875l0 0.609375l-8.8125 0q0.109375 0.421875 0.375 0.78125q0.28125 0.34375 0.734375 0.59375q0.46875 0.234375 1.140625 0.375q0.671875 0.140625 1.609375 0.140625q0.671875 0 1.296875 -0.078125q0.640625 -0.09375 1.1875 -0.21875q0.5625 -0.140625 1.0 -0.296875q0.453125 -0.171875 0.734375 -0.328125l0 2.09375zm-1.671875 -4.84375q-0.03125 -0.328125 -0.203125 -0.671875q-0.15625 -0.359375 -0.515625 -0.640625q-0.359375 -0.296875 -0.9375 -0.484375q-0.578125 -0.1875 -1.453125 -0.1875q-0.8125 0 -1.40625 0.203125q-0.59375 0.203125 -1.0 0.5q-0.390625 0.296875 -0.609375 0.640625q-0.21875 0.34375 -0.28125 0.640625l6.40625 0zm14.570435 4.84375q-1.109375 0.359375 -2.203125 0.515625q-1.09375 0.15625 -2.234375 0.15625q-1.46875 0 -2.609375 -0.3125q-1.140625 -0.3125 -1.921875 -0.90625q-0.78125 -0.609375 -1.203125 -1.46875q-0.40625 -0.859375 -0.40625 -1.953125q0 -1.015625 0.40625 -1.890625q0.421875 -0.875 1.171875 -1.515625q0.765625 -0.640625 1.84375 -1.0q1.078125 -0.359375 2.390625 -0.359375q1.21875 0 2.234375 0.328125q1.015625 0.328125 1.734375 0.984375q0.71875 0.640625 1.125 1.578125q0.40625 0.9375 0.40625 2.171875l0 0.609375l-8.8125 0q0.109375 0.421875 0.375 0.78125q0.28125 0.34375 0.734375 0.59375q0.46875 0.234375 1.140625 0.375q0.671875 0.140625 1.609375 0.140625q0.671875 0 1.296875 -0.078125q0.640625 -0.09375 1.1875 -0.21875q0.5625 -0.140625 1.0 -0.296875q0.453125 -0.171875 0.734375 -0.328125l0 2.09375zm-1.671875 -4.84375q-0.03125 -0.328125 -0.203125 -0.671875q-0.15625 -0.359375 -0.515625 -0.640625q-0.359375 -0.296875 -0.9375 -0.484375q-0.578125 -0.1875 -1.453125 -0.1875q-0.8125 0 -1.40625 0.203125q-0.59375 0.203125 -1.0 0.5q-0.390625 0.296875 -0.609375 0.640625q-0.21875 0.34375 -0.28125 0.640625l6.40625 0zm7.0079956 -3.65625l0 0.984375q0.3125 -0.203125 0.6875 -0.421875q0.375 -0.21875 0.8125 -0.390625q0.453125 -0.171875 0.953125 -0.28125q0.5 -0.125 1.09375 -0.125q0.5625 0 0.984375 0.125q0.4375 0.125 0.75 0.3125q0.328125 0.1875 0.546875 0.4375q0.21875 0.234375 0.375 0.46875q0.46875 -0.3125 0.90625 -0.546875q0.453125 -0.25 0.90625 -0.421875q0.46875 -0.1875 0.9375 -0.28125q0.484375 -0.09375 0.984375 -0.09375q0.828125 0 1.46875 0.234375q0.65625 0.21875 1.09375 0.625q0.453125 0.390625 0.6875 0.9375q0.25 0.53125 0.25 1.140625l0 6.234375l-2.421875 0l0 -5.890625q0 -0.359375 -0.109375 -0.609375q-0.109375 -0.265625 -0.296875 -0.421875q-0.1875 -0.171875 -0.4375 -0.25q-0.25 -0.078125 -0.53125 -0.078125q-1.296875 0 -2.96875 1.171875q0.03125 0.109375 0.03125 0.265625q0.015625 0.140625 0.015625 0.296875l0 5.515625l-2.421875 0l0 -5.9375q0 -0.359375 -0.109375 -0.609375q-0.109375 -0.25 -0.296875 -0.40625q-0.1875 -0.15625 -0.4375 -0.21875q-0.25 -0.078125 -0.53125 -0.078125q-0.34375 0 -0.71875 0.109375q-0.375 0.09375 -0.765625 0.265625q-0.375 0.171875 -0.75 0.421875q-0.359375 0.234375 -0.6875 0.515625l0 5.9375l-2.40625 0l0 -8.9375l2.40625 0zm26.168518 8.5q-1.109375 0.359375 -2.203125 0.515625q-1.09375 0.15625 -2.234375 0.15625q-1.46875 0 -2.609375 -0.3125q-1.140625 -0.3125 -1.921875 -0.90625q-0.78125 -0.609375 -1.203125 -1.46875q-0.40625 -0.859375 -0.40625 -1.953125q0 -1.015625 0.40625 -1.890625q0.421875 -0.875 1.171875 -1.515625q0.765625 -0.640625 1.84375 -1.0q1.078125 -0.359375 2.390625 -0.359375q1.21875 0 2.234375 0.328125q1.015625 0.328125 1.734375 0.984375q0.71875 0.640625 1.125 1.578125q0.40625 0.9375 0.40625 2.171875l0 0.609375l-8.8125 0q0.109375 0.421875 0.375 0.78125q0.28125 0.34375 0.734375 0.59375q0.46875 0.234375 1.140625 0.375q0.671875 0.140625 1.609375 0.140625q0.671875 0 1.296875 -0.078125q0.640625 -0.09375 1.1875 -0.21875q0.5625 -0.140625 1.0 -0.296875q0.453125 -0.171875 0.734375 -0.328125l0 2.09375zm-1.671875 -4.84375q-0.03125 -0.328125 -0.203125 -0.671875q-0.15625 -0.359375 -0.515625 -0.640625q-0.359375 -0.296875 -0.9375 -0.484375q-0.578125 -0.1875 -1.453125 -0.1875q-0.8125 0 -1.40625 0.203125q-0.59375 0.203125 -1.0 0.5q-0.390625 0.296875 -0.609375 0.640625q-0.21875 0.34375 -0.28125 0.640625l6.40625 0zm13.117371 5.28125l0 -5.015625q0 -0.5 -0.09375 -0.90625q-0.078125 -0.40625 -0.3125 -0.6875q-0.234375 -0.296875 -0.65625 -0.453125q-0.40625 -0.15625 -1.046875 -0.15625q-0.5 0 -1.046875 0.140625q-0.53125 0.125 -1.078125 0.34375q-0.53125 0.21875 -1.015625 0.515625q-0.484375 0.296875 -0.859375 0.609375l0 5.609375l-2.40625 0l0 -8.9375l2.40625 0l0 1.21875q0.453125 -0.265625 0.96875 -0.515625q0.515625 -0.265625 1.09375 -0.46875q0.578125 -0.203125 1.21875 -0.328125q0.65625 -0.140625 1.390625 -0.140625q0.90625 0 1.609375 0.21875q0.71875 0.21875 1.203125 0.625q0.5 0.390625 0.765625 0.96875q0.265625 0.5625 0.265625 1.265625l0 6.09375l-2.40625 0zm10.17041 -7.0l0 7.0l-2.40625 0l0 -7.0l-3.796875 0l0 -1.9375l10.0 0l0 1.9375l-3.796875 0z" fill-rule="nonzero"/><path fill="#93c47d" d="m659.69507 360.41003l0 0c0 -1.9730225 1.5994873 -3.5724792 3.5725098 -3.5724792l163.40619 0c0.94750977 0 1.8562012 0.3763733 2.526123 1.0463562c0.6699829 0.6699829 1.0463867 1.5786438 1.0463867 2.526123l0 39.658203c0 1.9730225 -1.5994873 3.5724792 -3.5725098 3.5724792l-163.40619 0c-1.9730225 0 -3.5725098 -1.5994568 -3.5725098 -3.5724792z" fill-rule="evenodd"/><path stroke="#274e13" stroke-width="4.0" stroke-linejoin="round" stroke-linecap="butt" d="m659.69507 360.41003l0 0c0 -1.9730225 1.5994873 -3.5724792 3.5725098 -3.5724792l163.40619 0c0.94750977 0 1.8562012 0.3763733 2.526123 1.0463562c0.6699829 0.6699829 1.0463867 1.5786438 1.0463867 2.526123l0 39.658203c0 1.9730225 -1.5994873 3.5724792 -3.5725098 3.5724792l-163.40619 0c-1.9730225 0 -3.5725098 -1.5994568 -3.5725098 -3.5724792z" fill-rule="evenodd"/><path fill="#274e13" d="m733.31976 382.0235q0 0.671875 -0.328125 1.265625q-0.328125 0.59375 -1.0 1.046875q-0.65625 0.4375 -1.65625 0.6875q-0.984375 0.25 -2.3125 0.25q-1.328125 0 -2.328125 -0.25q-1.0 -0.25 -1.671875 -0.6875q-0.65625 -0.453125 -1.0 -1.046875q-0.328125 -0.59375 -0.328125 -1.265625l0 -5.921875l2.40625 0l0 5.0625q0 0.453125 0.109375 0.859375q0.125 0.390625 0.4375 0.6875q0.3125 0.296875 0.875 0.484375q0.578125 0.171875 1.5 0.171875q0.90625 0 1.46875 -0.171875q0.5625 -0.1875 0.875 -0.484375q0.3125 -0.296875 0.421875 -0.6875q0.125 -0.40625 0.125 -0.859375l0 -5.0625l2.40625 0l0 5.921875l0 0zm10.9765625 -3.40625q-0.25 -0.125 -0.671875 -0.28125q-0.421875 -0.15625 -0.953125 -0.296875q-0.515625 -0.140625 -1.140625 -0.234375q-0.609375 -0.09375 -1.265625 -0.09375q-0.515625 0 -0.890625 0.03125q-0.359375 0.03125 -0.609375 0.09375q-0.25 0.046875 -0.40625 0.125q-0.140625 0.0625 -0.21875 0.140625q-0.078125 0.0625 -0.109375 0.140625q-0.015625 0.0625 -0.015625 0.125q0 0.1875 0.1875 0.34375q0.203125 0.140625 0.53125 0.25q0.34375 0.109375 0.796875 0.21875q0.453125 0.09375 0.953125 0.203125q0.5 0.109375 1.03125 0.234375q0.546875 0.125 1.046875 0.296875q0.515625 0.171875 0.953125 0.40625q0.453125 0.21875 0.78125 0.515625q0.34375 0.296875 0.53125 0.6875q0.203125 0.390625 0.203125 0.890625q0 0.640625 -0.234375 1.109375q-0.21875 0.46875 -0.609375 0.78125q-0.375 0.3125 -0.875 0.515625q-0.5 0.1875 -1.046875 0.28125q-0.546875 0.109375 -1.109375 0.140625q-0.5625 0.03125 -1.078125 0.03125q-1.328125 0 -2.453125 -0.21875q-1.125 -0.203125 -2.0 -0.53125l0 -2.140625q0.90625 0.5 2.046875 0.78125q1.140625 0.28125 2.4375 0.28125q0.765625 0 1.25 -0.078125q0.484375 -0.09375 0.75 -0.21875q0.28125 -0.125 0.375 -0.265625q0.109375 -0.15625 0.109375 -0.296875q0 -0.21875 -0.203125 -0.375q-0.1875 -0.15625 -0.53125 -0.28125q-0.34375 -0.125 -0.796875 -0.21875q-0.4375 -0.09375 -0.953125 -0.1875q-0.5 -0.109375 -1.03125 -0.21875q-0.53125 -0.125 -1.03125 -0.28125q-0.5 -0.171875 -0.953125 -0.375q-0.453125 -0.21875 -0.796875 -0.5q-0.328125 -0.296875 -0.53125 -0.671875q-0.1875 -0.390625 -0.1875 -0.890625q0 -0.59375 0.203125 -1.015625q0.203125 -0.4375 0.5625 -0.734375q0.359375 -0.296875 0.8125 -0.484375q0.46875 -0.203125 0.984375 -0.296875q0.515625 -0.109375 1.046875 -0.140625q0.53125 -0.046875 1.0 -0.046875q0.515625 0 1.0625 0.0625q0.5625 0.046875 1.09375 0.140625q0.53125 0.09375 1.03125 0.21875q0.5 0.125 0.921875 0.25l0 2.078125zm12.999512 5.984375q-1.109375 0.359375 -2.203125 0.515625q-1.09375 0.15625 -2.234375 0.15625q-1.46875 0 -2.609375 -0.3125q-1.140625 -0.3125 -1.921875 -0.90625q-0.78125 -0.609375 -1.203125 -1.46875q-0.40625 -0.859375 -0.40625 -1.953125q0 -1.015625 0.40625 -1.890625q0.421875 -0.875 1.171875 -1.515625q0.765625 -0.640625 1.84375 -1.0q1.078125 -0.359375 2.390625 -0.359375q1.21875 0 2.234375 0.328125q1.015625 0.328125 1.734375 0.984375q0.71875 0.640625 1.125 1.578125q0.40625 0.9375 0.40625 2.171875l0 0.609375l-8.8125 0q0.109375 0.421875 0.375 0.78125q0.28125 0.34375 0.734375 0.59375q0.46875 0.234375 1.140625 0.375q0.671875 0.140625 1.609375 0.140625q0.671875 0 1.296875 -0.078125q0.640625 -0.09375 1.1875 -0.21875q0.5625 -0.140625 1.0 -0.296875q0.453125 -0.171875 0.734375 -0.328125l0 2.09375zm-1.671875 -4.84375q-0.03125 -0.328125 -0.203125 -0.671875q-0.15625 -0.359375 -0.515625 -0.640625q-0.359375 -0.296875 -0.9375 -0.484375q-0.578125 -0.1875 -1.453125 -0.1875q-0.8125 0 -1.40625 0.203125q-0.59375 0.203125 -1.0 0.5q-0.390625 0.296875 -0.609375 0.640625q-0.21875 0.34375 -0.28125 0.640625l6.40625 0zm12.820496 -1.640625q-0.09375 -0.03125 -0.28125 -0.078125q-0.1875 -0.0625 -0.4375 -0.109375q-0.25 -0.0625 -0.546875 -0.09375q-0.296875 -0.046875 -0.609375 -0.046875q-0.640625 0 -1.203125 0.15625q-0.5625 0.15625 -1.0625 0.421875q-0.484375 0.265625 -0.90625 0.609375q-0.40625 0.328125 -0.765625 0.6875l0 5.375l-2.40625 0l0 -8.9375l2.40625 0l0 1.453125q0.4375 -0.328125 0.890625 -0.625q0.46875 -0.3125 0.953125 -0.546875q0.5 -0.234375 1.046875 -0.375q0.5625 -0.140625 1.1875 -0.140625q0.234375 0 0.46875 0.03125q0.25 0.015625 0.484375 0.046875q0.234375 0.03125 0.421875 0.078125q0.203125 0.03125 0.359375 0.078125l0 2.015625l0 0z" fill-rule="nonzero"/><path fill="#d9ead3" d="m659.69556 268.61023l0 0c0 -1.9730225 1.5994263 -3.5724792 3.5724487 -3.5724792l163.40625 0c0.94744873 0 1.8561401 0.3763733 2.526123 1.0463562c0.6699219 0.6699524 1.0463257 1.5786438 1.0463257 2.526123l0 39.658173c0 1.9730225 -1.5994263 3.5724792 -3.5724487 3.5724792l-163.40625 0c-1.9730225 0 -3.5724487 -1.5994568 -3.5724487 -3.5724792z" fill-rule="evenodd"/><path stroke="#274e13" stroke-width="4.0" stroke-linejoin="round" stroke-linecap="butt" d="m659.69556 268.61023l0 0c0 -1.9730225 1.5994263 -3.5724792 3.5724487 -3.5724792l163.40625 0c0.94744873 0 1.8561401 0.3763733 2.526123 1.0463562c0.6699219 0.6699524 1.0463257 1.5786438 1.0463257 2.526123l0 39.658173c0 1.9730225 -1.5994263 3.5724792 -3.5724487 3.5724792l-163.40625 0c-1.9730225 0 -3.5724487 -1.5994568 -3.5724487 -3.5724792z" fill-rule="evenodd"/><path fill="#274e13" d="m698.23083 287.3487q0 0.671875 -0.203125 1.234375q-0.1875 0.5625 -0.625 0.96875q-0.4375 0.40625 -1.125 0.640625q-0.6875 0.21875 -1.671875 0.21875l-4.015625 0l0 2.828125l-2.40625 0l0 -8.9375l6.421875 0q0.984375 0 1.671875 0.21875q0.6875 0.21875 1.125 0.640625q0.4375 0.40625 0.625 0.96875q0.203125 0.546875 0.203125 1.21875zm-2.453125 0.046875q0 -0.3125 -0.09375 -0.53125q-0.078125 -0.234375 -0.28125 -0.375q-0.203125 -0.140625 -0.53125 -0.203125q-0.3125 -0.078125 -0.796875 -0.078125l-3.484375 0l0 2.296875l3.484375 0q0.484375 0 0.796875 -0.046875q0.328125 -0.0625 0.53125 -0.1875q0.203125 -0.140625 0.28125 -0.34375q0.09375 -0.21875 0.09375 -0.53125zm12.030457 5.84375l0 -0.875q-0.46875 0.25 -1.0 0.453125q-0.53125 0.1875 -1.109375 0.328125q-0.5625 0.125 -1.171875 0.1875q-0.609375 0.078125 -1.21875 0.078125q-0.734375 0 -1.40625 -0.140625q-0.671875 -0.125 -1.203125 -0.421875q-0.515625 -0.3125 -0.828125 -0.8125q-0.3125 -0.5 -0.3125 -1.21875q0 -0.890625 0.484375 -1.484375q0.5 -0.609375 1.515625 -1.0q1.015625 -0.390625 2.5625 -0.59375q1.5625 -0.203125 3.6875 -0.328125l0 -0.1875q0 -0.21875 -0.125 -0.4375q-0.109375 -0.21875 -0.421875 -0.375q-0.3125 -0.171875 -0.859375 -0.265625q-0.53125 -0.109375 -1.359375 -0.109375q-0.65625 0 -1.296875 0.0625q-0.640625 0.0625 -1.234375 0.1875q-0.59375 0.109375 -1.125 0.265625q-0.53125 0.15625 -0.96875 0.328125l0 -2.140625q0.453125 -0.125 1.015625 -0.234375q0.5625 -0.109375 1.171875 -0.1875q0.625 -0.078125 1.25 -0.125q0.625 -0.0625 1.1875 -0.0625q1.125 0 2.078125 0.1875q0.953125 0.1875 1.640625 0.578125q0.6875 0.390625 1.0625 1.0q0.390625 0.59375 0.390625 1.421875l0 5.921875l-2.40625 0zm0 -4.078125q-1.390625 0.046875 -2.375 0.15625q-0.96875 0.09375 -1.609375 0.21875q-0.640625 0.125 -1.015625 0.28125q-0.359375 0.140625 -0.546875 0.296875q-0.1875 0.15625 -0.234375 0.3125q-0.03125 0.15625 -0.03125 0.296875q0 0.15625 0.078125 0.3125q0.09375 0.140625 0.296875 0.25q0.21875 0.109375 0.5625 0.171875q0.359375 0.0625 0.890625 0.0625q0.59375 0 1.15625 -0.09375q0.5625 -0.09375 1.0625 -0.25q0.515625 -0.15625 0.953125 -0.375q0.453125 -0.21875 0.8125 -0.46875l0 -1.171875zm13.396057 -2.84375q-0.09375 -0.03125 -0.28125 -0.078125q-0.1875 -0.0625 -0.4375 -0.109375q-0.25 -0.0625 -0.546875 -0.09375q-0.296875 -0.046875 -0.609375 -0.046875q-0.640625 0 -1.203125 0.15625q-0.5625 0.15625 -1.0625 0.421875q-0.484375 0.265625 -0.90625 0.609375q-0.40625 0.328125 -0.765625 0.6875l0 5.375l-2.40625 0l0 -8.9375l2.40625 0l0 1.453125q0.4375 -0.328125 0.890625 -0.625q0.46875 -0.3125 0.953125 -0.546875q0.5 -0.234375 1.046875 -0.375q0.5625 -0.140625 1.1875 -0.140625q0.234375 0 0.46875 0.03125q0.25 0.015625 0.484375 0.046875q0.234375 0.03125 0.421875 0.078125q0.203125 0.03125 0.359375 0.078125l0 2.015625l0 0zm6.53656 -0.078125l0 7.0l-2.40625 0l0 -7.0l-3.796875 0l0 -1.9375l10.0 0l0 1.9375l-3.796875 0zm5.406067 7.0l0 -8.9375l2.40625 0l0 8.9375l-2.40625 0zm15.05658 -0.609375q-0.46875 0.1875 -0.953125 0.34375q-0.46875 0.15625 -0.984375 0.265625q-0.5 0.125 -1.0625 0.171875q-0.5625 0.0625 -1.203125 0.0625q-1.359375 0 -2.515625 -0.28125q-1.140625 -0.296875 -1.984375 -0.875q-0.828125 -0.59375 -1.296875 -1.46875q-0.453125 -0.890625 -0.453125 -2.078125q0 -1.171875 0.453125 -2.046875q0.46875 -0.890625 1.296875 -1.46875q0.84375 -0.59375 1.984375 -0.890625q1.15625 -0.296875 2.515625 -0.296875q0.640625 0 1.203125 0.0625q0.5625 0.0625 1.0625 0.171875q0.515625 0.109375 0.984375 0.265625q0.484375 0.15625 0.953125 0.359375l0 2.171875q-0.375 -0.203125 -0.78125 -0.390625q-0.40625 -0.203125 -0.90625 -0.359375q-0.484375 -0.171875 -1.078125 -0.265625q-0.59375 -0.109375 -1.34375 -0.109375q-1.140625 0 -1.890625 0.234375q-0.75 0.234375 -1.203125 0.625q-0.4375 0.390625 -0.625 0.90625q-0.1875 0.5 -0.1875 1.03125q0 0.359375 0.078125 0.71875q0.078125 0.34375 0.265625 0.65625q0.1875 0.296875 0.46875 0.5625q0.296875 0.265625 0.734375 0.453125q0.4375 0.1875 1.015625 0.296875q0.59375 0.109375 1.34375 0.109375q0.75 0 1.34375 -0.09375q0.59375 -0.109375 1.078125 -0.265625q0.5 -0.15625 0.90625 -0.34375q0.40625 -0.203125 0.78125 -0.40625l0 2.171875l0 0zm2.2608643 0.609375l0 -8.9375l2.40625 0l0 8.9375l-2.40625 0zm15.259705 -5.890625q0 0.671875 -0.203125 1.234375q-0.1875 0.5625 -0.625 0.96875q-0.4375 0.40625 -1.125 0.640625q-0.6875 0.21875 -1.671875 0.21875l-4.015625 0l0 2.828125l-2.40625 0l0 -8.9375l6.421875 0q0.984375 0 1.671875 0.21875q0.6875 0.21875 1.125 0.640625q0.4375 0.40625 0.625 0.96875q0.203125 0.546875 0.203125 1.21875zm-2.453125 0.046875q0 -0.3125 -0.09375 -0.53125q-0.078125 -0.234375 -0.28125 -0.375q-0.203125 -0.140625 -0.53125 -0.203125q-0.3125 -0.078125 -0.796875 -0.078125l-3.484375 0l0 2.296875l3.484375 0q0.484375 0 0.796875 -0.046875q0.328125 -0.0625 0.53125 -0.1875q0.203125 -0.140625 0.28125 -0.34375q0.09375 -0.21875 0.09375 -0.53125zm12.030457 5.84375l0 -0.875q-0.46875 0.25 -1.0 0.453125q-0.53125 0.1875 -1.109375 0.328125q-0.5625 0.125 -1.171875 0.1875q-0.609375 0.078125 -1.21875 0.078125q-0.734375 0 -1.40625 -0.140625q-0.671875 -0.125 -1.203125 -0.421875q-0.515625 -0.3125 -0.828125 -0.8125q-0.3125 -0.5 -0.3125 -1.21875q0 -0.890625 0.484375 -1.484375q0.5 -0.609375 1.515625 -1.0q1.015625 -0.390625 2.5625 -0.59375q1.5625 -0.203125 3.6875 -0.328125l0 -0.1875q0 -0.21875 -0.125 -0.4375q-0.109375 -0.21875 -0.421875 -0.375q-0.3125 -0.171875 -0.859375 -0.265625q-0.53125 -0.109375 -1.359375 -0.109375q-0.65625 0 -1.296875 0.0625q-0.640625 0.0625 -1.234375 0.1875q-0.59375 0.109375 -1.125 0.265625q-0.53125 0.15625 -0.96875 0.328125l0 -2.140625q0.453125 -0.125 1.015625 -0.234375q0.5625 -0.109375 1.171875 -0.1875q0.625 -0.078125 1.25 -0.125q0.625 -0.0625 1.1875 -0.0625q1.125 0 2.078125 0.1875q0.953125 0.1875 1.640625 0.578125q0.6875 0.390625 1.0625 1.0q0.390625 0.59375 0.390625 1.421875l0 5.921875l-2.40625 0zm0 -4.078125q-1.390625 0.046875 -2.375 0.15625q-0.96875 0.09375 -1.609375 0.21875q-0.640625 0.125 -1.015625 0.28125q-0.359375 0.140625 -0.546875 0.296875q-0.1875 0.15625 -0.234375 0.3125q-0.03125 0.15625 -0.03125 0.296875q0 0.15625 0.078125 0.3125q0.09375 0.140625 0.296875 0.25q0.21875 0.109375 0.5625 0.171875q0.359375 0.0625 0.890625 0.0625q0.59375 0 1.15625 -0.09375q0.5625 -0.09375 1.0625 -0.25q0.515625 -0.15625 0.953125 -0.375q0.453125 -0.21875 0.8125 -0.46875l0 -1.171875zm13.692932 4.078125l0 -5.015625q0 -0.5 -0.09375 -0.90625q-0.078125 -0.40625 -0.3125 -0.6875q-0.234375 -0.296875 -0.65625 -0.453125q-0.40625 -0.15625 -1.046875 -0.15625q-0.5 0 -1.046875 0.140625q-0.53125 0.125 -1.078125 0.34375q-0.53125 0.21875 -1.015625 0.515625q-0.484375 0.296875 -0.859375 0.609375l0 5.609375l-2.40625 0l0 -8.9375l2.40625 0l0 1.21875q0.453125 -0.265625 0.96875 -0.515625q0.515625 -0.265625 1.09375 -0.46875q0.578125 -0.203125 1.21875 -0.328125q0.65625 -0.140625 1.390625 -0.140625q0.90625 0 1.609375 0.21875q0.71875 0.21875 1.203125 0.625q0.5 0.390625 0.765625 0.96875q0.265625 0.5625 0.265625 1.265625l0 6.09375l-2.40625 0zm10.170471 -7.0l0 7.0l-2.40625 0l0 -7.0l-3.796875 0l0 -1.9375l10.0 0l0 1.9375l-3.796875 0z" fill-rule="nonzero"/><path fill="#93c47d" d="m398.1653 452.21155l0 0c0 -1.9730225 1.5994568 -3.5724792 3.5724792 -3.5724792l163.40619 0c0.94750977 0 1.8562012 0.3763733 2.526123 1.0463562c0.6699829 0.6699524 1.0463867 1.5786438 1.0463867 2.526123l0 39.658173c0 1.9730225 -1.5994263 3.5724792 -3.5725098 3.5724792l-163.40619 0c-1.9730225 0 -3.5724792 -1.5994568 -3.5724792 -3.5724792z" fill-rule="evenodd"/><path stroke="#274e13" stroke-width="4.0" stroke-linejoin="round" stroke-linecap="butt" d="m398.1653 452.21155l0 0c0 -1.9730225 1.5994568 -3.5724792 3.5724792 -3.5724792l163.40619 0c0.94750977 0 1.8562012 0.3763733 2.526123 1.0463562c0.6699829 0.6699524 1.0463867 1.5786438 1.0463867 2.526123l0 39.658173c0 1.9730225 -1.5994263 3.5724792 -3.5725098 3.5724792l-163.40619 0c-1.9730225 0 -3.5724792 -1.5994568 -3.5724792 -3.5724792z" fill-rule="evenodd"/><path fill="#274e13" d="m471.15005 470.95q0 0.671875 -0.203125 1.234375q-0.1875 0.5625 -0.625 0.96875q-0.4375 0.40625 -1.125 0.640625q-0.6875 0.21875 -1.671875 0.21875l-4.015625 0l0 2.828125l-2.40625 0l0 -8.9375l6.421875 0q0.984375 0 1.671875 0.21875q0.6875 0.21875 1.125 0.640625q0.4375 0.40625 0.625 0.96875q0.203125 0.546875 0.203125 1.21875zm-2.453125 0.046875q0 -0.3125 -0.09375 -0.53125q-0.078125 -0.234375 -0.28125 -0.375q-0.203125 -0.140625 -0.53125 -0.203125q-0.3125 -0.078125 -0.796875 -0.078125l-3.484375 0l0 2.296875l3.484375 0q0.484375 0 0.796875 -0.046875q0.328125 -0.0625 0.53125 -0.1875q0.203125 -0.140625 0.28125 -0.34375q0.09375 -0.21875 0.09375 -0.53125zm16.014832 1.375q0 1.15625 -0.421875 2.046875q-0.421875 0.875 -1.21875 1.46875q-0.78125 0.59375 -1.90625 0.890625q-1.125 0.296875 -2.515625 0.296875q-1.40625 0 -2.53125 -0.296875q-1.125 -0.296875 -1.921875 -0.890625q-0.796875 -0.59375 -1.234375 -1.46875q-0.421875 -0.890625 -0.421875 -2.046875q0 -1.140625 0.421875 -2.015625q0.4375 -0.890625 1.234375 -1.484375q0.796875 -0.59375 1.921875 -0.890625q1.125 -0.3125 2.53125 -0.3125q1.390625 0 2.515625 0.3125q1.125 0.296875 1.90625 0.890625q0.796875 0.59375 1.21875 1.484375q0.421875 0.875 0.421875 2.015625zm-2.4375 0q0 -0.5 -0.171875 -1.0q-0.15625 -0.5 -0.5625 -0.890625q-0.40625 -0.390625 -1.109375 -0.640625q-0.703125 -0.25 -1.78125 -0.25q-0.734375 0 -1.296875 0.125q-0.546875 0.109375 -0.953125 0.3125q-0.390625 0.1875 -0.671875 0.46875q-0.265625 0.265625 -0.4375 0.578125q-0.15625 0.3125 -0.234375 0.640625q-0.0625 0.328125 -0.0625 0.65625q0 0.34375 0.0625 0.6875q0.078125 0.328125 0.234375 0.640625q0.171875 0.296875 0.4375 0.578125q0.28125 0.265625 0.671875 0.46875q0.40625 0.1875 0.953125 0.3125q0.5625 0.109375 1.296875 0.109375q1.078125 0 1.78125 -0.25q0.703125 -0.25 1.109375 -0.640625q0.40625 -0.40625 0.5625 -0.90625q0.171875 -0.5 0.171875 -1.0zm12.880035 -1.953125q-0.25 -0.125 -0.671875 -0.28125q-0.421875 -0.15625 -0.953125 -0.296875q-0.515625 -0.140625 -1.140625 -0.234375q-0.609375 -0.09375 -1.265625 -0.09375q-0.515625 0 -0.890625 0.03125q-0.359375 0.03125 -0.609375 0.09375q-0.25 0.046875 -0.40625 0.125q-0.140625 0.0625 -0.21875 0.140625q-0.078125 0.0625 -0.109375 0.140625q-0.015625 0.0625 -0.015625 0.125q0 0.1875 0.1875 0.34375q0.203125 0.140625 0.53125 0.25q0.34375 0.109375 0.796875 0.21875q0.453125 0.09375 0.953125 0.203125q0.5 0.109375 1.03125 0.234375q0.546875 0.125 1.046875 0.296875q0.515625 0.171875 0.953125 0.40625q0.453125 0.21875 0.78125 0.515625q0.34375 0.296875 0.53125 0.6875q0.203125 0.390625 0.203125 0.890625q0 0.640625 -0.234375 1.109375q-0.21875 0.46875 -0.609375 0.78125q-0.375 0.3125 -0.875 0.515625q-0.5 0.1875 -1.046875 0.28125q-0.546875 0.109375 -1.109375 0.140625q-0.5625 0.03125 -1.078125 0.03125q-1.328125 0 -2.453125 -0.21875q-1.125 -0.203125 -2.0 -0.53125l0 -2.140625q0.90625 0.5 2.046875 0.78125q1.140625 0.28125 2.4375 0.28125q0.765625 0 1.25 -0.078125q0.484375 -0.09375 0.75 -0.21875q0.28125 -0.125 0.375 -0.265625q0.109375 -0.15625 0.109375 -0.296875q0 -0.21875 -0.203125 -0.375q-0.1875 -0.15625 -0.53125 -0.28125q-0.34375 -0.125 -0.796875 -0.21875q-0.4375 -0.09375 -0.953125 -0.1875q-0.5 -0.109375 -1.03125 -0.21875q-0.53125 -0.125 -1.03125 -0.28125q-0.5 -0.171875 -0.953125 -0.375q-0.453125 -0.21875 -0.796875 -0.5q-0.328125 -0.296875 -0.53125 -0.671875q-0.1875 -0.390625 -0.1875 -0.890625q0 -0.59375 0.203125 -1.015625q0.203125 -0.4375 0.5625 -0.734375q0.359375 -0.296875 0.8125 -0.484375q0.46875 -0.203125 0.984375 -0.296875q0.515625 -0.109375 1.046875 -0.140625q0.53125 -0.046875 1.0 -0.046875q0.515625 0 1.0625 0.0625q0.5625 0.046875 1.09375 0.140625q0.53125 0.09375 1.03125 0.21875q0.5 0.125 0.921875 0.25l0 2.078125zm8.030762 -0.578125l0 7.0l-2.40625 0l0 -7.0l-3.796875 0l0 -1.9375l10.0 0l0 1.9375l-3.796875 0z" fill-rule="nonzero"/><path fill="#d9ead3" d="m528.93695 591.6803l0 0c0 -1.9730225 1.5994873 -3.5725098 3.5725098 -3.5725098l163.40619 0c0.94750977 0 1.8562012 0.3764038 2.526123 1.0463867c0.6699829 0.6699219 1.0463867 1.5786133 1.0463867 2.526123l0 39.658142c0 1.9730225 -1.5994873 3.5725098 -3.5725098 3.5725098l-163.40619 0c-1.9730225 0 -3.5725098 -1.5994873 -3.5725098 -3.5725098z" fill-rule="evenodd"/><path stroke="#274e13" stroke-width="4.0" stroke-linejoin="round" stroke-linecap="butt" d="m528.93695 591.6803l0 0c0 -1.9730225 1.5994873 -3.5725098 3.5725098 -3.5725098l163.40619 0c0.94750977 0 1.8562012 0.3764038 2.526123 1.0463867c0.6699829 0.6699219 1.0463867 1.5786133 1.0463867 2.526123l0 39.658142c0 1.9730225 -1.5994873 3.5725098 -3.5725098 3.5725098l-163.40619 0c-1.9730225 0 -3.5725098 -1.5994873 -3.5725098 -3.5725098z" fill-rule="evenodd"/><path fill="#274e13" d="m575.4235 615.7q-0.46875 0.1875 -0.953125 0.34375q-0.46875 0.15625 -0.984375 0.265625q-0.5 0.125 -1.0625 0.171875q-0.5625 0.0625 -1.203125 0.0625q-1.359375 0 -2.515625 -0.28125q-1.140625 -0.296875 -1.984375 -0.875q-0.828125 -0.59375 -1.296875 -1.46875q-0.453125 -0.890625 -0.453125 -2.078125q0 -1.171875 0.453125 -2.046875q0.46875 -0.890625 1.296875 -1.46875q0.84375 -0.59375 1.984375 -0.890625q1.15625 -0.296875 2.515625 -0.296875q0.640625 0 1.203125 0.0625q0.5625 0.0625 1.0625 0.171875q0.515625 0.109375 0.984375 0.265625q0.484375 0.15625 0.953125 0.359375l0 2.171875q-0.375 -0.203125 -0.78125 -0.390625q-0.40625 -0.203125 -0.90625 -0.359375q-0.484375 -0.171875 -1.078125 -0.265625q-0.59375 -0.109375 -1.34375 -0.109375q-1.140625 0 -1.890625 0.234375q-0.75 0.234375 -1.203125 0.625q-0.4375 0.390625 -0.625 0.90625q-0.1875 0.5 -0.1875 1.03125q0 0.359375 0.078125 0.71875q0.078125 0.34375 0.265625 0.65625q0.1875 0.296875 0.46875 0.5625q0.296875 0.265625 0.734375 0.453125q0.4375 0.1875 1.015625 0.296875q0.59375 0.109375 1.34375 0.109375q0.75 0 1.34375 -0.09375q0.59375 -0.109375 1.078125 -0.265625q0.5 -0.15625 0.90625 -0.34375q0.40625 -0.203125 0.78125 -0.40625l0 2.171875l0 0zm13.823364 -3.859375q0 1.15625 -0.421875 2.046875q-0.421875 0.875 -1.21875 1.46875q-0.78125 0.59375 -1.90625 0.890625q-1.125 0.296875 -2.515625 0.296875q-1.40625 0 -2.53125 -0.296875q-1.125 -0.296875 -1.921875 -0.890625q-0.796875 -0.59375 -1.234375 -1.46875q-0.421875 -0.890625 -0.421875 -2.046875q0 -1.140625 0.421875 -2.015625q0.4375 -0.890625 1.234375 -1.484375q0.796875 -0.59375 1.921875 -0.890625q1.125 -0.3125 2.53125 -0.3125q1.390625 0 2.515625 0.3125q1.125 0.296875 1.90625 0.890625q0.796875 0.59375 1.21875 1.484375q0.421875 0.875 0.421875 2.015625zm-2.4375 0q0 -0.5 -0.171875 -1.0q-0.15625 -0.5 -0.5625 -0.890625q-0.40625 -0.390625 -1.109375 -0.640625q-0.703125 -0.25 -1.78125 -0.25q-0.734375 0 -1.296875 0.125q-0.546875 0.109375 -0.953125 0.3125q-0.390625 0.1875 -0.671875 0.46875q-0.265625 0.265625 -0.4375 0.578125q-0.15625 0.3125 -0.234375 0.640625q-0.0625 0.328125 -0.0625 0.65625q0 0.34375 0.0625 0.6875q0.078125 0.328125 0.234375 0.640625q0.171875 0.296875 0.4375 0.578125q0.28125 0.265625 0.671875 0.46875q0.40625 0.1875 0.953125 0.3125q0.5625 0.109375 1.296875 0.109375q1.078125 0 1.78125 -0.25q0.703125 -0.25 1.109375 -0.640625q0.40625 -0.40625 0.5625 -0.90625q0.171875 -0.5 0.171875 -1.0zm7.051941 -4.46875l0 0.984375q0.3125 -0.203125 0.6875 -0.421875q0.375 -0.21875 0.8125 -0.390625q0.453125 -0.171875 0.953125 -0.28125q0.5 -0.125 1.09375 -0.125q0.5625 0 0.984375 0.125q0.4375 0.125 0.75 0.3125q0.328125 0.1875 0.546875 0.4375q0.21875 0.234375 0.375 0.46875q0.46875 -0.3125 0.90625 -0.546875q0.453125 -0.25 0.90625 -0.421875q0.46875 -0.1875 0.9375 -0.28125q0.484375 -0.09375 0.984375 -0.09375q0.828125 0 1.46875 0.234375q0.65625 0.21875 1.09375 0.625q0.453125 0.390625 0.6875 0.9375q0.25 0.53125 0.25 1.140625l0 6.234375l-2.421875 0l0 -5.890625q0 -0.359375 -0.109375 -0.609375q-0.109375 -0.265625 -0.296875 -0.421875q-0.1875 -0.171875 -0.4375 -0.25q-0.25 -0.078125 -0.53125 -0.078125q-1.296875 0 -2.96875 1.171875q0.03125 0.109375 0.03125 0.265625q0.015625 0.140625 0.015625 0.296875l0 5.515625l-2.421875 0l0 -5.9375q0 -0.359375 -0.109375 -0.609375q-0.109375 -0.25 -0.296875 -0.40625q-0.1875 -0.15625 -0.4375 -0.21875q-0.25 -0.078125 -0.53125 -0.078125q-0.34375 0 -0.71875 0.109375q-0.375 0.09375 -0.765625 0.265625q-0.375 0.171875 -0.75 0.421875q-0.359375 0.234375 -0.6875 0.515625l0 5.9375l-2.40625 0l0 -8.9375l2.40625 0zm18.606018 0l0 0.984375q0.3125 -0.203125 0.6875 -0.421875q0.375 -0.21875 0.8125 -0.390625q0.453125 -0.171875 0.953125 -0.28125q0.5 -0.125 1.09375 -0.125q0.5625 0 0.984375 0.125q0.4375 0.125 0.75 0.3125q0.328125 0.1875 0.546875 0.4375q0.21875 0.234375 0.375 0.46875q0.46875 -0.3125 0.90625 -0.546875q0.453125 -0.25 0.90625 -0.421875q0.46875 -0.1875 0.9375 -0.28125q0.484375 -0.09375 0.984375 -0.09375q0.828125 0 1.46875 0.234375q0.65625 0.21875 1.09375 0.625q0.453125 0.390625 0.6875 0.9375q0.25 0.53125 0.25 1.140625l0 6.234375l-2.421875 0l0 -5.890625q0 -0.359375 -0.109375 -0.609375q-0.109375 -0.265625 -0.296875 -0.421875q-0.1875 -0.171875 -0.4375 -0.25q-0.25 -0.078125 -0.53125 -0.078125q-1.296875 0 -2.96875 1.171875q0.03125 0.109375 0.03125 0.265625q0.015625 0.140625 0.015625 0.296875l0 5.515625l-2.421875 0l0 -5.9375q0 -0.359375 -0.109375 -0.609375q-0.109375 -0.25 -0.296875 -0.40625q-0.1875 -0.15625 -0.4375 -0.21875q-0.25 -0.078125 -0.53125 -0.078125q-0.34375 0 -0.71875 0.109375q-0.375 0.09375 -0.765625 0.265625q-0.375 0.171875 -0.75 0.421875q-0.359375 0.234375 -0.6875 0.515625l0 5.9375l-2.40625 0l0 -8.9375l2.40625 0zm26.168518 8.5q-1.109375 0.359375 -2.203125 0.515625q-1.09375 0.15625 -2.234375 0.15625q-1.46875 0 -2.609375 -0.3125q-1.140625 -0.3125 -1.921875 -0.90625q-0.78125 -0.609375 -1.203125 -1.46875q-0.40625 -0.859375 -0.40625 -1.953125q0 -1.015625 0.40625 -1.890625q0.421875 -0.875 1.171875 -1.515625q0.765625 -0.640625 1.84375 -1.0q1.078125 -0.359375 2.390625 -0.359375q1.21875 0 2.234375 0.328125q1.015625 0.328125 1.734375 0.984375q0.71875 0.640625 1.125 1.578125q0.40625 0.9375 0.40625 2.171875l0 0.609375l-8.8125 0q0.109375 0.421875 0.375 0.78125q0.28125 0.34375 0.734375 0.59375q0.46875 0.234375 1.140625 0.375q0.671875 0.140625 1.609375 0.140625q0.671875 0 1.296875 -0.078125q0.640625 -0.09375 1.1875 -0.21875q0.5625 -0.140625 1.0 -0.296875q0.453125 -0.171875 0.734375 -0.328125l0 2.09375zm-1.671875 -4.84375q-0.03125 -0.328125 -0.203125 -0.671875q-0.15625 -0.359375 -0.515625 -0.640625q-0.359375 -0.296875 -0.9375 -0.484375q-0.578125 -0.1875 -1.453125 -0.1875q-0.8125 0 -1.40625 0.203125q-0.59375 0.203125 -1.0 0.5q-0.390625 0.296875 -0.609375 0.640625q-0.21875 0.34375 -0.28125 0.640625l6.40625 0zm13.117371 5.28125l0 -5.015625q0 -0.5 -0.09375 -0.90625q-0.078125 -0.40625 -0.3125 -0.6875q-0.234375 -0.296875 -0.65625 -0.453125q-0.40625 -0.15625 -1.046875 -0.15625q-0.5 0 -1.046875 0.140625q-0.53125 0.125 -1.078125 0.34375q-0.53125 0.21875 -1.015625 0.515625q-0.484375 0.296875 -0.859375 0.609375l0 5.609375l-2.40625 0l0 -8.9375l2.40625 0l0 1.21875q0.453125 -0.265625 0.96875 -0.515625q0.515625 -0.265625 1.09375 -0.46875q0.578125 -0.203125 1.21875 -0.328125q0.65625 -0.140625 1.390625 -0.140625q0.90625 0 1.609375 0.21875q0.71875 0.21875 1.203125 0.625q0.5 0.390625 0.765625 0.96875q0.265625 0.5625 0.265625 1.265625l0 6.09375l-2.40625 0zm10.17041 -7.0l0 7.0l-2.40625 0l0 -7.0l-3.796875 0l0 -1.9375l10.0 0l0 1.9375l-3.796875 0z" fill-rule="nonzero"/><path fill="#d9ead3" d="m263.96057 591.6803l0 0c0 -1.9730225 1.5994568 -3.5725098 3.5724792 -3.5725098l163.40622 0c0.94747925 0 1.8561707 0.3764038 2.526123 1.0463867c0.6699829 0.6699219 1.0463562 1.5786133 1.0463562 2.526123l0 39.658142c0 1.9730225 -1.5994568 3.5725098 -3.5724792 3.5725098l-163.40622 0c-1.9730225 0 -3.5724792 -1.5994873 -3.5724792 -3.5725098z" fill-rule="evenodd"/><path stroke="#274e13" stroke-width="4.0" stroke-linejoin="round" stroke-linecap="butt" d="m263.96057 591.6803l0 0c0 -1.9730225 1.5994568 -3.5725098 3.5724792 -3.5725098l163.40622 0c0.94747925 0 1.8561707 0.3764038 2.526123 1.0463867c0.6699829 0.6699219 1.0463562 1.5786133 1.0463562 2.526123l0 39.658142c0 1.9730225 -1.5994568 3.5725098 -3.5724792 3.5725098l-163.40622 0c-1.9730225 0 -3.5724792 -1.5994873 -3.5724792 -3.5725098z" fill-rule="evenodd"/><path fill="#274e13" d="m321.08383 614.6219l-4.984375 0l-0.828125 1.6875l-2.703125 0l4.6875 -8.9375l2.6875 0l4.6875 8.9375l-2.703125 0l-0.84375 -1.6875zm-4.109375 -1.75l3.265625 0l-1.625 -3.296875l-1.640625 3.296875zm17.33899 -3.484375q-0.09375 -0.03125 -0.28125 -0.078125q-0.1875 -0.0625 -0.4375 -0.109375q-0.25 -0.0625 -0.546875 -0.09375q-0.296875 -0.046875 -0.609375 -0.046875q-0.640625 0 -1.203125 0.15625q-0.5625 0.15625 -1.0625 0.421875q-0.484375 0.265625 -0.90625 0.609375q-0.40625 0.328125 -0.765625 0.6875l0 5.375l-2.40625 0l0 -8.9375l2.40625 0l0 1.453125q0.4375 -0.328125 0.890625 -0.625q0.46875 -0.3125 0.953125 -0.546875q0.5 -0.234375 1.046875 -0.375q0.5625 -0.140625 1.1875 -0.140625q0.234375 0 0.46875 0.03125q0.25 0.015625 0.484375 0.046875q0.234375 0.03125 0.421875 0.078125q0.203125 0.03125 0.359375 0.078125l0 2.015625l0 0zm6.53656 -0.078125l0 7.0l-2.40625 0l0 -7.0l-3.796875 0l0 -1.9375l10.0 0l0 1.9375l-3.796875 0zm5.4060974 7.0l0 -8.9375l2.40625 0l0 8.9375l-2.40625 0zm15.05658 -0.609375q-0.46875 0.1875 -0.953125 0.34375q-0.46875 0.15625 -0.984375 0.265625q-0.5 0.125 -1.0625 0.171875q-0.5625 0.0625 -1.203125 0.0625q-1.359375 0 -2.515625 -0.28125q-1.140625 -0.296875 -1.984375 -0.875q-0.828125 -0.59375 -1.296875 -1.46875q-0.453125 -0.890625 -0.453125 -2.078125q0 -1.171875 0.453125 -2.046875q0.46875 -0.890625 1.296875 -1.46875q0.84375 -0.59375 1.984375 -0.890625q1.15625 -0.296875 2.515625 -0.296875q0.640625 0 1.203125 0.0625q0.5625 0.0625 1.0625 0.171875q0.515625 0.109375 0.984375 0.265625q0.484375 0.15625 0.953125 0.359375l0 2.171875q-0.375 -0.203125 -0.78125 -0.390625q-0.40625 -0.203125 -0.90625 -0.359375q-0.484375 -0.171875 -1.078125 -0.265625q-0.59375 -0.109375 -1.34375 -0.109375q-1.140625 0 -1.890625 0.234375q-0.75 0.234375 -1.203125 0.625q-0.4375 0.390625 -0.625 0.90625q-0.1875 0.5 -0.1875 1.03125q0 0.359375 0.078125 0.71875q0.078125 0.34375 0.265625 0.65625q0.1875 0.296875 0.46875 0.5625q0.296875 0.265625 0.734375 0.453125q0.4375 0.1875 1.015625 0.296875q0.59375 0.109375 1.34375 0.109375q0.75 0 1.34375 -0.09375q0.59375 -0.109375 1.078125 -0.265625q0.5 -0.15625 0.90625 -0.34375q0.40625 -0.203125 0.78125 -0.40625l0 2.171875l0 0zm4.667145 -3.21875q0 0.5625 0.09375 0.921875q0.109375 0.34375 0.34375 0.5625q0.234375 0.203125 0.609375 0.28125q0.375 0.078125 0.921875 0.078125l4.578125 0l0 1.984375l-5.0625 0q-1.0625 0 -1.796875 -0.171875q-0.734375 -0.171875 -1.203125 -0.53125q-0.46875 -0.359375 -0.6875 -0.90625q-0.203125 -0.5625 -0.203125 -1.328125l0 -6.0l2.40625 0l0 5.109375zm18.463196 3.390625q-1.109375 0.359375 -2.203125 0.515625q-1.09375 0.15625 -2.234375 0.15625q-1.46875 0 -2.609375 -0.3125q-1.140625 -0.3125 -1.921875 -0.90625q-0.78125 -0.609375 -1.203125 -1.46875q-0.40625 -0.859375 -0.40625 -1.953125q0 -1.015625 0.40625 -1.890625q0.421875 -0.875 1.171875 -1.515625q0.765625 -0.640625 1.84375 -1.0q1.078125 -0.359375 2.390625 -0.359375q1.21875 0 2.234375 0.328125q1.015625 0.328125 1.734375 0.984375q0.71875 0.640625 1.125 1.578125q0.40625 0.9375 0.40625 2.171875l0 0.609375l-8.8125 0q0.109375 0.421875 0.375 0.78125q0.28125 0.34375 0.734375 0.59375q0.46875 0.234375 1.140625 0.375q0.671875 0.140625 1.609375 0.140625q0.671875 0 1.296875 -0.078125q0.640625 -0.09375 1.1875 -0.21875q0.5625 -0.140625 1.0 -0.296875q0.453125 -0.171875 0.734375 -0.328125l0 2.09375zm-1.671875 -4.84375q-0.03125 -0.328125 -0.203125 -0.671875q-0.15625 -0.359375 -0.515625 -0.640625q-0.359375 -0.296875 -0.9375 -0.484375q-0.578125 -0.1875 -1.453125 -0.1875q-0.8125 0 -1.40625 0.203125q-0.59375 0.203125 -1.0 0.5q-0.390625 0.296875 -0.609375 0.640625q-0.21875 0.34375 -0.28125 0.640625l6.40625 0z" fill-rule="nonzero"/><path fill="#000000" fill-opacity="0.0" d="m349.23618 588.1078l0 -46.33258l134.20471 0l0 -46.328827" fill-rule="evenodd"/><path stroke="#274e13" stroke-width="4.0" stroke-linejoin="round" stroke-linecap="butt" d="m349.23618 588.1078l0 -46.33258l134.20474 0l0 -22.328857" fill-rule="evenodd"/><path stroke="#274e13" stroke-width="4.0" stroke-linecap="butt" d="m490.04782 519.44635l-6.606903 -18.152374l-6.6069336 18.152374z" fill-rule="evenodd"/><path fill="#000000" fill-opacity="0.0" d="m614.2126 588.1078l0 -46.33258l-130.77167 0l0 -46.328827" fill-rule="evenodd"/><path stroke="#274e13" stroke-width="4.0" stroke-linejoin="round" stroke-linecap="butt" d="m614.2126 588.1078l0 -46.33258l-130.77167 0l0 -22.328857" fill-rule="evenodd"/><path stroke="#274e13" stroke-width="4.0" stroke-linecap="butt" d="m490.04782 519.44635l-6.606903 -18.152374l-6.6069336 18.152374z" fill-rule="evenodd"/><path fill="#000000" fill-opacity="0.0" d="m528.93695 611.50934l-47.212585 0l0 0.06304932l-47.212585 0" fill-rule="evenodd"/><path stroke="#274e13" stroke-width="4.0" stroke-linejoin="round" stroke-linecap="butt" d="m528.93695 611.50934l-47.212585 0l0 0.06298828l-24.699463 0" fill-rule="evenodd"/><path stroke="#274e13" stroke-width="4.0" stroke-linecap="butt" d="m457.02487 611.5723l-9.513092 -6.661133l-9.513123 6.661133l9.513123 6.661194z" fill-rule="evenodd"/><path fill="#d9ead3" d="m398.16534 88.66164l0 0c0 -1.9730301 1.5994568 -3.5724869 3.5724792 -3.5724869l163.40622 0c0.94750977 0 1.8561401 0.37638855 2.526123 1.0463562c0.6699829 0.6699753 1.0463867 1.5786514 1.0463867 2.5261307l0 39.658173c0 1.9730377 -1.5994873 3.5724945 -3.5725098 3.5724945l-163.40622 0c-1.9730225 0 -3.5724792 -1.5994568 -3.5724792 -3.5724945z" fill-rule="evenodd"/><path stroke="#274e13" stroke-width="4.0" stroke-linejoin="round" stroke-linecap="butt" d="m398.16534 88.66164l0 0c0 -1.9730301 1.5994568 -3.5724869 3.5724792 -3.5724869l163.40622 0c0.94750977 0 1.8561401 0.37638855 2.526123 1.0463562c0.6699829 0.6699753 1.0463867 1.5786514 1.0463867 2.5261307l0 39.658173c0 1.9730377 -1.5994873 3.5724945 -3.5725098 3.5724945l-163.40622 0c-1.9730225 0 -3.5724792 -1.5994568 -3.5724792 -3.5724945z" fill-rule="evenodd"/><path fill="#274e13" d="m459.92557 104.11885q1.3125 0 2.4375 0.234375q1.140625 0.21875 2.078125 0.5625l0 2.1875q-0.375 -0.203125 -0.84375 -0.390625q-0.453125 -0.203125 -1.0 -0.34375q-0.546875 -0.15625 -1.171875 -0.25q-0.625 -0.09375 -1.3125 -0.09375q-0.859375 0 -1.5 0.125q-0.640625 0.125 -1.09375 0.34375q-0.453125 0.203125 -0.75 0.484375q-0.296875 0.265625 -0.46875 0.578125q-0.15625 0.3125 -0.234375 0.640625q-0.0625 0.328125 -0.0625 0.625q0 0.265625 0.046875 0.578125q0.0625 0.3125 0.21875 0.625q0.15625 0.3125 0.421875 0.609375q0.28125 0.28125 0.71875 0.5q0.4375 0.21875 1.046875 0.359375q0.625 0.125 1.484375 0.125q0.421875 0 0.734375 -0.015625q0.328125 -0.03125 0.59375 -0.078125q0.265625 -0.046875 0.5 -0.109375q0.234375 -0.0625 0.46875 -0.140625l0 -1.078125l-2.703125 0l0 -1.953125l5.125 0l0 4.5625q-0.484375 0.171875 -1.078125 0.3125q-0.59375 0.125 -1.234375 0.21875q-0.625 0.09375 -1.265625 0.140625q-0.640625 0.046875 -1.203125 0.046875q-0.875 0 -1.6875 -0.125q-0.8125 -0.109375 -1.515625 -0.34375q-0.6875 -0.25 -1.265625 -0.625q-0.578125 -0.375 -0.984375 -0.890625q-0.40625 -0.53125 -0.640625 -1.203125q-0.21875 -0.671875 -0.21875 -1.515625q0 -0.828125 0.234375 -1.5q0.234375 -0.6875 0.65625 -1.203125q0.421875 -0.515625 1.0 -0.890625q0.59375 -0.390625 1.296875 -0.625q0.71875 -0.25 1.515625 -0.359375q0.8125 -0.125 1.65625 -0.125zm9.712341 0.234375l0 5.03125q0 0.5 0.078125 0.90625q0.078125 0.40625 0.3125 0.703125q0.234375 0.28125 0.640625 0.453125q0.40625 0.15625 1.0625 0.15625q0.5 0 1.03125 -0.140625q0.546875 -0.140625 1.078125 -0.359375q0.546875 -0.234375 1.03125 -0.53125q0.484375 -0.296875 0.859375 -0.609375l0 -5.609375l2.40625 0l0 8.9375l-2.40625 0l0 -1.21875q-0.453125 0.25 -0.96875 0.515625q-0.515625 0.265625 -1.09375 0.484375q-0.578125 0.203125 -1.234375 0.328125q-0.640625 0.140625 -1.359375 0.140625q-0.90625 0 -1.625 -0.21875q-0.71875 -0.21875 -1.21875 -0.609375q-0.484375 -0.40625 -0.75 -0.96875q-0.265625 -0.578125 -0.265625 -1.28125l0 -6.109375l2.421875 0zm21.279816 8.5q-1.109375 0.359375 -2.203125 0.515625q-1.09375 0.15625 -2.234375 0.15625q-1.46875 0 -2.609375 -0.3125q-1.140625 -0.3125 -1.921875 -0.90625q-0.78125 -0.609375 -1.203125 -1.46875q-0.40625 -0.859375 -0.40625 -1.953125q0 -1.015625 0.40625 -1.890625q0.421875 -0.875 1.171875 -1.515625q0.765625 -0.640625 1.84375 -1.0q1.078125 -0.359375 2.390625 -0.359375q1.21875 0 2.234375 0.328125q1.015625 0.328125 1.734375 0.984375q0.71875 0.640625 1.125 1.578125q0.40625 0.9375 0.40625 2.171875l0 0.609375l-8.8125 0q0.109375 0.421875 0.375 0.78125q0.28125 0.34375 0.734375 0.59375q0.46875 0.234375 1.140625 0.375q0.671875 0.140625 1.609375 0.140625q0.671875 0 1.296875 -0.078125q0.640625 -0.09375 1.1875 -0.21875q0.5625 -0.140625 1.0 -0.296875q0.453125 -0.171875 0.734375 -0.328125l0 2.09375zm-1.671875 -4.84375q-0.03125 -0.328125 -0.203125 -0.671875q-0.15625 -0.359375 -0.515625 -0.640625q-0.359375 -0.296875 -0.9375 -0.484375q-0.578125 -0.1875 -1.453125 -0.1875q-0.8125 0 -1.40625 0.203125q-0.59375 0.203125 -1.0 0.5q-0.390625 0.296875 -0.609375 0.640625q-0.21875 0.34375 -0.28125 0.640625l6.40625 0zm12.836121 -1.140625q-0.25 -0.125 -0.671875 -0.28125q-0.421875 -0.15625 -0.953125 -0.296875q-0.515625 -0.140625 -1.140625 -0.234375q-0.609375 -0.09375 -1.265625 -0.09375q-0.515625 0 -0.890625 0.03125q-0.359375 0.03125 -0.609375 0.09375q-0.25 0.046875 -0.40625 0.125q-0.140625 0.0625 -0.21875 0.140625q-0.078125 0.0625 -0.109375 0.140625q-0.015625 0.0625 -0.015625 0.125q0 0.1875 0.1875 0.34375q0.203125 0.140625 0.53125 0.25q0.34375 0.109375 0.796875 0.21875q0.453125 0.09375 0.953125 0.203125q0.5 0.109375 1.03125 0.234375q0.546875 0.125 1.046875 0.296875q0.515625 0.171875 0.953125 0.40625q0.453125 0.21875 0.78125 0.515625q0.34375 0.296875 0.53125 0.6875q0.203125 0.390625 0.203125 0.890625q0 0.640625 -0.234375 1.109375q-0.21875 0.46875 -0.609375 0.78125q-0.375 0.3125 -0.875 0.515625q-0.5 0.1875 -1.046875 0.28125q-0.546875 0.109375 -1.109375 0.140625q-0.5625 0.03125 -1.078125 0.03125q-1.328125 0 -2.453125 -0.21875q-1.125 -0.203125 -2.0 -0.53125l0 -2.140625q0.90625 0.5 2.046875 0.78125q1.140625 0.28125 2.4375 0.28125q0.765625 0 1.25 -0.078125q0.484375 -0.09375 0.75 -0.21875q0.28125 -0.125 0.375 -0.265625q0.109375 -0.15625 0.109375 -0.296875q0 -0.21875 -0.203125 -0.375q-0.1875 -0.15625 -0.53125 -0.28125q-0.34375 -0.125 -0.796875 -0.21875q-0.4375 -0.09375 -0.953125 -0.1875q-0.5 -0.109375 -1.03125 -0.21875q-0.53125 -0.125 -1.03125 -0.28125q-0.5 -0.171875 -0.953125 -0.375q-0.453125 -0.21875 -0.796875 -0.5q-0.328125 -0.296875 -0.53125 -0.671875q-0.1875 -0.390625 -0.1875 -0.890625q0 -0.59375 0.203125 -1.015625q0.203125 -0.4375 0.5625 -0.734375q0.359375 -0.296875 0.8125 -0.484375q0.46875 -0.203125 0.984375 -0.296875q0.515625 -0.109375 1.046875 -0.140625q0.53125 -0.046875 1.0 -0.046875q0.515625 0 1.0625 0.0625q0.5625 0.046875 1.09375 0.140625q0.53125 0.09375 1.03125 0.21875q0.5 0.125 0.921875 0.25l0 2.078125zm8.030762 -0.578125l0 7.0l-2.40625 0l0 -7.0l-3.796875 0l0 -1.9375l10.0 0l0 1.9375l-3.796875 0z" fill-rule="nonzero"/><path fill="#d9ead3" d="m398.16534 180.46107l0 0c0 -1.9730225 1.5994568 -3.5724792 3.5724792 -3.5724792l163.40622 0c0.94750977 0 1.8561401 0.3763733 2.526123 1.0463562c0.6699829 0.66996765 1.0463867 1.5786438 1.0463867 2.526123l0 39.658173c0 1.9730377 -1.5994873 3.5724945 -3.5725098 3.5724945l-163.40622 0c-1.9730225 0 -3.5724792 -1.5994568 -3.5724792 -3.5724945z" fill-rule="evenodd"/><path stroke="#274e13" stroke-width="4.0" stroke-linejoin="round" stroke-linecap="butt" d="m398.16534 180.46107l0 0c0 -1.9730225 1.5994568 -3.5724792 3.5724792 -3.5724792l163.40622 0c0.94750977 0 1.8561401 0.3763733 2.526123 1.0463562c0.6699829 0.66996765 1.0463867 1.5786438 1.0463867 2.526123l0 39.658173c0 1.9730377 -1.5994873 3.5724945 -3.5725098 3.5724945l-163.40622 0c-1.9730225 0 -3.5724792 -1.5994568 -3.5724792 -3.5724945z" fill-rule="evenodd"/><path fill="#274e13" d="m454.644 205.09016l0 -6.28125l-3.3125 6.28125l-2.328125 0l-3.3125 -6.28125l0 6.28125l-2.40625 0l0 -8.9375l3.265625 0l3.625 6.765625l3.609375 -6.765625l3.265625 0l0 8.9375l-2.40625 0zm15.178436 -0.4375q-1.109375 0.359375 -2.203125 0.515625q-1.09375 0.15625 -2.234375 0.15625q-1.46875 0 -2.609375 -0.3125q-1.140625 -0.3125 -1.921875 -0.90625q-0.78125 -0.609375 -1.203125 -1.46875q-0.40625 -0.859375 -0.40625 -1.953125q0 -1.015625 0.40625 -1.890625q0.421875 -0.875 1.171875 -1.515625q0.765625 -0.640625 1.84375 -1.0q1.078125 -0.359375 2.390625 -0.359375q1.21875 0 2.234375 0.328125q1.015625 0.328125 1.734375 0.984375q0.71875 0.640625 1.125 1.578125q0.40625 0.9375 0.40625 2.171875l0 0.609375l-8.8125 0q0.109375 0.421875 0.375 0.78125q0.28125 0.34375 0.734375 0.59375q0.46875 0.234375 1.140625 0.375q0.671875 0.140625 1.609375 0.140625q0.671875 0 1.296875 -0.078125q0.640625 -0.09375 1.1875 -0.21875q0.5625 -0.140625 1.0 -0.296875q0.453125 -0.171875 0.734375 -0.328125l0 2.09375zm-1.671875 -4.84375q-0.03125 -0.328125 -0.203125 -0.671875q-0.15625 -0.359375 -0.515625 -0.640625q-0.359375 -0.296875 -0.9375 -0.484375q-0.578125 -0.1875 -1.453125 -0.1875q-0.8125 0 -1.40625 0.203125q-0.59375 0.203125 -1.0 0.5q-0.390625 0.296875 -0.609375 0.640625q-0.21875 0.34375 -0.28125 0.640625l6.40625 0zm7.007965 -3.65625l0 0.984375q0.3125 -0.203125 0.6875 -0.421875q0.375 -0.21875 0.8125 -0.390625q0.453125 -0.171875 0.953125 -0.28125q0.5 -0.125 1.09375 -0.125q0.5625 0 0.984375 0.125q0.4375 0.125 0.75 0.3125q0.328125 0.1875 0.546875 0.4375q0.21875 0.234375 0.375 0.46875q0.46875 -0.3125 0.90625 -0.546875q0.453125 -0.25 0.90625 -0.421875q0.46875 -0.1875 0.9375 -0.28125q0.484375 -0.09375 0.984375 -0.09375q0.828125 0 1.46875 0.234375q0.65625 0.21875 1.09375 0.625q0.453125 0.390625 0.6875 0.9375q0.25 0.53125 0.25 1.140625l0 6.234375l-2.421875 0l0 -5.890625q0 -0.359375 -0.109375 -0.609375q-0.109375 -0.265625 -0.296875 -0.421875q-0.1875 -0.171875 -0.4375 -0.25q-0.25 -0.078125 -0.53125 -0.078125q-1.296875 0 -2.96875 1.171875q0.03125 0.109375 0.03125 0.265625q0.015625 0.140625 0.015625 0.296875l0 5.515625l-2.421875 0l0 -5.9375q0 -0.359375 -0.109375 -0.609375q-0.109375 -0.25 -0.296875 -0.40625q-0.1875 -0.15625 -0.4375 -0.21875q-0.25 -0.078125 -0.53125 -0.078125q-0.34375 0 -0.71875 0.109375q-0.375 0.09375 -0.765625 0.265625q-0.375 0.171875 -0.75 0.421875q-0.359375 0.234375 -0.6875 0.515625l0 5.9375l-2.40625 0l0 -8.9375l2.40625 0zm26.387268 6.46875q0 0.515625 -0.140625 0.90625q-0.125 0.390625 -0.375 0.671875q-0.25 0.265625 -0.59375 0.4375q-0.328125 0.171875 -0.75 0.28125q-0.40625 0.09375 -0.875 0.140625q-0.46875 0.03125 -0.96875 0.03125l-6.484375 0l0 -8.9375l6.359375 0q0.390625 0 0.765625 0.03125q0.390625 0.03125 0.734375 0.125q0.359375 0.078125 0.65625 0.234375q0.3125 0.15625 0.53125 0.421875q0.234375 0.25 0.359375 0.609375q0.125 0.34375 0.125 0.84375q0 0.859375 -0.4375 1.375q-0.421875 0.515625 -1.34375 0.6875q0.65625 0.046875 1.109375 0.203125q0.46875 0.140625 0.765625 0.40625q0.296875 0.265625 0.421875 0.65625q0.140625 0.375 0.140625 0.875zm-3.015625 -3.828125q0 -0.171875 -0.046875 -0.3125q-0.046875 -0.15625 -0.1875 -0.265625q-0.140625 -0.125 -0.375 -0.1875q-0.234375 -0.078125 -0.59375 -0.078125l-3.5625 0l0 1.671875l3.5625 0q0.359375 0 0.59375 -0.0625q0.234375 -0.0625 0.375 -0.171875q0.140625 -0.109375 0.1875 -0.265625q0.046875 -0.15625 0.046875 -0.328125zm0.5625 3.546875q0 -0.296875 -0.109375 -0.484375q-0.09375 -0.1875 -0.3125 -0.28125q-0.21875 -0.109375 -0.578125 -0.140625q-0.34375 -0.03125 -0.84375 -0.03125l-3.484375 0l0 1.890625l3.484375 0q0.5 0 0.84375 -0.03125q0.359375 -0.03125 0.578125 -0.125q0.21875 -0.109375 0.3125 -0.296875q0.109375 -0.1875 0.109375 -0.5zm14.631866 2.3125q-1.109375 0.359375 -2.2030945 0.515625q-1.09375 0.15625 -2.234375 0.15625q-1.46875 0 -2.609375 -0.3125q-1.140625 -0.3125 -1.921875 -0.90625q-0.78125 -0.609375 -1.203125 -1.46875q-0.40625 -0.859375 -0.40625 -1.953125q0 -1.015625 0.40625 -1.890625q0.421875 -0.875 1.171875 -1.515625q0.765625 -0.640625 1.84375 -1.0q1.078125 -0.359375 2.390625 -0.359375q1.21875 0 2.234375 0.328125q1.0155945 0.328125 1.7343445 0.984375q0.71875 0.640625 1.125 1.578125q0.40625 0.9375 0.40625 2.171875l0 0.609375l-8.8124695 0q0.109375 0.421875 0.375 0.78125q0.28125 0.34375 0.734375 0.59375q0.46875 0.234375 1.140625 0.375q0.671875 0.140625 1.609375 0.140625q0.671875 0 1.296875 -0.078125q0.640625 -0.09375 1.1875 -0.21875q0.5624695 -0.140625 0.9999695 -0.296875q0.453125 -0.171875 0.734375 -0.328125l0 2.09375zm-1.671875 -4.84375q-0.03125 -0.328125 -0.20309448 -0.671875q-0.15625 -0.359375 -0.515625 -0.640625q-0.359375 -0.296875 -0.9375 -0.484375q-0.578125 -0.1875 -1.453125 -0.1875q-0.8125 0 -1.40625 0.203125q-0.59375 0.203125 -1.0 0.5q-0.390625 0.296875 -0.609375 0.640625q-0.21875 0.34375 -0.28125 0.640625l6.4062195 0zm12.820496 -1.640625q-0.09375 -0.03125 -0.28125 -0.078125q-0.1875 -0.0625 -0.4375 -0.109375q-0.25 -0.0625 -0.546875 -0.09375q-0.296875 -0.046875 -0.609375 -0.046875q-0.640625 0 -1.203125 0.15625q-0.5625 0.15625 -1.0625 0.421875q-0.484375 0.265625 -0.90625 0.609375q-0.40625 0.328125 -0.765625 0.6875l0 5.375l-2.40625 0l0 -8.9375l2.40625 0l0 1.453125q0.4375 -0.328125 0.890625 -0.625q0.46875 -0.3125 0.953125 -0.546875q0.5 -0.234375 1.046875 -0.375q0.5625 -0.140625 1.1875 -0.140625q0.234375 0 0.46875 0.03125q0.25 0.015625 0.484375 0.046875q0.234375 0.03125 0.421875 0.078125q0.203125 0.03125 0.359375 0.078125l0 2.015625l0 0z" fill-rule="nonzero"/><path fill="#d9ead3" d="m398.16534 268.61148l0 0c0 -1.9730225 1.5994568 -3.5724792 3.5724792 -3.5724792l163.40622 0c0.94750977 0 1.8561401 0.3763733 2.526123 1.0463562c0.6699829 0.6699524 1.0463867 1.5786438 1.0463867 2.526123l0 39.658173c0 1.9730225 -1.5994873 3.5724792 -3.5725098 3.5724792l-163.40622 0c-1.9730225 0 -3.5724792 -1.5994568 -3.5724792 -3.5724792z" fill-rule="evenodd"/><path stroke="#274e13" stroke-width="4.0" stroke-linejoin="round" stroke-linecap="butt" d="m398.16534 268.61148l0 0c0 -1.9730225 1.5994568 -3.5724792 3.5724792 -3.5724792l163.40622 0c0.94750977 0 1.8561401 0.3763733 2.526123 1.0463562c0.6699829 0.6699524 1.0463867 1.5786438 1.0463867 2.526123l0 39.658173c0 1.9730225 -1.5994873 3.5724792 -3.5725098 3.5724792l-163.40622 0c-1.9730225 0 -3.5724792 -1.5994568 -3.5724792 -3.5724792z" fill-rule="evenodd"/><path fill="#274e13" d="m439.7898 293.24057l0 -6.28125l-3.3125 6.28125l-2.328125 0l-3.3125 -6.28125l0 6.28125l-2.40625 0l0 -8.9375l3.265625 0l3.625 6.765625l3.609375 -6.765625l3.265625 0l0 8.9375l-2.40625 0zm16.772186 -4.46875q0 1.15625 -0.421875 2.046875q-0.421875 0.875 -1.21875 1.46875q-0.78125 0.59375 -1.90625 0.890625q-1.125 0.296875 -2.515625 0.296875q-1.40625 0 -2.53125 -0.296875q-1.125 -0.296875 -1.921875 -0.890625q-0.796875 -0.59375 -1.234375 -1.46875q-0.421875 -0.890625 -0.421875 -2.046875q0 -1.140625 0.421875 -2.015625q0.4375 -0.890625 1.234375 -1.484375q0.796875 -0.59375 1.921875 -0.890625q1.125 -0.3125 2.53125 -0.3125q1.390625 0 2.515625 0.3125q1.125 0.296875 1.90625 0.890625q0.796875 0.59375 1.21875 1.484375q0.421875 0.875 0.421875 2.015625zm-2.4375 0q0 -0.5 -0.171875 -1.0q-0.15625 -0.5 -0.5625 -0.890625q-0.40625 -0.390625 -1.109375 -0.640625q-0.703125 -0.25 -1.78125 -0.25q-0.734375 0 -1.296875 0.125q-0.546875 0.109375 -0.953125 0.3125q-0.390625 0.1875 -0.671875 0.46875q-0.265625 0.265625 -0.4375 0.578125q-0.15625 0.3125 -0.234375 0.640625q-0.0625 0.328125 -0.0625 0.65625q0 0.34375 0.0625 0.6875q0.078125 0.328125 0.234375 0.640625q0.171875 0.296875 0.4375 0.578125q0.28125 0.265625 0.671875 0.46875q0.40625 0.1875 0.953125 0.3125q0.5625 0.109375 1.296875 0.109375q1.078125 0 1.78125 -0.25q0.703125 -0.25 1.109375 -0.640625q0.40625 -0.40625 0.5625 -0.90625q0.171875 -0.5 0.171875 -1.0zm15.598785 -0.015625q0 0.859375 -0.203125 1.53125q-0.1875 0.671875 -0.53125 1.171875q-0.328125 0.484375 -0.8125 0.828125q-0.484375 0.34375 -1.078125 0.5625q-0.578125 0.203125 -1.25 0.296875q-0.671875 0.09375 -1.40625 0.09375l-5.671875 0l0 -8.9375l5.65625 0q0.734375 0 1.40625 0.09375q0.6875 0.09375 1.265625 0.296875q0.59375 0.203125 1.078125 0.546875q0.484375 0.34375 0.8125 0.84375q0.34375 0.5 0.53125 1.171875q0.203125 0.65625 0.203125 1.5zm-2.4375 0q0 -0.640625 -0.171875 -1.109375q-0.15625 -0.484375 -0.53125 -0.78125q-0.375 -0.3125 -0.96875 -0.46875q-0.578125 -0.15625 -1.4375 -0.15625l-3.0 0l0 5.046875l3.0 0q0.859375 0 1.4375 -0.140625q0.59375 -0.15625 0.96875 -0.46875q0.375 -0.328125 0.53125 -0.796875q0.171875 -0.46875 0.171875 -1.125zm14.60553 4.046875q-1.109375 0.359375 -2.203125 0.515625q-1.09375 0.15625 -2.234375 0.15625q-1.46875 0 -2.609375 -0.3125q-1.140625 -0.3125 -1.921875 -0.90625q-0.78125 -0.609375 -1.203125 -1.46875q-0.40625 -0.859375 -0.40625 -1.953125q0 -1.015625 0.40625 -1.890625q0.421875 -0.875 1.171875 -1.515625q0.765625 -0.640625 1.84375 -1.0q1.078125 -0.359375 2.390625 -0.359375q1.21875 0 2.234375 0.328125q1.015625 0.328125 1.734375 0.984375q0.71875 0.640625 1.125 1.578125q0.40625 0.9375 0.40625 2.171875l0 0.609375l-8.8125 0q0.109375 0.421875 0.375 0.78125q0.28125 0.34375 0.734375 0.59375q0.46875 0.234375 1.140625 0.375q0.671875 0.140625 1.609375 0.140625q0.671875 0 1.296875 -0.078125q0.640625 -0.09375 1.1875 -0.21875q0.5625 -0.140625 1.0 -0.296875q0.453125 -0.171875 0.734375 -0.328125l0 2.09375zm-1.671875 -4.84375q-0.03125 -0.328125 -0.203125 -0.671875q-0.15625 -0.359375 -0.515625 -0.640625q-0.359375 -0.296875 -0.9375 -0.484375q-0.578125 -0.1875 -1.453125 -0.1875q-0.8125 0 -1.40625 0.203125q-0.59375 0.203125 -1.0 0.5q-0.390625 0.296875 -0.609375 0.640625q-0.21875 0.34375 -0.28125 0.640625l6.40625 0zm12.820496 -1.640625q-0.09375 -0.03125 -0.28125 -0.078125q-0.1875 -0.0625 -0.4375 -0.109375q-0.25 -0.0625 -0.546875 -0.09375q-0.296875 -0.046875 -0.609375 -0.046875q-0.640625 0 -1.203125 0.15625q-0.5625 0.15625 -1.0625 0.421875q-0.484375 0.265625 -0.90625 0.609375q-0.40625 0.328125 -0.765625 0.6875l0 5.375l-2.40625 0l0 -8.9375l2.40625 0l0 1.453125q0.4375 -0.328125 0.890625 -0.625q0.46875 -0.3125 0.953125 -0.546875q0.5 -0.234375 1.046875 -0.375q0.5625 -0.140625 1.1875 -0.140625q0.234375 0 0.46875 0.03125q0.25 0.015625 0.484375 0.046875q0.234375 0.03125 0.421875 0.078125q0.203125 0.03125 0.359375 0.078125l0 2.015625l0 0zm9.114685 6.921875l0 -0.875q-0.46875 0.25 -1.0 0.453125q-0.53125 0.1875 -1.109375 0.328125q-0.5625 0.125 -1.171875 0.1875q-0.609375 0.078125 -1.21875 0.078125q-0.734375 0 -1.40625 -0.140625q-0.671875 -0.125 -1.203125 -0.421875q-0.515625 -0.3125 -0.828125 -0.8125q-0.3125 -0.5 -0.3125 -1.21875q0 -0.890625 0.484375 -1.484375q0.5 -0.609375 1.515625 -1.0q1.015625 -0.390625 2.5625 -0.59375q1.5625 -0.203125 3.6875 -0.328125l0 -0.1875q0 -0.21875 -0.125 -0.4375q-0.109375 -0.21875 -0.421875 -0.375q-0.3125 -0.171875 -0.859375 -0.265625q-0.53125 -0.109375 -1.359375 -0.109375q-0.65625 0 -1.296875 0.0625q-0.640625 0.0625 -1.234375 0.1875q-0.59375 0.109375 -1.125 0.265625q-0.53125 0.15625 -0.96875 0.328125l0 -2.140625q0.453125 -0.125 1.015625 -0.234375q0.5625 -0.109375 1.171875 -0.1875q0.625 -0.078125 1.25 -0.125q0.625 -0.0625 1.1875 -0.0625q1.125 0 2.078125 0.1875q0.953125 0.1875 1.640625 0.578125q0.6875 0.390625 1.0625 1.0q0.390625 0.59375 0.390625 1.421875l0 5.921875l-2.40625 0zm0 -4.078125q-1.390625 0.046875 -2.375 0.15625q-0.96875 0.09375 -1.609375 0.21875q-0.640625 0.125 -1.015625 0.28125q-0.359375 0.140625 -0.546875 0.296875q-0.1875 0.15625 -0.234375 0.3125q-0.03125 0.15625 -0.03125 0.296875q0 0.15625 0.078125 0.3125q0.09375 0.140625 0.296875 0.25q0.21875 0.109375 0.5625 0.171875q0.359375 0.0625 0.890625 0.0625q0.59375 0 1.15625 -0.09375q0.5625 -0.09375 1.0625 -0.25q0.515625 -0.15625 0.953125 -0.375q0.453125 -0.21875 0.8125 -0.46875l0 -1.171875zm10.177307 -2.921875l0 7.0l-2.40625 0l0 -7.0l-3.796875 0l0 -1.9375l10.0 0l0 1.9375l-3.796875 0zm16.968567 2.53125q0 1.15625 -0.421875 2.046875q-0.421875 0.875 -1.21875 1.46875q-0.78125 0.59375 -1.90625 0.890625q-1.125 0.296875 -2.515625 0.296875q-1.40625 0 -2.53125 -0.296875q-1.125 -0.296875 -1.921875 -0.890625q-0.796875 -0.59375 -1.234375 -1.46875q-0.421875 -0.890625 -0.421875 -2.046875q0 -1.140625 0.421875 -2.015625q0.4375 -0.890625 1.234375 -1.484375q0.796875 -0.59375 1.921875 -0.890625q1.125 -0.3125 2.53125 -0.3125q1.390625 0 2.515625 0.3125q1.125 0.296875 1.90625 0.890625q0.796875 0.59375 1.21875 1.484375q0.421875 0.875 0.421875 2.015625zm-2.4375 0q0 -0.5 -0.171875 -1.0q-0.15625 -0.5 -0.5625 -0.890625q-0.40625 -0.390625 -1.109375 -0.640625q-0.703125 -0.25 -1.78125 -0.25q-0.734375 0 -1.296875 0.125q-0.546875 0.109375 -0.953125 0.3125q-0.390625 0.1875 -0.671875 0.46875q-0.265625 0.265625 -0.4375 0.578125q-0.15625 0.3125 -0.234375 0.640625q-0.0625 0.328125 -0.0625 0.65625q0 0.34375 0.0625 0.6875q0.078125 0.328125 0.234375 0.640625q0.171875 0.296875 0.4375 0.578125q0.28125 0.265625 0.671875 0.46875q0.40625 0.1875 0.953125 0.3125q0.5625 0.109375 1.296875 0.109375q1.078125 0 1.78125 -0.25q0.703125 -0.25 1.109375 -0.640625q0.40625 -0.40625 0.5625 -0.90625q0.171875 -0.5 0.171875 -1.0zm12.864441 -2.453125q-0.09375 -0.03125 -0.28125 -0.078125q-0.1875 -0.0625 -0.4375 -0.109375q-0.25 -0.0625 -0.546875 -0.09375q-0.296875 -0.046875 -0.609375 -0.046875q-0.640625 0 -1.203125 0.15625q-0.5625 0.15625 -1.0625 0.421875q-0.484375 0.265625 -0.90625 0.609375q-0.40625 0.328125 -0.765625 0.6875l0 5.375l-2.40625 0l0 -8.9375l2.40625 0l0 1.453125q0.4375 -0.328125 0.890625 -0.625q0.46875 -0.3125 0.953125 -0.546875q0.5 -0.234375 1.046875 -0.375q0.5625 -0.140625 1.1875 -0.140625q0.234375 0 0.46875 0.03125q0.25 0.015625 0.484375 0.046875q0.234375 0.03125 0.421875 0.078125q0.203125 0.03125 0.359375 0.078125l0 2.015625l0 0z" fill-rule="nonzero"/><path fill="#d9ead3" d="m398.16534 360.41092l0 0c0 -1.9730225 1.5994568 -3.5724792 3.5724792 -3.5724792l163.40622 0c0.94750977 0 1.8561401 0.3763733 2.526123 1.0463562c0.6699829 0.6699524 1.0463867 1.5786438 1.0463867 2.526123l0 39.658173c0 1.9730225 -1.5994873 3.5724792 -3.5725098 3.5724792l-163.40622 0c-1.9730225 0 -3.5724792 -1.5994568 -3.5724792 -3.5724792z" fill-rule="evenodd"/><path stroke="#274e13" stroke-width="4.0" stroke-linejoin="round" stroke-linecap="butt" d="m398.16534 360.41092l0 0c0 -1.9730225 1.5994568 -3.5724792 3.5724792 -3.5724792l163.40622 0c0.94750977 0 1.8561401 0.3763733 2.526123 1.0463562c0.6699829 0.6699524 1.0463867 1.5786438 1.0463867 2.526123l0 39.658173c0 1.9730225 -1.5994873 3.5724792 -3.5725098 3.5724792l-163.40622 0c-1.9730225 0 -3.5724792 -1.5994568 -3.5724792 -3.5724792z" fill-rule="evenodd"/><path fill="#274e13" d="m418.9356 383.3525l-4.984375 0l-0.828125 1.6875l-2.703125 0l4.6875 -8.9375l2.6875 0l4.6875 8.9375l-2.703125 0l-0.84375 -1.6875zm-4.109375 -1.75l3.265625 0l-1.625 -3.296875l-1.640625 3.296875zm20.073364 -1.046875q0 0.859375 -0.203125 1.53125q-0.1875 0.671875 -0.53125 1.171875q-0.328125 0.484375 -0.8125 0.828125q-0.484375 0.34375 -1.078125 0.5625q-0.578125 0.203125 -1.25 0.296875q-0.671875 0.09375 -1.40625 0.09375l-5.671875 0l0 -8.9375l5.65625 0q0.734375 0 1.40625 0.09375q0.6875 0.09375 1.265625 0.296875q0.59375 0.203125 1.078125 0.546875q0.484375 0.34375 0.8125 0.84375q0.34375 0.5 0.53125 1.171875q0.203125 0.65625 0.203125 1.5zm-2.4375 0q0 -0.640625 -0.171875 -1.109375q-0.15625 -0.484375 -0.53125 -0.78125q-0.375 -0.3125 -0.96875 -0.46875q-0.578125 -0.15625 -1.4375 -0.15625l-3.0 0l0 5.046875l3.0 0q0.859375 0 1.4375 -0.140625q0.59375 -0.15625 0.96875 -0.46875q0.375 -0.328125 0.53125 -0.796875q0.171875 -0.46875 0.171875 -1.125zm7.0430603 -4.453125l0 0.984375q0.3125 -0.203125 0.6875 -0.421875q0.375 -0.21875 0.8125 -0.390625q0.453125 -0.171875 0.953125 -0.28125q0.5 -0.125 1.09375 -0.125q0.5625 0 0.984375 0.125q0.4375 0.125 0.75 0.3125q0.328125 0.1875 0.546875 0.4375q0.21875 0.234375 0.375 0.46875q0.46875 -0.3125 0.90625 -0.546875q0.453125 -0.25 0.90625 -0.421875q0.46875 -0.1875 0.9375 -0.28125q0.484375 -0.09375 0.984375 -0.09375q0.828125 0 1.46875 0.234375q0.65625 0.21875 1.09375 0.625q0.453125 0.390625 0.6875 0.9375q0.25 0.53125 0.25 1.140625l0 6.234375l-2.421875 0l0 -5.890625q0 -0.359375 -0.109375 -0.609375q-0.109375 -0.265625 -0.296875 -0.421875q-0.1875 -0.171875 -0.4375 -0.25q-0.25 -0.078125 -0.53125 -0.078125q-1.296875 0 -2.96875 1.171875q0.03125 0.109375 0.03125 0.265625q0.015625 0.140625 0.015625 0.296875l0 5.515625l-2.421875 0l0 -5.9375q0 -0.359375 -0.109375 -0.609375q-0.109375 -0.25 -0.296875 -0.40625q-0.1875 -0.15625 -0.4375 -0.21875q-0.25 -0.078125 -0.53125 -0.078125q-0.34375 0 -0.71875 0.109375q-0.375 0.09375 -0.765625 0.265625q-0.375 0.171875 -0.75 0.421875q-0.359375 0.234375 -0.6875 0.515625l0 5.9375l-2.40625 0l0 -8.9375l2.40625 0zm16.199768 8.9375l0 -8.9375l2.40625 0l0 8.9375l-2.40625 0zm13.728424 0l0 -5.015625q0 -0.5 -0.09375 -0.90625q-0.078125 -0.40625 -0.3125 -0.6875q-0.234375 -0.296875 -0.65625 -0.453125q-0.40625 -0.15625 -1.046875 -0.15625q-0.5 0 -1.046875 0.140625q-0.53125 0.125 -1.078125 0.34375q-0.53125 0.21875 -1.015625 0.515625q-0.484375 0.296875 -0.859375 0.609375l0 5.609375l-2.40625 0l0 -8.9375l2.40625 0l0 1.21875q0.453125 -0.265625 0.96875 -0.515625q0.515625 -0.265625 1.09375 -0.46875q0.578125 -0.203125 1.21875 -0.328125q0.65625 -0.140625 1.390625 -0.140625q0.90625 0 1.609375 0.21875q0.71875 0.21875 1.203125 0.625q0.5 0.390625 0.765625 0.96875q0.265625 0.5625 0.265625 1.265625l0 6.09375l-2.40625 0zm5.1704407 0l0 -8.9375l2.40625 0l0 8.9375l-2.40625 0zm13.447205 -6.421875q-0.25 -0.125 -0.671875 -0.28125q-0.421875 -0.15625 -0.953125 -0.296875q-0.515625 -0.140625 -1.140625 -0.234375q-0.609375 -0.09375 -1.265625 -0.09375q-0.515625 0 -0.890625 0.03125q-0.359375 0.03125 -0.609375 0.09375q-0.25 0.046875 -0.40625 0.125q-0.140625 0.0625 -0.21875 0.140625q-0.078125 0.0625 -0.109375 0.140625q-0.015625 0.0625 -0.015625 0.125q0 0.1875 0.1875 0.34375q0.203125 0.140625 0.53125 0.25q0.34375 0.109375 0.796875 0.21875q0.453125 0.09375 0.953125 0.203125q0.5 0.109375 1.03125 0.234375q0.546875 0.125 1.046875 0.296875q0.515625 0.171875 0.953125 0.40625q0.453125 0.21875 0.78125 0.515625q0.34375 0.296875 0.53125 0.6875q0.203125 0.390625 0.203125 0.890625q0 0.640625 -0.234375 1.109375q-0.21875 0.46875 -0.609375 0.78125q-0.375 0.3125 -0.875 0.515625q-0.5 0.1875 -1.046875 0.28125q-0.546875 0.109375 -1.109375 0.140625q-0.5625 0.03125 -1.078125 0.03125q-1.328125 0 -2.453125 -0.21875q-1.125 -0.203125 -2.0 -0.53125l0 -2.140625q0.90625 0.5 2.046875 0.78125q1.140625 0.28125 2.4375 0.28125q0.765625 0 1.25 -0.078125q0.484375 -0.09375 0.75 -0.21875q0.28125 -0.125 0.375 -0.265625q0.109375 -0.15625 0.109375 -0.296875q0 -0.21875 -0.203125 -0.375q-0.1875 -0.15625 -0.53125 -0.28125q-0.34375 -0.125 -0.796875 -0.21875q-0.4375 -0.09375 -0.953125 -0.1875q-0.5 -0.109375 -1.03125 -0.21875q-0.53125 -0.125 -1.03125 -0.28125q-0.5 -0.171875 -0.953125 -0.375q-0.453125 -0.21875 -0.796875 -0.5q-0.328125 -0.296875 -0.53125 -0.671875q-0.1875 -0.390625 -0.1875 -0.890625q0 -0.59375 0.203125 -1.015625q0.203125 -0.4375 0.5625 -0.734375q0.359375 -0.296875 0.8125 -0.484375q0.46875 -0.203125 0.984375 -0.296875q0.515625 -0.109375 1.046875 -0.140625q0.53125 -0.046875 1.0 -0.046875q0.515625 0 1.0625 0.0625q0.5625 0.046875 1.09375 0.140625q0.53125 0.09375 1.03125 0.21875q0.5 0.125 0.921875 0.25l0 2.078125zm8.030762 -0.578125l0 7.0l-2.40625 0l0 -7.0l-3.796875 0l0 -1.9375l10.0 0l0 1.9375l-3.796875 0zm13.624847 0.078125q-0.09375 -0.03125 -0.28125 -0.078125q-0.1875 -0.0625 -0.4375 -0.109375q-0.25 -0.0625 -0.546875 -0.09375q-0.296875 -0.046875 -0.609375 -0.046875q-0.640625 0 -1.203125 0.15625q-0.5625 0.15625 -1.0625 0.421875q-0.484375 0.265625 -0.90625 0.609375q-0.40625 0.328125 -0.765625 0.6875l0 5.375l-2.40625 0l0 -8.9375l2.40625 0l0 1.453125q0.4375 -0.328125 0.890625 -0.625q0.46875 -0.3125 0.953125 -0.546875q0.5 -0.234375 1.046875 -0.375q0.5625 -0.140625 1.1875 -0.140625q0.234375 0 0.46875 0.03125q0.25 0.015625 0.484375 0.046875q0.234375 0.03125 0.421875 0.078125q0.203125 0.03125 0.359375 0.078125l0 2.015625l0 0zm9.114685 6.921875l0 -0.875q-0.46875 0.25 -1.0 0.453125q-0.53125 0.1875 -1.109375 0.328125q-0.5625 0.125 -1.171875 0.1875q-0.609375 0.078125 -1.21875 0.078125q-0.734375 0 -1.40625 -0.140625q-0.671875 -0.125 -1.203125 -0.421875q-0.515625 -0.3125 -0.828125 -0.8125q-0.3125 -0.5 -0.3125 -1.21875q0 -0.890625 0.484375 -1.484375q0.5 -0.609375 1.515625 -1.0q1.015625 -0.390625 2.5625 -0.59375q1.5625 -0.203125 3.6875 -0.328125l0 -0.1875q0 -0.21875 -0.125 -0.4375q-0.109375 -0.21875 -0.421875 -0.375q-0.3125 -0.171875 -0.859375 -0.265625q-0.53125 -0.109375 -1.359375 -0.109375q-0.65625 0 -1.296875 0.0625q-0.640625 0.0625 -1.234375 0.1875q-0.59375 0.109375 -1.125 0.265625q-0.53125 0.15625 -0.96875 0.328125l0 -2.140625q0.453125 -0.125 1.015625 -0.234375q0.5625 -0.109375 1.171875 -0.1875q0.625 -0.078125 1.25 -0.125q0.625 -0.0625 1.1875 -0.0625q1.125 0 2.078125 0.1875q0.953125 0.1875 1.640625 0.578125q0.6875 0.390625 1.0625 1.0q0.390625 0.59375 0.390625 1.421875l0 5.921875l-2.40625 0zm0 -4.078125q-1.390625 0.046875 -2.375 0.15625q-0.96875 0.09375 -1.609375 0.21875q-0.640625 0.125 -1.015625 0.28125q-0.359375 0.140625 -0.546875 0.296875q-0.1875 0.15625 -0.234375 0.3125q-0.03125 0.15625 -0.03125 0.296875q0 0.15625 0.078125 0.3125q0.09375 0.140625 0.296875 0.25q0.21875 0.109375 0.5625 0.171875q0.359375 0.0625 0.890625 0.0625q0.59375 0 1.15625 -0.09375q0.5625 -0.09375 1.0625 -0.25q0.515625 -0.15625 0.953125 -0.375q0.453125 -0.21875 0.8125 -0.46875l0 -1.171875zm10.177307 -2.921875l0 7.0l-2.40625 0l0 -7.0l-3.796875 0l0 -1.9375l10.0 0l0 1.9375l-3.796875 0zm16.968567 2.53125q0 1.15625 -0.421875 2.046875q-0.421875 0.875 -1.21875 1.46875q-0.78125 0.59375 -1.90625 0.890625q-1.125 0.296875 -2.515625 0.296875q-1.40625 0 -2.53125 -0.296875q-1.125 -0.296875 -1.921875 -0.890625q-0.796875 -0.59375 -1.234375 -1.46875q-0.421875 -0.890625 -0.421875 -2.046875q0 -1.140625 0.421875 -2.015625q0.4375 -0.890625 1.234375 -1.484375q0.796875 -0.59375 1.921875 -0.890625q1.125 -0.3125 2.53125 -0.3125q1.390625 0 2.515625 0.3125q1.125 0.296875 1.90625 0.890625q0.796875 0.59375 1.21875 1.484375q0.421875 0.875 0.421875 2.015625zm-2.4375 0q0 -0.5 -0.171875 -1.0q-0.15625 -0.5 -0.5625 -0.890625q-0.40625 -0.390625 -1.109375 -0.640625q-0.703125 -0.25 -1.78125 -0.25q-0.734375 0 -1.296875 0.125q-0.546875 0.109375 -0.953125 0.3125q-0.390625 0.1875 -0.671875 0.46875q-0.265625 0.265625 -0.4375 0.578125q-0.15625 0.3125 -0.234375 0.640625q-0.0625 0.328125 -0.0625 0.65625q0 0.34375 0.0625 0.6875q0.078125 0.328125 0.234375 0.640625q0.171875 0.296875 0.4375 0.578125q0.28125 0.265625 0.671875 0.46875q0.40625 0.1875 0.953125 0.3125q0.5625 0.109375 1.296875 0.109375q1.078125 0 1.78125 -0.25q0.703125 -0.25 1.109375 -0.640625q0.40625 -0.40625 0.5625 -0.90625q0.171875 -0.5 0.171875 -1.0zm12.864441 -2.453125q-0.09375 -0.03125 -0.28125 -0.078125q-0.1875 -0.0625 -0.4375 -0.109375q-0.25 -0.0625 -0.546875 -0.09375q-0.296875 -0.046875 -0.609375 -0.046875q-0.640625 0 -1.203125 0.15625q-0.5625 0.15625 -1.0625 0.421875q-0.484375 0.265625 -0.90625 0.609375q-0.40625 0.328125 -0.765625 0.6875l0 5.375l-2.40625 0l0 -8.9375l2.40625 0l0 1.453125q0.4375 -0.328125 0.890625 -0.625q0.46875 -0.3125 0.953125 -0.546875q0.5 -0.234375 1.046875 -0.375q0.5625 -0.140625 1.1875 -0.140625q0.234375 0 0.46875 0.03125q0.25 0.015625 0.484375 0.046875q0.234375 0.03125 0.421875 0.078125q0.203125 0.03125 0.359375 0.078125l0 2.015625l0 0z" fill-rule="nonzero"/><path fill="#000000" fill-opacity="0.0" d="m568.71655 108.49072l45.489685 0l0 0.06299591l45.50244 0" fill-rule="evenodd"/><path stroke="#274e13" stroke-width="4.0" stroke-linejoin="round" stroke-linecap="butt" d="m568.71655 108.49072l45.489685 0l0 0.06298828l21.502441 0" fill-rule="evenodd"/><path stroke="#274e13" stroke-width="4.0" stroke-linecap="butt" d="m635.7087 115.160645l18.152344 -6.6069336l-18.152344 -6.606926z" fill-rule="evenodd"/><path fill="#000000" fill-opacity="0.0" d="m568.71655 200.29016l45.489685 0l0 -91.779526l45.50244 0" fill-rule="evenodd"/><path stroke="#274e13" stroke-width="4.0" stroke-linejoin="round" stroke-linecap="butt" d="m568.71655 200.29018l45.489685 0l0 -91.77954l21.502441 0" fill-rule="evenodd"/><path stroke="#274e13" stroke-width="4.0" stroke-linecap="butt" d="m635.7087 115.11756l18.152344 -6.606926l-18.152344 -6.6069336z" fill-rule="evenodd"/><path fill="#000000" fill-opacity="0.0" d="m568.71655 288.44055l45.489685 0l0 -179.937l45.50244 0" fill-rule="evenodd"/><path stroke="#274e13" stroke-width="4.0" stroke-linejoin="round" stroke-linecap="butt" d="m568.71655 288.44055l45.489685 0l0 -179.937l21.502441 0" fill-rule="evenodd"/><path stroke="#274e13" stroke-width="4.0" stroke-linecap="butt" d="m635.7087 115.11049l18.152344 -6.6069336l-18.152344 -6.606926z" fill-rule="evenodd"/><path fill="#000000" fill-opacity="0.0" d="m568.71655 380.24l45.489685 0l0 -271.74802l45.50244 0" fill-rule="evenodd"/><path stroke="#274e13" stroke-width="4.0" stroke-linejoin="round" stroke-linecap="butt" d="m568.71655 380.24l45.489685 0l0 -271.74802l21.502441 0" fill-rule="evenodd"/><path stroke="#274e13" stroke-width="4.0" stroke-linecap="butt" d="m635.7087 115.0989l18.152344 -6.606926l-18.152344 -6.6069336z" fill-rule="evenodd"/><path fill="#000000" fill-opacity="0.0" d="m568.71655 108.49072l45.489685 0l0 271.74805l45.50244 0" fill-rule="evenodd"/><path stroke="#274e13" stroke-width="4.0" stroke-linejoin="round" stroke-linecap="butt" d="m568.71655 108.49072l45.489685 0l0 271.74805l22.989319 0" fill-rule="evenodd"/><path stroke="#274e13" stroke-width="4.0" stroke-linecap="butt" d="m637.19556 380.23877l9.513123 6.661133l9.513062 -6.661133l-9.513062 -6.6611633z" fill-rule="evenodd"/><path fill="#000000" fill-opacity="0.0" d="m568.71655 200.29016l45.489685 0l0 179.93701l45.50244 0" fill-rule="evenodd"/><path stroke="#274e13" stroke-width="4.0" stroke-linejoin="round" stroke-linecap="butt" d="m568.71655 200.29018l45.489685 0l0 179.93697l22.989319 0" fill-rule="evenodd"/><path stroke="#274e13" stroke-width="4.0" stroke-linecap="butt" d="m637.19556 380.22714l9.513123 6.6611633l9.513062 -6.6611633l-9.513062 -6.661133z" fill-rule="evenodd"/><path fill="#000000" fill-opacity="0.0" d="m568.71655 288.44055l45.489685 0l0 91.811035l45.50244 0" fill-rule="evenodd"/><path stroke="#274e13" stroke-width="4.0" stroke-linejoin="round" stroke-linecap="butt" d="m568.71655 288.44055l45.489685 0l0 91.811035l22.989319 0" fill-rule="evenodd"/><path stroke="#274e13" stroke-width="4.0" stroke-linecap="butt" d="m637.19556 380.2516l9.513123 6.6611633l9.513062 -6.6611633l-9.513062 -6.661133z" fill-rule="evenodd"/><path fill="#000000" fill-opacity="0.0" d="m568.71655 380.24l45.489685 0l0 0.0630188l45.50244 0" fill-rule="evenodd"/><path stroke="#274e13" stroke-width="4.0" stroke-linejoin="round" stroke-linecap="butt" d="m568.71655 380.24l45.489685 0l0 0.06298828l22.989319 0" fill-rule="evenodd"/><path stroke="#274e13" stroke-width="4.0" stroke-linecap="butt" d="m637.19556 380.30298l9.513123 6.6611633l9.513062 -6.6611633l-9.513062 -6.661133z" fill-rule="evenodd"/><path fill="#000000" fill-opacity="0.0" d="m398.16534 380.24l-48.930115 0l0 -133.57478l-48.92816 0" fill-rule="evenodd"/><path stroke="#274e13" stroke-width="4.0" stroke-linejoin="round" stroke-linecap="butt" d="m398.16534 380.24l-48.930115 0l0 -133.5748l-26.41504 0" fill-rule="evenodd"/><path stroke="#274e13" stroke-width="4.0" stroke-linecap="butt" d="m322.8202 246.66519l-9.513092 -6.661148l-9.513123 6.661148l9.513123 6.661148z" fill-rule="evenodd"/><path fill="#000000" fill-opacity="0.0" d="m398.16534 288.44055l-48.930115 0l0 -41.763763l-48.92816 0" fill-rule="evenodd"/><path stroke="#274e13" stroke-width="4.0" stroke-linejoin="round" stroke-linecap="butt" d="m398.16534 288.44055l-48.930115 0l0 -41.76378l-26.41504 0" fill-rule="evenodd"/><path stroke="#274e13" stroke-width="4.0" stroke-linecap="butt" d="m322.8202 246.67677l-9.513092 -6.661148l-9.513123 6.661148l9.513123 6.661148z" fill-rule="evenodd"/><path fill="#000000" fill-opacity="0.0" d="m398.16534 200.29016l-48.930115 0l0 46.393707l-48.92816 0" fill-rule="evenodd"/><path stroke="#274e13" stroke-width="4.0" stroke-linejoin="round" stroke-linecap="butt" d="m398.16534 200.29018l-48.930115 0l0 46.393692l-26.41504 0" fill-rule="evenodd"/><path stroke="#274e13" stroke-width="4.0" stroke-linecap="butt" d="m322.8202 246.68387l-9.513092 -6.661148l-9.513123 6.661148l9.513123 6.661148z" fill-rule="evenodd"/><path fill="#000000" fill-opacity="0.0" d="m398.16534 108.49072l-48.930115 0l0 138.17323l-48.92816 0" fill-rule="evenodd"/><path stroke="#274e13" stroke-width="4.0" stroke-linejoin="round" stroke-linecap="butt" d="m398.16534 108.49072l-48.930115 0l0 138.17323l-26.41504 0" fill-rule="evenodd"/><path stroke="#274e13" stroke-width="4.0" stroke-linecap="butt" d="m322.8202 246.66396l-9.513092 -6.661148l-9.513123 6.661148l9.513123 6.661148z" fill-rule="evenodd"/><path fill="#000000" fill-opacity="0.0" d="m568.7165 472.04062l176.25195 0l0 -68.409424" fill-rule="evenodd"/><path stroke="#274e13" stroke-width="4.0" stroke-linejoin="round" stroke-linecap="butt" d="m568.7165 472.04065l176.25195 0l0 -45.89633" fill-rule="evenodd"/><path stroke="#274e13" stroke-width="4.0" stroke-linecap="butt" d="m744.96844 426.1443l6.661133 -9.513092l-6.661133 -9.513123l-6.661194 9.513123z" fill-rule="evenodd"/><path fill="#000000" fill-opacity="0.0" d="m398.1653 472.04062l-183.14961 0l0 -201.98425" fill-rule="evenodd"/><path stroke="#274e13" stroke-width="4.0" stroke-linejoin="round" stroke-linecap="butt" d="m398.1653 472.04065l-183.14961 0l0 -179.47119" fill-rule="evenodd"/><path stroke="#274e13" stroke-width="4.0" stroke-linecap="butt" d="m215.0157 292.5695l6.661148 -9.513123l-6.661148 -9.513092l-6.661148 9.513092z" fill-rule="evenodd"/><path fill="#000000" fill-opacity="0.0" d="m744.9707 356.83755l0 -22.498535l0.06298828 0l0 -22.509338" fill-rule="evenodd"/><path stroke="#274e13" stroke-width="4.0" stroke-linejoin="round" stroke-linecap="butt" d="m744.9707 356.83755l0 -22.494843" fill-rule="evenodd"/><path stroke="#274e13" stroke-width="4.0" stroke-linecap="butt" d="m744.9707 334.3427l6.687744 -9.494446l-6.6345215 -9.531708l-6.687683 9.494446z" fill-rule="evenodd"/><path fill="#93c47d" d="m659.69543 180.46089l0 0c0 -1.9730225 1.5994873 -3.5724792 3.5725098 -3.5724792l163.40619 0c0.94750977 0 1.8561401 0.37638855 2.526123 1.0463562c0.6699829 0.66996765 1.0463867 1.5786438 1.0463867 2.526123l0 39.658188c0 1.9730225 -1.5994873 3.5724792 -3.5725098 3.5724792l-163.40619 0c-1.9730225 0 -3.5725098 -1.5994568 -3.5725098 -3.5724792z" fill-rule="evenodd"/><path stroke="#274e13" stroke-width="4.0" stroke-linejoin="round" stroke-linecap="butt" d="m659.69543 180.46089l0 0c0 -1.9730225 1.5994873 -3.5724792 3.5725098 -3.5724792l163.40619 0c0.94750977 0 1.8561401 0.37638855 2.526123 1.0463562c0.6699829 0.66996765 1.0463867 1.5786438 1.0463867 2.526123l0 39.658188c0 1.9730225 -1.5994873 3.5724792 -3.5725098 3.5724792l-163.40619 0c-1.9730225 0 -3.5725098 -1.5994568 -3.5725098 -3.5724792z" fill-rule="evenodd"/><path fill="#274e13" d="m718.35956 199.19936q0 0.671875 -0.203125 1.234375q-0.1875 0.5625 -0.625 0.96875q-0.4375 0.40625 -1.125 0.640625q-0.6875 0.21875 -1.671875 0.21875l-4.015625 0l0 2.828125l-2.40625 0l0 -8.9375l6.421875 0q0.984375 0 1.671875 0.21875q0.6875 0.21875 1.125 0.640625q0.4375 0.40625 0.625 0.96875q0.203125 0.546875 0.203125 1.21875zm-2.453125 0.046875q0 -0.3125 -0.09375 -0.53125q-0.078125 -0.234375 -0.28125 -0.375q-0.203125 -0.140625 -0.53125 -0.203125q-0.3125 -0.078125 -0.796875 -0.078125l-3.484375 0l0 2.296875l3.484375 0q0.484375 0 0.796875 -0.046875q0.328125 -0.0625 0.53125 -0.1875q0.203125 -0.140625 0.28125 -0.34375q0.09375 -0.21875 0.09375 -0.53125zm12.671082 -1.078125q-0.09375 -0.03125 -0.28125 -0.078125q-0.1875 -0.0625 -0.4375 -0.109375q-0.25 -0.0625 -0.546875 -0.09375q-0.296875 -0.046875 -0.609375 -0.046875q-0.640625 0 -1.203125 0.15625q-0.5625 0.15625 -1.0625 0.421875q-0.484375 0.265625 -0.90625 0.609375q-0.40625 0.328125 -0.765625 0.6875l0 5.375l-2.40625 0l0 -8.9375l2.40625 0l0 1.453125q0.4375 -0.328125 0.890625 -0.625q0.46875 -0.3125 0.953125 -0.546875q0.5 -0.234375 1.046875 -0.375q0.5625 -0.140625 1.1875 -0.140625q0.234375 0 0.46875 0.03125q0.25 0.015625 0.484375 0.046875q0.234375 0.03125 0.421875 0.078125q0.203125 0.03125 0.359375 0.078125l0 2.015625l0 0zm13.09906 2.453125q0 1.15625 -0.421875 2.046875q-0.421875 0.875 -1.21875 1.46875q-0.78125 0.59375 -1.90625 0.890625q-1.125 0.296875 -2.515625 0.296875q-1.40625 0 -2.53125 -0.296875q-1.125 -0.296875 -1.921875 -0.890625q-0.796875 -0.59375 -1.234375 -1.46875q-0.421875 -0.890625 -0.421875 -2.046875q0 -1.140625 0.421875 -2.015625q0.4375 -0.890625 1.234375 -1.484375q0.796875 -0.59375 1.921875 -0.890625q1.125 -0.3125 2.53125 -0.3125q1.390625 0 2.515625 0.3125q1.125 0.296875 1.90625 0.890625q0.796875 0.59375 1.21875 1.484375q0.421875 0.875 0.421875 2.015625zm-2.4375 0q0 -0.5 -0.171875 -1.0q-0.15625 -0.5 -0.5625 -0.890625q-0.40625 -0.390625 -1.109375 -0.640625q-0.703125 -0.25 -1.78125 -0.25q-0.734375 0 -1.296875 0.125q-0.546875 0.109375 -0.953125 0.3125q-0.390625 0.1875 -0.671875 0.46875q-0.265625 0.265625 -0.4375 0.578125q-0.15625 0.3125 -0.234375 0.640625q-0.0625 0.328125 -0.0625 0.65625q0 0.34375 0.0625 0.6875q0.078125 0.328125 0.234375 0.640625q0.171875 0.296875 0.4375 0.578125q0.28125 0.265625 0.671875 0.46875q0.40625 0.1875 0.953125 0.3125q0.5625 0.109375 1.296875 0.109375q1.078125 0 1.78125 -0.25q0.703125 -0.25 1.109375 -0.640625q0.40625 -0.40625 0.5625 -0.90625q0.171875 -0.5 0.171875 -1.0zm8.864441 -2.5625q-0.421875 0 -0.765625 0.03125q-0.328125 0.03125 -0.5625 0.15625q-0.234375 0.125 -0.359375 0.375q-0.125 0.234375 -0.125 0.65625l0 0.328125l6.75 0l0 1.90625l-6.75 0l0 3.578125l-2.40625 0l0 -6.015625q0 -0.6875 0.203125 -1.234375q0.203125 -0.546875 0.671875 -0.921875q0.484375 -0.375 1.28125 -0.5625q0.796875 -0.203125 1.984375 -0.203125l5.328125 0l0 1.90625l-5.25 0zm7.326233 7.03125l0 -8.9375l2.40625 0l0 8.9375l-2.40625 0zm7.6190186 -3.828125q0 0.5625 0.09375 0.921875q0.109375 0.34375 0.34375 0.5625q0.234375 0.203125 0.609375 0.28125q0.375 0.078125 0.921875 0.078125l4.578125 0l0 1.984375l-5.0625 0q-1.0625 0 -1.796875 -0.171875q-0.734375 -0.171875 -1.203125 -0.53125q-0.46875 -0.359375 -0.6875 -0.90625q-0.203125 -0.5625 -0.203125 -1.328125l0 -6.0l2.40625 0l0 5.109375zm18.463196 3.390625q-1.109375 0.359375 -2.203125 0.515625q-1.09375 0.15625 -2.234375 0.15625q-1.46875 0 -2.609375 -0.3125q-1.140625 -0.3125 -1.921875 -0.90625q-0.78125 -0.609375 -1.203125 -1.46875q-0.40625 -0.859375 -0.40625 -1.953125q0 -1.015625 0.40625 -1.890625q0.421875 -0.875 1.171875 -1.515625q0.765625 -0.640625 1.84375 -1.0q1.078125 -0.359375 2.390625 -0.359375q1.21875 0 2.234375 0.328125q1.015625 0.328125 1.734375 0.984375q0.71875 0.640625 1.125 1.578125q0.40625 0.9375 0.40625 2.171875l0 0.609375l-8.8125 0q0.109375 0.421875 0.375 0.78125q0.28125 0.34375 0.734375 0.59375q0.46875 0.234375 1.140625 0.375q0.671875 0.140625 1.609375 0.140625q0.671875 0 1.296875 -0.078125q0.640625 -0.09375 1.1875 -0.21875q0.5625 -0.140625 1.0 -0.296875q0.453125 -0.171875 0.734375 -0.328125l0 2.09375zm-1.671875 -4.84375q-0.03125 -0.328125 -0.203125 -0.671875q-0.15625 -0.359375 -0.515625 -0.640625q-0.359375 -0.296875 -0.9375 -0.484375q-0.578125 -0.1875 -1.453125 -0.1875q-0.8125 0 -1.40625 0.203125q-0.59375 0.203125 -1.0 0.5q-0.390625 0.296875 -0.609375 0.640625q-0.21875 0.34375 -0.28125 0.640625l6.40625 0z" fill-rule="nonzero"/><path fill="#000000" fill-opacity="0.0" d="m744.9711 265.03775l0 -20.673035l0.06298828 0l0 -20.681305" fill-rule="evenodd"/><path stroke="#274e13" stroke-width="4.0" stroke-linejoin="round" stroke-linecap="butt" d="m744.9711 265.03775l0 -17.354416" fill-rule="evenodd"/><path stroke="#274e13" stroke-width="4.0" stroke-linecap="butt" d="m751.57806 247.70068l-6.559265 -18.169678l-6.654602 18.134995z" fill-rule="evenodd"/><path fill="#000000" fill-opacity="0.0" d="m747.14655 574.5383l45.496033 0l0 0.06298828l45.496094 0" fill-rule="evenodd"/><path stroke="#274e13" stroke-width="4.0" stroke-linejoin="round" stroke-linecap="butt" d="m747.14655 574.5383l45.496094 0l0 0.06298828l21.496033 0" fill-rule="evenodd"/><path stroke="#274e13" stroke-width="4.0" stroke-linecap="butt" d="m814.1387 581.20825l18.152405 -6.6069336l-18.152405 -6.6069336z" fill-rule="evenodd"/><path fill="#000000" fill-opacity="0.0" d="m747.14655 634.20557l45.496033 0l0 0.06298828l45.496094 0" fill-rule="evenodd"/><path stroke="#274e13" stroke-width="4.0" stroke-linejoin="round" stroke-linecap="butt" d="m747.14655 634.20557l45.496094 0l0 0.06298828l21.496033 0" fill-rule="evenodd"/><path stroke="#274e13" stroke-width="4.0" stroke-linecap="butt" d="m814.1387 640.8755l18.152405 -6.6069336l-18.152405 -6.6069336z" fill-rule="evenodd"/><path fill="#000000" fill-opacity="0.0" d="m747.1391 533.29425l0 0c0 -1.9730225 1.5994263 -3.5724487 3.5724487 -3.5724487l83.84717 0c0.94750977 0 1.8561401 0.37634277 2.526123 1.0463257c0.6699829 0.6699829 1.0463867 1.5786743 1.0463867 2.526123l0 39.658203c0 1.9730225 -1.5994873 3.5725098 -3.5725098 3.5725098l-83.84717 0c-1.9730225 0 -3.5724487 -1.5994873 -3.5724487 -3.5725098z" fill-rule="evenodd"/><path fill="#274e13" d="m795.24664 557.92334l0 -8.9375l2.40625 0l0 8.9375l-2.40625 0zm13.447205 -6.421875q-0.25 -0.125 -0.671875 -0.28125q-0.421875 -0.15625 -0.953125 -0.296875q-0.515625 -0.140625 -1.140625 -0.234375q-0.609375 -0.09375 -1.265625 -0.09375q-0.515625 0 -0.890625 0.03125q-0.359375 0.03125 -0.609375 0.09375q-0.25 0.046875 -0.40625 0.125q-0.140625 0.0625 -0.21875 0.140625q-0.078125 0.0625 -0.109375 0.140625q-0.015625 0.0625 -0.015625 0.125q0 0.1875 0.1875 0.34375q0.203125 0.140625 0.53125 0.25q0.34375 0.109375 0.796875 0.21875q0.453125 0.09375 0.953125 0.203125q0.5 0.109375 1.03125 0.234375q0.546875 0.125 1.046875 0.296875q0.515625 0.171875 0.953125 0.40625q0.453125 0.21875 0.78125 0.515625q0.34375 0.296875 0.53125 0.6875q0.203125 0.390625 0.203125 0.890625q0 0.640625 -0.234375 1.109375q-0.21875 0.46875 -0.609375 0.78125q-0.375 0.3125 -0.875 0.515625q-0.5 0.1875 -1.046875 0.28125q-0.546875 0.109375 -1.109375 0.140625q-0.5625 0.03125 -1.078125 0.03125q-1.328125 0 -2.453125 -0.21875q-1.125 -0.203125 -2.0 -0.53125l0 -2.140625q0.90625 0.5 2.046875 0.78125q1.140625 0.28125 2.4375 0.28125q0.765625 0 1.25 -0.078125q0.484375 -0.09375 0.75 -0.21875q0.28125 -0.125 0.375 -0.265625q0.109375 -0.15625 0.109375 -0.296875q0 -0.21875 -0.203125 -0.375q-0.1875 -0.15625 -0.53125 -0.28125q-0.34375 -0.125 -0.796875 -0.21875q-0.4375 -0.09375 -0.953125 -0.1875q-0.5 -0.109375 -1.03125 -0.21875q-0.53125 -0.125 -1.03125 -0.28125q-0.5 -0.171875 -0.953125 -0.375q-0.453125 -0.21875 -0.796875 -0.5q-0.328125 -0.296875 -0.53125 -0.671875q-0.1875 -0.390625 -0.1875 -0.890625q0 -0.59375 0.203125 -1.015625q0.203125 -0.4375 0.5625 -0.734375q0.359375 -0.296875 0.8125 -0.484375q0.46875 -0.203125 0.984375 -0.296875q0.515625 -0.109375 1.046875 -0.140625q0.53125 -0.046875 1.0 -0.046875q0.515625 0 1.0625 0.0625q0.5625 0.046875 1.09375 0.140625q0.53125 0.09375 1.03125 0.21875q0.5 0.125 0.921875 0.25l0 2.078125zm15.619934 6.421875l0 -0.875q-0.46875 0.25 -1.0 0.453125q-0.53125 0.1875 -1.109375 0.328125q-0.5625 0.125 -1.171875 0.1875q-0.609375 0.078125 -1.21875 0.078125q-0.734375 0 -1.40625 -0.140625q-0.671875 -0.125 -1.203125 -0.421875q-0.515625 -0.3125 -0.828125 -0.8125q-0.3125 -0.5 -0.3125 -1.21875q0 -0.890625 0.484375 -1.484375q0.5 -0.609375 1.515625 -1.0q1.015625 -0.390625 2.5625 -0.59375q1.5625 -0.203125 3.6875 -0.328125l0 -0.1875q0 -0.21875 -0.125 -0.4375q-0.109375 -0.21875 -0.421875 -0.375q-0.3125 -0.171875 -0.859375 -0.265625q-0.53125 -0.109375 -1.359375 -0.109375q-0.65625 0 -1.296875 0.0625q-0.640625 0.0625 -1.234375 0.1875q-0.59375 0.109375 -1.125 0.265625q-0.53125 0.15625 -0.96875 0.328125l0 -2.140625q0.453125 -0.125 1.015625 -0.234375q0.5625 -0.109375 1.171875 -0.1875q0.625 -0.078125 1.25 -0.125q0.625 -0.0625 1.1875 -0.0625q1.125 0 2.078125 0.1875q0.953125 0.1875 1.640625 0.578125q0.6875 0.390625 1.0625 1.0q0.390625 0.59375 0.390625 1.421875l0 5.921875l-2.40625 0zm0 -4.078125q-1.390625 0.046875 -2.375 0.15625q-0.96875 0.09375 -1.609375 0.21875q-0.640625 0.125 -1.015625 0.28125q-0.359375 0.140625 -0.546875 0.296875q-0.1875 0.15625 -0.234375 0.3125q-0.03125 0.15625 -0.03125 0.296875q0 0.15625 0.078125 0.3125q0.09375 0.140625 0.296875 0.25q0.21875 0.109375 0.5625 0.171875q0.359375 0.0625 0.890625 0.0625q0.59375 0 1.15625 -0.09375q0.5625 -0.09375 1.0625 -0.25q0.515625 -0.15625 0.953125 -0.375q0.453125 -0.21875 0.8125 -0.46875l0 -1.171875z" fill-rule="nonzero"/><path fill="#000000" fill-opacity="0.0" d="m747.1391 589.29425l0 0c0 -1.9730225 1.5994263 -3.5724487 3.5724487 -3.5724487l83.84717 0c0.94750977 0 1.8561401 0.37634277 2.526123 1.0463257c0.6699829 0.6699829 1.0463867 1.5786743 1.0463867 2.526123l0 39.658203c0 1.9730225 -1.5994873 3.5725098 -3.5725098 3.5725098l-83.84717 0c-1.9730225 0 -3.5724487 -1.5994873 -3.5724487 -3.5725098z" fill-rule="evenodd"/><path fill="#274e13" d="m782.4803 613.92334l0 -3.734375l-6.140625 0l0 3.734375l-2.40625 0l0 -8.9375l2.40625 0l0 3.25l6.140625 0l0 -3.25l2.421875 0l0 8.9375l-2.421875 0zm12.80188 0l0 -0.875q-0.46875 0.25 -1.0 0.453125q-0.53125 0.1875 -1.109375 0.328125q-0.5625 0.125 -1.171875 0.1875q-0.609375 0.078125 -1.21875 0.078125q-0.734375 0 -1.40625 -0.140625q-0.671875 -0.125 -1.203125 -0.421875q-0.515625 -0.3125 -0.828125 -0.8125q-0.3125 -0.5 -0.3125 -1.21875q0 -0.890625 0.484375 -1.484375q0.5 -0.609375 1.515625 -1.0q1.015625 -0.390625 2.5625 -0.59375q1.5625 -0.203125 3.6875 -0.328125l0 -0.1875q0 -0.21875 -0.125 -0.4375q-0.109375 -0.21875 -0.421875 -0.375q-0.3125 -0.171875 -0.859375 -0.265625q-0.53125 -0.109375 -1.359375 -0.109375q-0.65625 0 -1.296875 0.0625q-0.640625 0.0625 -1.234375 0.1875q-0.59375 0.109375 -1.125 0.265625q-0.53125 0.15625 -0.96875 0.328125l0 -2.140625q0.453125 -0.125 1.015625 -0.234375q0.5625 -0.109375 1.171875 -0.1875q0.625 -0.078125 1.25 -0.125q0.625 -0.0625 1.1875 -0.0625q1.125 0 2.078125 0.1875q0.953125 0.1875 1.640625 0.578125q0.6875 0.390625 1.0625 1.0q0.390625 0.59375 0.390625 1.421875l0 5.921875l-2.40625 0zm0 -4.078125q-1.390625 0.046875 -2.375 0.15625q-0.96875 0.09375 -1.609375 0.21875q-0.640625 0.125 -1.015625 0.28125q-0.359375 0.140625 -0.546875 0.296875q-0.1875 0.15625 -0.234375 0.3125q-0.03125 0.15625 -0.03125 0.296875q0 0.15625 0.078125 0.3125q0.09375 0.140625 0.296875 0.25q0.21875 0.109375 0.5625 0.171875q0.359375 0.0625 0.890625 0.0625q0.59375 0 1.15625 -0.09375q0.5625 -0.09375 1.0625 -0.25q0.515625 -0.15625 0.953125 -0.375q0.453125 -0.21875 0.8125 -0.46875l0 -1.171875zm13.411682 -2.34375q-0.25 -0.125 -0.671875 -0.28125q-0.421875 -0.15625 -0.953125 -0.296875q-0.515625 -0.140625 -1.140625 -0.234375q-0.609375 -0.09375 -1.265625 -0.09375q-0.515625 0 -0.890625 0.03125q-0.359375 0.03125 -0.609375 0.09375q-0.25 0.046875 -0.40625 0.125q-0.140625 0.0625 -0.21875 0.140625q-0.078125 0.0625 -0.109375 0.140625q-0.015625 0.0625 -0.015625 0.125q0 0.1875 0.1875 0.34375q0.203125 0.140625 0.53125 0.25q0.34375 0.109375 0.796875 0.21875q0.453125 0.09375 0.953125 0.203125q0.5 0.109375 1.03125 0.234375q0.546875 0.125 1.046875 0.296875q0.515625 0.171875 0.953125 0.40625q0.453125 0.21875 0.78125 0.515625q0.34375 0.296875 0.53125 0.6875q0.203125 0.390625 0.203125 0.890625q0 0.640625 -0.234375 1.109375q-0.21875 0.46875 -0.609375 0.78125q-0.375 0.3125 -0.875 0.515625q-0.5 0.1875 -1.046875 0.28125q-0.546875 0.109375 -1.109375 0.140625q-0.5625 0.03125 -1.078125 0.03125q-1.328125 0 -2.453125 -0.21875q-1.125 -0.203125 -2.0 -0.53125l0 -2.140625q0.90625 0.5 2.046875 0.78125q1.140625 0.28125 2.4375 0.28125q0.765625 0 1.25 -0.078125q0.484375 -0.09375 0.75 -0.21875q0.28125 -0.125 0.375 -0.265625q0.109375 -0.15625 0.109375 -0.296875q0 -0.21875 -0.203125 -0.375q-0.1875 -0.15625 -0.53125 -0.28125q-0.34375 -0.125 -0.796875 -0.21875q-0.4375 -0.09375 -0.953125 -0.1875q-0.5 -0.109375 -1.03125 -0.21875q-0.53125 -0.125 -1.03125 -0.28125q-0.5 -0.171875 -0.953125 -0.375q-0.453125 -0.21875 -0.796875 -0.5q-0.328125 -0.296875 -0.53125 -0.671875q-0.1875 -0.390625 -0.1875 -0.890625q0 -0.59375 0.203125 -1.015625q0.203125 -0.4375 0.5625 -0.734375q0.359375 -0.296875 0.8125 -0.484375q0.46875 -0.203125 0.984375 -0.296875q0.515625 -0.109375 1.046875 -0.140625q0.53125 -0.046875 1.0 -0.046875q0.515625 0 1.0625 0.0625q0.5625 0.046875 1.09375 0.140625q0.53125 0.09375 1.03125 0.21875q0.5 0.125 0.921875 0.25l0 2.078125zm15.619934 6.421875l0 -0.875q-0.46875 0.25 -1.0 0.453125q-0.53125 0.1875 -1.109375 0.328125q-0.5625 0.125 -1.171875 0.1875q-0.609375 0.078125 -1.21875 0.078125q-0.734375 0 -1.40625 -0.140625q-0.671875 -0.125 -1.203125 -0.421875q-0.515625 -0.3125 -0.828125 -0.8125q-0.3125 -0.5 -0.3125 -1.21875q0 -0.890625 0.484375 -1.484375q0.5 -0.609375 1.515625 -1.0q1.015625 -0.390625 2.5625 -0.59375q1.5625 -0.203125 3.6875 -0.328125l0 -0.1875q0 -0.21875 -0.125 -0.4375q-0.109375 -0.21875 -0.421875 -0.375q-0.3125 -0.171875 -0.859375 -0.265625q-0.53125 -0.109375 -1.359375 -0.109375q-0.65625 0 -1.296875 0.0625q-0.640625 0.0625 -1.234375 0.1875q-0.59375 0.109375 -1.125 0.265625q-0.53125 0.15625 -0.96875 0.328125l0 -2.140625q0.453125 -0.125 1.015625 -0.234375q0.5625 -0.109375 1.171875 -0.1875q0.625 -0.078125 1.25 -0.125q0.625 -0.0625 1.1875 -0.0625q1.125 0 2.078125 0.1875q0.953125 0.1875 1.640625 0.578125q0.6875 0.390625 1.0625 1.0q0.390625 0.59375 0.390625 1.421875l0 5.921875l-2.40625 0zm0 -4.078125q-1.390625 0.046875 -2.375 0.15625q-0.96875 0.09375 -1.609375 0.21875q-0.640625 0.125 -1.015625 0.28125q-0.359375 0.140625 -0.546875 0.296875q-0.1875 0.15625 -0.234375 0.3125q-0.03125 0.15625 -0.03125 0.296875q0 0.15625 0.078125 0.3125q0.09375 0.140625 0.296875 0.25q0.21875 0.109375 0.5625 0.171875q0.359375 0.0625 0.890625 0.0625q0.59375 0 1.15625 -0.09375q0.5625 -0.09375 1.0625 -0.25q0.515625 -0.15625 0.953125 -0.375q0.453125 -0.21875 0.8125 -0.46875l0 -1.171875z" fill-rule="nonzero"/></g></svg>