<svg version="1.1" viewBox="0.0 0.0 960.0 720.0" fill="none" stroke="none" stroke-linecap="square" stroke-miterlimit="10" xmlns:xlink="http://www.w3.org/1999/xlink" xmlns="http://www.w3.org/2000/svg"><clipPath id="p.0"><path d="m0 0l960.0 0l0 720.0l-960.0 0l0 -720.0z" clip-rule="nonzero"/></clipPath><g clip-path="url(#p.0)"><path fill="#000000" fill-opacity="0.0" d="m0 0l960.0 0l0 720.0l-960.0 0z" fill-rule="evenodd"/><path fill="#93c47d" d="m129.75328 252.74011l0 0c0 -1.9730225 1.5994568 -3.5724792 3.5724792 -3.5724792l163.4062 0c0.94750977 0 1.8561707 0.37638855 2.5261536 1.0463562c0.6699524 0.66996765 1.0463562 1.5786438 1.0463562 2.526123l0 39.658173c0 1.973053 -1.5994568 3.5725098 -3.5725098 3.5725098l-163.4062 0c-1.9730225 0 -3.5724792 -1.5994568 -3.5724792 -3.5725098z" fill-rule="evenodd"/><path stroke="#274e13" stroke-width="4.0" stroke-linejoin="round" stroke-linecap="butt" d="m129.75328 252.74011l0 0c0 -1.9730225 1.5994568 -3.5724792 3.5724792 -3.5724792l163.4062 0c0.94750977 0 1.8561707 0.37638855 2.5261536 1.0463562c0.6699524 0.66996765 1.0463562 1.5786438 1.0463562 2.526123l0 39.658173c0 1.973053 -1.5994568 3.5725098 -3.5725098 3.5725098l-163.4062 0c-1.9730225 0 -3.5724792 -1.5994568 -3.5724792 -3.5725098z" fill-rule="evenodd"/><path fill="#274e13" d="m169.67012 276.75983q-0.46875 0.1875 -0.953125 0.34375q-0.46875 0.15625 -0.984375 0.265625q-0.5 0.125 -1.0625 0.171875q-0.5625 0.0625 -1.203125 0.0625q-1.359375 0 -2.515625 -0.28125q-1.140625 -0.296875 -1.984375 -0.875q-0.828125 -0.59375 -1.296875 -1.46875q-0.453125 -0.890625 -0.453125 -2.078125q0 -1.171875 0.453125 -2.046875q0.46875 -0.890625 1.296875 -1.46875q0.84375 -0.59375 1.984375 -0.890625q1.15625 -0.296875 2.515625 -0.296875q0.640625 0 1.203125 0.0625q0.5625 0.0625 1.0625 0.171875q0.515625 0.109375 0.984375 0.265625q0.484375 0.15625 0.953125 0.359375l0 2.171875q-0.375 -0.203125 -0.78125 -0.390625q-0.40625 -0.203125 -0.90625 -0.359375q-0.484375 -0.171875 -1.078125 -0.265625q-0.59375 -0.109375 -1.34375 -0.109375q-1.140625 0 -1.890625 0.234375q-0.75 0.234375 -1.203125 0.625q-0.4375 0.390625 -0.625 0.90625q-0.1875 0.5 -0.1875 1.03125q0 0.359375 0.078125 0.71875q0.078125 0.34375 0.265625 0.65625q0.1875 0.296875 0.46875 0.5625q0.296875 0.265625 0.734375 0.453125q0.4375 0.1875 1.015625 0.296875q0.59375 0.109375 1.34375 0.109375q0.75 0 1.34375 -0.09375q0.59375 -0.109375 1.078125 -0.265625q0.5 -0.15625 0.90625 -0.34375q0.40625 -0.203125 0.78125 -0.40625l0 2.171875l0 0zm13.823395 -3.859375q0 1.15625 -0.421875 2.046875q-0.421875 0.875 -1.21875 1.46875q-0.78125 0.59375 -1.90625 0.890625q-1.125 0.296875 -2.515625 0.296875q-1.40625 0 -2.53125 -0.296875q-1.125 -0.296875 -1.921875 -0.890625q-0.796875 -0.59375 -1.234375 -1.46875q-0.421875 -0.890625 -0.421875 -2.046875q0 -1.140625 0.421875 -2.015625q0.4375 -0.890625 1.234375 -1.484375q0.796875 -0.59375 1.921875 -0.890625q1.125 -0.3125 2.53125 -0.3125q1.390625 0 2.515625 0.3125q1.125 0.296875 1.90625 0.890625q0.796875 0.59375 1.21875 1.484375q0.421875 0.875 0.421875 2.015625zm-2.4375 0q0 -0.5 -0.171875 -1.0q-0.15625 -0.5 -0.5625 -0.890625q-0.40625 -0.390625 -1.109375 -0.640625q-0.703125 -0.25 -1.78125 -0.25q-0.734375 0 -1.296875 0.125q-0.546875 0.109375 -0.953125 0.3125q-0.390625 0.1875 -0.671875 0.46875q-0.265625 0.265625 -0.4375 0.578125q-0.15625 0.3125 -0.234375 0.640625q-0.0625 0.328125 -0.0625 0.65625q0 0.34375 0.0625 0.6875q0.078125 0.328125 0.234375 0.640625q0.171875 0.296875 0.4375 0.578125q0.28125 0.265625 0.671875 0.46875q0.40625 0.1875 0.953125 0.3125q0.5625 0.109375 1.296875 0.109375q1.078125 0 1.78125 -0.25q0.703125 -0.25 1.109375 -0.640625q0.40625 -0.40625 0.5625 -0.90625q0.171875 -0.5 0.171875 -1.0zm7.0519104 0.640625q0 0.5625 0.09375 0.921875q0.109375 0.34375 0.34375 0.5625q0.234375 0.203125 0.609375 0.28125q0.375 0.078125 0.921875 0.078125l4.578125 0l0 1.984375l-5.0625 0q-1.0625 0 -1.796875 -0.171875q-0.734375 -0.171875 -1.203125 -0.53125q-0.46875 -0.359375 -0.6875 -0.90625q-0.203125 -0.5625 -0.203125 -1.328125l0 -6.0l2.40625 0l0 5.109375zm10.900696 0q0 0.5625 0.09375 0.921875q0.109375 0.34375 0.34375 0.5625q0.234375 0.203125 0.609375 0.28125q0.375 0.078125 0.921875 0.078125l4.578125 0l0 1.984375l-5.0625 0q-1.0625 0 -1.796875 -0.171875q-0.734375 -0.171875 -1.203125 -0.53125q-0.46875 -0.359375 -0.6875 -0.90625q-0.203125 -0.5625 -0.203125 -1.328125l0 -6.0l2.40625 0l0 5.109375zm18.463196 3.390625q-1.109375 0.359375 -2.203125 0.515625q-1.09375 0.15625 -2.234375 0.15625q-1.46875 0 -2.609375 -0.3125q-1.140625 -0.3125 -1.921875 -0.90625q-0.78125 -0.609375 -1.203125 -1.46875q-0.40625 -0.859375 -0.40625 -1.953125q0 -1.015625 0.40625 -1.890625q0.421875 -0.875 1.171875 -1.515625q0.765625 -0.640625 1.84375 -1.0q1.078125 -0.359375 2.390625 -0.359375q1.21875 0 2.234375 0.328125q1.015625 0.328125 1.734375 0.984375q0.71875 0.640625 1.125 1.578125q0.40625 0.9375 0.40625 2.171875l0 0.609375l-8.8125 0q0.109375 0.421875 0.375 0.78125q0.28125 0.34375 0.734375 0.59375q0.46875 0.234375 1.140625 0.375q0.671875 0.140625 1.609375 0.140625q0.671875 0 1.296875 -0.078125q0.640625 -0.09375 1.1875 -0.21875q0.5625 -0.140625 1.0 -0.296875q0.453125 -0.171875 0.734375 -0.328125l0 2.09375zm-1.671875 -4.84375q-0.03125 -0.328125 -0.203125 -0.671875q-0.15625 -0.359375 -0.515625 -0.640625q-0.359375 -0.296875 -0.9375 -0.484375q-0.578125 -0.1875 -1.453125 -0.1875q-0.8125 0 -1.40625 0.203125q-0.59375 0.203125 -1.0 0.5q-0.390625 0.296875 -0.609375 0.640625q-0.21875 0.34375 -0.28125 0.640625l6.40625 0zm14.44548 4.671875q-0.46875 0.1875 -0.953125 0.34375q-0.46875 0.15625 -0.984375 0.265625q-0.5 0.125 -1.0625 0.171875q-0.5625 0.0625 -1.203125 0.0625q-1.359375 0 -2.515625 -0.28125q-1.140625 -0.296875 -1.984375 -0.875q-0.828125 -0.59375 -1.296875 -1.46875q-0.453125 -0.890625 -0.453125 -2.078125q0 -1.171875 0.453125 -2.046875q0.46875 -0.890625 1.296875 -1.46875q0.84375 -0.59375 1.984375 -0.890625q1.15625 -0.296875 2.515625 -0.296875q0.640625 0 1.203125 0.0625q0.5625 0.0625 1.0625 0.171875q0.515625 0.109375 0.984375 0.265625q0.484375 0.15625 0.953125 0.359375l0 2.171875q-0.375 -0.203125 -0.78125 -0.390625q-0.40625 -0.203125 -0.90625 -0.359375q-0.484375 -0.171875 -1.078125 -0.265625q-0.59375 -0.109375 -1.34375 -0.109375q-1.140625 0 -1.890625 0.234375q-0.75 0.234375 -1.203125 0.625q-0.4375 0.390625 -0.625 0.90625q-0.1875 0.5 -0.1875 1.03125q0 0.359375 0.078125 0.71875q0.078125 0.34375 0.265625 0.65625q0.1875 0.296875 0.46875 0.5625q0.296875 0.265625 0.734375 0.453125q0.4375 0.1875 1.015625 0.296875q0.59375 0.109375 1.34375 0.109375q0.75 0 1.34375 -0.09375q0.59375 -0.109375 1.078125 -0.265625q0.5 -0.15625 0.90625 -0.34375q0.40625 -0.203125 0.78125 -0.40625l0 2.171875l0 0zm7.260895 -6.390625l0 7.0l-2.40625 0l0 -7.0l-3.796875 0l0 -1.9375l10.0 0l0 1.9375l-3.796875 0zm5.4060974 7.0l0 -8.9375l2.40625 0l0 8.9375l-2.40625 0zm11.212814 0l-2.8125 0l-4.53125 -8.9375l2.703125 0l3.25 6.71875l3.25 -6.71875l2.6874847 0l-4.5468597 8.9375zm15.988785 -0.4375q-1.109375 0.359375 -2.203125 0.515625q-1.09375 0.15625 -2.234375 0.15625q-1.46875 0 -2.609375 -0.3125q-1.140625 -0.3125 -1.921875 -0.90625q-0.78125 -0.609375 -1.203125 -1.46875q-0.40625 -0.859375 -0.40625 -1.953125q0 -1.015625 0.40625 -1.890625q0.421875 -0.875 1.171875 -1.515625q0.765625 -0.640625 1.84375 -1.0q1.078125 -0.359375 2.390625 -0.359375q1.21875 0 2.234375 0.328125q1.015625 0.328125 1.734375 0.984375q0.71875 0.640625 1.125 1.578125q0.40625 0.9375 0.40625 2.171875l0 0.609375l-8.8125 0q0.109375 0.421875 0.375 0.78125q0.28125 0.34375 0.734375 0.59375q0.46875 0.234375 1.140625 0.375q0.671875 0.140625 1.609375 0.140625q0.671875 0 1.296875 -0.078125q0.640625 -0.09375 1.1875 -0.21875q0.5625 -0.140625 1.0 -0.296875q0.453125 -0.171875 0.734375 -0.328125l0 2.09375zm-1.671875 -4.84375q-0.03125 -0.328125 -0.203125 -0.671875q-0.15625 -0.359375 -0.515625 -0.640625q-0.359375 -0.296875 -0.9375 -0.484375q-0.578125 -0.1875 -1.453125 -0.1875q-0.8125 0 -1.40625 0.203125q-0.59375 0.203125 -1.0 0.5q-0.390625 0.296875 -0.609375 0.640625q-0.21875 0.34375 -0.28125 0.640625l6.40625 0z" fill-rule="nonzero"/><path fill="#93c47d" d="m659.69543 161.36247l0 0c0 -1.9730377 1.5994873 -3.5724945 3.5725098 -3.5724945l163.40619 0c0.94750977 0 1.8561401 0.37638855 2.526123 1.0463562c0.6699829 0.6699829 1.0463867 1.578659 1.0463867 2.5261383l0 39.658173c0 1.9730377 -1.5994873 3.5724945 -3.5725098 3.5724945l-163.40619 0c-1.9730225 0 -3.5725098 -1.5994568 -3.5725098 -3.5724945z" fill-rule="evenodd"/><path stroke="#274e13" stroke-width="4.0" stroke-linejoin="round" stroke-linecap="butt" d="m659.69543 161.36247l0 0c0 -1.9730377 1.5994873 -3.5724945 3.5725098 -3.5724945l163.40619 0c0.94750977 0 1.8561401 0.37638855 2.526123 1.0463562c0.6699829 0.6699829 1.0463867 1.578659 1.0463867 2.5261383l0 39.658173c0 1.9730377 -1.5994873 3.5724945 -3.5725098 3.5724945l-163.40619 0c-1.9730225 0 -3.5725098 -1.5994568 -3.5725098 -3.5724945z" fill-rule="evenodd"/><path fill="#274e13" d="m718.35956 180.10094q0 0.671875 -0.203125 1.234375q-0.1875 0.5625 -0.625 0.96875q-0.4375 0.40625 -1.125 0.640625q-0.6875 0.21875 -1.671875 0.21875l-4.015625 0l0 2.828125l-2.40625 0l0 -8.9375l6.421875 0q0.984375 0 1.671875 0.21875q0.6875 0.21875 1.125 0.640625q0.4375 0.40625 0.625 0.96875q0.203125 0.546875 0.203125 1.21875zm-2.453125 0.046875q0 -0.3125 -0.09375 -0.53125q-0.078125 -0.234375 -0.28125 -0.375q-0.203125 -0.140625 -0.53125 -0.203125q-0.3125 -0.078125 -0.796875 -0.078125l-3.484375 0l0 2.296875l3.484375 0q0.484375 0 0.796875 -0.046875q0.328125 -0.0625 0.53125 -0.1875q0.203125 -0.140625 0.28125 -0.34375q0.09375 -0.21875 0.09375 -0.53125zm12.671082 -1.078125q-0.09375 -0.03125 -0.28125 -0.078125q-0.1875 -0.0625 -0.4375 -0.109375q-0.25 -0.0625 -0.546875 -0.09375q-0.296875 -0.046875 -0.609375 -0.046875q-0.640625 0 -1.203125 0.15625q-0.5625 0.15625 -1.0625 0.421875q-0.484375 0.265625 -0.90625 0.609375q-0.40625 0.328125 -0.765625 0.6875l0 5.375l-2.40625 0l0 -8.9375l2.40625 0l0 1.453125q0.4375 -0.328125 0.890625 -0.625q0.46875 -0.3125 0.953125 -0.546875q0.5 -0.234375 1.046875 -0.375q0.5625 -0.140625 1.1875 -0.140625q0.234375 0 0.46875 0.03125q0.25 0.015625 0.484375 0.046875q0.234375 0.03125 0.421875 0.078125q0.203125 0.03125 0.359375 0.078125l0 2.015625l0 0zm13.09906 2.453125q0 1.15625 -0.421875 2.046875q-0.421875 0.875 -1.21875 1.46875q-0.78125 0.59375 -1.90625 0.890625q-1.125 0.296875 -2.515625 0.296875q-1.40625 0 -2.53125 -0.296875q-1.125 -0.296875 -1.921875 -0.890625q-0.796875 -0.59375 -1.234375 -1.46875q-0.421875 -0.890625 -0.421875 -2.046875q0 -1.140625 0.421875 -2.015625q0.4375 -0.890625 1.234375 -1.484375q0.796875 -0.59375 1.921875 -0.890625q1.125 -0.3125 2.53125 -0.3125q1.390625 0 2.515625 0.3125q1.125 0.296875 1.90625 0.890625q0.796875 0.59375 1.21875 1.484375q0.421875 0.875 0.421875 2.015625zm-2.4375 0q0 -0.5 -0.171875 -1.0q-0.15625 -0.5 -0.5625 -0.890625q-0.40625 -0.390625 -1.109375 -0.640625q-0.703125 -0.25 -1.78125 -0.25q-0.734375 0 -1.296875 0.125q-0.546875 0.109375 -0.953125 0.3125q-0.390625 0.1875 -0.671875 0.46875q-0.265625 0.265625 -0.4375 0.578125q-0.15625 0.3125 -0.234375 0.640625q-0.0625 0.328125 -0.0625 0.65625q0 0.34375 0.0625 0.6875q0.078125 0.328125 0.234375 0.640625q0.171875 0.296875 0.4375 0.578125q0.28125 0.265625 0.671875 0.46875q0.40625 0.1875 0.953125 0.3125q0.5625 0.109375 1.296875 0.109375q1.078125 0 1.78125 -0.25q0.703125 -0.25 1.109375 -0.640625q0.40625 -0.40625 0.5625 -0.90625q0.171875 -0.5 0.171875 -1.0zm8.864441 -2.5625q-0.421875 0 -0.765625 0.03125q-0.328125 0.03125 -0.5625 0.15625q-0.234375 0.125 -0.359375 0.375q-0.125 0.234375 -0.125 0.65625l0 0.328125l6.75 0l0 1.90625l-6.75 0l0 3.578125l-2.40625 0l0 -6.015625q0 -0.6875 0.203125 -1.234375q0.203125 -0.546875 0.671875 -0.921875q0.484375 -0.375 1.28125 -0.5625q0.796875 -0.203125 1.984375 -0.203125l5.328125 0l0 1.90625l-5.25 0zm7.326233 7.03125l0 -8.9375l2.40625 0l0 8.9375l-2.40625 0zm7.6190186 -3.828125q0 0.5625 0.09375 0.921875q0.109375 0.34375 0.34375 0.5625q0.234375 0.203125 0.609375 0.28125q0.375 0.078125 0.921875 0.078125l4.578125 0l0 1.984375l-5.0625 0q-1.0625 0 -1.796875 -0.171875q-0.734375 -0.171875 -1.203125 -0.53125q-0.46875 -0.359375 -0.6875 -0.90625q-0.203125 -0.5625 -0.203125 -1.328125l0 -6.0l2.40625 0l0 5.109375zm18.463196 3.390625q-1.109375 0.359375 -2.203125 0.515625q-1.09375 0.15625 -2.234375 0.15625q-1.46875 0 -2.609375 -0.3125q-1.140625 -0.3125 -1.921875 -0.90625q-0.78125 -0.609375 -1.203125 -1.46875q-0.40625 -0.859375 -0.40625 -1.953125q0 -1.015625 0.40625 -1.890625q0.421875 -0.875 1.171875 -1.515625q0.765625 -0.640625 1.84375 -1.0q1.078125 -0.359375 2.390625 -0.359375q1.21875 0 2.234375 0.328125q1.015625 0.328125 1.734375 0.984375q0.71875 0.640625 1.125 1.578125q0.40625 0.9375 0.40625 2.171875l0 0.609375l-8.8125 0q0.109375 0.421875 0.375 0.78125q0.28125 0.34375 0.734375 0.59375q0.46875 0.234375 1.140625 0.375q0.671875 0.140625 1.609375 0.140625q0.671875 0 1.296875 -0.078125q0.640625 -0.09375 1.1875 -0.21875q0.5625 -0.140625 1.0 -0.296875q0.453125 -0.171875 0.734375 -0.328125l0 2.09375zm-1.671875 -4.84375q-0.03125 -0.328125 -0.203125 -0.671875q-0.15625 -0.359375 -0.515625 -0.640625q-0.359375 -0.296875 -0.9375 -0.484375q-0.578125 -0.1875 -1.453125 -0.1875q-0.8125 0 -1.40625 0.203125q-0.59375 0.203125 -1.0 0.5q-0.390625 0.296875 -0.609375 0.640625q-0.21875 0.34375 -0.28125 0.640625l6.40625 0z" fill-rule="nonzero"/><path fill="#93c47d" d="m659.69507 342.58984l0 0c0 -1.973053 1.5994873 -3.5725098 3.5725098 -3.5725098l163.40619 0c0.94750977 0 1.8562012 0.3764038 2.526123 1.0463562c0.6699829 0.6699829 1.0463867 1.5786743 1.0463867 2.5261536l0 39.658173c0 1.9730225 -1.5994873 3.5724792 -3.5725098 3.5724792l-163.40619 0c-1.9730225 0 -3.5725098 -1.5994568 -3.5725098 -3.5724792z" fill-rule="evenodd"/><path stroke="#274e13" stroke-width="4.0" stroke-linejoin="round" stroke-linecap="butt" d="m659.69507 342.58984l0 0c0 -1.973053 1.5994873 -3.5725098 3.5725098 -3.5725098l163.40619 0c0.94750977 0 1.8562012 0.3764038 2.526123 1.0463562c0.6699829 0.6699829 1.0463867 1.5786743 1.0463867 2.5261536l0 39.658173c0 1.9730225 -1.5994873 3.5724792 -3.5725098 3.5724792l-163.40619 0c-1.9730225 0 -3.5725098 -1.5994568 -3.5725098 -3.5724792z" fill-rule="evenodd"/><path fill="#274e13" d="m733.31976 364.2033q0 0.671875 -0.328125 1.265625q-0.328125 0.59375 -1.0 1.046875q-0.65625 0.4375 -1.65625 0.6875q-0.984375 0.25 -2.3125 0.25q-1.328125 0 -2.328125 -0.25q-1.0 -0.25 -1.671875 -0.6875q-0.65625 -0.453125 -1.0 -1.046875q-0.328125 -0.59375 -0.328125 -1.265625l0 -5.921875l2.40625 0l0 5.0625q0 0.453125 0.109375 0.859375q0.125 0.390625 0.4375 0.6875q0.3125 0.296875 0.875 0.484375q0.578125 0.171875 1.5 0.171875q0.90625 0 1.46875 -0.171875q0.5625 -0.1875 0.875 -0.484375q0.3125 -0.296875 0.421875 -0.6875q0.125 -0.40625 0.125 -0.859375l0 -5.0625l2.40625 0l0 5.921875l0 0zm10.9765625 -3.40625q-0.25 -0.125 -0.671875 -0.28125q-0.421875 -0.15625 -0.953125 -0.296875q-0.515625 -0.140625 -1.140625 -0.234375q-0.609375 -0.09375 -1.265625 -0.09375q-0.515625 0 -0.890625 0.03125q-0.359375 0.03125 -0.609375 0.09375q-0.25 0.046875 -0.40625 0.125q-0.140625 0.0625 -0.21875 0.140625q-0.078125 0.0625 -0.109375 0.140625q-0.015625 0.0625 -0.015625 0.125q0 0.1875 0.1875 0.34375q0.203125 0.140625 0.53125 0.25q0.34375 0.109375 0.796875 0.21875q0.453125 0.09375 0.953125 0.203125q0.5 0.109375 1.03125 0.234375q0.546875 0.125 1.046875 0.296875q0.515625 0.171875 0.953125 0.40625q0.453125 0.21875 0.78125 0.515625q0.34375 0.296875 0.53125 0.6875q0.203125 0.390625 0.203125 0.890625q0 0.640625 -0.234375 1.109375q-0.21875 0.46875 -0.609375 0.78125q-0.375 0.3125 -0.875 0.515625q-0.5 0.1875 -1.046875 0.28125q-0.546875 0.109375 -1.109375 0.140625q-0.5625 0.03125 -1.078125 0.03125q-1.328125 0 -2.453125 -0.21875q-1.125 -0.203125 -2.0 -0.53125l0 -2.140625q0.90625 0.5 2.046875 0.78125q1.140625 0.28125 2.4375 0.28125q0.765625 0 1.25 -0.078125q0.484375 -0.09375 0.75 -0.21875q0.28125 -0.125 0.375 -0.265625q0.109375 -0.15625 0.109375 -0.296875q0 -0.21875 -0.203125 -0.375q-0.1875 -0.15625 -0.53125 -0.28125q-0.34375 -0.125 -0.796875 -0.21875q-0.4375 -0.09375 -0.953125 -0.1875q-0.5 -0.109375 -1.03125 -0.21875q-0.53125 -0.125 -1.03125 -0.28125q-0.5 -0.171875 -0.953125 -0.375q-0.453125 -0.21875 -0.796875 -0.5q-0.328125 -0.296875 -0.53125 -0.671875q-0.1875 -0.390625 -0.1875 -0.890625q0 -0.59375 0.203125 -1.015625q0.203125 -0.4375 0.5625 -0.734375q0.359375 -0.296875 0.8125 -0.484375q0.46875 -0.203125 0.984375 -0.296875q0.515625 -0.109375 1.046875 -0.140625q0.53125 -0.046875 1.0 -0.046875q0.515625 0 1.0625 0.0625q0.5625 0.046875 1.09375 0.140625q0.53125 0.09375 1.03125 0.21875q0.5 0.125 0.921875 0.25l0 2.078125zm12.999512 5.984375q-1.109375 0.359375 -2.203125 0.515625q-1.09375 0.15625 -2.234375 0.15625q-1.46875 0 -2.609375 -0.3125q-1.140625 -0.3125 -1.921875 -0.90625q-0.78125 -0.609375 -1.203125 -1.46875q-0.40625 -0.859375 -0.40625 -1.953125q0 -1.015625 0.40625 -1.890625q0.421875 -0.875 1.171875 -1.515625q0.765625 -0.640625 1.84375 -1.0q1.078125 -0.359375 2.390625 -0.359375q1.21875 0 2.234375 0.328125q1.015625 0.328125 1.734375 0.984375q0.71875 0.640625 1.125 1.578125q0.40625 0.9375 0.40625 2.171875l0 0.609375l-8.8125 0q0.109375 0.421875 0.375 0.78125q0.28125 0.34375 0.734375 0.59375q0.46875 0.234375 1.140625 0.375q0.671875 0.140625 1.609375 0.140625q0.671875 0 1.296875 -0.078125q0.640625 -0.09375 1.1875 -0.21875q0.5625 -0.140625 1.0 -0.296875q0.453125 -0.171875 0.734375 -0.328125l0 2.09375zm-1.671875 -4.84375q-0.03125 -0.328125 -0.203125 -0.671875q-0.15625 -0.359375 -0.515625 -0.640625q-0.359375 -0.296875 -0.9375 -0.484375q-0.578125 -0.1875 -1.453125 -0.1875q-0.8125 0 -1.40625 0.203125q-0.59375 0.203125 -1.0 0.5q-0.390625 0.296875 -0.609375 0.640625q-0.21875 0.34375 -0.28125 0.640625l6.40625 0zm12.820496 -1.640625q-0.09375 -0.03125 -0.28125 -0.078125q-0.1875 -0.0625 -0.4375 -0.109375q-0.25 -0.0625 -0.546875 -0.09375q-0.296875 -0.046875 -0.609375 -0.046875q-0.640625 0 -1.203125 0.15625q-0.5625 0.15625 -1.0625 0.421875q-0.484375 0.265625 -0.90625 0.609375q-0.40625 0.328125 -0.765625 0.6875l0 5.375l-2.40625 0l0 -8.9375l2.40625 0l0 1.453125q0.4375 -0.328125 0.890625 -0.625q0.46875 -0.3125 0.953125 -0.546875q0.5 -0.234375 1.046875 -0.375q0.5625 -0.140625 1.1875 -0.140625q0.234375 0 0.46875 0.03125q0.25 0.015625 0.484375 0.046875q0.234375 0.03125 0.421875 0.078125q0.203125 0.03125 0.359375 0.078125l0 2.015625l0 0z" fill-rule="nonzero"/><path fill="#d9ead3" d="m398.16534 22.761147l0 0c0 -1.9730282 1.5994568 -3.572485 3.5724792 -3.572485l163.40622 0c0.94750977 0 1.8561401 0.37638664 2.526123 1.0463562c0.6699829 0.66997147 1.0463867 1.5786476 1.0463867 2.5261288l0 39.65818c0 1.9730301 -1.5994873 3.5724869 -3.5725098 3.5724869l-163.40622 0c-1.9730225 0 -3.5724792 -1.5994568 -3.5724792 -3.5724869z" fill-rule="evenodd"/><path stroke="#274e13" stroke-width="4.0" stroke-linejoin="round" stroke-linecap="butt" d="m398.16534 22.761147l0 0c0 -1.9730282 1.5994568 -3.572485 3.5724792 -3.572485l163.40622 0c0.94750977 0 1.8561401 0.37638664 2.526123 1.0463562c0.6699829 0.66997147 1.0463867 1.5786476 1.0463867 2.5261288l0 39.65818c0 1.9730301 -1.5994873 3.5724869 -3.5725098 3.5724869l-163.40622 0c-1.9730225 0 -3.5724792 -1.5994568 -3.5724792 -3.5724869z" fill-rule="evenodd"/><path fill="#274e13" d="m436.70062 41.49961q0 0.671875 -0.203125 1.234375q-0.1875 0.5625 -0.625 0.96875q-0.4375 0.40625 -1.125 0.640625q-0.6875 0.21875 -1.671875 0.21875l-4.015625 0l0 2.828125l-2.40625 0l0 -8.9375l6.421875 0q0.984375 0 1.671875 0.21875q0.6875 0.21875 1.125 0.640625q0.4375 0.40625 0.625 0.96875q0.203125 0.546875 0.203125 1.21875zm-2.453125 0.046875q0 -0.3125 -0.09375 -0.53125q-0.078125 -0.234375 -0.28125 -0.375q-0.203125 -0.140625 -0.53125 -0.203125q-0.3125 -0.078125 -0.796875 -0.078125l-3.484375 0l0 2.296875l3.484375 0q0.484375 0 0.796875 -0.046875q0.328125 -0.0625 0.53125 -0.1875q0.203125 -0.140625 0.28125 -0.34375q0.09375 -0.21875 0.09375 -0.53125zm12.030457 5.84375l0 -0.875q-0.46875 0.25 -1.0 0.453125q-0.53125 0.1875 -1.109375 0.328125q-0.5625 0.125 -1.171875 0.1875q-0.609375 0.078125 -1.21875 0.078125q-0.734375 0 -1.40625 -0.140625q-0.671875 -0.125 -1.203125 -0.421875q-0.515625 -0.3125 -0.828125 -0.8125q-0.3125 -0.5 -0.3125 -1.21875q0 -0.890625 0.484375 -1.484375q0.5 -0.609375 1.515625 -1.0q1.015625 -0.390625 2.5625 -0.59375q1.5625 -0.203125 3.6875 -0.328125l0 -0.1875q0 -0.21875 -0.125 -0.4375q-0.109375 -0.21875 -0.421875 -0.375q-0.3125 -0.171875 -0.859375 -0.265625q-0.53125 -0.109375 -1.359375 -0.109375q-0.65625 0 -1.296875 0.0625q-0.640625 0.0625 -1.234375 0.1875q-0.59375 0.109375 -1.125 0.265625q-0.53125 0.15625 -0.96875 0.328125l0 -2.140625q0.453125 -0.125 1.015625 -0.234375q0.5625 -0.109375 1.171875 -0.1875q0.625 -0.078125 1.25 -0.125q0.625 -0.0625 1.1875 -0.0625q1.125 0 2.078125 0.1875q0.953125 0.1875 1.640625 0.578125q0.6875 0.390625 1.0625 1.0q0.390625 0.59375 0.390625 1.421875l0 5.921875l-2.40625 0zm0 -4.078125q-1.390625 0.046875 -2.375 0.15625q-0.96875 0.09375 -1.609375 0.21875q-0.640625 0.125 -1.015625 0.28125q-0.359375 0.140625 -0.546875 0.296875q-0.1875 0.15625 -0.234375 0.3125q-0.03125 0.15625 -0.03125 0.296875q0 0.15625 0.078125 0.3125q0.09375 0.140625 0.296875 0.25q0.21875 0.109375 0.5625 0.171875q0.359375 0.0625 0.890625 0.0625q0.59375 0 1.15625 -0.09375q0.5625 -0.09375 1.0625 -0.25q0.515625 -0.15625 0.953125 -0.375q0.453125 -0.21875 0.8125 -0.46875l0 -1.171875zm13.396057 -2.84375q-0.09375 -0.03125 -0.28125 -0.078125q-0.1875 -0.0625 -0.4375 -0.109375q-0.25 -0.0625 -0.546875 -0.09375q-0.296875 -0.046875 -0.609375 -0.046875q-0.640625 0 -1.203125 0.15625q-0.5625 0.15625 -1.0625 0.421875q-0.484375 0.265625 -0.90625 0.609375q-0.40625 0.328125 -0.765625 0.6875l0 5.375l-2.40625 0l0 -8.9375l2.40625 0l0 1.453125q0.4375 -0.328125 0.890625 -0.625q0.46875 -0.3125 0.953125 -0.546875q0.5 -0.234375 1.046875 -0.375q0.5625 -0.140625 1.1875 -0.140625q0.234375 0 0.46875 0.03125q0.25 0.015625 0.484375 0.046875q0.234375 0.03125 0.421875 0.078125q0.203125 0.03125 0.359375 0.078125l0 2.015625l0 0zm6.53656 -0.078125l0 7.0l-2.40625 0l0 -7.0l-3.796875 0l0 -1.9375l10.0 0l0 1.9375l-3.796875 0zm5.4060974 7.0l0 -8.9375l2.40625 0l0 8.9375l-2.40625 0zm15.05658 -0.609375q-0.46875 0.1875 -0.953125 0.34375q-0.46875 0.15625 -0.984375 0.265625q-0.5 0.125 -1.0625 0.171875q-0.5625 0.0625 -1.203125 0.0625q-1.359375 0 -2.515625 -0.28125q-1.140625 -0.296875 -1.984375 -0.875q-0.828125 -0.59375 -1.296875 -1.46875q-0.453125 -0.890625 -0.453125 -2.078125q0 -1.171875 0.453125 -2.046875q0.46875 -0.890625 1.296875 -1.46875q0.84375 -0.59375 1.984375 -0.890625q1.15625 -0.296875 2.515625 -0.296875q0.640625 0 1.203125 0.0625q0.5625 0.0625 1.0625 0.171875q0.515625 0.109375 0.984375 0.265625q0.484375 0.15625 0.953125 0.359375l0 2.171875q-0.375 -0.203125 -0.78125 -0.390625q-0.40625 -0.203125 -0.90625 -0.359375q-0.484375 -0.171875 -1.078125 -0.265625q-0.59375 -0.109375 -1.34375 -0.109375q-1.140625 0 -1.890625 0.234375q-0.75 0.234375 -1.203125 0.625q-0.4375 0.390625 -0.625 0.90625q-0.1875 0.5 -0.1875 1.03125q0 0.359375 0.078125 0.71875q0.078125 0.34375 0.265625 0.65625q0.1875 0.296875 0.46875 0.5625q0.296875 0.265625 0.734375 0.453125q0.4375 0.1875 1.015625 0.296875q0.59375 0.109375 1.34375 0.109375q0.75 0 1.34375 -0.09375q0.59375 -0.109375 1.078125 -0.265625q0.5 -0.15625 0.90625 -0.34375q0.40625 -0.203125 0.78125 -0.40625l0 2.171875l0 0zm2.2608948 0.609375l0 -8.9375l2.40625 0l0 8.9375l-2.40625 0zm15.259674 -5.890625q0 0.671875 -0.203125 1.234375q-0.1875 0.5625 -0.625 0.96875q-0.4375 0.40625 -1.125 0.640625q-0.6875 0.21875 -1.671875 0.21875l-4.015625 0l0 2.828125l-2.40625 0l0 -8.9375l6.421875 0q0.984375 0 1.671875 0.21875q0.6875 0.21875 1.125 0.640625q0.4375 0.40625 0.625 0.96875q0.203125 0.546875 0.203125 1.21875zm-2.453125 0.046875q0 -0.3125 -0.09375 -0.53125q-0.078125 -0.234375 -0.28125 -0.375q-0.203125 -0.140625 -0.53125 -0.203125q-0.3125 -0.078125 -0.796875 -0.078125l-3.484375 0l0 2.296875l3.484375 0q0.484375 0 0.796875 -0.046875q0.328125 -0.0625 0.53125 -0.1875q0.203125 -0.140625 0.28125 -0.34375q0.09375 -0.21875 0.09375 -0.53125zm12.030487 5.84375l0 -0.875q-0.46875 0.25 -1.0 0.453125q-0.53125 0.1875 -1.1094055 0.328125q-0.5625 0.125 -1.171875 0.1875q-0.609375 0.078125 -1.21875 0.078125q-0.734375 0 -1.40625 -0.140625q-0.671875 -0.125 -1.203125 -0.421875q-0.515625 -0.3125 -0.828125 -0.8125q-0.3125 -0.5 -0.3125 -1.21875q0 -0.890625 0.484375 -1.484375q0.5 -0.609375 1.515625 -1.0q1.015625 -0.390625 2.5625 -0.59375q1.5625 -0.203125 3.6875305 -0.328125l0 -0.1875q0 -0.21875 -0.125 -0.4375q-0.109375 -0.21875 -0.421875 -0.375q-0.3125 -0.171875 -0.859375 -0.265625q-0.5312805 -0.109375 -1.3594055 -0.109375q-0.65625 0 -1.296875 0.0625q-0.640625 0.0625 -1.234375 0.1875q-0.59375 0.109375 -1.125 0.265625q-0.53125 0.15625 -0.96875 0.328125l0 -2.140625q0.453125 -0.125 1.015625 -0.234375q0.5625 -0.109375 1.171875 -0.1875q0.625 -0.078125 1.25 -0.125q0.625 -0.0625 1.1875 -0.0625q1.1250305 0 2.0781555 0.1875q0.953125 0.1875 1.640625 0.578125q0.6875 0.390625 1.0625 1.0q0.390625 0.59375 0.390625 1.421875l0 5.921875l-2.40625 0zm0 -4.078125q-1.390625 0.046875 -2.3750305 0.15625q-0.96875 0.09375 -1.609375 0.21875q-0.640625 0.125 -1.015625 0.28125q-0.359375 0.140625 -0.546875 0.296875q-0.1875 0.15625 -0.234375 0.3125q-0.03125 0.15625 -0.03125 0.296875q0 0.15625 0.078125 0.3125q0.09375 0.140625 0.296875 0.25q0.21875 0.109375 0.5625 0.171875q0.359375 0.0625 0.890625 0.0625q0.59375 0 1.15625 -0.09375q0.5625 -0.09375 1.0625305 -0.25q0.515625 -0.15625 0.953125 -0.375q0.453125 -0.21875 0.8125 -0.46875l0 -1.171875zm13.692932 4.078125l0 -5.015625q0 -0.5 -0.09375 -0.90625q-0.078125 -0.40625 -0.3125 -0.6875q-0.234375 -0.296875 -0.65625 -0.453125q-0.40625 -0.15625 -1.046875 -0.15625q-0.5 0 -1.046875 0.140625q-0.53125 0.125 -1.078125 0.34375q-0.53125 0.21875 -1.015625 0.515625q-0.484375 0.296875 -0.859375 0.609375l0 5.609375l-2.40625 0l0 -8.9375l2.40625 0l0 1.21875q0.453125 -0.265625 0.96875 -0.515625q0.515625 -0.265625 1.09375 -0.46875q0.578125 -0.203125 1.21875 -0.328125q0.65625 -0.140625 1.390625 -0.140625q0.90625 0 1.609375 0.21875q0.71875 0.21875 1.203125 0.625q0.5 0.390625 0.765625 0.96875q0.265625 0.5625 0.265625 1.265625l0 6.09375l-2.40625 0zm10.17041 -7.0l0 7.0l-2.40625 0l0 -7.0l-3.796875 0l0 -1.9375l10.0 0l0 1.9375l-3.796875 0z" fill-rule="nonzero"/><path fill="#93c47d" d="m398.1653 478.1105l0 0c0 -1.973053 1.5994568 -3.5725098 3.5724792 -3.5725098l163.40619 0c0.94750977 0 1.8562012 0.3764038 2.526123 1.0463562c0.6699829 0.6699829 1.0463867 1.5786438 1.0463867 2.5261536l0 39.658173c0 1.9730225 -1.5994263 3.5724487 -3.5725098 3.5724487l-163.40619 0c-1.9730225 0 -3.5724792 -1.5994263 -3.5724792 -3.5724487z" fill-rule="evenodd"/><path stroke="#274e13" stroke-width="4.0" stroke-linejoin="round" stroke-linecap="butt" d="m398.1653 478.1105l0 0c0 -1.973053 1.5994568 -3.5725098 3.5724792 -3.5725098l163.40619 0c0.94750977 0 1.8562012 0.3764038 2.526123 1.0463562c0.6699829 0.6699829 1.0463867 1.5786438 1.0463867 2.5261536l0 39.658173c0 1.9730225 -1.5994263 3.5724487 -3.5725098 3.5724487l-163.40619 0c-1.9730225 0 -3.5724792 -1.5994263 -3.5724792 -3.5724487z" fill-rule="evenodd"/><path fill="#274e13" d="m471.15005 496.84897q0 0.671875 -0.203125 1.234375q-0.1875 0.5625 -0.625 0.96875q-0.4375 0.40625 -1.125 0.640625q-0.6875 0.21875 -1.671875 0.21875l-4.015625 0l0 2.828125l-2.40625 0l0 -8.9375l6.421875 0q0.984375 0 1.671875 0.21875q0.6875 0.21875 1.125 0.640625q0.4375 0.40625 0.625 0.96875q0.203125 0.546875 0.203125 1.21875zm-2.453125 0.046875q0 -0.3125 -0.09375 -0.53125q-0.078125 -0.234375 -0.28125 -0.375q-0.203125 -0.140625 -0.53125 -0.203125q-0.3125 -0.078125 -0.796875 -0.078125l-3.484375 0l0 2.296875l3.484375 0q0.484375 0 0.796875 -0.046875q0.328125 -0.0625 0.53125 -0.1875q0.203125 -0.140625 0.28125 -0.34375q0.09375 -0.21875 0.09375 -0.53125zm16.014832 1.375q0 1.15625 -0.421875 2.046875q-0.421875 0.875 -1.21875 1.46875q-0.78125 0.59375 -1.90625 0.890625q-1.125 0.296875 -2.515625 0.296875q-1.40625 0 -2.53125 -0.296875q-1.125 -0.296875 -1.921875 -0.890625q-0.796875 -0.59375 -1.234375 -1.46875q-0.421875 -0.890625 -0.421875 -2.046875q0 -1.140625 0.421875 -2.015625q0.4375 -0.890625 1.234375 -1.484375q0.796875 -0.59375 1.921875 -0.890625q1.125 -0.3125 2.53125 -0.3125q1.390625 0 2.515625 0.3125q1.125 0.296875 1.90625 0.890625q0.796875 0.59375 1.21875 1.484375q0.421875 0.875 0.421875 2.015625zm-2.4375 0q0 -0.5 -0.171875 -1.0q-0.15625 -0.5 -0.5625 -0.890625q-0.40625 -0.390625 -1.109375 -0.640625q-0.703125 -0.25 -1.78125 -0.25q-0.734375 0 -1.296875 0.125q-0.546875 0.109375 -0.953125 0.3125q-0.390625 0.1875 -0.671875 0.46875q-0.265625 0.265625 -0.4375 0.578125q-0.15625 0.3125 -0.234375 0.640625q-0.0625 0.328125 -0.0625 0.65625q0 0.34375 0.0625 0.6875q0.078125 0.328125 0.234375 0.640625q0.171875 0.296875 0.4375 0.578125q0.28125 0.265625 0.671875 0.46875q0.40625 0.1875 0.953125 0.3125q0.5625 0.109375 1.296875 0.109375q1.078125 0 1.78125 -0.25q0.703125 -0.25 1.109375 -0.640625q0.40625 -0.40625 0.5625 -0.90625q0.171875 -0.5 0.171875 -1.0zm12.880035 -1.953125q-0.25 -0.125 -0.671875 -0.28125q-0.421875 -0.15625 -0.953125 -0.296875q-0.515625 -0.140625 -1.140625 -0.234375q-0.609375 -0.09375 -1.265625 -0.09375q-0.515625 0 -0.890625 0.03125q-0.359375 0.03125 -0.609375 0.09375q-0.25 0.046875 -0.40625 0.125q-0.140625 0.0625 -0.21875 0.140625q-0.078125 0.0625 -0.109375 0.140625q-0.015625 0.0625 -0.015625 0.125q0 0.1875 0.1875 0.34375q0.203125 0.140625 0.53125 0.25q0.34375 0.109375 0.796875 0.21875q0.453125 0.09375 0.953125 0.203125q0.5 0.109375 1.03125 0.234375q0.546875 0.125 1.046875 0.296875q0.515625 0.171875 0.953125 0.40625q0.453125 0.21875 0.78125 0.515625q0.34375 0.296875 0.53125 0.6875q0.203125 0.390625 0.203125 0.890625q0 0.640625 -0.234375 1.109375q-0.21875 0.46875 -0.609375 0.78125q-0.375 0.3125 -0.875 0.515625q-0.5 0.1875 -1.046875 0.28125q-0.546875 0.109375 -1.109375 0.140625q-0.5625 0.03125 -1.078125 0.03125q-1.328125 0 -2.453125 -0.21875q-1.125 -0.203125 -2.0 -0.53125l0 -2.140625q0.90625 0.5 2.046875 0.78125q1.140625 0.28125 2.4375 0.28125q0.765625 0 1.25 -0.078125q0.484375 -0.09375 0.75 -0.21875q0.28125 -0.125 0.375 -0.265625q0.109375 -0.15625 0.109375 -0.296875q0 -0.21875 -0.203125 -0.375q-0.1875 -0.15625 -0.53125 -0.28125q-0.34375 -0.125 -0.796875 -0.21875q-0.4375 -0.09375 -0.953125 -0.1875q-0.5 -0.109375 -1.03125 -0.21875q-0.53125 -0.125 -1.03125 -0.28125q-0.5 -0.171875 -0.953125 -0.375q-0.453125 -0.21875 -0.796875 -0.5q-0.328125 -0.296875 -0.53125 -0.671875q-0.1875 -0.390625 -0.1875 -0.890625q0 -0.59375 0.203125 -1.015625q0.203125 -0.4375 0.5625 -0.734375q0.359375 -0.296875 0.8125 -0.484375q0.46875 -0.203125 0.984375 -0.296875q0.515625 -0.109375 1.046875 -0.140625q0.53125 -0.046875 1.0 -0.046875q0.515625 0 1.0625 0.0625q0.5625 0.046875 1.09375 0.140625q0.53125 0.09375 1.03125 0.21875q0.5 0.125 0.921875 0.25l0 2.078125zm8.030762 -0.578125l0 7.0l-2.40625 0l0 -7.0l-3.796875 0l0 -1.9375l10.0 0l0 1.9375l-3.796875 0z" fill-rule="nonzero"/><path fill="#d9ead3" d="m528.93695 657.5792l0 0c0 -1.9730225 1.5994873 -3.5725098 3.5725098 -3.5725098l163.40619 0c0.94750977 0 1.8562012 0.3764038 2.526123 1.0463867c0.6699829 0.6699829 1.0463867 1.5786743 1.0463867 2.526123l0 39.658203c0 1.9730225 -1.5994873 3.5724487 -3.5725098 3.5724487l-163.40619 0c-1.9730225 0 -3.5725098 -1.5994263 -3.5725098 -3.5724487z" fill-rule="evenodd"/><path stroke="#274e13" stroke-width="4.0" stroke-linejoin="round" stroke-linecap="butt" d="m528.93695 657.5792l0 0c0 -1.9730225 1.5994873 -3.5725098 3.5725098 -3.5725098l163.40619 0c0.94750977 0 1.8562012 0.3764038 2.526123 1.0463867c0.6699829 0.6699829 1.0463867 1.5786743 1.0463867 2.526123l0 39.658203c0 1.9730225 -1.5994873 3.5724487 -3.5725098 3.5724487l-163.40619 0c-1.9730225 0 -3.5725098 -1.5994263 -3.5725098 -3.5724487z" fill-rule="evenodd"/><path fill="#274e13" d="m575.4235 681.59894q-0.46875 0.1875 -0.953125 0.34375q-0.46875 0.15625 -0.984375 0.265625q-0.5 0.125 -1.0625 0.171875q-0.5625 0.0625 -1.203125 0.0625q-1.359375 0 -2.515625 -0.28125q-1.140625 -0.296875 -1.984375 -0.875q-0.828125 -0.59375 -1.296875 -1.46875q-0.453125 -0.890625 -0.453125 -2.078125q0 -1.171875 0.453125 -2.046875q0.46875 -0.890625 1.296875 -1.46875q0.84375 -0.59375 1.984375 -0.890625q1.15625 -0.296875 2.515625 -0.296875q0.640625 0 1.203125 0.0625q0.5625 0.0625 1.0625 0.171875q0.515625 0.109375 0.984375 0.265625q0.484375 0.15625 0.953125 0.359375l0 2.171875q-0.375 -0.203125 -0.78125 -0.390625q-0.40625 -0.203125 -0.90625 -0.359375q-0.484375 -0.171875 -1.078125 -0.265625q-0.59375 -0.109375 -1.34375 -0.109375q-1.140625 0 -1.890625 0.234375q-0.75 0.234375 -1.203125 0.625q-0.4375 0.390625 -0.625 0.90625q-0.1875 0.5 -0.1875 1.03125q0 0.359375 0.078125 0.71875q0.078125 0.34375 0.265625 0.65625q0.1875 0.296875 0.46875 0.5625q0.296875 0.265625 0.734375 0.453125q0.4375 0.1875 1.015625 0.296875q0.59375 0.109375 1.34375 0.109375q0.75 0 1.34375 -0.09375q0.59375 -0.109375 1.078125 -0.265625q0.5 -0.15625 0.90625 -0.34375q0.40625 -0.203125 0.78125 -0.40625l0 2.171875l0 0zm13.823364 -3.859375q0 1.15625 -0.421875 2.046875q-0.421875 0.875 -1.21875 1.46875q-0.78125 0.59375 -1.90625 0.890625q-1.125 0.296875 -2.515625 0.296875q-1.40625 0 -2.53125 -0.296875q-1.125 -0.296875 -1.921875 -0.890625q-0.796875 -0.59375 -1.234375 -1.46875q-0.421875 -0.890625 -0.421875 -2.046875q0 -1.140625 0.421875 -2.015625q0.4375 -0.890625 1.234375 -1.484375q0.796875 -0.59375 1.921875 -0.890625q1.125 -0.3125 2.53125 -0.3125q1.390625 0 2.515625 0.3125q1.125 0.296875 1.90625 0.890625q0.796875 0.59375 1.21875 1.484375q0.421875 0.875 0.421875 2.015625zm-2.4375 0q0 -0.5 -0.171875 -1.0q-0.15625 -0.5 -0.5625 -0.890625q-0.40625 -0.390625 -1.109375 -0.640625q-0.703125 -0.25 -1.78125 -0.25q-0.734375 0 -1.296875 0.125q-0.546875 0.109375 -0.953125 0.3125q-0.390625 0.1875 -0.671875 0.46875q-0.265625 0.265625 -0.4375 0.578125q-0.15625 0.3125 -0.234375 0.640625q-0.0625 0.328125 -0.0625 0.65625q0 0.34375 0.0625 0.6875q0.078125 0.328125 0.234375 0.640625q0.171875 0.296875 0.4375 0.578125q0.28125 0.265625 0.671875 0.46875q0.40625 0.1875 0.953125 0.3125q0.5625 0.109375 1.296875 0.109375q1.078125 0 1.78125 -0.25q0.703125 -0.25 1.109375 -0.640625q0.40625 -0.40625 0.5625 -0.90625q0.171875 -0.5 0.171875 -1.0zm7.051941 -4.46875l0 0.984375q0.3125 -0.203125 0.6875 -0.421875q0.375 -0.21875 0.8125 -0.390625q0.453125 -0.171875 0.953125 -0.28125q0.5 -0.125 1.09375 -0.125q0.5625 0 0.984375 0.125q0.4375 0.125 0.75 0.3125q0.328125 0.1875 0.546875 0.4375q0.21875 0.234375 0.375 0.46875q0.46875 -0.3125 0.90625 -0.546875q0.453125 -0.25 0.90625 -0.421875q0.46875 -0.1875 0.9375 -0.28125q0.484375 -0.09375 0.984375 -0.09375q0.828125 0 1.46875 0.234375q0.65625 0.21875 1.09375 0.625q0.453125 0.390625 0.6875 0.9375q0.25 0.53125 0.25 1.140625l0 6.234375l-2.421875 0l0 -5.890625q0 -0.359375 -0.109375 -0.609375q-0.109375 -0.265625 -0.296875 -0.421875q-0.1875 -0.171875 -0.4375 -0.25q-0.25 -0.078125 -0.53125 -0.078125q-1.296875 0 -2.96875 1.171875q0.03125 0.109375 0.03125 0.265625q0.015625 0.140625 0.015625 0.296875l0 5.515625l-2.421875 0l0 -5.9375q0 -0.359375 -0.109375 -0.609375q-0.109375 -0.25 -0.296875 -0.40625q-0.1875 -0.15625 -0.4375 -0.21875q-0.25 -0.078125 -0.53125 -0.078125q-0.34375 0 -0.71875 0.109375q-0.375 0.09375 -0.765625 0.265625q-0.375 0.171875 -0.75 0.421875q-0.359375 0.234375 -0.6875 0.515625l0 5.9375l-2.40625 0l0 -8.9375l2.40625 0zm18.606018 0l0 0.984375q0.3125 -0.203125 0.6875 -0.421875q0.375 -0.21875 0.8125 -0.390625q0.453125 -0.171875 0.953125 -0.28125q0.5 -0.125 1.09375 -0.125q0.5625 0 0.984375 0.125q0.4375 0.125 0.75 0.3125q0.328125 0.1875 0.546875 0.4375q0.21875 0.234375 0.375 0.46875q0.46875 -0.3125 0.90625 -0.546875q0.453125 -0.25 0.90625 -0.421875q0.46875 -0.1875 0.9375 -0.28125q0.484375 -0.09375 0.984375 -0.09375q0.828125 0 1.46875 0.234375q0.65625 0.21875 1.09375 0.625q0.453125 0.390625 0.6875 0.9375q0.25 0.53125 0.25 1.140625l0 6.234375l-2.421875 0l0 -5.890625q0 -0.359375 -0.109375 -0.609375q-0.109375 -0.265625 -0.296875 -0.421875q-0.1875 -0.171875 -0.4375 -0.25q-0.25 -0.078125 -0.53125 -0.078125q-1.296875 0 -2.96875 1.171875q0.03125 0.109375 0.03125 0.265625q0.015625 0.140625 0.015625 0.296875l0 5.515625l-2.421875 0l0 -5.9375q0 -0.359375 -0.109375 -0.609375q-0.109375 -0.25 -0.296875 -0.40625q-0.1875 -0.15625 -0.4375 -0.21875q-0.25 -0.078125 -0.53125 -0.078125q-0.34375 0 -0.71875 0.109375q-0.375 0.09375 -0.765625 0.265625q-0.375 0.171875 -0.75 0.421875q-0.359375 0.234375 -0.6875 0.515625l0 5.9375l-2.40625 0l0 -8.9375l2.40625 0zm26.168518 8.5q-1.109375 0.359375 -2.203125 0.515625q-1.09375 0.15625 -2.234375 0.15625q-1.46875 0 -2.609375 -0.3125q-1.140625 -0.3125 -1.921875 -0.90625q-0.78125 -0.609375 -1.203125 -1.46875q-0.40625 -0.859375 -0.40625 -1.953125q0 -1.015625 0.40625 -1.890625q0.421875 -0.875 1.171875 -1.515625q0.765625 -0.640625 1.84375 -1.0q1.078125 -0.359375 2.390625 -0.359375q1.21875 0 2.234375 0.328125q1.015625 0.328125 1.734375 0.984375q0.71875 0.640625 1.125 1.578125q0.40625 0.9375 0.40625 2.171875l0 0.609375l-8.8125 0q0.109375 0.421875 0.375 0.78125q0.28125 0.34375 0.734375 0.59375q0.46875 0.234375 1.140625 0.375q0.671875 0.140625 1.609375 0.140625q0.671875 0 1.296875 -0.078125q0.640625 -0.09375 1.1875 -0.21875q0.5625 -0.140625 1.0 -0.296875q0.453125 -0.171875 0.734375 -0.328125l0 2.09375zm-1.671875 -4.84375q-0.03125 -0.328125 -0.203125 -0.671875q-0.15625 -0.359375 -0.515625 -0.640625q-0.359375 -0.296875 -0.9375 -0.484375q-0.578125 -0.1875 -1.453125 -0.1875q-0.8125 0 -1.40625 0.203125q-0.59375 0.203125 -1.0 0.5q-0.390625 0.296875 -0.609375 0.640625q-0.21875 0.34375 -0.28125 0.640625l6.40625 0zm13.117371 5.28125l0 -5.015625q0 -0.5 -0.09375 -0.90625q-0.078125 -0.40625 -0.3125 -0.6875q-0.234375 -0.296875 -0.65625 -0.453125q-0.40625 -0.15625 -1.046875 -0.15625q-0.5 0 -1.046875 0.140625q-0.53125 0.125 -1.078125 0.34375q-0.53125 0.21875 -1.015625 0.515625q-0.484375 0.296875 -0.859375 0.609375l0 5.609375l-2.40625 0l0 -8.9375l2.40625 0l0 1.21875q0.453125 -0.265625 0.96875 -0.515625q0.515625 -0.265625 1.09375 -0.46875q0.578125 -0.203125 1.21875 -0.328125q0.65625 -0.140625 1.390625 -0.140625q0.90625 0 1.609375 0.21875q0.71875 0.21875 1.203125 0.625q0.5 0.390625 0.765625 0.96875q0.265625 0.5625 0.265625 1.265625l0 6.09375l-2.40625 0zm10.17041 -7.0l0 7.0l-2.40625 0l0 -7.0l-3.796875 0l0 -1.9375l10.0 0l0 1.9375l-3.796875 0z" fill-rule="nonzero"/><path fill="#d9ead3" d="m263.96057 657.5792l0 0c0 -1.9730225 1.5994568 -3.5725098 3.5724792 -3.5725098l163.40622 0c0.94747925 0 1.8561707 0.3764038 2.526123 1.0463867c0.6699829 0.6699829 1.0463562 1.5786743 1.0463562 2.526123l0 39.658203c0 1.9730225 -1.5994568 3.5724487 -3.5724792 3.5724487l-163.40622 0c-1.9730225 0 -3.5724792 -1.5994263 -3.5724792 -3.5724487z" fill-rule="evenodd"/><path stroke="#274e13" stroke-width="4.0" stroke-linejoin="round" stroke-linecap="butt" d="m263.96057 657.5792l0 0c0 -1.9730225 1.5994568 -3.5725098 3.5724792 -3.5725098l163.40622 0c0.94747925 0 1.8561707 0.3764038 2.526123 1.0463867c0.6699829 0.6699829 1.0463562 1.5786743 1.0463562 2.526123l0 39.658203c0 1.9730225 -1.5994568 3.5724487 -3.5724792 3.5724487l-163.40622 0c-1.9730225 0 -3.5724792 -1.5994263 -3.5724792 -3.5724487z" fill-rule="evenodd"/><path fill="#274e13" d="m321.08383 680.5208l-4.984375 0l-0.828125 1.6875l-2.703125 0l4.6875 -8.9375l2.6875 0l4.6875 8.9375l-2.703125 0l-0.84375 -1.6875zm-4.109375 -1.75l3.265625 0l-1.625 -3.296875l-1.640625 3.296875zm17.33899 -3.484375q-0.09375 -0.03125 -0.28125 -0.078125q-0.1875 -0.0625 -0.4375 -0.109375q-0.25 -0.0625 -0.546875 -0.09375q-0.296875 -0.046875 -0.609375 -0.046875q-0.640625 0 -1.203125 0.15625q-0.5625 0.15625 -1.0625 0.421875q-0.484375 0.265625 -0.90625 0.609375q-0.40625 0.328125 -0.765625 0.6875l0 5.375l-2.40625 0l0 -8.9375l2.40625 0l0 1.453125q0.4375 -0.328125 0.890625 -0.625q0.46875 -0.3125 0.953125 -0.546875q0.5 -0.234375 1.046875 -0.375q0.5625 -0.140625 1.1875 -0.140625q0.234375 0 0.46875 0.03125q0.25 0.015625 0.484375 0.046875q0.234375 0.03125 0.421875 0.078125q0.203125 0.03125 0.359375 0.078125l0 2.015625l0 0zm6.53656 -0.078125l0 7.0l-2.40625 0l0 -7.0l-3.796875 0l0 -1.9375l10.0 0l0 1.9375l-3.796875 0zm5.4060974 7.0l0 -8.9375l2.40625 0l0 8.9375l-2.40625 0zm15.05658 -0.609375q-0.46875 0.1875 -0.953125 0.34375q-0.46875 0.15625 -0.984375 0.265625q-0.5 0.125 -1.0625 0.171875q-0.5625 0.0625 -1.203125 0.0625q-1.359375 0 -2.515625 -0.28125q-1.140625 -0.296875 -1.984375 -0.875q-0.828125 -0.59375 -1.296875 -1.46875q-0.453125 -0.890625 -0.453125 -2.078125q0 -1.171875 0.453125 -2.046875q0.46875 -0.890625 1.296875 -1.46875q0.84375 -0.59375 1.984375 -0.890625q1.15625 -0.296875 2.515625 -0.296875q0.640625 0 1.203125 0.0625q0.5625 0.0625 1.0625 0.171875q0.515625 0.109375 0.984375 0.265625q0.484375 0.15625 0.953125 0.359375l0 2.171875q-0.375 -0.203125 -0.78125 -0.390625q-0.40625 -0.203125 -0.90625 -0.359375q-0.484375 -0.171875 -1.078125 -0.265625q-0.59375 -0.109375 -1.34375 -0.109375q-1.140625 0 -1.890625 0.234375q-0.75 0.234375 -1.203125 0.625q-0.4375 0.390625 -0.625 0.90625q-0.1875 0.5 -0.1875 1.03125q0 0.359375 0.078125 0.71875q0.078125 0.34375 0.265625 0.65625q0.1875 0.296875 0.46875 0.5625q0.296875 0.265625 0.734375 0.453125q0.4375 0.1875 1.015625 0.296875q0.59375 0.109375 1.34375 0.109375q0.75 0 1.34375 -0.09375q0.59375 -0.109375 1.078125 -0.265625q0.5 -0.15625 0.90625 -0.34375q0.40625 -0.203125 0.78125 -0.40625l0 2.171875l0 0zm4.667145 -3.21875q0 0.5625 0.09375 0.921875q0.109375 0.34375 0.34375 0.5625q0.234375 0.203125 0.609375 0.28125q0.375 0.078125 0.921875 0.078125l4.578125 0l0 1.984375l-5.0625 0q-1.0625 0 -1.796875 -0.171875q-0.734375 -0.171875 -1.203125 -0.53125q-0.46875 -0.359375 -0.6875 -0.90625q-0.203125 -0.5625 -0.203125 -1.328125l0 -6.0l2.40625 0l0 5.109375zm18.463196 3.390625q-1.109375 0.359375 -2.203125 0.515625q-1.09375 0.15625 -2.234375 0.15625q-1.46875 0 -2.609375 -0.3125q-1.140625 -0.3125 -1.921875 -0.90625q-0.78125 -0.609375 -1.203125 -1.46875q-0.40625 -0.859375 -0.40625 -1.953125q0 -1.015625 0.40625 -1.890625q0.421875 -0.875 1.171875 -1.515625q0.765625 -0.640625 1.84375 -1.0q1.078125 -0.359375 2.390625 -0.359375q1.21875 0 2.234375 0.328125q1.015625 0.328125 1.734375 0.984375q0.71875 0.640625 1.125 1.578125q0.40625 0.9375 0.40625 2.171875l0 0.609375l-8.8125 0q0.109375 0.421875 0.375 0.78125q0.28125 0.34375 0.734375 0.59375q0.46875 0.234375 1.140625 0.375q0.671875 0.140625 1.609375 0.140625q0.671875 0 1.296875 -0.078125q0.640625 -0.09375 1.1875 -0.21875q0.5625 -0.140625 1.0 -0.296875q0.453125 -0.171875 0.734375 -0.328125l0 2.09375zm-1.671875 -4.84375q-0.03125 -0.328125 -0.203125 -0.671875q-0.15625 -0.359375 -0.515625 -0.640625q-0.359375 -0.296875 -0.9375 -0.484375q-0.578125 -0.1875 -1.453125 -0.1875q-0.8125 0 -1.40625 0.203125q-0.59375 0.203125 -1.0 0.5q-0.390625 0.296875 -0.609375 0.640625q-0.21875 0.34375 -0.28125 0.640625l6.40625 0z" fill-rule="nonzero"/><path fill="#000000" fill-opacity="0.0" d="m349.23618 654.0067l0 -66.33331l134.20471 0l0 -66.328064" fill-rule="evenodd"/><path stroke="#274e13" stroke-width="4.0" stroke-linejoin="round" stroke-linecap="butt" d="m349.23618 654.0067l0 -66.33331l134.20474 0l0 -42.328064" fill-rule="evenodd"/><path stroke="#274e13" stroke-width="4.0" stroke-linecap="butt" d="m490.04782 545.34534l-6.606903 -18.152405l-6.6069336 18.152405z" fill-rule="evenodd"/><path fill="#000000" fill-opacity="0.0" d="m614.2126 654.0067l0 -66.33331l-130.77167 0l0 -66.328064" fill-rule="evenodd"/><path stroke="#274e13" stroke-width="4.0" stroke-linejoin="round" stroke-linecap="butt" d="m614.2126 654.0067l0 -66.33331l-130.77167 0l0 -42.328064" fill-rule="evenodd"/><path stroke="#274e13" stroke-width="4.0" stroke-linecap="butt" d="m490.04782 545.34534l-6.606903 -18.152405l-6.6069336 18.152405z" fill-rule="evenodd"/><path fill="#000000" fill-opacity="0.0" d="m528.93695 677.4083l-47.212585 0l0 0.06298828l-47.212585 0" fill-rule="evenodd"/><path stroke="#274e13" stroke-width="4.0" stroke-linejoin="round" stroke-linecap="butt" d="m528.93695 677.4083l-47.212585 0l0 0.06298828l-24.699463 0" fill-rule="evenodd"/><path stroke="#274e13" stroke-width="4.0" stroke-linecap="butt" d="m457.02487 677.4713l-9.513092 -6.661194l-9.513123 6.661194l9.513123 6.661133z" fill-rule="evenodd"/><path fill="#d9ead3" d="m398.16534 114.560585l0 0c0 -1.9730301 1.5994568 -3.5724869 3.5724792 -3.5724869l163.40622 0c0.94750977 0 1.8561401 0.37638855 2.526123 1.0463562c0.6699829 0.6699753 1.0463867 1.5786514 1.0463867 2.5261307l0 39.65818c0 1.9730225 -1.5994873 3.5724792 -3.5725098 3.5724792l-163.40622 0c-1.9730225 0 -3.5724792 -1.5994568 -3.5724792 -3.5724792z" fill-rule="evenodd"/><path stroke="#274e13" stroke-width="4.0" stroke-linejoin="round" stroke-linecap="butt" d="m398.16534 114.560585l0 0c0 -1.9730301 1.5994568 -3.5724869 3.5724792 -3.5724869l163.40622 0c0.94750977 0 1.8561401 0.37638855 2.526123 1.0463562c0.6699829 0.6699753 1.0463867 1.5786514 1.0463867 2.5261307l0 39.65818c0 1.9730225 -1.5994873 3.5724792 -3.5725098 3.5724792l-163.40622 0c-1.9730225 0 -3.5724792 -1.5994568 -3.5724792 -3.5724792z" fill-rule="evenodd"/><path fill="#274e13" d="m459.92557 130.01779q1.3125 0 2.4375 0.234375q1.140625 0.21875 2.078125 0.5625l0 2.1875q-0.375 -0.203125 -0.84375 -0.390625q-0.453125 -0.203125 -1.0 -0.34375q-0.546875 -0.15625 -1.171875 -0.25q-0.625 -0.09375 -1.3125 -0.09375q-0.859375 0 -1.5 0.125q-0.640625 0.125 -1.09375 0.34375q-0.453125 0.203125 -0.75 0.484375q-0.296875 0.265625 -0.46875 0.578125q-0.15625 0.3125 -0.234375 0.640625q-0.0625 0.328125 -0.0625 0.625q0 0.265625 0.046875 0.578125q0.0625 0.3125 0.21875 0.625q0.15625 0.3125 0.421875 0.609375q0.28125 0.28125 0.71875 0.5q0.4375 0.21875 1.046875 0.359375q0.625 0.125 1.484375 0.125q0.421875 0 0.734375 -0.015625q0.328125 -0.03125 0.59375 -0.078125q0.265625 -0.046875 0.5 -0.109375q0.234375 -0.0625 0.46875 -0.140625l0 -1.078125l-2.703125 0l0 -1.953125l5.125 0l0 4.5625q-0.484375 0.171875 -1.078125 0.3125q-0.59375 0.125 -1.234375 0.21875q-0.625 0.09375 -1.265625 0.140625q-0.640625 0.046875 -1.203125 0.046875q-0.875 0 -1.6875 -0.125q-0.8125 -0.109375 -1.515625 -0.34375q-0.6875 -0.25 -1.265625 -0.625q-0.578125 -0.375 -0.984375 -0.890625q-0.40625 -0.53125 -0.640625 -1.203125q-0.21875 -0.671875 -0.21875 -1.515625q0 -0.828125 0.234375 -1.5q0.234375 -0.6875 0.65625 -1.203125q0.421875 -0.515625 1.0 -0.890625q0.59375 -0.390625 1.296875 -0.625q0.71875 -0.25 1.515625 -0.359375q0.8125 -0.125 1.65625 -0.125zm9.712341 0.234375l0 5.03125q0 0.5 0.078125 0.90625q0.078125 0.40625 0.3125 0.703125q0.234375 0.28125 0.640625 0.453125q0.40625 0.15625 1.0625 0.15625q0.5 0 1.03125 -0.140625q0.546875 -0.140625 1.078125 -0.359375q0.546875 -0.234375 1.03125 -0.53125q0.484375 -0.296875 0.859375 -0.609375l0 -5.609375l2.40625 0l0 8.9375l-2.40625 0l0 -1.21875q-0.453125 0.25 -0.96875 0.515625q-0.515625 0.265625 -1.09375 0.484375q-0.578125 0.203125 -1.234375 0.328125q-0.640625 0.140625 -1.359375 0.140625q-0.90625 0 -1.625 -0.21875q-0.71875 -0.21875 -1.21875 -0.609375q-0.484375 -0.40625 -0.75 -0.96875q-0.265625 -0.578125 -0.265625 -1.28125l0 -6.109375l2.421875 0zm21.279816 8.5q-1.109375 0.359375 -2.203125 0.515625q-1.09375 0.15625 -2.234375 0.15625q-1.46875 0 -2.609375 -0.3125q-1.140625 -0.3125 -1.921875 -0.90625q-0.78125 -0.609375 -1.203125 -1.46875q-0.40625 -0.859375 -0.40625 -1.953125q0 -1.015625 0.40625 -1.890625q0.421875 -0.875 1.171875 -1.515625q0.765625 -0.640625 1.84375 -1.0q1.078125 -0.359375 2.390625 -0.359375q1.21875 0 2.234375 0.328125q1.015625 0.328125 1.734375 0.984375q0.71875 0.640625 1.125 1.578125q0.40625 0.9375 0.40625 2.171875l0 0.609375l-8.8125 0q0.109375 0.421875 0.375 0.78125q0.28125 0.34375 0.734375 0.59375q0.46875 0.234375 1.140625 0.375q0.671875 0.140625 1.609375 0.140625q0.671875 0 1.296875 -0.078125q0.640625 -0.09375 1.1875 -0.21875q0.5625 -0.140625 1.0 -0.296875q0.453125 -0.171875 0.734375 -0.328125l0 2.09375zm-1.671875 -4.84375q-0.03125 -0.328125 -0.203125 -0.671875q-0.15625 -0.359375 -0.515625 -0.640625q-0.359375 -0.296875 -0.9375 -0.484375q-0.578125 -0.1875 -1.453125 -0.1875q-0.8125 0 -1.40625 0.203125q-0.59375 0.203125 -1.0 0.5q-0.390625 0.296875 -0.609375 0.640625q-0.21875 0.34375 -0.28125 0.640625l6.40625 0zm12.836121 -1.140625q-0.25 -0.125 -0.671875 -0.28125q-0.421875 -0.15625 -0.953125 -0.296875q-0.515625 -0.140625 -1.140625 -0.234375q-0.609375 -0.09375 -1.265625 -0.09375q-0.515625 0 -0.890625 0.03125q-0.359375 0.03125 -0.609375 0.09375q-0.25 0.046875 -0.40625 0.125q-0.140625 0.0625 -0.21875 0.140625q-0.078125 0.0625 -0.109375 0.140625q-0.015625 0.0625 -0.015625 0.125q0 0.1875 0.1875 0.34375q0.203125 0.140625 0.53125 0.25q0.34375 0.109375 0.796875 0.21875q0.453125 0.09375 0.953125 0.203125q0.5 0.109375 1.03125 0.234375q0.546875 0.125 1.046875 0.296875q0.515625 0.171875 0.953125 0.40625q0.453125 0.21875 0.78125 0.515625q0.34375 0.296875 0.53125 0.6875q0.203125 0.390625 0.203125 0.890625q0 0.640625 -0.234375 1.109375q-0.21875 0.46875 -0.609375 0.78125q-0.375 0.3125 -0.875 0.515625q-0.5 0.1875 -1.046875 0.28125q-0.546875 0.109375 -1.109375 0.140625q-0.5625 0.03125 -1.078125 0.03125q-1.328125 0 -2.453125 -0.21875q-1.125 -0.203125 -2.0 -0.53125l0 -2.140625q0.90625 0.5 2.046875 0.78125q1.140625 0.28125 2.4375 0.28125q0.765625 0 1.25 -0.078125q0.484375 -0.09375 0.75 -0.21875q0.28125 -0.125 0.375 -0.265625q0.109375 -0.15625 0.109375 -0.296875q0 -0.21875 -0.203125 -0.375q-0.1875 -0.15625 -0.53125 -0.28125q-0.34375 -0.125 -0.796875 -0.21875q-0.4375 -0.09375 -0.953125 -0.1875q-0.5 -0.109375 -1.03125 -0.21875q-0.53125 -0.125 -1.03125 -0.28125q-0.5 -0.171875 -0.953125 -0.375q-0.453125 -0.21875 -0.796875 -0.5q-0.328125 -0.296875 -0.53125 -0.671875q-0.1875 -0.390625 -0.1875 -0.890625q0 -0.59375 0.203125 -1.015625q0.203125 -0.4375 0.5625 -0.734375q0.359375 -0.296875 0.8125 -0.484375q0.46875 -0.203125 0.984375 -0.296875q0.515625 -0.109375 1.046875 -0.140625q0.53125 -0.046875 1.0 -0.046875q0.515625 0 1.0625 0.0625q0.5625 0.046875 1.09375 0.140625q0.53125 0.09375 1.03125 0.21875q0.5 0.125 0.921875 0.25l0 2.078125zm8.030762 -0.578125l0 7.0l-2.40625 0l0 -7.0l-3.796875 0l0 -1.9375l10.0 0l0 1.9375l-3.796875 0z" fill-rule="nonzero"/><path fill="#d9ead3" d="m398.16534 206.36003l0 0c0 -1.9730377 1.5994568 -3.5724945 3.5724792 -3.5724945l163.40622 0c0.94750977 0 1.8561401 0.37638855 2.526123 1.0463562c0.6699829 0.66996765 1.0463867 1.5786438 1.0463867 2.5261383l0 39.658173c0 1.9730225 -1.5994873 3.5724792 -3.5725098 3.5724792l-163.40622 0c-1.9730225 0 -3.5724792 -1.5994568 -3.5724792 -3.5724792z" fill-rule="evenodd"/><path stroke="#274e13" stroke-width="4.0" stroke-linejoin="round" stroke-linecap="butt" d="m398.16534 206.36003l0 0c0 -1.9730377 1.5994568 -3.5724945 3.5724792 -3.5724945l163.40622 0c0.94750977 0 1.8561401 0.37638855 2.526123 1.0463562c0.6699829 0.66996765 1.0463867 1.5786438 1.0463867 2.5261383l0 39.658173c0 1.9730225 -1.5994873 3.5724792 -3.5725098 3.5724792l-163.40622 0c-1.9730225 0 -3.5724792 -1.5994568 -3.5724792 -3.5724792z" fill-rule="evenodd"/><path fill="#274e13" d="m454.644 230.9891l0 -6.28125l-3.3125 6.28125l-2.328125 0l-3.3125 -6.28125l0 6.28125l-2.40625 0l0 -8.9375l3.265625 0l3.625 6.765625l3.609375 -6.765625l3.265625 0l0 8.9375l-2.40625 0zm15.178436 -0.4375q-1.109375 0.359375 -2.203125 0.515625q-1.09375 0.15625 -2.234375 0.15625q-1.46875 0 -2.609375 -0.3125q-1.140625 -0.3125 -1.921875 -0.90625q-0.78125 -0.609375 -1.203125 -1.46875q-0.40625 -0.859375 -0.40625 -1.953125q0 -1.015625 0.40625 -1.890625q0.421875 -0.875 1.171875 -1.515625q0.765625 -0.640625 1.84375 -1.0q1.078125 -0.359375 2.390625 -0.359375q1.21875 0 2.234375 0.328125q1.015625 0.328125 1.734375 0.984375q0.71875 0.640625 1.125 1.578125q0.40625 0.9375 0.40625 2.171875l0 0.609375l-8.8125 0q0.109375 0.421875 0.375 0.78125q0.28125 0.34375 0.734375 0.59375q0.46875 0.234375 1.140625 0.375q0.671875 0.140625 1.609375 0.140625q0.671875 0 1.296875 -0.078125q0.640625 -0.09375 1.1875 -0.21875q0.5625 -0.140625 1.0 -0.296875q0.453125 -0.171875 0.734375 -0.328125l0 2.09375zm-1.671875 -4.84375q-0.03125 -0.328125 -0.203125 -0.671875q-0.15625 -0.359375 -0.515625 -0.640625q-0.359375 -0.296875 -0.9375 -0.484375q-0.578125 -0.1875 -1.453125 -0.1875q-0.8125 0 -1.40625 0.203125q-0.59375 0.203125 -1.0 0.5q-0.390625 0.296875 -0.609375 0.640625q-0.21875 0.34375 -0.28125 0.640625l6.40625 0zm7.007965 -3.65625l0 0.984375q0.3125 -0.203125 0.6875 -0.421875q0.375 -0.21875 0.8125 -0.390625q0.453125 -0.171875 0.953125 -0.28125q0.5 -0.125 1.09375 -0.125q0.5625 0 0.984375 0.125q0.4375 0.125 0.75 0.3125q0.328125 0.1875 0.546875 0.4375q0.21875 0.234375 0.375 0.46875q0.46875 -0.3125 0.90625 -0.546875q0.453125 -0.25 0.90625 -0.421875q0.46875 -0.1875 0.9375 -0.28125q0.484375 -0.09375 0.984375 -0.09375q0.828125 0 1.46875 0.234375q0.65625 0.21875 1.09375 0.625q0.453125 0.390625 0.6875 0.9375q0.25 0.53125 0.25 1.140625l0 6.234375l-2.421875 0l0 -5.890625q0 -0.359375 -0.109375 -0.609375q-0.109375 -0.265625 -0.296875 -0.421875q-0.1875 -0.171875 -0.4375 -0.25q-0.25 -0.078125 -0.53125 -0.078125q-1.296875 0 -2.96875 1.171875q0.03125 0.109375 0.03125 0.265625q0.015625 0.140625 0.015625 0.296875l0 5.515625l-2.421875 0l0 -5.9375q0 -0.359375 -0.109375 -0.609375q-0.109375 -0.25 -0.296875 -0.40625q-0.1875 -0.15625 -0.4375 -0.21875q-0.25 -0.078125 -0.53125 -0.078125q-0.34375 0 -0.71875 0.109375q-0.375 0.09375 -0.765625 0.265625q-0.375 0.171875 -0.75 0.421875q-0.359375 0.234375 -0.6875 0.515625l0 5.9375l-2.40625 0l0 -8.9375l2.40625 0zm26.387268 6.46875q0 0.515625 -0.140625 0.90625q-0.125 0.390625 -0.375 0.671875q-0.25 0.265625 -0.59375 0.4375q-0.328125 0.171875 -0.75 0.28125q-0.40625 0.09375 -0.875 0.140625q-0.46875 0.03125 -0.96875 0.03125l-6.484375 0l0 -8.9375l6.359375 0q0.390625 0 0.765625 0.03125q0.390625 0.03125 0.734375 0.125q0.359375 0.078125 0.65625 0.234375q0.3125 0.15625 0.53125 0.421875q0.234375 0.25 0.359375 0.609375q0.125 0.34375 0.125 0.84375q0 0.859375 -0.4375 1.375q-0.421875 0.515625 -1.34375 0.6875q0.65625 0.046875 1.109375 0.203125q0.46875 0.140625 0.765625 0.40625q0.296875 0.265625 0.421875 0.65625q0.140625 0.375 0.140625 0.875zm-3.015625 -3.828125q0 -0.171875 -0.046875 -0.3125q-0.046875 -0.15625 -0.1875 -0.265625q-0.140625 -0.125 -0.375 -0.1875q-0.234375 -0.078125 -0.59375 -0.078125l-3.5625 0l0 1.671875l3.5625 0q0.359375 0 0.59375 -0.0625q0.234375 -0.0625 0.375 -0.171875q0.140625 -0.109375 0.1875 -0.265625q0.046875 -0.15625 0.046875 -0.328125zm0.5625 3.546875q0 -0.296875 -0.109375 -0.484375q-0.09375 -0.1875 -0.3125 -0.28125q-0.21875 -0.109375 -0.578125 -0.140625q-0.34375 -0.03125 -0.84375 -0.03125l-3.484375 0l0 1.890625l3.484375 0q0.5 0 0.84375 -0.03125q0.359375 -0.03125 0.578125 -0.125q0.21875 -0.109375 0.3125 -0.296875q0.109375 -0.1875 0.109375 -0.5zm14.631866 2.3125q-1.109375 0.359375 -2.2030945 0.515625q-1.09375 0.15625 -2.234375 0.15625q-1.46875 0 -2.609375 -0.3125q-1.140625 -0.3125 -1.921875 -0.90625q-0.78125 -0.609375 -1.203125 -1.46875q-0.40625 -0.859375 -0.40625 -1.953125q0 -1.015625 0.40625 -1.890625q0.421875 -0.875 1.171875 -1.515625q0.765625 -0.640625 1.84375 -1.0q1.078125 -0.359375 2.390625 -0.359375q1.21875 0 2.234375 0.328125q1.0155945 0.328125 1.7343445 0.984375q0.71875 0.640625 1.125 1.578125q0.40625 0.9375 0.40625 2.171875l0 0.609375l-8.8124695 0q0.109375 0.421875 0.375 0.78125q0.28125 0.34375 0.734375 0.59375q0.46875 0.234375 1.140625 0.375q0.671875 0.140625 1.609375 0.140625q0.671875 0 1.296875 -0.078125q0.640625 -0.09375 1.1875 -0.21875q0.5624695 -0.140625 0.9999695 -0.296875q0.453125 -0.171875 0.734375 -0.328125l0 2.09375zm-1.671875 -4.84375q-0.03125 -0.328125 -0.20309448 -0.671875q-0.15625 -0.359375 -0.515625 -0.640625q-0.359375 -0.296875 -0.9375 -0.484375q-0.578125 -0.1875 -1.453125 -0.1875q-0.8125 0 -1.40625 0.203125q-0.59375 0.203125 -1.0 0.5q-0.390625 0.296875 -0.609375 0.640625q-0.21875 0.34375 -0.28125 0.640625l6.4062195 0zm12.820496 -1.640625q-0.09375 -0.03125 -0.28125 -0.078125q-0.1875 -0.0625 -0.4375 -0.109375q-0.25 -0.0625 -0.546875 -0.09375q-0.296875 -0.046875 -0.609375 -0.046875q-0.640625 0 -1.203125 0.15625q-0.5625 0.15625 -1.0625 0.421875q-0.484375 0.265625 -0.90625 0.609375q-0.40625 0.328125 -0.765625 0.6875l0 5.375l-2.40625 0l0 -8.9375l2.40625 0l0 1.453125q0.4375 -0.328125 0.890625 -0.625q0.46875 -0.3125 0.953125 -0.546875q0.5 -0.234375 1.046875 -0.375q0.5625 -0.140625 1.1875 -0.140625q0.234375 0 0.46875 0.03125q0.25 0.015625 0.484375 0.046875q0.234375 0.03125 0.421875 0.078125q0.203125 0.03125 0.359375 0.078125l0 2.015625l0 0z" fill-rule="nonzero"/><path fill="#d9ead3" d="m398.16534 294.51044l0 0c0 -1.973053 1.5994568 -3.5725098 3.5724792 -3.5725098l163.40622 0c0.94750977 0 1.8561401 0.3764038 2.526123 1.0463562c0.6699829 0.6699829 1.0463867 1.5786743 1.0463867 2.5261536l0 39.658173c0 1.9730225 -1.5994873 3.5724792 -3.5725098 3.5724792l-163.40622 0c-1.9730225 0 -3.5724792 -1.5994568 -3.5724792 -3.5724792z" fill-rule="evenodd"/><path stroke="#274e13" stroke-width="4.0" stroke-linejoin="round" stroke-linecap="butt" d="m398.16534 294.51044l0 0c0 -1.973053 1.5994568 -3.5725098 3.5724792 -3.5725098l163.40622 0c0.94750977 0 1.8561401 0.3764038 2.526123 1.0463562c0.6699829 0.6699829 1.0463867 1.5786743 1.0463867 2.5261536l0 39.658173c0 1.9730225 -1.5994873 3.5724792 -3.5725098 3.5724792l-163.40622 0c-1.9730225 0 -3.5724792 -1.5994568 -3.5724792 -3.5724792z" fill-rule="evenodd"/><path fill="#274e13" d="m439.7898 319.13953l0 -6.28125l-3.3125 6.28125l-2.328125 0l-3.3125 -6.28125l0 6.28125l-2.40625 0l0 -8.9375l3.265625 0l3.625 6.765625l3.609375 -6.765625l3.265625 0l0 8.9375l-2.40625 0zm16.772186 -4.46875q0 1.15625 -0.421875 2.046875q-0.421875 0.875 -1.21875 1.46875q-0.78125 0.59375 -1.90625 0.890625q-1.125 0.296875 -2.515625 0.296875q-1.40625 0 -2.53125 -0.296875q-1.125 -0.296875 -1.921875 -0.890625q-0.796875 -0.59375 -1.234375 -1.46875q-0.421875 -0.890625 -0.421875 -2.046875q0 -1.140625 0.421875 -2.015625q0.4375 -0.890625 1.234375 -1.484375q0.796875 -0.59375 1.921875 -0.890625q1.125 -0.3125 2.53125 -0.3125q1.390625 0 2.515625 0.3125q1.125 0.296875 1.90625 0.890625q0.796875 0.59375 1.21875 1.484375q0.421875 0.875 0.421875 2.015625zm-2.4375 0q0 -0.5 -0.171875 -1.0q-0.15625 -0.5 -0.5625 -0.890625q-0.40625 -0.390625 -1.109375 -0.640625q-0.703125 -0.25 -1.78125 -0.25q-0.734375 0 -1.296875 0.125q-0.546875 0.109375 -0.953125 0.3125q-0.390625 0.1875 -0.671875 0.46875q-0.265625 0.265625 -0.4375 0.578125q-0.15625 0.3125 -0.234375 0.640625q-0.0625 0.328125 -0.0625 0.65625q0 0.34375 0.0625 0.6875q0.078125 0.328125 0.234375 0.640625q0.171875 0.296875 0.4375 0.578125q0.28125 0.265625 0.671875 0.46875q0.40625 0.1875 0.953125 0.3125q0.5625 0.109375 1.296875 0.109375q1.078125 0 1.78125 -0.25q0.703125 -0.25 1.109375 -0.640625q0.40625 -0.40625 0.5625 -0.90625q0.171875 -0.5 0.171875 -1.0zm15.598785 -0.015625q0 0.859375 -0.203125 1.53125q-0.1875 0.671875 -0.53125 1.171875q-0.328125 0.484375 -0.8125 0.828125q-0.484375 0.34375 -1.078125 0.5625q-0.578125 0.203125 -1.25 0.296875q-0.671875 0.09375 -1.40625 0.09375l-5.671875 0l0 -8.9375l5.65625 0q0.734375 0 1.40625 0.09375q0.6875 0.09375 1.265625 0.296875q0.59375 0.203125 1.078125 0.546875q0.484375 0.34375 0.8125 0.84375q0.34375 0.5 0.53125 1.171875q0.203125 0.65625 0.203125 1.5zm-2.4375 0q0 -0.640625 -0.171875 -1.109375q-0.15625 -0.484375 -0.53125 -0.78125q-0.375 -0.3125 -0.96875 -0.46875q-0.578125 -0.15625 -1.4375 -0.15625l-3.0 0l0 5.046875l3.0 0q0.859375 0 1.4375 -0.140625q0.59375 -0.15625 0.96875 -0.46875q0.375 -0.328125 0.53125 -0.796875q0.171875 -0.46875 0.171875 -1.125zm14.60553 4.046875q-1.109375 0.359375 -2.203125 0.515625q-1.09375 0.15625 -2.234375 0.15625q-1.46875 0 -2.609375 -0.3125q-1.140625 -0.3125 -1.921875 -0.90625q-0.78125 -0.609375 -1.203125 -1.46875q-0.40625 -0.859375 -0.40625 -1.953125q0 -1.015625 0.40625 -1.890625q0.421875 -0.875 1.171875 -1.515625q0.765625 -0.640625 1.84375 -1.0q1.078125 -0.359375 2.390625 -0.359375q1.21875 0 2.234375 0.328125q1.015625 0.328125 1.734375 0.984375q0.71875 0.640625 1.125 1.578125q0.40625 0.9375 0.40625 2.171875l0 0.609375l-8.8125 0q0.109375 0.421875 0.375 0.78125q0.28125 0.34375 0.734375 0.59375q0.46875 0.234375 1.140625 0.375q0.671875 0.140625 1.609375 0.140625q0.671875 0 1.296875 -0.078125q0.640625 -0.09375 1.1875 -0.21875q0.5625 -0.140625 1.0 -0.296875q0.453125 -0.171875 0.734375 -0.328125l0 2.09375zm-1.671875 -4.84375q-0.03125 -0.328125 -0.203125 -0.671875q-0.15625 -0.359375 -0.515625 -0.640625q-0.359375 -0.296875 -0.9375 -0.484375q-0.578125 -0.1875 -1.453125 -0.1875q-0.8125 0 -1.40625 0.203125q-0.59375 0.203125 -1.0 0.5q-0.390625 0.296875 -0.609375 0.640625q-0.21875 0.34375 -0.28125 0.640625l6.40625 0zm12.820496 -1.640625q-0.09375 -0.03125 -0.28125 -0.078125q-0.1875 -0.0625 -0.4375 -0.109375q-0.25 -0.0625 -0.546875 -0.09375q-0.296875 -0.046875 -0.609375 -0.046875q-0.640625 0 -1.203125 0.15625q-0.5625 0.15625 -1.0625 0.421875q-0.484375 0.265625 -0.90625 0.609375q-0.40625 0.328125 -0.765625 0.6875l0 5.375l-2.40625 0l0 -8.9375l2.40625 0l0 1.453125q0.4375 -0.328125 0.890625 -0.625q0.46875 -0.3125 0.953125 -0.546875q0.5 -0.234375 1.046875 -0.375q0.5625 -0.140625 1.1875 -0.140625q0.234375 0 0.46875 0.03125q0.25 0.015625 0.484375 0.046875q0.234375 0.03125 0.421875 0.078125q0.203125 0.03125 0.359375 0.078125l0 2.015625l0 0zm9.114685 6.921875l0 -0.875q-0.46875 0.25 -1.0 0.453125q-0.53125 0.1875 -1.109375 0.328125q-0.5625 0.125 -1.171875 0.1875q-0.609375 0.078125 -1.21875 0.078125q-0.734375 0 -1.40625 -0.140625q-0.671875 -0.125 -1.203125 -0.421875q-0.515625 -0.3125 -0.828125 -0.8125q-0.3125 -0.5 -0.3125 -1.21875q0 -0.890625 0.484375 -1.484375q0.5 -0.609375 1.515625 -1.0q1.015625 -0.390625 2.5625 -0.59375q1.5625 -0.203125 3.6875 -0.328125l0 -0.1875q0 -0.21875 -0.125 -0.4375q-0.109375 -0.21875 -0.421875 -0.375q-0.3125 -0.171875 -0.859375 -0.265625q-0.53125 -0.109375 -1.359375 -0.109375q-0.65625 0 -1.296875 0.0625q-0.640625 0.0625 -1.234375 0.1875q-0.59375 0.109375 -1.125 0.265625q-0.53125 0.15625 -0.96875 0.328125l0 -2.140625q0.453125 -0.125 1.015625 -0.234375q0.5625 -0.109375 1.171875 -0.1875q0.625 -0.078125 1.25 -0.125q0.625 -0.0625 1.1875 -0.0625q1.125 0 2.078125 0.1875q0.953125 0.1875 1.640625 0.578125q0.6875 0.390625 1.0625 1.0q0.390625 0.59375 0.390625 1.421875l0 5.921875l-2.40625 0zm0 -4.078125q-1.390625 0.046875 -2.375 0.15625q-0.96875 0.09375 -1.609375 0.21875q-0.640625 0.125 -1.015625 0.28125q-0.359375 0.140625 -0.546875 0.296875q-0.1875 0.15625 -0.234375 0.3125q-0.03125 0.15625 -0.03125 0.296875q0 0.15625 0.078125 0.3125q0.09375 0.140625 0.296875 0.25q0.21875 0.109375 0.5625 0.171875q0.359375 0.0625 0.890625 0.0625q0.59375 0 1.15625 -0.09375q0.5625 -0.09375 1.0625 -0.25q0.515625 -0.15625 0.953125 -0.375q0.453125 -0.21875 0.8125 -0.46875l0 -1.171875zm10.177307 -2.921875l0 7.0l-2.40625 0l0 -7.0l-3.796875 0l0 -1.9375l10.0 0l0 1.9375l-3.796875 0zm16.968567 2.53125q0 1.15625 -0.421875 2.046875q-0.421875 0.875 -1.21875 1.46875q-0.78125 0.59375 -1.90625 0.890625q-1.125 0.296875 -2.515625 0.296875q-1.40625 0 -2.53125 -0.296875q-1.125 -0.296875 -1.921875 -0.890625q-0.796875 -0.59375 -1.234375 -1.46875q-0.421875 -0.890625 -0.421875 -2.046875q0 -1.140625 0.421875 -2.015625q0.4375 -0.890625 1.234375 -1.484375q0.796875 -0.59375 1.921875 -0.890625q1.125 -0.3125 2.53125 -0.3125q1.390625 0 2.515625 0.3125q1.125 0.296875 1.90625 0.890625q0.796875 0.59375 1.21875 1.484375q0.421875 0.875 0.421875 2.015625zm-2.4375 0q0 -0.5 -0.171875 -1.0q-0.15625 -0.5 -0.5625 -0.890625q-0.40625 -0.390625 -1.109375 -0.640625q-0.703125 -0.25 -1.78125 -0.25q-0.734375 0 -1.296875 0.125q-0.546875 0.109375 -0.953125 0.3125q-0.390625 0.1875 -0.671875 0.46875q-0.265625 0.265625 -0.4375 0.578125q-0.15625 0.3125 -0.234375 0.640625q-0.0625 0.328125 -0.0625 0.65625q0 0.34375 0.0625 0.6875q0.078125 0.328125 0.234375 0.640625q0.171875 0.296875 0.4375 0.578125q0.28125 0.265625 0.671875 0.46875q0.40625 0.1875 0.953125 0.3125q0.5625 0.109375 1.296875 0.109375q1.078125 0 1.78125 -0.25q0.703125 -0.25 1.109375 -0.640625q0.40625 -0.40625 0.5625 -0.90625q0.171875 -0.5 0.171875 -1.0zm12.864441 -2.453125q-0.09375 -0.03125 -0.28125 -0.078125q-0.1875 -0.0625 -0.4375 -0.109375q-0.25 -0.0625 -0.546875 -0.09375q-0.296875 -0.046875 -0.609375 -0.046875q-0.640625 0 -1.203125 0.15625q-0.5625 0.15625 -1.0625 0.421875q-0.484375 0.265625 -0.90625 0.609375q-0.40625 0.328125 -0.765625 0.6875l0 5.375l-2.40625 0l0 -8.9375l2.40625 0l0 1.453125q0.4375 -0.328125 0.890625 -0.625q0.46875 -0.3125 0.953125 -0.546875q0.5 -0.234375 1.046875 -0.375q0.5625 -0.140625 1.1875 -0.140625q0.234375 0 0.46875 0.03125q0.25 0.015625 0.484375 0.046875q0.234375 0.03125 0.421875 0.078125q0.203125 0.03125 0.359375 0.078125l0 2.015625l0 0z" fill-rule="nonzero"/><path fill="#d9ead3" d="m398.16534 386.30988l0 0c0 -1.973053 1.5994568 -3.5725098 3.5724792 -3.5725098l163.40622 0c0.94750977 0 1.8561401 0.3764038 2.526123 1.0463562c0.6699829 0.6699829 1.0463867 1.5786743 1.0463867 2.5261536l0 39.658173c0 1.9730225 -1.5994873 3.5724792 -3.5725098 3.5724792l-163.40622 0c-1.9730225 0 -3.5724792 -1.5994568 -3.5724792 -3.5724792z" fill-rule="evenodd"/><path stroke="#274e13" stroke-width="4.0" stroke-linejoin="round" stroke-linecap="butt" d="m398.16534 386.30988l0 0c0 -1.973053 1.5994568 -3.5725098 3.5724792 -3.5725098l163.40622 0c0.94750977 0 1.8561401 0.3764038 2.526123 1.0463562c0.6699829 0.6699829 1.0463867 1.5786743 1.0463867 2.5261536l0 39.658173c0 1.9730225 -1.5994873 3.5724792 -3.5725098 3.5724792l-163.40622 0c-1.9730225 0 -3.5724792 -1.5994568 -3.5724792 -3.5724792z" fill-rule="evenodd"/><path fill="#274e13" d="m418.9356 409.25146l-4.984375 0l-0.828125 1.6875l-2.703125 0l4.6875 -8.9375l2.6875 0l4.6875 8.9375l-2.703125 0l-0.84375 -1.6875zm-4.109375 -1.75l3.265625 0l-1.625 -3.296875l-1.640625 3.296875zm20.073364 -1.046875q0 0.859375 -0.203125 1.53125q-0.1875 0.671875 -0.53125 1.171875q-0.328125 0.484375 -0.8125 0.828125q-0.484375 0.34375 -1.078125 0.5625q-0.578125 0.203125 -1.25 0.296875q-0.671875 0.09375 -1.40625 0.09375l-5.671875 0l0 -8.9375l5.65625 0q0.734375 0 1.40625 0.09375q0.6875 0.09375 1.265625 0.296875q0.59375 0.203125 1.078125 0.546875q0.484375 0.34375 0.8125 0.84375q0.34375 0.5 0.53125 1.171875q0.203125 0.65625 0.203125 1.5zm-2.4375 0q0 -0.640625 -0.171875 -1.109375q-0.15625 -0.484375 -0.53125 -0.78125q-0.375 -0.3125 -0.96875 -0.46875q-0.578125 -0.15625 -1.4375 -0.15625l-3.0 0l0 5.046875l3.0 0q0.859375 0 1.4375 -0.140625q0.59375 -0.15625 0.96875 -0.46875q0.375 -0.328125 0.53125 -0.796875q0.171875 -0.46875 0.171875 -1.125zm7.0430603 -4.453125l0 0.984375q0.3125 -0.203125 0.6875 -0.421875q0.375 -0.21875 0.8125 -0.390625q0.453125 -0.171875 0.953125 -0.28125q0.5 -0.125 1.09375 -0.125q0.5625 0 0.984375 0.125q0.4375 0.125 0.75 0.3125q0.328125 0.1875 0.546875 0.4375q0.21875 0.234375 0.375 0.46875q0.46875 -0.3125 0.90625 -0.546875q0.453125 -0.25 0.90625 -0.421875q0.46875 -0.1875 0.9375 -0.28125q0.484375 -0.09375 0.984375 -0.09375q0.828125 0 1.46875 0.234375q0.65625 0.21875 1.09375 0.625q0.453125 0.390625 0.6875 0.9375q0.25 0.53125 0.25 1.140625l0 6.234375l-2.421875 0l0 -5.890625q0 -0.359375 -0.109375 -0.609375q-0.109375 -0.265625 -0.296875 -0.421875q-0.1875 -0.171875 -0.4375 -0.25q-0.25 -0.078125 -0.53125 -0.078125q-1.296875 0 -2.96875 1.171875q0.03125 0.109375 0.03125 0.265625q0.015625 0.140625 0.015625 0.296875l0 5.515625l-2.421875 0l0 -5.9375q0 -0.359375 -0.109375 -0.609375q-0.109375 -0.25 -0.296875 -0.40625q-0.1875 -0.15625 -0.4375 -0.21875q-0.25 -0.078125 -0.53125 -0.078125q-0.34375 0 -0.71875 0.109375q-0.375 0.09375 -0.765625 0.265625q-0.375 0.171875 -0.75 0.421875q-0.359375 0.234375 -0.6875 0.515625l0 5.9375l-2.40625 0l0 -8.9375l2.40625 0zm16.199768 8.9375l0 -8.9375l2.40625 0l0 8.9375l-2.40625 0zm13.728424 0l0 -5.015625q0 -0.5 -0.09375 -0.90625q-0.078125 -0.40625 -0.3125 -0.6875q-0.234375 -0.296875 -0.65625 -0.453125q-0.40625 -0.15625 -1.046875 -0.15625q-0.5 0 -1.046875 0.140625q-0.53125 0.125 -1.078125 0.34375q-0.53125 0.21875 -1.015625 0.515625q-0.484375 0.296875 -0.859375 0.609375l0 5.609375l-2.40625 0l0 -8.9375l2.40625 0l0 1.21875q0.453125 -0.265625 0.96875 -0.515625q0.515625 -0.265625 1.09375 -0.46875q0.578125 -0.203125 1.21875 -0.328125q0.65625 -0.140625 1.390625 -0.140625q0.90625 0 1.609375 0.21875q0.71875 0.21875 1.203125 0.625q0.5 0.390625 0.765625 0.96875q0.265625 0.5625 0.265625 1.265625l0 6.09375l-2.40625 0zm5.1704407 0l0 -8.9375l2.40625 0l0 8.9375l-2.40625 0zm13.447205 -6.421875q-0.25 -0.125 -0.671875 -0.28125q-0.421875 -0.15625 -0.953125 -0.296875q-0.515625 -0.140625 -1.140625 -0.234375q-0.609375 -0.09375 -1.265625 -0.09375q-0.515625 0 -0.890625 0.03125q-0.359375 0.03125 -0.609375 0.09375q-0.25 0.046875 -0.40625 0.125q-0.140625 0.0625 -0.21875 0.140625q-0.078125 0.0625 -0.109375 0.140625q-0.015625 0.0625 -0.015625 0.125q0 0.1875 0.1875 0.34375q0.203125 0.140625 0.53125 0.25q0.34375 0.109375 0.796875 0.21875q0.453125 0.09375 0.953125 0.203125q0.5 0.109375 1.03125 0.234375q0.546875 0.125 1.046875 0.296875q0.515625 0.171875 0.953125 0.40625q0.453125 0.21875 0.78125 0.515625q0.34375 0.296875 0.53125 0.6875q0.203125 0.390625 0.203125 0.890625q0 0.640625 -0.234375 1.109375q-0.21875 0.46875 -0.609375 0.78125q-0.375 0.3125 -0.875 0.515625q-0.5 0.1875 -1.046875 0.28125q-0.546875 0.109375 -1.109375 0.140625q-0.5625 0.03125 -1.078125 0.03125q-1.328125 0 -2.453125 -0.21875q-1.125 -0.203125 -2.0 -0.53125l0 -2.140625q0.90625 0.5 2.046875 0.78125q1.140625 0.28125 2.4375 0.28125q0.765625 0 1.25 -0.078125q0.484375 -0.09375 0.75 -0.21875q0.28125 -0.125 0.375 -0.265625q0.109375 -0.15625 0.109375 -0.296875q0 -0.21875 -0.203125 -0.375q-0.1875 -0.15625 -0.53125 -0.28125q-0.34375 -0.125 -0.796875 -0.21875q-0.4375 -0.09375 -0.953125 -0.1875q-0.5 -0.109375 -1.03125 -0.21875q-0.53125 -0.125 -1.03125 -0.28125q-0.5 -0.171875 -0.953125 -0.375q-0.453125 -0.21875 -0.796875 -0.5q-0.328125 -0.296875 -0.53125 -0.671875q-0.1875 -0.390625 -0.1875 -0.890625q0 -0.59375 0.203125 -1.015625q0.203125 -0.4375 0.5625 -0.734375q0.359375 -0.296875 0.8125 -0.484375q0.46875 -0.203125 0.984375 -0.296875q0.515625 -0.109375 1.046875 -0.140625q0.53125 -0.046875 1.0 -0.046875q0.515625 0 1.0625 0.0625q0.5625 0.046875 1.09375 0.140625q0.53125 0.09375 1.03125 0.21875q0.5 0.125 0.921875 0.25l0 2.078125zm8.030762 -0.578125l0 7.0l-2.40625 0l0 -7.0l-3.796875 0l0 -1.9375l10.0 0l0 1.9375l-3.796875 0zm13.624847 0.078125q-0.09375 -0.03125 -0.28125 -0.078125q-0.1875 -0.0625 -0.4375 -0.109375q-0.25 -0.0625 -0.546875 -0.09375q-0.296875 -0.046875 -0.609375 -0.046875q-0.640625 0 -1.203125 0.15625q-0.5625 0.15625 -1.0625 0.421875q-0.484375 0.265625 -0.90625 0.609375q-0.40625 0.328125 -0.765625 0.6875l0 5.375l-2.40625 0l0 -8.9375l2.40625 0l0 1.453125q0.4375 -0.328125 0.890625 -0.625q0.46875 -0.3125 0.953125 -0.546875q0.5 -0.234375 1.046875 -0.375q0.5625 -0.140625 1.1875 -0.140625q0.234375 0 0.46875 0.03125q0.25 0.015625 0.484375 0.046875q0.234375 0.03125 0.421875 0.078125q0.203125 0.03125 0.359375 0.078125l0 2.015625l0 0zm9.114685 6.921875l0 -0.875q-0.46875 0.25 -1.0 0.453125q-0.53125 0.1875 -1.109375 0.328125q-0.5625 0.125 -1.171875 0.1875q-0.609375 0.078125 -1.21875 0.078125q-0.734375 0 -1.40625 -0.140625q-0.671875 -0.125 -1.203125 -0.421875q-0.515625 -0.3125 -0.828125 -0.8125q-0.3125 -0.5 -0.3125 -1.21875q0 -0.890625 0.484375 -1.484375q0.5 -0.609375 1.515625 -1.0q1.015625 -0.390625 2.5625 -0.59375q1.5625 -0.203125 3.6875 -0.328125l0 -0.1875q0 -0.21875 -0.125 -0.4375q-0.109375 -0.21875 -0.421875 -0.375q-0.3125 -0.171875 -0.859375 -0.265625q-0.53125 -0.109375 -1.359375 -0.109375q-0.65625 0 -1.296875 0.0625q-0.640625 0.0625 -1.234375 0.1875q-0.59375 0.109375 -1.125 0.265625q-0.53125 0.15625 -0.96875 0.328125l0 -2.140625q0.453125 -0.125 1.015625 -0.234375q0.5625 -0.109375 1.171875 -0.1875q0.625 -0.078125 1.25 -0.125q0.625 -0.0625 1.1875 -0.0625q1.125 0 2.078125 0.1875q0.953125 0.1875 1.640625 0.578125q0.6875 0.390625 1.0625 1.0q0.390625 0.59375 0.390625 1.421875l0 5.921875l-2.40625 0zm0 -4.078125q-1.390625 0.046875 -2.375 0.15625q-0.96875 0.09375 -1.609375 0.21875q-0.640625 0.125 -1.015625 0.28125q-0.359375 0.140625 -0.546875 0.296875q-0.1875 0.15625 -0.234375 0.3125q-0.03125 0.15625 -0.03125 0.296875q0 0.15625 0.078125 0.3125q0.09375 0.140625 0.296875 0.25q0.21875 0.109375 0.5625 0.171875q0.359375 0.0625 0.890625 0.0625q0.59375 0 1.15625 -0.09375q0.5625 -0.09375 1.0625 -0.25q0.515625 -0.15625 0.953125 -0.375q0.453125 -0.21875 0.8125 -0.46875l0 -1.171875zm10.177307 -2.921875l0 7.0l-2.40625 0l0 -7.0l-3.796875 0l0 -1.9375l10.0 0l0 1.9375l-3.796875 0zm16.968567 2.53125q0 1.15625 -0.421875 2.046875q-0.421875 0.875 -1.21875 1.46875q-0.78125 0.59375 -1.90625 0.890625q-1.125 0.296875 -2.515625 0.296875q-1.40625 0 -2.53125 -0.296875q-1.125 -0.296875 -1.921875 -0.890625q-0.796875 -0.59375 -1.234375 -1.46875q-0.421875 -0.890625 -0.421875 -2.046875q0 -1.140625 0.421875 -2.015625q0.4375 -0.890625 1.234375 -1.484375q0.796875 -0.59375 1.921875 -0.890625q1.125 -0.3125 2.53125 -0.3125q1.390625 0 2.515625 0.3125q1.125 0.296875 1.90625 0.890625q0.796875 0.59375 1.21875 1.484375q0.421875 0.875 0.421875 2.015625zm-2.4375 0q0 -0.5 -0.171875 -1.0q-0.15625 -0.5 -0.5625 -0.890625q-0.40625 -0.390625 -1.109375 -0.640625q-0.703125 -0.25 -1.78125 -0.25q-0.734375 0 -1.296875 0.125q-0.546875 0.109375 -0.953125 0.3125q-0.390625 0.1875 -0.671875 0.46875q-0.265625 0.265625 -0.4375 0.578125q-0.15625 0.3125 -0.234375 0.640625q-0.0625 0.328125 -0.0625 0.65625q0 0.34375 0.0625 0.6875q0.078125 0.328125 0.234375 0.640625q0.171875 0.296875 0.4375 0.578125q0.28125 0.265625 0.671875 0.46875q0.40625 0.1875 0.953125 0.3125q0.5625 0.109375 1.296875 0.109375q1.078125 0 1.78125 -0.25q0.703125 -0.25 1.109375 -0.640625q0.40625 -0.40625 0.5625 -0.90625q0.171875 -0.5 0.171875 -1.0zm12.864441 -2.453125q-0.09375 -0.03125 -0.28125 -0.078125q-0.1875 -0.0625 -0.4375 -0.109375q-0.25 -0.0625 -0.546875 -0.09375q-0.296875 -0.046875 -0.609375 -0.046875q-0.640625 0 -1.203125 0.15625q-0.5625 0.15625 -1.0625 0.421875q-0.484375 0.265625 -0.90625 0.609375q-0.40625 0.328125 -0.765625 0.6875l0 5.375l-2.40625 0l0 -8.9375l2.40625 0l0 1.453125q0.4375 -0.328125 0.890625 -0.625q0.46875 -0.3125 0.953125 -0.546875q0.5 -0.234375 1.046875 -0.375q0.5625 -0.140625 1.1875 -0.140625q0.234375 0 0.46875 0.03125q0.25 0.015625 0.484375 0.046875q0.234375 0.03125 0.421875 0.078125q0.203125 0.03125 0.359375 0.078125l0 2.015625l0 0z" fill-rule="nonzero"/><path fill="#000000" fill-opacity="0.0" d="m568.71655 42.590237l45.489685 0l0 138.61417l45.50244 0" fill-rule="evenodd"/><path stroke="#274e13" stroke-width="4.0" stroke-linejoin="round" stroke-linecap="butt" d="m568.71655 42.590237l45.489685 0l0 138.61418l21.502441 0" fill-rule="evenodd"/><path stroke="#274e13" stroke-width="4.0" stroke-linecap="butt" d="m635.7087 187.81134l18.152344 -6.6069183l-18.152344 -6.6069336z" fill-rule="evenodd"/><path fill="#000000" fill-opacity="0.0" d="m568.71655 134.38968l45.489685 0l0 46.803146l45.50244 0" fill-rule="evenodd"/><path stroke="#274e13" stroke-width="4.0" stroke-linejoin="round" stroke-linecap="butt" d="m568.71655 134.38968l45.489685 0l0 46.803146l21.502441 0" fill-rule="evenodd"/><path stroke="#274e13" stroke-width="4.0" stroke-linecap="butt" d="m635.7087 187.79976l18.152344 -6.6069336l-18.152344 -6.6069183z" fill-rule="evenodd"/><path fill="#000000" fill-opacity="0.0" d="m568.71655 226.18912l45.489685 0l0 -45.007874l45.50244 0" fill-rule="evenodd"/><path stroke="#274e13" stroke-width="4.0" stroke-linejoin="round" stroke-linecap="butt" d="m568.71655 226.18912l45.489685 0l0 -45.007874l21.502441 0" fill-rule="evenodd"/><path stroke="#274e13" stroke-width="4.0" stroke-linecap="butt" d="m635.7087 187.78818l18.152344 -6.6069336l-18.152344 -6.6069336z" fill-rule="evenodd"/><path fill="#000000" fill-opacity="0.0" d="m568.71655 314.3395l45.489685 0l0 -133.13385l45.50244 0" fill-rule="evenodd"/><path stroke="#274e13" stroke-width="4.0" stroke-linejoin="round" stroke-linecap="butt" d="m568.71655 314.3395l45.489685 0l0 -133.13387l21.502441 0" fill-rule="evenodd"/><path stroke="#274e13" stroke-width="4.0" stroke-linecap="butt" d="m635.7087 187.81258l18.152344 -6.6069336l-18.152344 -6.6069183z" fill-rule="evenodd"/><path fill="#000000" fill-opacity="0.0" d="m568.71655 406.13895l45.489685 0l0 -224.94487l45.50244 0" fill-rule="evenodd"/><path stroke="#274e13" stroke-width="4.0" stroke-linejoin="round" stroke-linecap="butt" d="m568.71655 406.13895l45.489685 0l0 -224.94489l21.502441 0" fill-rule="evenodd"/><path stroke="#274e13" stroke-width="4.0" stroke-linecap="butt" d="m635.7087 187.801l18.152344 -6.6069336l-18.152344 -6.6069336z" fill-rule="evenodd"/><path fill="#000000" fill-opacity="0.0" d="m568.71655 42.590237l45.489685 0l0 319.84253l45.50244 0" fill-rule="evenodd"/><path stroke="#274e13" stroke-width="4.0" stroke-linejoin="round" stroke-linecap="butt" d="m568.71655 42.590237l45.489685 0l0 319.8425l22.989319 0" fill-rule="evenodd"/><path stroke="#274e13" stroke-width="4.0" stroke-linecap="butt" d="m637.19556 362.43274l9.513123 6.6611633l9.513062 -6.6611633l-9.513062 -6.661133z" fill-rule="evenodd"/><path fill="#000000" fill-opacity="0.0" d="m568.71655 134.38968l45.489685 0l0 228.0315l45.50244 0" fill-rule="evenodd"/><path stroke="#274e13" stroke-width="4.0" stroke-linejoin="round" stroke-linecap="butt" d="m568.71655 134.38968l45.489685 0l0 228.0315l22.989319 0" fill-rule="evenodd"/><path stroke="#274e13" stroke-width="4.0" stroke-linecap="butt" d="m637.19556 362.42117l9.513123 6.6611633l9.513062 -6.6611633l-9.513062 -6.661133z" fill-rule="evenodd"/><path fill="#000000" fill-opacity="0.0" d="m568.71655 226.18912l45.489685 0l0 136.22046l45.50244 0" fill-rule="evenodd"/><path stroke="#274e13" stroke-width="4.0" stroke-linejoin="round" stroke-linecap="butt" d="m568.71655 226.18912l45.489685 0l0 136.22046l22.989319 0" fill-rule="evenodd"/><path stroke="#274e13" stroke-width="4.0" stroke-linecap="butt" d="m637.19556 362.40958l9.513123 6.661133l9.513062 -6.661133l-9.513062 -6.6611633z" fill-rule="evenodd"/><path fill="#000000" fill-opacity="0.0" d="m568.71655 314.3395l45.489685 0l0 48.094482l45.50244 0" fill-rule="evenodd"/><path stroke="#274e13" stroke-width="4.0" stroke-linejoin="round" stroke-linecap="butt" d="m568.71655 314.3395l45.489685 0l0 48.094513l22.989319 0" fill-rule="evenodd"/><path stroke="#274e13" stroke-width="4.0" stroke-linecap="butt" d="m637.19556 362.43402l9.513123 6.661133l9.513062 -6.661133l-9.513062 -6.6611633z" fill-rule="evenodd"/><path fill="#000000" fill-opacity="0.0" d="m568.71655 406.13895l45.489685 0l0 -43.716522l45.50244 0" fill-rule="evenodd"/><path stroke="#274e13" stroke-width="4.0" stroke-linejoin="round" stroke-linecap="butt" d="m568.71655 406.13895l45.489685 0l0 -43.716553l22.989319 0" fill-rule="evenodd"/><path stroke="#274e13" stroke-width="4.0" stroke-linecap="butt" d="m637.19556 362.4224l9.513123 6.6611633l9.513062 -6.6611633l-9.513062 -6.661133z" fill-rule="evenodd"/><path fill="#000000" fill-opacity="0.0" d="m398.16534 406.13895l-48.930115 0l0 -133.5748l-48.92816 0" fill-rule="evenodd"/><path stroke="#274e13" stroke-width="4.0" stroke-linejoin="round" stroke-linecap="butt" d="m398.16534 406.13895l-48.930115 0l0 -133.5748l-26.41504 0" fill-rule="evenodd"/><path stroke="#274e13" stroke-width="4.0" stroke-linecap="butt" d="m322.8202 272.56415l-9.513092 -6.6611633l-9.513123 6.6611633l9.513123 6.661133z" fill-rule="evenodd"/><path fill="#000000" fill-opacity="0.0" d="m398.16534 314.3395l-48.930115 0l0 -41.763763l-48.92816 0" fill-rule="evenodd"/><path stroke="#274e13" stroke-width="4.0" stroke-linejoin="round" stroke-linecap="butt" d="m398.16534 314.3395l-48.930115 0l0 -41.763794l-26.41504 0" fill-rule="evenodd"/><path stroke="#274e13" stroke-width="4.0" stroke-linecap="butt" d="m322.8202 272.5757l-9.513092 -6.661133l-9.513123 6.661133l9.513123 6.6611633z" fill-rule="evenodd"/><path fill="#000000" fill-opacity="0.0" d="m398.16534 226.18912l-48.930115 0l0 46.393707l-48.92816 0" fill-rule="evenodd"/><path stroke="#274e13" stroke-width="4.0" stroke-linejoin="round" stroke-linecap="butt" d="m398.16534 226.18912l-48.930115 0l0 46.393707l-26.41504 0" fill-rule="evenodd"/><path stroke="#274e13" stroke-width="4.0" stroke-linecap="butt" d="m322.8202 272.58282l-9.513092 -6.6611633l-9.513123 6.6611633l9.513123 6.661133z" fill-rule="evenodd"/><path fill="#000000" fill-opacity="0.0" d="m398.16534 134.38968l-48.930115 0l0 138.17322l-48.92816 0" fill-rule="evenodd"/><path stroke="#274e13" stroke-width="4.0" stroke-linejoin="round" stroke-linecap="butt" d="m398.16534 134.38968l-48.930115 0l0 138.17322l-26.41504 0" fill-rule="evenodd"/><path stroke="#274e13" stroke-width="4.0" stroke-linecap="butt" d="m322.8202 272.5629l-9.513092 -6.661133l-9.513123 6.661133l9.513123 6.6611633z" fill-rule="evenodd"/><path fill="#000000" fill-opacity="0.0" d="m568.7165 497.93958l176.25195 0l0 -112.12598" fill-rule="evenodd"/><path stroke="#274e13" stroke-width="4.0" stroke-linejoin="round" stroke-linecap="butt" d="m568.7165 497.9396l176.25195 0l0 -89.612885" fill-rule="evenodd"/><path stroke="#274e13" stroke-width="4.0" stroke-linecap="butt" d="m744.96844 408.32672l6.661133 -9.513123l-6.661133 -9.513092l-6.661194 9.513092z" fill-rule="evenodd"/><path fill="#000000" fill-opacity="0.0" d="m398.1653 497.93958l-183.14961 0l0 -201.98425" fill-rule="evenodd"/><path stroke="#274e13" stroke-width="4.0" stroke-linejoin="round" stroke-linecap="butt" d="m398.1653 497.9396l-183.14961 0l0 -179.47119" fill-rule="evenodd"/><path stroke="#274e13" stroke-width="4.0" stroke-linecap="butt" d="m215.0157 318.4684l6.661148 -9.513092l-6.661148 -9.513123l-6.661148 9.513123z" fill-rule="evenodd"/></g></svg>